<?xml version="1.0" encoding="UTF-8"?>
<svg id="Layer_1" data-name="Layer 1" xmlns="http://www.w3.org/2000/svg" viewBox="0 0 1468 1754">
  <defs>
    <style>
      .cls-1 {
        fill: #333;
      }

      .cls-1, .cls-2, .cls-3, .cls-4, .cls-5, .cls-6, .cls-7, .cls-8, .cls-9, .cls-10 {
        stroke-width: 0px;
      }

      .cls-2 {
        fill: #a68e7e;
      }

      .cls-3 {
        fill: #d4a172;
      }

      .cls-4, .cls-6 {
        fill: #000;
      }

      .cls-5 {
        fill: #c63144;
      }

      .cls-6 {
        opacity: .1;
      }

      .cls-7 {
        opacity: .13;
      }

      .cls-7, .cls-8 {
        fill: #fff;
      }

      .cls-9 {
        fill: #e6e6e6;
      }

      .cls-10 {
        fill: #9e6a38;
      }
    </style>
  </defs>
  <g>
    <path class="cls-10" d="M1220.56,1799.5H145.55c3.65-179.33,22.83-358.34,57.36-534.36,21.39-109,55.8-227.35,149.22-287.44l614.62-45.06c102.63,37.75,167.82,139.83,204.39,242.89,70.25,198.02,61.34,413.86,49.42,623.97Z"/>
    <path class="cls-4" d="M1220.56,1796c-9.64,0-19.27,0-28.91,0-25.99,0-51.99,0-77.98,0-38.69,0-77.38,0-116.07,0-46.88,0-93.76,0-140.64,0-51.7,0-103.4,0-155.09,0-51.83,0-103.66,0-155.49,0-48.66,0-97.32,0-145.98,0-40.84,0-81.69,0-122.53,0-29.57,0-59.14,0-88.72,0-9.13,0-18.27,0-27.4,0-4.71,0-9.66-.43-14.36,0-.6.06-1.22,0-1.83,0l3.5,3.5c2.62-126.62,12.87-253.09,30.91-378.45,8.59-59.69,18.51-119.35,31.11-178.34,10.09-47.26,22.74-94.47,42.8-138.58s45.35-81.29,81.7-110.28c4.65-3.71,9.46-7.21,14.39-10.53,1.21-.81,2.05-1.99,2.43-2.14.6-.24,1.6-.12,2.24-.16l11.41-.84c39.02-2.86,78.04-5.72,117.06-8.58,60.57-4.44,121.14-8.88,181.71-13.32,59.95-4.4,119.9-8.79,179.85-13.19,37.16-2.72,74.33-5.45,111.49-8.17,3.06-.22,6.36-.84,9.42-.69.88.04.99.19,1.77.35,5.7,1.2,11.63,4.65,16.91,7.11,5.76,2.69,11.43,5.61,16.97,8.73,41.88,23.58,76.2,58.61,103.42,97.9,28.39,40.98,49.57,86.6,65.75,133.65,19.07,55.44,32.17,112.81,40.69,170.78,17.41,118.41,15.98,238.74,10.52,357.99-1.32,28.93-2.9,57.85-4.54,86.76-.26,4.5,6.75,4.49,7,0,6.85-120.83,12.77-242.25,3.14-363.1-4.68-58.72-13.06-117.24-26.87-174.54-12.78-53-29.82-105.4-54.07-154.33-21.7-43.78-49.43-85.32-85.01-119.06-17.07-16.19-35.98-30.55-56.5-42.09-10.47-5.89-21.35-11.03-32.54-15.39-2.15-.84-4.05-1.73-6.3-1.78-8.65-.2-17.66,1.29-26.28,1.93-19.05,1.4-38.1,2.79-57.14,4.19-56.92,4.17-113.83,8.35-170.75,12.52-63.44,4.65-126.89,9.3-190.33,13.95-46.25,3.39-92.5,6.78-138.75,10.17-9.67.71-19.34,1.32-29,2.13-.49.04-1.03.01-1.51.11-3.42.71-6.78,3.75-9.62,5.75-4.91,3.45-9.69,7.1-14.34,10.9-17.7,14.51-33.12,31.6-46.43,50.18-27.85,38.86-46.15,83.9-59.77,129.49-15.43,51.67-25.13,104.97-34.38,158.02-21.79,125.04-35.93,251.42-42.3,378.18-1.55,30.91-2.64,61.84-3.28,92.79-.04,1.89,1.64,3.5,3.5,3.5,9.64,0,19.27,0,28.91,0,25.99,0,51.99,0,77.98,0,38.69,0,77.38,0,116.07,0,46.88,0,93.76,0,140.64,0,51.7,0,103.4,0,155.09,0,51.83,0,103.66,0,155.49,0,48.66,0,97.32,0,145.98,0,40.84,0,81.69,0,122.53,0,29.57,0,59.14,0,88.72,0,13.91,0,27.85.25,41.76,0,.61-.01,1.22,0,1.83,0,4.5,0,4.51-7,0-7Z"/>
  </g>
  <path class="cls-4" d="M998.78,1207.67c10.4,76.69,17.67,153.81,21.8,231.09,4.11,76.94,5.11,154.05,3.01,231.07-1.18,43.27-3.35,86.5-6.47,129.67-.32,4.49,6.68,4.47,7,0,5.58-77.18,8.09-154.58,7.44-231.96-.65-77.7-4.46-155.38-11.44-232.77-3.88-43.09-8.77-86.09-14.59-128.96-.6-4.44-7.35-2.55-6.75,1.86h0Z"/>
  <path class="cls-4" d="M290.43,1800.43c10.68-73.8,20.77-147.69,30.25-221.66,9.48-73.98,18.36-148.05,26.64-222.18,4.67-41.84,9.14-83.71,13.43-125.59.46-4.48-6.55-4.45-7,0-7.56,73.87-15.71,147.68-24.47,221.42-8.8,74.09-18.2,148.1-28.21,222.04-5.61,41.39-11.4,82.76-17.39,124.1-.64,4.41,6.11,6.31,6.75,1.86h0Z"/>
  <g>
    <g>
      <path class="cls-10" d="M988.91,374.45c16.53-28.18,31.95,36.12,46.63,6.93,22.84-45.41,51.48-67.64,114.06-93.18,52.92-21.59,95.97-31.78,153.11-32.53-84.43-52.75-191.74-67.33-287.19-39.01l-132.91,9.27,82.16,166.83,24.14-18.31Z"/>
      <path class="cls-4" d="M991.94,376.21c3.72-6.13,7.22-6.84,12.41-2.01,4.87,4.53,8.57,10.23,13.7,14.5,4.64,3.86,10.53,5.64,15.54,1.29,3.48-3.02,5.25-7.49,7.36-11.46,2.8-5.28,5.82-10.45,9.1-15.45,13.29-20.23,31.24-36.02,52.02-48.25,27.48-16.17,57.98-28.19,88.29-37.86,36.51-11.66,74.07-17.22,112.36-17.8,3.51-.05,4.71-4.69,1.77-6.52-69.63-43.27-154.21-61.25-235.48-50.77-10.18,1.31-20.29,3.03-30.32,5.22-7.8,1.7-15.58,4.63-23.36,6.08-4.8.89-10.06.7-14.92,1.04-22.38,1.56-44.76,3.12-67.14,4.68-16.88,1.18-33.76,2.35-50.64,3.53-2.74.19-4.24,2.8-3.02,5.27,9.27,18.83,18.55,37.66,27.82,56.5,14.71,29.86,29.41,59.73,44.12,89.59,3.41,6.92,6.81,13.83,10.22,20.75.77,1.56,3.36,2.34,4.79,1.26,8.05-6.1,16.09-12.21,24.14-18.31,3.54-2.69.06-8.77-3.53-6.04-8.05,6.1-16.09,12.21-24.14,18.31l4.79,1.26c-9.27-18.83-18.55-37.66-27.82-56.5-14.71-29.86-29.41-59.73-44.12-89.59-3.41-6.92-6.81-13.83-10.22-20.75l-3.02,5.27c36.75-2.56,73.49-5.12,110.24-7.69,6.8-.47,13.6-.95,20.39-1.42,2.27-.16,4.13-.56,6.39-1.21,9.56-2.74,19.25-5.04,29.02-6.93,40.59-7.83,82.71-8.25,123.5-1.57,45.6,7.47,89.53,23.69,128.78,48.08l1.77-6.52c-67.92,1.02-134.71,19.35-194.66,51.29-21.66,11.54-41.49,26.16-56.61,45.67-7.62,9.83-13.4,20.48-19.37,31.33-1.11,2.02-2.86,5.31-5.44,5.2-2.14-.09-4.46-2.55-5.93-4.01-5.34-5.27-9.56-12.23-16.16-16.09-7.82-4.58-14.49.24-18.66,7.12-2.34,3.86,3.71,7.38,6.04,3.53Z"/>
    </g>
    <g>
      <path class="cls-10" d="M1138.07,758.88c71.86-246.29,133.82-340.92,258.4-384.71-28.18-8.02-90.55-26.88-162.55-32.38-132.5-10.12-198.96-4.91-311.82,65.25-55.72,34.63-102.05,82.16-147.77,129.2l-96.08,131.58,166.21,142.44s304.08-56.77,307.41-67.94c3.32-11.18-13.79,16.55-13.79,16.55Z"/>
      <path class="cls-4" d="M1141.45,759.81c22.25-76.16,46.39-153.21,83.32-223.74,24.54-46.87,56.12-90.89,99.79-121.68,22.37-15.77,47.08-27.76,72.85-36.85,3.17-1.12,3.48-5.76,0-6.75-27.68-7.89-55.41-15.47-83.64-21.18-39.16-7.91-78.67-11.75-118.52-13.89-62.04-3.33-123.9-.9-182.62,21.24-70.29,26.5-132.32,70.66-186.34,122.22-14.7,14.03-28.99,28.49-43.19,43.04-5.01,5.14-10.15,10.01-14.37,15.8-9.29,12.73-18.59,25.46-27.88,38.19-21.43,29.35-42.86,58.69-64.29,88.04-.44.6-.88,1.21-1.32,1.81-.85,1.16-.54,3.31.55,4.24,28.71,24.61,57.42,49.21,86.14,73.82,19.19,16.44,38.38,32.89,57.57,49.33,5.85,5.01,11.7,10.03,17.55,15.04,2.45,2.1,5.05,5.32,8.43,5.14,2.72-.15,5.6-1.05,8.27-1.55,6.74-1.27,13.49-2.55,20.23-3.84,21.89-4.17,43.77-8.41,65.63-12.71,52.48-10.33,104.98-20.77,157.07-32.91,16.26-3.79,32.9-7.31,48.65-12.96,3.05-1.09,7.76-2.35,9.51-5.41,2.01-3.52.35-9.99-4.73-7.57-3.69,1.76-6.4,7.19-8.57,10.41s-4.38,6.65-6.47,10.03c-2.38,3.84,3.68,7.36,6.04,3.53,2.68-4.34,5.44-8.64,8.38-12.8.81-1.15,1.62-2.32,2.51-3.41.42-.5,1.51-1.95,1.44-1.63l-4.64-2.47c.02-.3-.02-.15-.12.43.59,1.74-1-.36.07.02,1.3.46-.32-.38.02-.15-.11-.07.89-.41-.21.07-.37.16-.73.39-1.09.58-1.42.75-1.09.54-2.74,1.15-3.05,1.13-6.15,2.11-9.27,3.04-22.75,6.78-46.08,11.75-69.25,16.84-59.67,13.11-119.64,24.88-179.64,36.4-14.34,2.75-28.69,5.49-43.04,8.18l3.41.9c-18.75-16.07-37.51-32.14-56.26-48.21-29.76-25.51-59.53-51.02-89.29-76.52-6.89-5.9-13.77-11.8-20.66-17.7l.55,4.24c18.26-25.01,36.52-50.02,54.78-75.03,11.04-15.12,22.07-30.23,33.11-45.35,2.56-3.5,4.95-7.23,7.72-10.57,2.8-3.38,6.21-6.4,9.28-9.56,6.88-7.06,13.79-14.11,20.74-21.1,28.37-28.49,57.76-56.26,90.32-79.96,29.48-21.46,61.69-40.09,94.93-55.09,27.36-12.35,56.1-21.44,85.74-26.38,30.28-5.05,61.11-5.8,91.74-4.93,38.76,1.1,77.76,3.64,116.04,9.91,32.19,5.27,63.9,12.92,95.26,21.81,4.87,1.38,9.73,2.79,14.6,4.17v-6.75c-47.43,16.74-89.83,43.47-123.13,81.42-41.31,47.07-68.24,105.27-90.6,163.2-18.03,46.7-33.09,94.51-47.12,142.54-1.27,4.33,5.49,6.18,6.75,1.86Z"/>
    </g>
    <g>
      <path class="cls-10" d="M561.47,707.24c32.68,24.53,72.6,36.98,111.65,49,33.39,10.28,66.98,20.6,101.64,25.02,47.81,6.1,96.3.81,144.03-5.86,30.39-4.25,60.7-9.05,90.91-14.41,29.8-5.29,59.6-11.14,88.31-20.73,42.65-14.25,82.12-36.47,121.29-58.55,28.86-16.27,58.2-32.92,80.86-57.09-52.82,156.59-167.59,291.35-313.79,368.4,0,0-256.94-30.81-267.54-39.8-10.6-9-198.24-148.22-196.53-150.72,1.72-2.5,39.17-95.26,39.17-95.26"/>
      <path class="cls-4" d="M559.71,710.27c39.28,29.19,88.17,42.22,134.38,56.03,25.55,7.63,51.39,14.52,77.86,18.1,26.75,3.62,53.82,3.7,80.72,1.86,54.21-3.7,108.35-12.98,161.78-22.57,26.61-4.77,53.19-10.1,79-18.26,24.43-7.73,47.94-18.15,70.77-29.73,25.1-12.73,49.69-26.61,74.03-40.74s45.86-28.28,64.4-47.86l-5.85-3.41c-19.41,57.32-47.08,111.7-81.61,161.39-34.53,49.68-75.94,94.58-122.63,133.05-23.32,19.21-48.01,36.77-73.81,52.5-6.35,3.87-12.77,7.63-19.25,11.28-3.13,1.76-6.28,3.49-9.44,5.2-1.03.56-3.43,2.22-3.87,2.3.45-.08.14.09.08.11-1.5.32-3.93-.47-5.43-.66-27.23-3.3-54.44-6.72-81.64-10.24-38.36-4.96-76.71-10.06-114.94-15.89-14.55-2.22-29.1-4.5-43.55-7.29-4.67-.9-9.35-1.84-13.96-3.04-1.46-.38-2.91-.79-4.33-1.28-.74-.26-1.65-.75-1.1-.36-19.17-13.65-37.57-28.63-56.38-42.78-30.94-23.28-61.89-46.53-92.67-70.02-11.62-8.87-23.25-17.75-34.69-26.85-3.25-2.59-6.52-5.17-9.66-7.89-.8-.69-1.62-1.74-2.51-2.29-.82-.51.21-.2-.02.05.05-.06-1.02,4.34.31,2.6,2.77-3.64,4.14-9.6,5.88-13.79,3.29-7.91,6.54-15.83,9.78-23.76,6.69-16.37,13.34-32.75,19.97-49.15,1.17-2.89,2.34-5.79,3.51-8.68,1.69-4.18-5.08-5.99-6.75-1.86-11.26,27.9-22.5,55.81-34.09,83.57-1.49,3.57-3.46,7.16-4.7,10.82-1.07,3.15.62,4.75,2.81,6.7,7.62,6.81,15.92,12.94,24,19.2,29.97,23.23,60.29,46,90.58,68.81,24.84,18.71,49.82,37.25,74.48,56.2,3.98,3.06,7.8,5.95,13.34,7.42,11.16,2.97,22.69,4.75,34.07,6.65,37.24,6.21,74.68,11.23,112.11,16.19,32.87,4.36,65.76,8.53,98.67,12.57,4.12.51,8.25,1.01,12.37,1.51,1.43.17,3.19.69,4.64.56,2.46-.21,5.08-2.23,7.21-3.38,3.61-1.95,7.21-3.94,10.78-5.96,6.7-3.79,13.33-7.7,19.88-11.73,12.89-7.92,25.5-16.31,37.79-25.12,49.67-35.6,94.34-78.08,132.44-125.85,38.15-47.83,69.71-100.74,93.31-157.19,5.74-13.73,10.98-27.66,15.76-41.75,1.13-3.33-3.51-5.88-5.85-3.41-16.35,17.27-35.96,30.72-56.3,42.84-21.1,12.57-42.65,24.53-64.31,36.11-22.53,12.04-45.54,23.29-69.54,32.12-24.64,9.07-50.21,15.18-75.96,20.19-52.63,10.25-106.05,18.98-159.42,24.22-26.54,2.6-53.3,3.83-79.93,1.89-26.49-1.93-52.42-7.56-77.96-14.66-26.79-7.45-53.58-15.52-79.81-24.76-25.19-8.88-49.7-19.86-71.23-35.86-3.62-2.69-7.11,3.38-3.53,6.04h0Z"/>
    </g>
    <g>
      <path class="cls-3" d="M1039.58,731.65c3.88-53.25,26.47-103.11,48.71-151.65,12.23-26.69,24.51-53.49,40.44-78.15,19.51-30.21,45.44-57.67,78.72-71.29-34.73-6.03-70.4-8.03-105.27-2.85-34.87,5.17-68.98,17.74-97.18,38.9,0,0-197.81,93.71-197.6,96.16s91.36,122.17,92.9,123.59c1.53,1.42,139.28,45.28,139.28,45.28Z"/>
      <path class="cls-4" d="M1043.08,731.65c3.7-48.04,22.41-93.05,42.1-136.46,18.82-41.48,37.16-84.95,67.53-119.55,15.43-17.57,33.95-32.66,55.67-41.71,2.76-1.15,3.84-6.09,0-6.75-52.61-9.02-107.9-9.1-158.23,10.6-11.39,4.46-22.42,9.83-32.84,16.23-5.04,3.1-9.69,7.11-14.85,9.94-4.65,2.55-9.68,4.59-14.47,6.87-47.11,22.38-94.2,44.79-141.05,67.7-9.24,4.52-18.48,9.05-27.65,13.71-4.32,2.19-9.36,4.15-13.24,7.11-4.55,3.47.13,8.1,2.52,11.43,6.01,8.39,12.21,16.64,18.39,24.9,16.89,22.58,33.93,45.05,51.04,67.47,5.64,7.39,11.28,14.79,16.98,22.13,2.54,3.27,4.1,4.48,8.05,5.87,43.48,15.29,87.73,28.61,131.64,42.61,1.32.42,2.64.84,3.96,1.26,4.3,1.37,6.14-5.39,1.86-6.75-41.11-13.09-82.24-26.13-123.2-39.69-3.65-1.21-7.31-2.42-10.95-3.68-1.07-.37-2.14-.75-3.21-1.13-.35-.12-.76-.37-1.13-.42-.65-.1.66.5.1.03,1.3,1.08.22.05-.06-.35-.58-.83-1.27-1.61-1.89-2.41-2.08-2.68-4.15-5.37-6.21-8.06-15.86-20.66-31.6-41.42-47.28-62.22-7.7-10.21-15.38-20.43-22.99-30.71-2.65-3.58-5.3-7.17-7.92-10.79-1.53-2.12-2.9-4.78-4.69-6.68-1.45-1.54.44-.88-.64,2.31-.29.86-1.48,1.06-.11.42,1.89-.88,3.69-2.08,5.53-3.05,7.24-3.81,14.58-7.43,21.92-11.06,46.73-23.09,93.83-45.44,140.9-67.84,7.22-3.44,14.44-6.87,21.67-10.3,5.95-2.82,10.55-6.2,16.18-9.88,43.84-28.66,97.37-37.2,148.9-33.83,13.78.9,27.48,2.64,41.09,4.97v-6.75c-40.49,16.87-69.25,51.64-90.52,88.91-12.38,21.69-22.66,44.48-33.03,67.16-10.12,22.13-20.1,44.36-28.36,67.27-9.45,26.21-16.38,53.29-18.53,81.13-.35,4.49,6.66,4.47,7,0Z"/>
    </g>
    <g>
      <path class="cls-10" d="M1010.14,128.62c21.83-3.91,44.15-8.1,73.19-2.89,29.77,5.35,52.4,18.03,66.58,27.68-20.28,1.02-40.8,2.21-60.17,8.3-28.56,8.98-53.2,28.39-71.31,52.23-23.5,30.95-28.03,55.65-37.71,80.88-27.09,70.62-104.56,149.58-162.04,136.52-49.01-11.14-84.93-89.51-73.3-153.8,14.7-81.32,101.29-117.07,121.58-125.45,22.76-9.4,11.02.18,143.18-23.47Z"/>
      <path class="cls-4" d="M1011.07,132c25.38-4.54,50.28-7.35,75.83-2.02,22.02,4.6,42.65,13.87,61.24,26.45l1.77-6.52c-23.99,1.21-48.4,2.78-70.88,11.96-19.39,7.92-36.71,20.36-51.11,35.51-15.11,15.9-27.06,34.62-35.51,54.83-7.19,17.21-11.81,35.38-19.54,52.38-16.32,35.92-41.4,68.9-71.88,93.97-23.98,19.72-58.66,39.59-90.28,26.57-32.47-13.37-51.12-50.89-59.1-83.03-9.04-36.41-5.8-75.16,13.93-107.56,15.77-25.91,39.71-45.93,65.67-61.11,13.6-7.95,28.16-15.39,43.14-20.45,8.37-2.82,15.27-2.96,24.19-3.91,25.9-2.76,51.67-6.71,77.36-11,11.75-1.96,23.48-4,35.2-6.1,4.43-.79,2.55-7.54-1.86-6.75-33.9,6.06-67.91,11.91-102.13,15.89-10.21,1.19-20.94,1.4-30.93,4-12.67,3.3-25.11,9.74-36.64,15.72-25.7,13.33-49.95,30.83-68.23,53.48-23.19,28.73-34.01,64.11-31.11,100.94,2.85,36.24,16.87,74.96,43.8,100.32,59.85,56.35,136.99-16.92,171.53-66.67,11.24-16.19,20.89-33.54,28.09-51.9,7.12-18.17,12.04-37.09,20.95-54.55,21.68-42.48,59.9-74.8,107.63-82.32,12.47-1.97,25.12-2.61,37.72-3.25,3.55-.18,4.66-4.57,1.77-6.52-19.55-13.22-41.5-22.94-64.7-27.52-26.24-5.17-51.73-2.28-77.76,2.38-4.43.79-2.55,7.54,1.86,6.75Z"/>
    </g>
    <g>
      <path class="cls-10" d="M623.36,131.77c-7.53-3.65-16.43-1.99-24.61-.21-38.77,8.43-78.51,18.28-110.44,41.83-31.26,23.06-52.6,57.93-63.76,95.14-11.16,37.21-12.71,76.74-9.62,115.47,0,0,142.13,22.29,144.43,19.53,2.3-2.76,47.83-124.59,47.7-128.47-.13-3.88,16.3-143.29,16.3-143.29Z"/>
      <path class="cls-4" d="M625.12,128.74c-11.6-5.03-23.86-1.36-35.62,1.27-12.24,2.74-24.45,5.68-36.47,9.26-23.5,6.99-46.65,16.45-66.48,31.09-38.96,28.75-62.12,74.09-71.17,120.92-5.9,30.53-6.35,61.79-3.95,92.71.11,1.4,1,3.13,2.57,3.37,28.7,4.5,57.43,8.84,86.2,12.94,16.49,2.35,33,4.81,49.58,6.42,3.04.3,7.31,1.29,10.33.27s4.15-5.79,5.25-8.48c13.6-33.34,25.9-67.3,38-101.21,2.76-7.74,6.57-15.8,7.32-24.05,1.2-13.19,2.82-26.35,4.32-39.51,3.8-33.33,7.7-66.65,11.62-99.97.08-.67.16-1.34.24-2.01.53-4.46-6.48-4.43-7,0-3.33,28.23-6.63,56.46-9.88,84.7-1.89,16.41-3.8,32.82-5.54,49.24-.33,3.09-.49,6.24-.88,9.32.19-1.5-.44,1.4-.66,2.12-.66,2.17-1.4,4.32-2.14,6.47-11.58,33.87-24.34,67.41-37.3,100.77-1.9,4.89-4.14,10.81-6,15.04-.2.46-.64,1.09-.71,1.59-.24,1.59,1.17-.17,1.41-.74.15-.35.7.18-.43-.02-.75-.13-1.62-.04-2.38-.08-13.96-.73-27.94-3.08-41.77-5-19.39-2.69-38.76-5.56-58.12-8.48-12.48-1.88-25.08-4.57-37.64-5.77-.65-.06-1.31-.2-1.96-.31l2.57,3.37c-3.89-50.07-.26-102.36,22.72-147.88,9.93-19.67,23.13-37.69,39.72-52.26,17.65-15.5,38.94-26.08,61.03-33.68,12.39-4.27,25.06-7.68,37.81-10.72,6.64-1.59,13.3-3.09,19.98-4.52,7.15-1.53,14.91-3.18,21.91-.14,4.09,1.77,7.66-4.26,3.53-6.04Z"/>
    </g>
    <g>
      <path class="cls-10" d="M762.28,122.58c7.89-26.77,25.4-50.58,48.59-66.1-12.63-.82-25.1,2.66-37.28,6.11-55.24,15.64-112.89,32.63-154.15,72.55-20.37,19.71-35.6,44-50.62,68.03l-28.57,64.32,83.17,44.99s123.23-51.7,123.61-56.72c.38-5.02,15.25-133.19,15.25-133.19Z"/>
      <path class="cls-4" d="M765.66,123.51c7.86-26.01,24.49-48.74,46.98-64.01,2.88-1.95,1.79-6.35-1.77-6.52-16.86-.81-33.18,4.77-49.18,9.36-14.45,4.15-28.86,8.44-43.08,13.32-28.05,9.62-55.72,21.54-79.9,38.93-25.51,18.35-44.58,42.63-61.53,68.82-4.63,7.15-9.67,14.15-13.14,21.95l-8.73,19.65c-6.03,13.57-12.06,27.14-18.09,40.71-.75,1.68-.55,3.81,1.26,4.79,23.39,12.65,46.78,25.31,70.18,37.96,4.77,2.58,11.94,8.83,17.53,6.61,10.28-4.08,20.4-8.63,30.56-13,28.6-12.28,58.01-23.91,85.41-38.76,2.46-1.33,6.3-2.94,7.77-5.5,1.17-2.03.96-5.45,1.21-7.71,1.49-13.47,3.04-26.93,4.59-40.39,3.26-28.44,7.63-56.96,9.87-85.5.04-.55.13-1.1.19-1.65.52-4.47-6.49-4.43-7,0-4.45,38.38-8.91,76.77-13.26,115.16-.43,3.82-.87,7.64-1.29,11.47-.17,1.51-1.14,4.62-.66,6.09.26.78.15-.51.34-1.05.5-1.47.41.02-.05-.08.12.03.31-.16-.39.27-.47.29-.93.61-1.41.9-2.75,1.69-5.65,3.14-8.53,4.6-20.45,10.31-41.58,19.33-62.58,28.45-16.06,6.98-32.71,14.11-48.47,20.73l2.7.35c-24.24-13.11-48.47-26.22-72.71-39.33-3.49-1.89-6.98-3.77-10.46-5.66l1.26,4.79c4.9-11.02,9.79-22.05,14.69-33.07,3.29-7.4,6.58-14.8,9.86-22.2,1.7-3.83,3.2-7.74,5.43-11.3,16.82-26.89,34.26-53.76,58.9-74.24,22.56-18.75,49.39-31.76,76.75-41.91,15.64-5.8,31.58-10.74,47.59-15.4,17.54-5.11,35.88-12.04,54.39-11.15l-1.77-6.52c-24.03,16.31-41.8,40.38-50.2,68.19-1.31,4.32,5.45,6.17,6.75,1.86Z"/>
    </g>
    <g>
      <path class="cls-3" d="M793.63,349.12c31.49-80.95,94.84-146.84,168.5-192.87,73.65-46.03,157.4-73.59,241.92-93.59-215.74-40.37-448.96,27.24-609.66,176.73l-84.9,149.81,304.33,23.24-20.19-63.32Z"/>
      <path class="cls-4" d="M797,350.05c23.18-59.16,63.53-110.15,111.89-150.86,52.69-44.36,114.93-75.99,179.49-99.2,38.12-13.71,77.19-24.6,116.59-33.95,3.24-.77,3.44-6.11,0-6.75-68.75-12.78-139.26-14.91-208.7-6.77-69.01,8.08-136.69,26.03-200.66,53.13-64.08,27.15-124.23,63.55-177.61,108.24-6.87,5.75-13.63,11.65-20.27,17.67-2.36,2.14-5.03,4.12-6.78,6.78-2.2,3.35-4,7.05-5.97,10.54-8.85,15.62-17.7,31.24-26.55,46.86-16.99,29.98-33.98,59.97-50.97,89.95l-.99,1.75c-1.38,2.44.41,5.07,3.02,5.27,34.37,2.63,68.75,5.25,103.12,7.88,54.56,4.17,109.12,8.33,163.68,12.5,12.51.96,25.02,1.91,37.53,2.87,2.23.17,4.03-2.38,3.37-4.43-6.73-21.11-13.46-42.21-20.19-63.32-1.36-4.28-8.12-2.45-6.75,1.86,6.73,21.11,13.46,42.21,20.19,63.32l3.37-4.43c-34.37-2.63-68.75-5.25-103.12-7.88-54.56-4.17-109.12-8.33-163.68-12.5-12.51-.96-25.02-1.91-37.53-2.87l3.02,5.27c14.4-25.4,28.79-50.8,43.19-76.21,9.69-17.11,19.39-34.22,29.08-51.32l9.47-16.72c2.15-3.8,3.41-5.62,6.68-8.61,51.12-46.76,109.56-85.32,172.22-114.81,62.45-29.4,129.21-49.7,197.41-60.28,68.57-10.64,138.91-11.32,207.58-1.16,8.35,1.23,16.67,2.64,24.97,4.18v-6.75c-71.03,16.85-141.38,38.89-206.19,72.97-58.38,30.7-111.99,71.65-153.1,123.55-22.24,28.07-40.5,59.01-53.58,92.38-1.64,4.2,5.12,6.02,6.75,1.86Z"/>
    </g>
    <g>
      <path class="cls-10" d="M856.7,372.33c12.36-7.12,23.59-15.86,35.19-24.17,11.23-8.05,31.8-19.47,41.17-25.13,18.54-11.22,21.44-16.05,42.68-23.38,13.83-4.77,32.54-4.95,40.31,7.44,3.17,5.06,3.6,11.31,3.76,17.28.8,28.98-2.51,57.9-5.81,86.71-5.44,47.48-23.74,125.07-39.2,170.29"/>
      <path class="cls-4" d="M858.47,375.35c14.53-8.48,27.4-19.31,41.49-28.43,11.11-7.2,22.72-13.57,34.06-20.38,10.11-6.07,19.49-13.51,30.18-18.56,11.85-5.59,26.89-10.93,39.89-6.07,7.8,2.92,11.26,9.52,11.98,17.55.82,9.12.44,18.49.1,27.63-.69,18.78-2.65,37.48-4.77,56.14-3.25,28.68-8.51,57.01-14.84,85.17-6.97,31-14.88,61.95-25.13,92.04-1.46,4.27,5.3,6.11,6.75,1.86,9.65-28.35,17.19-57.45,23.9-86.62,6.64-28.9,12.4-58.07,15.77-87.54,2.28-19.97,4.51-39.97,5.29-60.06.38-9.73.83-19.72-.14-29.43-.71-7.13-2.95-13.92-8.55-18.7-9.85-8.4-24.73-7.93-36.5-4.63-12.52,3.5-23.65,9.67-34.37,16.83-12.93,8.65-26.6,16.05-39.86,24.17-16.77,10.26-31.78,23.09-48.77,33.01-3.89,2.27-.37,8.32,3.53,6.04h0Z"/>
    </g>
    <g>
      <path class="cls-10" d="M634.01,344.06c-11.45-40.93-31.41-78.88-51.22-116.47-6.48-12.29-15.04-26.07-28.85-27.62-15.08-1.69-26.93,12.15-35.32,24.79-30.29,45.61-55.23,94.76-74.17,146.14"/>
      <path class="cls-4" d="M637.39,343.13c-7.46-26.38-18.31-51.61-30.39-76.18-6.13-12.46-12.56-24.76-19.03-37.04-4.96-9.41-10.02-19.49-18.32-26.46-7.38-6.19-17-8.85-26.35-5.82-10.34,3.35-18.04,11.95-24.27,20.44-15.47,21.09-28.46,44.58-40.58,67.71-14.26,27.22-26.7,55.36-37.36,84.18-1.57,4.23,5.2,6.06,6.75,1.86,17.42-47.09,39.83-92.27,66.84-134.59,9.46-14.82,27.26-45.09,48.59-29.91,8.05,5.73,12.86,15.16,17.36,23.67,6.05,11.46,12.07,22.93,17.86,34.52,12.8,25.62,24.34,51.88,32.15,79.48,1.22,4.33,7.98,2.49,6.75-1.86h0Z"/>
    </g>
    <g>
      <path class="cls-3" d="M912.14,421.04c12.25-16.53,32.09-27.18,52.63-28.28,1.04-.06,2.17-.06,3.01.54.85.61,1.2,1.69,1.5,2.69,2,6.67,4.01,13.43,4.21,20.39.17,5.71-.89,11.37-1.95,16.98-4.33,23.04-8.72,46.3-18.11,67.78l-90.28-20.53,48.97-59.58Z"/>
      <path class="cls-4" d="M915.17,422.81c7.54-9.92,17.89-17.69,29.53-22.17,5.69-2.19,11.71-3.67,17.78-4.21,4.25-.38,4.05,2.34,5.05,5.98,1.09,3.96,2.08,7.98,2.39,12.09.54,7.29-1.06,14.47-2.41,21.58s-2.78,14.57-4.37,21.81c-3.11,14.14-6.97,28.16-12.7,41.49l3.95-1.61c-26.27-5.97-52.54-11.95-78.81-17.92-3.82-.87-7.65-1.74-11.47-2.61l1.54,5.85c16.32-19.86,32.65-39.72,48.97-59.58,2.84-3.45-2.09-8.43-4.95-4.95-16.32,19.86-32.65,39.72-48.97,59.58-1.56,1.9-1.24,5.22,1.54,5.85,26.27,5.97,52.54,11.95,78.81,17.92,3.82.87,7.65,1.74,11.47,2.61,1.36.31,3.33-.17,3.95-1.61,6.97-16.2,11.41-33.17,14.94-50.42,1.74-8.53,3.56-17.1,4.82-25.71s.56-16.83-1.72-25.33c-1.89-7.05-2.84-12.67-11.28-12.1-6.96.46-13.9,2.04-20.41,4.53-13.51,5.16-24.98,13.89-33.71,25.38-2.72,3.59,3.35,7.08,6.04,3.53Z"/>
    </g>
    <g>
      <path class="cls-3" d="M496.15,355.58c13.28-20.84,28.22-40.62,44.65-59.09,2.71-3.05,5.9-6.28,9.97-6.5,4.75-.26,8.64,3.68,11.24,7.67,4.24,6.52,6.88,13.93,9.49,21.26,3.3,9.28,6.59,18.55,9.89,27.83l-20.66,38.91-64.57-30.08Z"/>
      <path class="cls-4" d="M499.17,357.35c12.99-20.3,27.45-39.68,43.48-57.69,4.18-4.69,8.83-8.62,14.2-2.99,3.99,4.18,6.41,10.29,8.47,15.58,4.55,11.67,8.48,23.62,12.68,35.43l.35-2.7c-6.89,12.97-13.77,25.94-20.66,38.91l4.79-1.26c-21.52-10.03-43.05-20.05-64.57-30.08-4.06-1.89-7.62,4.14-3.53,6.04,21.52,10.03,43.05,20.05,64.57,30.08,1.66.77,3.84.54,4.79-1.26,3.21-6.05,6.42-12.1,9.64-18.15,3.57-6.73,8.12-13.51,10.93-20.6.97-2.43-.02-4.16-.88-6.57-1.87-5.26-3.74-10.51-5.6-15.77-3.18-8.94-6-18.21-10.53-26.59-3.25-6.01-8.24-13.11-15.83-13.24-8.29-.15-13.83,8.19-18.63,13.79-14.47,16.88-27.72,34.79-39.71,53.52-2.44,3.81,3.62,7.32,6.04,3.53Z"/>
    </g>
    <g>
      <path class="cls-10" d="M246.42,687.47c2.06,3.54,5.88,5.64,9.58,7.37.68.31,1.35.62,2.03.92l10.97-2.4c-.78,1.88-1.59,3.81-2.4,5.8-8.71,21.2-18.72,47.89-19.35,69.64-.33,11.65,1.46,23.37,5.24,34.4,1.91,5.56,4.33,10.97,5.62,16.71,0,0,32.6,19.11,34.28,19.24.4.03,2.55-1.76,5.64-4.55l-1.13,132.89c61.36,221.94,444.71,154.21,575.38,107.1,18.88-6.81,75-39.66,91.48-51.12,38.63-26.86,66.34-79.03,81.04-123.73,18.25-55.49,25.18-119.94-5.82-169.44-9.95-15.89-23.35-29.4-33.29-45.3-20.67-33.06-24.79-73.39-31.96-111.73-12.42-66.28-38.41-134.25-88.54-177.85-6.23-5.42-12.83-10.46-19.83-15.07-63.28-41.73-144.67-40.2-220.39-36.75-58.09,2.65-116.5,5.6-173.25,18.29-35.06,7.83-70.19,19.89-98.35,41.87-2.97,2.32-5.86,4.74-8.67,7.29-35.38,32.08-54.72,83.5-65.28,130.27-.15.64-.29,1.28-.43,1.92l-1.07-.39c-4.82,5.27-7.92,11.93-7.62,19l14.2.81c-2.65.36-5.3.76-7.96,1.19-5.7.93-11.53,2.07-16.39,5.21-12.04,7.76-13.91,24.31-14.55,38.62l2.13.2c-17.27,16.5-20.69,42.49-22.86,66.33-.41,4.52-.75,9.37,1.53,13.28Z"/>
      <path class="cls-4" d="M243.4,689.23c3.05,4.52,9.9,10.31,15.68,9.87,3.58-.27,7.34-1.61,10.86-2.38l-4.31-4.31c-12.42,29.81-25.68,61.8-20.66,94.73,1.34,8.79,4.2,16.93,7.2,25.25,1.45,4.03,1.57,8.85,5.37,11.2,7.13,4.42,14.53,8.46,21.83,12.58,3.34,1.88,6.67,3.92,10.16,5.52,4.67,2.15,7.61-1.62,11-4.66l-5.97-2.47c-.36,42.87-.73,85.74-1.09,128.61-.08,9.13,3.83,17.92,7.22,26.3,5.36,13.27,12.13,25.92,20.45,37.57,15.95,22.33,36.9,40.54,60.52,54.4,51.92,30.46,113.83,40.99,173.2,43.79,63.26,2.98,126.94-3.05,189.18-14.22,26.97-4.84,53.76-10.73,80.21-17.89,21.48-5.81,43.5-11.78,63.52-21.65,16.54-8.15,32.59-17.34,48.46-26.72,13.45-7.95,27.24-15.87,39.27-25.91,34.58-28.89,56.9-72.1,71.31-114.08,15.22-44.35,23.82-94.47,10.91-140.47-3.16-11.27-7.71-22.21-13.6-32.33-6.45-11.06-14.67-20.92-22.56-30.96-8.08-10.28-15.41-20.94-20.92-32.84-5.38-11.61-9.16-23.93-12.18-36.35-6.04-24.82-9.02-50.25-14.52-75.19-5.09-23.1-11.83-45.89-20.82-67.78-17.98-43.78-45.34-84.49-85.22-111.05s-89.22-36.3-137-38.64c-24.77-1.21-49.58-.61-74.35.41-28.4,1.17-56.82,2.49-85.16,4.73-53.42,4.23-109.11,10.98-158.7,32.48-22.49,9.75-43.58,23.27-60.16,41.48-15.77,17.32-27.54,37.91-36.67,59.39-8.86,20.83-15.24,42.56-20.22,64.62l4.31-2.44-1.07-.39c-1.09-.39-2.65.03-3.41.9-5.36,6.15-8.69,13.21-8.64,21.48.01,1.97,1.6,3.39,3.5,3.5,4.73.27,9.47.54,14.2.81l-.93-6.87c-12.68,1.76-25.84,3.57-33.51,15.03-6.47,9.67-7.42,22.08-7.96,33.36-.1,2.01,1.69,3.33,3.5,3.5l2.13.2-2.47-5.97c-10.85,10.67-16.68,24.75-19.85,39.44-1.6,7.41-2.58,14.94-3.37,22.47s-2.11,15.01,1.34,21.94c2.01,4.03,8.05.49,6.04-3.53-2.95-5.93-.84-14.41-.13-20.72.74-6.65,1.72-13.28,3.2-19.81,2.96-13,8.08-25.36,17.71-34.84,2.32-2.28.41-5.71-2.47-5.97l-2.13-.2,3.5,3.5c.46-9.64,1.11-20.26,6.29-28.71,6.4-10.43,19.01-11.4,30.04-12.93,4.09-.57,2.79-6.66-.93-6.87-4.73-.27-9.47-.54-14.2-.81l3.5,3.5c-.04-6.37,2.44-11.77,6.59-16.53l-3.41.9,1.07.39c1.72.62,3.91-.7,4.31-2.44,10.02-44.44,25.92-90.87,58.23-124.27,36.03-37.24,89.2-51.33,138.65-59.88,54.58-9.43,110.33-11.72,165.59-13.74,47.98-1.76,97.25-1.73,143.7,11.96,22.88,6.74,44.7,17,63.84,31.3s35.09,32.2,48.16,51.98c25.67,38.86,40.42,84.11,49.23,129.56,4.8,24.79,7.91,49.97,15.02,74.26,3.27,11.19,7.4,22.17,12.8,32.52,5.82,11.14,13.41,21.08,21.19,30.9,8.01,10.12,15.99,20.24,22.02,31.7,5.42,10.3,9.32,21.32,11.93,32.65,5.37,23.33,5.15,47.78,1.75,71.38-6.5,45.27-23.24,90.52-48.49,128.7-11.99,18.12-26.51,35.22-44.5,47.62-12.79,8.82-26.36,16.62-39.82,24.36-14.46,8.32-29.07,16.67-44.29,23.55-8.98,4.06-18.58,6.91-27.97,9.84-23.36,7.3-47.11,13.34-71.01,18.55-59.11,12.88-119.58,20.78-180.1,21.78-60.02.99-122.07-4.43-178.36-26.61-51.21-20.18-94.72-56.78-114.33-109.26-1.84-4.92-4.56-10.76-5.2-15.88-.27-2.16.04-4.56.06-6.73.09-10.42.18-20.85.27-31.27.23-26.47.45-52.95.68-79.42.04-5.04.09-10.08.13-15.12.03-3.17-3.78-4.44-5.97-2.47-.97.87-2.69,1.88-3.39,2.98-.95,1.47-.59-.52.12.64,1.67,2.71,1.04-.37.74-.05.06-.07-1.33-.68-2.27-1.18-3.22-1.7-6.39-3.51-9.57-5.31-6.54-3.71-13.19-7.32-19.57-11.29-.37-.23-1.4-.57-1.63-.96.8,1.33.72-.58.59-1.39-.29-1.95-1.31-4-1.99-5.84-2.72-7.43-5.28-14.78-6.6-22.61-2.61-15.46-.73-30.66,3.33-45.69,4.36-16.14,10.61-31.72,17.03-47.13,1.11-2.65-2-4.81-4.31-4.31-3.66.8-7.31,1.6-10.97,2.4l2.7.35c-3.85-1.73-7.92-3.41-10.36-7.03s-8.57-.22-6.04,3.53Z"/>
    </g>
    <g>
      <path class="cls-5" d="M374.32,1005.19c.53,1.19.86,1.89.86,1.89,6.4,6.29,13.6,11.77,21.37,16.26,8.31,4.79,17.21,8.44,26.08,12.07,32.05,13.12,64.43,26.33,98.57,32.11,9.68,1.64,19.4,2.67,29.16,3.22,32.19,1.85,64.72-1.41,96.91-4.66,8.27-.84,16.57-1.68,24.61-3.78,8.32-2.16,16.27-5.65,23.8-9.82,6.9-3.83,13.54-8.3,18.97-14.03.05-.05.08-.09.12-.13,13.87-14.76,18.02-38.65,7.74-56.08-10.31-17.49-35.46-25.17-52.7-14.47h-.1s.21.4.21.4c-138.93,37.06-158.3,43.93-295.58,37.02Z"/>
      <path class="cls-4" d="M371.29,1006.95c2.94,6.52,11.58,11.7,17.39,15.61,7.23,4.85,15.05,8.65,23.04,12.07,16.62,7.13,33.46,13.91,50.46,20.11,35.22,12.84,70.92,20.11,108.49,20.04,19.12-.04,38.21-1.49,57.24-3.28,17.87-1.69,36.69-2.25,53.66-8.61,14.28-5.35,29.23-13.52,38.75-25.74,8.44-10.84,12.63-25.06,11.06-38.74-1.66-14.43-9.92-27.09-22.89-33.82-6.19-3.21-13.1-5.09-20.09-5.21-3.32-.06-6.71.3-9.94,1.07-1.83.44-3.61,1.04-5.35,1.76-.81.34-4.47,1.99-3.42,2.07-2.82-.22-4.13,3.09-3.02,5.27l.21.4,2.09-5.14c-40.4,10.78-80.75,22.45-121.8,30.51-32.22,6.32-64.72,8.82-97.53,8.78-25.12-.03-50.23-1.13-75.31-2.39-4.5-.23-4.49,6.78,0,7,40.49,2.03,81.28,3.98,121.76.76,32.95-2.63,65.23-9.46,97.24-17.49,25.92-6.5,51.7-13.53,77.51-20.41,2.29-.61,3.1-3.16,2.09-5.14l-.21-.4-3.02,5.27c1.99.15,4.37-1.94,6.12-2.65,2.76-1.13,5.72-1.84,8.69-2.12,5.78-.54,11.69.43,17.07,2.57,12.09,4.81,20.5,15.32,22.62,28.15,5.12,31.08-22.4,52-48.83,60.43-16.05,5.12-33.68,5.58-50.36,7.12-17.1,1.58-34.25,2.84-51.43,3-34,.32-66.66-5.09-98.84-16-17.32-5.87-34.26-12.79-51.18-19.72-8.59-3.52-17.2-7.07-25.25-11.72-3.62-2.09-7.13-4.4-10.48-6.91s-8.67-5.95-10.49-9.98-7.89-.54-6.04,3.53Z"/>
    </g>
    <g>
      <path class="cls-8" d="M528.35,1068.51l38.51,2.94c32.19,1.85,48.22-2.12,80.41-5.37,8.27-.84,16.57-1.68,24.61-3.78,8.32-2.16,16.27-5.65,23.8-9.82,6.9-3.83,13.54-8.3,18.97-14.03.05-.05.08-.09.12-.13-.26-.32-.41-.49-.41-.49-4.02-4.31-9.67-6.66-15.14-8.88-2.25-.91-4.55-1.84-6.98-1.91-2.2-.07-4.36.58-6.48,1.2-34.73,10.15-70.36,18.76-106.49,20.62-65.66,3.38-110.55,3.55-104.62,6.3,6.51,3.02,22.93,8.49,53.71,13.36Z"/>
      <path class="cls-4" d="M528.35,1072.01c13.48,1.03,26.96,2.35,40.46,3.05,16.05.83,31.97-.06,47.92-1.93,17.04-2,34.59-2.93,51.41-6.38,17.32-3.55,37.11-12.55,49.09-25.96,1.35-1.51,1.26-3.42,0-4.95-3.49-4.23-8.75-6.76-13.69-8.86-6.26-2.66-11.23-4.19-17.93-2.36-14.09,3.86-28.08,7.93-42.32,11.2s-29.9,6.23-45.07,7.94c-14.5,1.64-29.12,2.11-43.69,2.75-21.39.94-42.8,1.52-64.18,2.67-2.3.12-26.17.29-18.59,8.19,1.47,1.53,4.24,2.16,6.15,2.88,3.56,1.34,7.19,2.47,10.85,3.5,12.68,3.59,25.66,6.04,38.66,8.12,4.41.71,6.3-6.04,1.86-6.75-16.97-2.72-34.68-5.65-50.73-12.09-.23-.09-1.85-1-2.15-.92.47-.13,0,5.67-.61,5.43.64.25,2.94-.53,3.59-.6,5.26-.57,10.57-.76,15.85-1.01,45.37-2.13,91.22-1.46,135.92-10.36,14.36-2.86,28.58-6.41,42.69-10.32,6.21-1.72,14.58-5.96,21.01-4.21,5.95,1.61,13.43,4.91,17.43,9.74v-4.95c-10.81,12.09-28.59,20.24-44.13,23.76-16.7,3.77-34.41,4.54-51.42,6.53-22.03,2.58-43.62,2.3-65.66.61-7.57-.58-15.15-1.16-22.72-1.74-4.49-.34-4.47,6.66,0,7Z"/>
    </g>
    <g>
      <path class="cls-8" d="M417.72,1012.52c16.59,8.56,34.8,13.58,53.44,14.55,67.19,3.5,118.93-5.66,201.65-30.89,1.44-.44,12.04-3.29,16.62-6.4,1.29-.87,4.42-4.14,5.33-5.4,7.17-9.94,5.78-12.2,4.88-19.84l-6.83-.98c-8.11-1.84-19.18,2.82-22.86,3.77-7.58,1.95-8.58,2.12-8.63,2.71-.06.84-207.22,22.91-207.22,22.91,0,0-52.17-11.56-53.97-10.02-1.8,1.55-34.12,10.85-34.12,10.85l33.42,9.3,18.27,9.43Z"/>
      <path class="cls-4" d="M415.95,1015.54c21.64,10.99,44.15,14.88,68.2,15.55,20.13.56,40.29-.12,60.32-2.3,44.27-4.81,87.05-16.71,129.62-29.34,8.07-2.39,16.17-4.63,21.92-11.12,3.1-3.5,6.08-7.89,7.31-12.46,1.01-3.78.3-7.52-.17-11.32-.17-1.38-.95-3.14-2.57-3.37-8.25-1.19-15.53-1.91-23.74.38-4.48,1.25-8.91,2.62-13.4,3.85-1.14.31-2.56.57-3.57,1.23-.3.2-.62.48-.88.67-.22.27-.44.55-.64.84-.88,1.77-.21,1.29,2-1.44-.77-.52-3.18.48-3.7.55-3.53.44-7.06.86-10.59,1.27-26.46,3.09-52.94,5.94-79.43,8.82-28.68,3.12-57.37,6.21-86.06,9.28-7.84.84-15.68,1.68-23.52,2.52-.89.1-4.01.18-2.21.39-4.32-.51-8.7-1.9-12.95-2.8-8.36-1.78-16.72-3.52-25.12-5.09-4.92-.92-12.09-3.43-17.15-2.2s-11.14,3.99-16.67,5.68c-5.93,1.81-11.89,3.57-17.85,5.29-3.31.95-3.35,5.82,0,6.75,9.79,2.73,19.58,5.45,29.38,8.18,1.31.36,2.67.66,3.96,1.1-1.58-.54.03.06.52.33,1.05.58,2.14,1.1,3.2,1.65,4.6,2.37,9.19,4.75,13.79,7.12,4,2.06,7.54-3.98,3.53-6.04-7.32-3.78-14.56-8.52-22.52-10.73-10-2.78-20-5.57-30-8.35v6.75c4.98-1.44,9.96-2.91,14.92-4.4,6.23-1.88,13.23-3.35,19.07-6.3.97-.49,1.2-.28.08-.2-.57.04,1.13.07,1.44.11,2.58.32,5.14.71,7.71,1.16,7.38,1.29,14.72,2.79,22.06,4.31,6.11,1.27,12.22,2.57,18.32,3.91,1.54.34,2.89.66,4.45.61,6.12-.21,12.33-1.32,18.42-1.97,54.94-5.88,109.89-11.7,164.79-17.97,7.42-.85,15.76-.86,23-2.8,1.03-.27,1.64-.41,2.59-1.1,2.55-1.86-1.44.39.91-1.55-1.07.89-1.51,1.39-.96,1.6,1.35.53,6.46-1.66,7.78-2.05,5.23-1.51,10.36-3.6,15.87-3.86,3.74-.18,7.62.72,11.32,1.25l-2.57-3.37c.36,2.93,1.13,6.07.53,9.01-.8,3.92-3.77,7.9-6.46,10.73-5,5.27-12.54,6.79-19.29,8.81-21.73,6.5-43.51,12.82-65.6,17.99-37.12,8.68-74.78,13.61-112.94,13.18-11.52-.13-23.24-.24-34.62-2.11-13.35-2.19-26.22-6.52-38.28-12.65-4.01-2.03-7.56,4-3.53,6.04Z"/>
    </g>
    <g>
      <path class="cls-8" d="M246.42,687.47c2.06,3.54,5.88,5.64,9.58,7.37.68.31,1.35.62,2.03.92,2.82,1.24,5.68,2.37,8.57,3.39,24.1,8.55,50.48,9.92,76.21,11.12,18.92.9,37.84,1.79,56.77,2.68,20.67.97,46.27.04,59.45-16.03l43.89-56.44c-7.4-4.64-14.61-8.85-21.69-12.68-46.14-24.89-87.14-33.23-143.92-36.97-24.4-1.6-51.42-.01-69.25,16.72-.11.1-.22.2-.32.3-17.27,16.5-20.69,42.49-22.86,66.33-.41,4.52-.75,9.37,1.53,13.28Z"/>
      <path class="cls-4" d="M243.4,689.23c3.19,4.73,7.75,7.28,12.87,9.54,6.71,2.97,13.66,5.36,20.75,7.22,13.96,3.67,28.37,5.4,42.73,6.47,15.49,1.15,31.04,1.68,46.55,2.42,14.31.67,28.67,1.78,43,1.83,18.51.06,40.14-2.46,52.6-17.82,7.37-9.08,14.37-18.48,21.55-27.71,7.31-9.41,14.63-18.81,21.94-28.22,1.39-1.79,1.39-4.19-.71-5.5-20.27-12.65-41.54-23.63-64.1-31.59-21.16-7.47-43.14-12.06-65.36-14.95-39.72-5.17-96.94-13.51-120.52,28.17-5.93,10.47-8.97,22.34-10.85,34.14-.94,5.94-1.62,11.92-2.19,17.9-.61,6.32-1.19,12.25,1.72,18.1,2.01,4.03,8.05.49,6.04-3.53-2.41-4.84-1.13-10.94-.62-16.1s1.15-10.73,2.04-16.05c1.67-9.95,4.14-19.97,8.83-28.96,9.96-19.11,28.91-28,49.69-30.08,21.2-2.12,43.19.53,64.23,3.2s41.05,6.82,60.77,13.41c23.59,7.88,45.72,19.24,66.78,32.38l-.71-5.5c-13.66,17.56-27.31,35.12-40.97,52.68-2.73,3.51-5.36,6.88-9.03,9.54-8.5,6.15-19.41,8.32-29.68,9.11-12.26.94-24.6-.04-36.85-.62-14.93-.7-29.86-1.39-44.79-2.11-15.66-.76-31.39-1.63-46.84-4.41-7.8-1.4-15.52-3.27-23.03-5.82-6.49-2.2-15.81-4.71-19.83-10.67-2.51-3.72-8.57-.22-6.04,3.53Z"/>
    </g>
    <path class="cls-4" d="M871.83,661.59c-20.23-15.77-40.52-31.6-62.42-45.01-22.63-13.86-46.71-23.98-72.34-30.83-50.81-13.57-104.01-23.2-156.44-14.11-25.52,4.42-49.96,14.02-69.12,31.85l4.24-.55c-32.86-21.25-71.83-34.65-110.22-41.5-20.85-3.72-42.05-5.48-63.23-5.15-10.43.16-20.85.84-31.21,2.04-9.13,1.05-19.08,1.75-27.68,5.19-17.8,7.12-20.5,27.29-21.31,44.15-.1,2.01,1.69,3.33,3.5,3.5l2.13.2c4.48.41,4.46-6.59,0-7l-2.13-.2,3.5,3.5c.73-15.31,2.76-33.6,19.86-38.67,8.57-2.54,17.98-3.29,26.84-4.17,9.75-.97,19.54-1.49,29.34-1.56,38.67-.28,77.29,6.49,113.59,19.79,18.57,6.8,36.86,15.19,53.48,25.94,1.33.86,3.14.48,4.24-.55,34.6-32.2,88.13-36.52,133.01-32.37,26.43,2.45,52.62,8.09,78.33,14.52,25.03,6.26,48.8,14.98,71.18,27.92,24.04,13.91,46.04,30.98,67.9,48.02,3.51,2.74,8.5-2.18,4.95-4.95h0Z"/>
    <path class="cls-4" d="M829.65,589.12c-41.85-17.83-86.02-29.5-131.23-34.53-23.17-2.58-46.53-3.39-69.83-2.39-22.81.98-46.06,3.57-67.45,12-19.96,7.86-37.88,20.62-49.66,38.78-2.46,3.79,3.6,7.3,6.04,3.53,23.33-35.96,68.38-45.21,108.29-47.18,43.52-2.15,87.3,2.06,129.63,12.37,24.14,5.88,47.81,13.72,70.67,23.46,4.1,1.75,7.67-4.28,3.53-6.04h0Z"/>
    <path class="cls-4" d="M544.14,573.1c-33.75-20.07-71.36-32.68-109.88-39.75-17.73-3.25-35.67-5.4-53.66-6.67s-36.1-2.82-53.64-.61c-19.09,2.41-40.29,13.92-40.16,35.76.03,4.5,7.03,4.51,7,0-.13-21.22,23.7-28.6,40.98-29.44,15.7-.76,31.69.24,47.34,1.39,34.32,2.51,68.54,8.34,101.23,19.27,19.95,6.67,39.16,15.32,57.25,26.07,3.88,2.31,7.41-3.74,3.53-6.04h0Z"/>
    <g>
      <path class="cls-2" d="M852.05,772.8c11.13-.73,22.26-1.46,33.39-2.19,15.23-1,32.25-1.42,43.66,8.71,9.49,8.43,12.37,21.86,14.73,34.33,1.9,10.05.78,23.83-1.15,33.88-2.93,15.26-11.12,23.94-21.85,35.18-12.78,13.4-34.02,28.69-50.24,37.62-15.16,8.36-24.13,10.53-41.02,14.28-22.07,4.9-48.85,8.43-63.98-8.37-4.93-5.48-7.83-12.49-9.95-19.55-9.4-31.35-4.26-67.16,15.2-93.49,19.46-26.33,50.21-38.12,81.57-40.78"/>
      <path class="cls-4" d="M852.05,776.3c11.13-.73,22.26-1.48,33.39-2.19,9.13-.58,18.57-1.13,27.55,1.03,19.58,4.71,25.58,24.02,27.84,41.96s-1.02,38.35-13.01,52.78c-11.64,14.01-25.7,25.8-40.7,36.06-14.26,9.76-29.18,18.08-46.01,22.38-16.36,4.18-34.28,8.72-51.25,6.24-8.02-1.17-15.7-4.29-21.31-10.3-6.92-7.41-9.86-18.03-11.85-27.73-3.7-18.01-2.57-36.98,3.17-54.44,6.38-19.42,18.87-36.54,35.99-47.84,16.82-11.1,36.64-16.56,56.56-18.34,4.45-.4,4.49-7.4,0-7-39.35,3.52-76.75,21.69-94.28,58.76-8.61,18.2-12.02,38.8-9.99,58.82,1.89,18.57,7.36,40.88,25.31,50.19,16.15,8.38,35.77,5.71,52.86,2.19,19.3-3.97,36.75-9.62,53.64-19.95,17.27-10.56,33.42-23.06,47.25-37.86,6.24-6.68,12.15-13.75,15.71-22.26,3.89-9.3,5.03-19.91,5.34-29.92.62-19.64-4.48-46.77-23.52-56.83-9.62-5.08-20.89-5.71-31.56-5.36-13.71.45-27.43,1.7-41.12,2.59-4.47.29-4.51,7.3,0,7h0Z"/>
    </g>
    <path class="cls-4" d="M424.03,729.15c-54.59,9.72-110.8,8.65-165-3.05-4.39-.95-6.27,5.8-1.86,6.75,55.49,11.98,112.83,13,168.72,3.05,4.43-.79,2.55-7.54-1.86-6.75h0Z"/>
    <g>
      <path class="cls-4" d="M351.35,610.05c-2.37-.39-4.81-.45-7.15-.04-14.56,2.56-24.94,14.08-31.53,25.43-5.47,9.43-9.68,19.78-8.61,30.35,1.06,10.57,8.4,21.38,20.34,25.45,6.33,2.16,13.31,2.3,20.07,2.08,7.43-.23,14.99-.89,21.65-3.48,13.08-5.1,20.56-17.11,21.98-29.13,1.41-12.02-2.34-24.15-6.72-35.81-.75-1.98-1.54-4.01-3.08-5.66-2.05-2.2-5.2-3.5-8.28-4.59-7.6-2.69-10.55-3.54-18.66-4.61h0Z"/>
      <path class="cls-4" d="M351.35,606.55c-19.22-2.46-34.67,14.16-43.03,29.51-8.91,16.35-12.2,36.88,2.58,50.97,7.15,6.82,16.47,9.41,26.15,9.81,10.36.43,21.78-.12,31.43-4.22,17.68-7.51,25.24-26.31,22.89-44.55-.75-5.82-2.25-11.49-4.11-17.05-1.67-5.02-3.15-10.97-7.06-14.77-6.78-6.58-19.03-8.11-27.93-9.58-4.41-.73-6.3,6.02-1.86,6.75,6.44,1.06,12.52,2.33,18.66,4.61,5.23,1.95,7.57,4.25,9.57,9.56,1.64,4.36,3.1,8.81,4.24,13.32,3.85,15.24,2.27,32.87-11.85,42.41-7.3,4.93-16.1,6.06-24.71,6.44-8.59.38-17.87.46-25.54-3.98-15.26-8.86-15.55-26.82-8.89-41.33s20.77-33.29,39.45-30.9c4.46.57,4.41-6.43,0-7Z"/>
    </g>
    <path class="cls-8" d="M366.33,627.87c2.01.86,4.24,6.03,1.19,6.92-3.69,1.08-3.66-6.41-2.13-6.67l-2.7-.35c.72.33,7.67,7.75,7.28,8.21-.61.72-1.82-1.62-1.91-1.92-.64-1.98.22-4.42.72-6.34l-5.85,1.54c1.05,1.32,1.95,2.76,2.68,4.27.26.54.66,3.08.98,3.48.5.62,1.05-.39,1.11-1.1-1.17-.95-1.37-.97-.62-.05.3.47.67.88,1.11,1.22,3.34,2.74,8.1.37,8.96-3.64,1.07-5.02-4.18-8.51-7.99-10.46-4.26-2.17-9.52-2.8-13.41.52-8.97,7.65,3.24,18.85,11.43,19.59,5.58.51,6.28-4.55,5.37-8.85-1.05-4.96-4.16-9.05-8.33-11.83-3.76-2.51-7.27,3.55-3.53,6.04,1.77,1.18,3.2,2.74,4.14,4.67.45.92.8,1.97.98,2.98.1.52.15,1.05.15,1.58-.08,1.35.46.82,1.61-1.58-.14-.28-2.72-.87-3.03-1.02-.96-.47-1.87-1.08-2.65-1.81-1.39-1.28-3.06-3.33-1.11-4.75s4.86.44,6.41,1.38c.74.45,1.45,1.11,2.23,1.47,1.09.5,3.67,1.58,2.86-.36-1.52-3.61-6.98-3.2-9.32-.91-4.84,4.72-.84,16.21,6.65,13.28,8.45-3.31,1.74-14.75-1.7-19.08-1.68-2.11-5.24-.8-5.85,1.54-1.31,5.03-2.09,10.78,2.03,14.79,3.22,3.14,8.41,3.09,11.35-.38,3.76-4.43-.05-8.91-3.02-12.46-2.77-3.3-6.88-9.23-11.57-5.14-7.19,6.27-2.49,20.25,7.52,19.01s9.65-16.37,1.52-19.87c-4.09-1.76-7.66,4.27-3.53,6.04h0Z"/>
    <path class="cls-8" d="M337.92,625.54c-.59-.39-.89-.9-.93-1.6.03.58.15-.53.25-.71-.22.34-.12.27.29-.21.19-.3.45-.48.79-.54.54-.03.61-.04.21-.03.48.08.59.09.33.02-.25-.08-.16-.04.27.1.36.31.41.34.14.07.31.32.45.6.46,1.06-.03-.81-.09.62,0-.12-.2.41-.21.45-.03.1-.3.34-.32.36-.05.08l-4.24.55c.66.4,1.31.81,1.97,1.21,1.25.77,3.24.59,4.24-.55,1.57-1.78,1.73-4.45,0-6.22-1.55-1.59-3.85-1.89-5.74-.72-1.79,1.1-2.75,3.63-2.08,5.64s2.32,3.42,4.37,3.95c1.77.46,3.88-.58,4.31-2.44s-.55-3.81-2.44-4.31c-.71-.18.36.37-.22-.08.53.41.79.61.79,1.49,0,.65-.39,1.4-1.01,1.67l-3.07-.4c-.87-.93-.82-2.1.14-3.52l4.24-.55c-.66-.4-1.31-.81-1.97-1.21-1.28-.79-3.2-.56-4.24.55-1.58,1.69-2.37,4.06-1.75,6.34.66,2.42,2.96,4.23,5.47,4.29s4.62-1.45,5.35-3.81-.29-4.8-2.31-6.12c-1.53-1.01-3.94-.35-4.79,1.26-.93,1.75-.38,3.71,1.26,4.79h0Z"/>
    <g>
      <path class="cls-10" d="M669.69,967.76l-8.36,2.28c-138.93,37.06-149.73,42.06-287.02,35.15-13.06-.66-27.19-1.44-42.59-2.33-23.16-1.35-45.83-7.49-68.19-13.68-24.47-6.77-48.09-16.24-71.65-25.68-42.32-16.97-85.4-34.37-120.61-63.36l14.94-61.43c42.75,5.64,86.39,4.44,128.75-3.55,60.54-11.41,118.1-36.6,169.52-70.52,14.71-9.7,29.03-20.19,41.18-32.95,19.39-20.35,52.23-50.17,77.25-91.21"/>
      <path class="cls-4" d="M668.76,964.39c-62.72,17.07-126.18,37.15-191.59,39.56-38.73,1.43-77.61-.88-116.28-2.96-11.96-.64-23.99-1.01-35.91-2.16-12.85-1.24-25.53-3.91-38.05-7.03-24.52-6.11-48.44-13.76-71.99-22.9-48.83-18.96-100.17-37.72-141.19-71.23l.9,3.41c4.98-20.48,9.96-40.96,14.94-61.43l-3.37,2.57c68.38,8.85,137.94.17,202.35-24.28,30.48-11.57,59.72-26.3,87.33-43.6,13.43-8.42,26.65-17.31,38.77-27.54,10.03-8.46,18.91-18.23,28.12-27.56,23.39-23.72,45.67-48.5,63.17-76.98,2.36-3.85-3.69-7.37-6.04-3.53-15.63,25.44-35.12,47.95-55.91,69.28-8.13,8.34-16.19,16.82-24.51,24.98-11.55,11.32-24.74,20.76-38.24,29.61-53.46,35.01-113.49,60.51-176.72,70.88-39.09,6.41-79.06,6.83-118.32,1.75-1.46-.19-3.05,1.22-3.37,2.57-4.98,20.48-9.96,40.96-14.94,61.43-.27,1.13-.06,2.62.9,3.41,36.31,29.66,79.93,47.33,123.03,64.61,46.98,18.83,95.57,36.6,146.55,39.51,70.92,4.05,142.55,9.7,212.62-5,40.25-8.44,79.96-19.8,119.62-30.6,4.34-1.18,2.5-7.94-1.86-6.75h0Z"/>
    </g>
    <g>
      <path class="cls-3" d="M373.38,403.75c.41,0,.63,0,.63,0,64.63-1.29,129.05,30.48,167.4,82.52,8.73,11.85,16.35,25.24,17.42,39.91,18.54-36.2,51.6-62.79,86.02-84.44,28.43-17.89,58.65-33.29,90.81-42.96,48.32-14.53,100.6-15.7,149.52-3.37-6.23-5.42-12.83-10.46-19.83-15.07-63.28-41.73-144.67-40.2-220.39-36.75-58.09,2.65-116.5,5.6-173.25,18.29-35.06,7.83-70.19,19.89-98.35,41.87Z"/>
      <path class="cls-4" d="M373.38,407.25c59.52-.21,117.27,24.64,156.37,69.98,11.92,13.82,23.89,30.22,25.58,48.95.29,3.18,4.79,5.11,6.52,1.77,20.94-40.3,58.8-68.07,97.06-90.69,43.05-25.44,89.98-43.16,140.22-46.27,28.61-1.77,57.31.89,85.12,7.8,3.19.79,6.18-3.46,3.41-5.85-51.68-44.54-120.02-54.42-186.05-54.43-35.99,0-72.08,1.99-107.99,4.24-38.64,2.42-77.31,6.22-115.26,14.12-37.81,7.87-75.83,19.98-106.76,43.86-3.52,2.71-.03,8.8,3.53,6.04,26.82-20.7,58.99-32.41,91.67-40.17,36.84-8.75,74.58-13.12,112.29-15.87,35.45-2.58,71.06-4.39,106.6-5.07,32.58-.62,65.47.28,97.55,6.45,36.49,7.02,71.13,21.35,99.46,45.76l3.41-5.85c-50.23-12.48-103.59-11.32-153.1,3.89-24.37,7.49-47.68,18.24-69.84,30.77-20.31,11.49-40.07,24.28-58.1,39.12-19.84,16.34-37.37,35.67-49.27,58.59l6.52,1.77c-1.55-17.19-10.36-31.98-20.71-45.39-9.49-12.31-20.41-23.47-32.49-33.25-24.36-19.74-53.05-34.08-83.53-41.51-17.17-4.18-34.59-5.84-52.23-5.78-4.5.02-4.51,7.02,0,7Z"/>
    </g>
    <path class="cls-4" d="M556.03,521.57c-3.72,9.53-7.45,19.07-11.17,28.6l6.87.93-.02-1.63c-.05-4.5-7.05-4.51-7,0l.02,1.63c.05,4.16,5.49,4.47,6.87.93,3.72-9.53,7.45-19.07,11.17-28.6,1.64-4.2-5.13-6.02-6.75-1.86h0Z"/>
    <g>
      <path class="cls-8" d="M845.93,706.39c-13.04-12.48-28.65-21.95-44.56-30.47-48.95-26.22-102.18-44.42-156.93-53.66-25.53-4.31-52.37-6.58-76.8,2-27.51,9.66-49.64,33.44-57.3,61.58-2.35,8.64-3.03,18.93,3.04,25.51,2.86,3.09,6.82,4.89,10.71,6.5,58.44,24.17,124.09,22.99,187.01,16.61,38.6-3.91,77.83-6.3,115.08-17.13,4.44-1.29,14.93-6.38,19.5-11.09"/>
      <path class="cls-4" d="M848.4,703.92c-19.07-17.99-42.79-30.44-66.27-41.65-23.69-11.31-48.23-20.86-73.36-28.48-25.1-7.61-50.88-13.54-76.89-16.94-25.33-3.31-52-3.18-75.4,8.33-18.78,9.23-34.45,25.07-43.54,43.91-4.44,9.2-8.41,19.9-7.73,30.27.77,11.95,8.38,17.94,18.79,22.2,49.28,20.21,103.86,22.44,156.37,18.99,30.84-2.02,61.87-5,92.51-9.06,15.19-2.01,30.33-4.57,45.19-8.34,10.82-2.75,21.88-6.51,30.1-14.45,3.25-3.14-1.71-8.08-4.95-4.95-7.33,7.08-17.39,10.21-27.01,12.65-12.12,3.08-24.44,5.36-36.81,7.18-25.62,3.77-51.53,5.86-77.3,8.24-49.28,4.55-100.02,5.6-148.16-7.52-11.2-3.05-23.7-6.34-33.82-12.17-11.09-6.4-8.34-20.07-4.91-30.24,6.46-19.15,20.02-35.82,37.17-46.44,20.61-12.75,44.99-14.85,68.65-12.8,24.87,2.16,49.69,7.72,73.72,14.36,27.05,7.48,53.49,17.15,78.94,28.98,24.59,11.43,49.88,24.12,69.77,42.87,3.28,3.09,8.23-1.85,4.95-4.95h0Z"/>
    </g>
    <path class="cls-4" d="M509.7,710.96c-.83,19.13,9.86,37.56,27.14,45.96,10.12,4.92,21.48,7.21,32.45,9.4,11.38,2.27,22.88,3.95,34.42,5.09,48.1,4.78,96.66-.03,144.02-8.85,27.51-5.12,54.74-11.67,81.81-18.74,4.35-1.14,2.51-7.89-1.86-6.75-87.37,22.83-180.82,41.57-270.33,19.42-11.43-2.83-22.56-6.71-30.49-15.85-7.13-8.21-10.63-18.88-10.16-29.68.2-4.5-6.8-4.49-7,0h0Z"/>
    <g>
      <path class="cls-4" d="M629.89,646.25c7.14-6.3,17.58-8.86,27.58-8.31,9.99.55,19.61,3.94,28.49,8.25,3.38,1.64,6.75,3.47,9.26,6.12,6.57,6.92,5.57,17.18,4.19,26.16-1.9,12.34-4.26,25.56-13.79,34.4-9.72,9.01-24.65,11.32-38.6,11.83-10.7.39-22.68-.47-30.09-7.62-6.77-6.53-7.64-16.35-7.16-25.25.47-8.66,1.87-17.27,4.17-25.66,1.71-6.23,4.08-12.61,9.14-17.05,5.06-4.44,13.5-6.27,19.35-2.56"/>
      <path class="cls-4" d="M632.37,648.72c15.35-12.81,38.08-6.85,53.99,1.58,8.89,4.71,11.18,12.02,10.38,21.63-.69,8.26-2.17,17.01-4.97,24.83-6.52,18.16-23.96,23.29-41.62,24.3-8.36.48-17.69.78-25.45-2.89-8.96-4.24-11.53-13.33-11.52-22.58.01-10.74,1.86-21.88,5.23-32.08,2.96-8.96,11.77-19.77,22.28-13.93,3.94,2.19,7.48-3.85,3.53-6.04-8.63-4.8-19.4-1.98-25.74,5.29-7.58,8.67-9.71,21.82-11.2,32.83s-2.53,22.75,2.96,32.41c5.2,9.15,15.14,12.81,25.12,13.85,19.92,2.08,46.17-1.05,58.22-19.06,6.06-9.06,7.92-20.3,9.45-30.88,1.4-9.66,1.94-20.52-5.3-28.14-4.15-4.37-10.12-6.89-15.58-9.2-6.5-2.75-13.2-4.85-20.21-5.76-12.27-1.6-24.85.86-34.49,8.91-3.46,2.89,1.51,7.82,4.95,4.95h0Z"/>
    </g>
    <path class="cls-8" d="M672.1,656.54c2.88-1.41,2.94,4.44,2.54,5.81-.97,3.27-4.29,3.54-7.18,2.49s-3.41-3.95-3.15-6.8c-.02-1.14.03-1.29.15-.44.82-.05,1.64,0,2.45.16.82.17,1.6.43,2.36.79,1.78-1.06,2.11-2.12.97-3.18-1.34-1.99-3.7-2.21-5.5-.71-1.48,1.24-2.04,3.01-1.8,4.92.22,1.68,2.04,3.3,2.14,4.73l6.87-.93c-.38-1.1-.77-2.2-1.15-3.3-1.48-4.23-8.24-2.41-6.75,1.86.38,1.1.77,2.2,1.15,3.3,1.22,3.5,7.16,3.24,6.87-.93-.08-1.18-.21-2.12-.74-3.19-.18-.48-.43-.93-.76-1.33-.4-1.09-.69-1.15-.88-.17l-5.5-.71c2.29,3.4,6.32,6.6,10.38,3.61s1.85-7.95-1.77-10.01-10.49-3.32-13.74-.06c-2.87,2.87-2.04,9.34-.72,12.7,3.45,8.7,17.93,10,22.16,1.32,3.89-8-1.82-20.93-11.94-15.97-4.04,1.98-.5,8.02,3.53,6.04h0Z"/>
    <path class="cls-8" d="M643.07,659.9c.13,0,.26,0,.39,0,.38.03.27.02-.33-.05.07.06.51.16.58.16-.5-.23-.64-.29-.41-.16.24.14.12.04-.36-.29-1.01-1-.85-2.5.08-3.44.23-.34.54-.56.94-.64.62-.05.74-.06.36-.05.53.03.95.18,1.36.53-.51-.43.21.53-.03-.05-.08-.14-.16-.29-.22-.44.19.46.21.51.06.16l-3.37,4.43c2.04.22,4.13-.33,5.9-1.34s2.11-3.12,1.26-4.79c-1.1-2.14-3.58-3-5.84-2.49-1.79.41-3.01,2.56-2.44,4.31.61,1.87,2.39,2.88,4.31,2.44-.5.11-1.06.06-1.5-.21-.18-.11-.82-1.01-.56-.51l1.26-4.79c-.15.09-.31.18-.47.26.43-.17.46-.18.09-.05-.26.07-.52.14-.78.21-.78.2.67.03-.14,0-.36-.01-.71,0-1.07-.05-2.11-.23-4.18,2.45-3.37,4.43.71,1.76,1.51,3.4,3.25,4.35,2.06,1.12,4.82.64,6.26-1.23s1.26-4.42-.42-6.04c-1.25-1.21-3.06-1.66-4.75-1.67-1.83,0-3.58,1.61-3.5,3.5s1.54,3.5,3.5,3.5h0Z"/>
    <g>
      <path class="cls-4" d="M98.26,840.34c-1.63-7.79-4.35-15.36-8.04-22.4-2.02-3.86-4.39-7.62-7.67-10.47-7.81-6.77-19.43-7.19-29.44-4.62-16.94,4.34-31.71,16.48-39.26,32.26-7.55,15.78-7.73,34.9-.48,50.81,2.11,4.63,4.88,9.07,8.83,12.29,6.14,5,14.33,6.48,22.14,7.79,10.25,1.72,22.07,3.02,29.82-3.9,2.86-2.55,4.79-5.96,6.43-9.42,7.01-14.84,2.56-3.83,7.64-15.23,1.54-3.46,7.05-23.4,9.58-26.21l.46-10.88Z"/>
      <path class="cls-4" d="M101.63,839.41c-2.73-12.36-7.77-28.07-18.47-35.89-9.89-7.23-23.45-6.64-34.59-3-24.1,7.89-41.45,29.64-43.76,54.86-1.19,12.99,1.55,27.35,8.83,38.33s19.97,14.22,32.72,16.12c11.4,1.7,24.43,2.04,32.5-7.65,4.35-5.22,6.79-12.05,10.08-17.98,4.27-7.72,6.07-16.69,9.03-24.93,1.03-2.87,3.06-5.77,3.36-8.71.34-3.37.29-6.83.43-10.22.19-4.5-6.81-4.5-7,0l-.46,10.88,1.03-2.47c-3.48,4.43-4.89,10.77-6.59,16.03s-3.09,10.98-5.84,15.89c-1.88,3.36-3.64,6.74-5.34,10.23-2.39,4.89-5.2,9.38-10.49,11.46-4.78,1.88-10.21,1.68-15.23,1.18-10.07-1-22.8-2.49-29.92-10.44s-10.33-20.96-10.37-31.79c-.09-21.32,11.91-40.78,30.77-50.61,9.81-5.11,23.13-8.49,33.62-3.41,11.62,5.63,16.4,22.42,18.95,33.98.97,4.4,7.72,2.54,6.75-1.86Z"/>
    </g>
    <path class="cls-8" d="M72.27,821.27c1.05.44,1.93,1.47,2.38,2.49.25.56.4,2.83.75,2.59-1.43.99-1.54-1.77-1.83-1.97-1.22-.05-1.55.14-1.01.58.23.23.43.49.6.77.38.52.74,1.46,1.18,1.91.15.16.42,1.68.88.07-.06.22-.58-1.39-.54-1.19-.31-1.61.46-3.29.38-4.9-.16-3.61-3.66-5.87-6.88-4.04l5.27,3.02-.37.46-3.53-6.04c-3.78,2.84-5.24,7.23-4.22,11.85s5.21,8.33,10.18,7.12c4.38-1.06,2.52-7.82-1.86-6.75-2.18.53-1.9-5.18-.57-6.18,3.51-2.64.5-8.33-3.53-6.04-2.04,1.16-3.28,3.22-3.1,5.59.21,2.61,2.82,4.4,5.27,3.02l.45-.25-2.7.35c-1.1-1.79-1.62-1.94-1.57-.45-.08.54-.14,1.08-.18,1.63-.07,1.11-.04,2.24.18,3.34.36,1.78,1.19,3.37,2.55,4.6,2.68,2.43,7.03,2.68,9.47-.22,5.19-6.17-4.83-19.89-11.41-13.21-6.3,6.39,2.89,17.51,10.51,12.9,3.31-2,3.62-6.6,2.58-9.97-1.16-3.75-3.9-6.33-7.44-7.82-1.76-.74-3.83.79-4.31,2.44-.58,2.01.71,3.58,2.44,4.31h0Z"/>
    <path class="cls-8" d="M53.31,821.68s.09.08.12.13l-.55-.71.04.07-.35-.84s.03.1.04.15l-.13-.93v.08c.04-.31.08-.62.12-.93,0,.05-.02.1-.03.15l.35-.84c-.03.08-.07.15-.12.22l.55-.71c-.06.07-.12.13-.19.2l.71-.55c-.1.08-.21.14-.33.19l.84-.35c-.09.03-.18.05-.27.07l.93-.13c-.06,0-.12,0-.18,0l.93.13c-.06,0-.12-.02-.18-.05l.84.35c-.07-.03-.13-.06-.18-.11l.71.55c-.12-.1-.22-.2-.32-.32l.55.71c-.06-.1-.12-.19-.17-.3l.35.84c-.11-.26-.18-.53-.22-.81l.13.93c-.03-.24-.05-.49-.06-.73l-4.43,3.37c.52.16,1.03.31,1.55.47,1.75.53,3.89-.63,4.31-2.44s-.57-3.74-2.44-4.31c-.52-.16-1.03-.31-1.55-.47-2.1-.63-4.54,1.13-4.43,3.37.06,1.18.22,2.37.81,3.42.79,1.4,2.27,2.41,3.91,2.41,1.53,0,3.13-.85,3.9-2.19.94-1.61.84-3.71-.58-5.04-.67-.63-1.55-1.03-2.47-1.03-.86,0-1.88.38-2.47,1.03-1.25,1.36-1.43,3.62,0,4.95h0Z"/>
  </g>
  <path class="cls-4" d="M515.5,708.14c-2.04,19.86,8.48,39.42,26.12,48.74,10.08,5.33,21.48,8.29,32.46,11.11,11.88,3.05,23.92,5.46,36.04,7.26,48.05,7.14,96.89,5.1,144.92-1.11,27.47-3.55,54.74-8.41,81.9-13.82,4.73-.94,2.73-8.17-1.99-7.23-89.3,17.79-184.28,30.96-273.12,3.66-11.51-3.54-22.9-8.08-30.43-17.96-6.69-8.78-9.53-19.72-8.41-30.65.49-4.8-7.01-4.76-7.5,0h0Z"/>
  <path class="cls-4" d="M428.86,720.91c-56.05,6.6-112.93,2.26-167.29-12.89-4.66-1.3-6.64,5.94-1.99,7.23,54.96,15.31,112.62,19.83,169.29,13.15,4.74-.56,4.79-8.06,0-7.5h0Z"/>
  <g>
    <path class="cls-10" d="M250.53,655.03c-.69,4.54-1.32,9.42.75,13.5,1.88,3.7,5.6,6.05,9.24,8,.67.36,1.32.71,2,1.06,2.77,1.42,5.59,2.73,8.46,3.94,23.82,10.07,50.38,13.02,76.28,15.77.99.1,1.98.21,2.97.31,18.06,1.93,36.12,3.85,54.19,5.77,12.77,1.36,27.45,2.11,40.18-1.09,8.03-2.01,15.28-5.59,20.8-11.55l23.93-26.95c-6.01-4.27-39.96-9.42-55.72-11.65l-.68-.09c-2.79-.39-4.96-.68-6.19-.85-27.94-3.8-16.38-3.26-39.39-6.5-5.88-.83-14-1.9-25.61-3.36-5.88-.74-12.33-1.64-18.98-2.6-21.08-3.06-44.13-6.76-57.19-7.76-.15-.01-28.82-5.05-28.93-4.95-7.19,15.35-2.5,5.08-6.1,29.01Z"/>
    <path class="cls-4" d="M246.92,654.03c-.76,5.21-1.47,10.53.75,15.5,1.91,4.29,5.63,7.18,9.6,9.49,9.22,5.35,19.53,9.16,29.74,12.08,22.45,6.43,45.9,8.42,69.03,10.88,12.58,1.34,25.16,2.68,37.74,4.02,11.7,1.24,23.43,2.72,35.22,2.18,16.14-.74,30.67-5.33,41.55-17.6,7.15-8.05,14.29-16.1,21.44-24.15,1.66-1.87,1.34-4.51-.76-5.89-5-3.27-11.89-4.26-17.61-5.48-8.94-1.9-17.97-3.39-27-4.78-13.71-2.11-27.57-3.45-41.15-6.33-16.02-3.4-32.46-4.86-48.67-7.02-22.59-3.01-45.08-7.22-67.77-9.42-5.36-.52-10.65-1.59-15.97-2.52s-11.02-2.62-16.42-2.74c-1.22-.03-2.7.71-3.24,1.86-1.88,4.01-4.37,8.16-4.86,12.64-.63,5.76-.77,11.5-1.62,17.26-.69,4.72,6.53,6.76,7.23,1.99.89-6.06,1.3-12.05,1.8-18.13.21-2.57,2.44-6.83,3.92-9.98l-3.24,1.86c-1.3-.03.04-.04.49.09.97.27,2.06.34,3.05.51,3.3.56,6.6,1.13,9.9,1.71,4.76.83,9.51,1.81,14.29,2.49,20.89,2.96,41.86,5.6,62.77,8.56,17.71,2.5,35.68,3.98,53.25,7.43,12.36,2.43,24.78,4.1,37.24,5.92,9.72,1.42,19.43,2.95,29.07,4.83,6.47,1.26,15.09,2.02,20.75,5.72l-.76-5.89c-5.58,6.28-11.16,12.57-16.74,18.85-2.36,2.66-4.67,5.39-7.1,7.99-5.6,5.99-12.99,9.34-20.91,11.09-20.92,4.63-43.65-.09-64.61-2.32-21.76-2.32-43.71-4.02-65.29-7.73-11.9-2.05-23.71-4.84-35.03-9.1-5.46-2.05-10.9-4.44-15.95-7.38-2.41-1.4-4.69-2.89-6.1-5.35-1.94-3.4-1.34-7.45-.8-11.17.69-4.72-6.54-6.76-7.23-1.99Z"/>
  </g>
  <g>
    <path class="cls-10" d="M519.41,708.54c2.7,3.3,6.59,5.35,10.42,7.2,23,11.14,47.42,18.27,72.52,22.63,30.38,5.28,61.78,6.53,92.9,5.97,4.71-.08,9.4-.21,14.09-.38,2.78-.08,5.55-.19,8.32-.31,26-1.1,52.25-1.5,78.14-4.19,13.15-1.37,26.21-3.33,39.09-6.26,4.55-1.04,15.45-5.55,20.35-10.03l.23.17c-12.42-13.38-25.51-28.78-43.18-33.42-8.69-2.28-16.88-4.07-24.74-5.5-21.08-3.82-39.82-5.01-59.67-6.08-14.37-.77-29.33-1.49-46.17-3.08-.1-.01-.2-.02-.3-.03-4.14-.4-8.39-.84-12.78-1.36-8.48-1-18.65-1.99-29.57-2.77-17.91-1.28-37.82-1.99-55.6-1.29-4.64.19-9.14.47-13.41.86-26.88,2.47-41.5-2.58-52.19,11.92-5.38,7.29-4.2,18.94,1.55,25.94Z"/>
    <path class="cls-4" d="M516.76,711.19c6.78,7.51,17.89,11.11,27.05,14.79,10.93,4.39,22.17,7.99,33.58,10.9,22.94,5.85,46.55,8.94,70.16,10.36,24.01,1.44,48.05,1.05,72.06.08,24.76-1,49.57-1.45,74.24-3.91,12.86-1.28,25.7-3.08,38.34-5.78,9.16-1.95,18.52-5.66,25.69-11.81l-4.54.59.23.17c3.52,2.65,7.31-2.9,4.54-5.89-8.63-9.32-17.12-18.99-27.65-26.25-10.97-7.56-23.95-10.11-36.82-12.66-27.86-5.52-56.15-6.53-84.42-8.2-28.35-1.68-56.48-5.72-84.85-7.11-27.35-1.34-54.63.22-81.94,1.58-9.28.46-18.47,2.23-25.08,9.3-8.54,9.14-8.72,23.21-1.18,33.08,2.89,3.79,9.4.06,6.48-3.79-6.5-8.52-5.94-20.29,3.09-26.75,6.5-4.65,15.34-4.39,22.95-4.55,12.22-.25,24.35-1.44,36.56-1.85,13.66-.47,27.35-.14,41,.56,25.99,1.35,51.75,5.03,77.71,6.69,26.31,1.69,52.74,2.24,78.79,6.63,13.8,2.32,29.34,4.35,41.4,11.87,11.14,6.94,19.84,17.21,28.67,26.75l4.54-5.89-.23-.17c-1.38-1.04-3.38-.41-4.54.59-6.17,5.3-14.54,8.21-22.38,9.88-11.36,2.42-22.86,4.11-34.41,5.31-23.37,2.43-46.87,2.98-70.33,3.87-45.32,1.72-90.93,2.23-135.5-7.44-11.8-2.56-23.46-5.81-34.84-9.87-5.97-2.13-11.85-4.47-17.62-7.07-5.46-2.46-11.36-4.79-15.44-9.32-3.24-3.59-8.53,1.73-5.3,5.3Z"/>
  </g>
  <path class="cls-4" d="M798.17,803.28c-51.23,1.5-138.07,4.81-189.27,2.51-27.68-1.24-42.8,2.11-66.44-12.34-36.78-22.49-51.15-67.89-62.71-109.42-12.54,11.4-25.42,22.67-40.32,30.75-46.43,25.18-103.21,15.47-155,5.09-.12-3.49-5.83-1.12-5.96-4.61-19.79,5.47-35.78-12.27-46.74-29.62-10.97-17.35-13.17-38.86-12.28-59.37,1.36-31.24,9.27-62.18,23.09-90.23,4.17-8.46,9.86-17.45,19.04-19.63,4.42-1.05,9.05-.33,13.54.4,129.02,20.87,258.03,41.73,387.05,62.6,30.81,4.98,61.78,9.98,92.99,10,37.31.02,74.76-7.07,111.76-2.27,4.62.6,9.49,1.51,12.96,4.61,4.99,4.46,26.43,32.11,26.68,38.79,1.3,34.87-8.72,45.34-16.94,84.43,0,0-15.81,86.11-91.44,88.33Z"/>
  <path class="cls-4" d="M868.86,596.46c30.87-.46,85.54-.78,123.75,8.8,9.14,2.29,0,11.49,8.31,15.96-5.93,9.16-18.46,10.48-29.15,12.69-9.03,1.87-17.77,5-26.79,6.92-7.64,1.63-15.43,2.38-23.2,3.12-15.72,1.51-31.44,3.02-47.16,4.54-.99.1-2.11.15-2.85-.51-.69-.62-.8-1.65-.84-2.58-.4-9.18,1.49-18.46,5.47-26.75"/>
  <path class="cls-1" d="M531.79,711.79c1.01,11.82,2.4,24.62,10.05,32.99,4.76,5.23,11.35,8,17.89,10.09,16.8,5.37,34.46,7.16,52.01,8.59,22.69,1.85,39.95,3.11,55.7,3.98,12.43.69,23.91,1.15,36.35,1.49,5.66.16,11.51.28,17.74.39,10.85.21,22.85.36,36.94.52l1.32.02c2.92.03,32.42-1.35,34.96-2.97,3.09-1.97,20.09-27.63,21.38-31.23,11.81-33.07,20.35-44.26,24.01-79.3.62-5.93.98-12.49-2.33-17.18-.26-.38-.56-.74-.87-1.08-2.53-2.86-6.23-4.37-9.79-5.58-6.83-2.33-13.8-4.1-20.85-5.51-5.41-1.1-10.85-1.99-16.31-2.77-4.42-.64-8.84-1.21-13.27-1.76-7.14-.9-14.29-1.73-21.44-2.5-63-6.82-126.44-9.28-189.59-15.27-2.96-.28-9.6,4.19-9.6,4.19-13.86,11.17-21.69,29.4-24.55,47.68-2.86,18.27-1.31,36.88.24,55.23Z"/>
  <path class="cls-1" d="M249.8,633.34c1.37,22.8,11.71,45.18,29.16,57.77,6.62,4.77,13.89,8,21.54,10.22,10.97,3.19,22.69,4.32,34.26,5.01,2.38.14,4.75.27,7.11.38,3.44.18,6.9.33,10.37.44,13.14.45,26.46.2,39.01-2.98,6.5-1.64,12.81-4.07,18.77-7.58,15.29-9.03,26.56-24.31,36.87-39.55,11.35-16.78,20.19-35.7,21.86-56.25.58-7.21-2.61-12.56-6.24-16.23-4.32-4.37-9.28-6.39-9.28-6.39-7.34-1.19-14.69-2.38-22.03-3.56-5.47-.88-10.93-1.77-16.4-2.65-11.33-1.83-22.64-3.66-33.97-5.49-28.2-4.56-56.39-9.11-84.59-13.68-4.06-.66-8.24-1.31-12.27-.31-7.42,1.83-12.79,8.8-16.96,15.73-11.62,19.31-18.61,42.31-17.23,65.12Z"/>
  <path class="cls-8" d="M731.11,738.86c3.22,0,3.22-5,0-5s-3.22,5,0,5h0Z"/>
  <path class="cls-8" d="M615.82,629.98c3.22,0,3.22-5,0-5s-3.22,5,0,5h0Z"/>
  <path class="cls-8" d="M584.56,723.45c3.22,0,3.22-5,0-5s-3.22,5,0,5h0Z"/>
  <path class="cls-8" d="M755.69,672.13c3.22,0,3.22-5,0-5s-3.22,5,0,5h0Z"/>
  <path class="cls-8" d="M684.23,647.49c3.22,0,3.22-5,0-5s-3.22,5,0,5h0Z"/>
  <path class="cls-8" d="M772.99,733.91c3.22,0,3.22-5,0-5s-3.22,5,0,5h0Z"/>
  <path class="cls-9" d="M384.23,613.28c5,3.46,5.74,11.35,6.46,16.9.99,7.57-.35,12.47-6.9,16.68-7.5,4.81-32.54,19.46-37.01,4.08l-4.82,6.33c13.16,1.43,27.1-3.21,34.91-14.33,3.62-5.16,5.77-11.56,5.71-17.89-.07-7.52-3.88-13.35-6.64-20.08l-6.15,6.15c3.2.78,6.46,1.44,9.63,2.35,2.37.68,1.07-.17,1.49,1.37.4,1.46.51,3.06.79,4.56,1.14,5.93,2.93,12.2,1.58,18.26-2.76,12.37-18.22,13.01-28.18,15.69l3.85,9.14c8.4-3.86,16.03-9.49,21.97-16.6,2.56-3.06,5.4-6.44,6.26-10.44.98-4.55-2.14-8.94-1.23-13.23,1.33-6.28-8.3-8.96-9.64-2.66-.75,3.55-.17,6.48.57,9.95,1,4.67-1.03,7.07-4.08,10.51-5.3,5.99-11.65,10.48-18.9,13.82-5.24,2.41-1.49,10.57,3.85,9.14,14.92-4.01,32.84-6.49,35.55-24.97,1.24-8.45-1.22-16.66-2.63-24.92-.57-3.32-1.17-6.29-4.4-7.97-4.03-2.1-9.46-2.57-13.85-3.64-3.32-.81-7.68,2.42-6.15,6.15,2.03,4.94,5.33,9.79,6.1,15.14.7,4.84-.69,9.82-3.32,13.88-5.86,9.04-16.98,11.72-27.12,10.62-3.26-.35-5.65,3.48-4.82,6.33,7.15,24.62,39.15,10.42,52.9,1.11,8.76-5.93,11.9-13.98,10.67-24.41-1.14-9.64-2.96-19.78-11.44-25.65-5.31-3.67-10.31,4.99-5.05,8.63h0Z"/>
  <path class="cls-9" d="M671.36,679.2c5,3.46,5.74,11.35,6.46,16.9.99,7.57-.35,12.47-6.9,16.68-7.5,4.81-32.54,19.46-37.01,4.08l-4.82,6.33c13.16,1.43,27.1-3.21,34.91-14.33,3.62-5.16,5.77-11.56,5.71-17.89-.07-7.52-3.88-13.35-6.64-20.08l-6.15,6.15c3.2.78,6.46,1.44,9.63,2.35,2.37.68,1.07-.17,1.49,1.37.4,1.46.51,3.06.79,4.56,1.14,5.93,2.93,12.2,1.58,18.26-2.76,12.37-18.22,13.01-28.18,15.69,1.28,3.05,2.57,6.09,3.85,9.14,8.4-3.86,16.03-9.49,21.97-16.6,2.56-3.06,5.4-6.44,6.26-10.44.98-4.55-2.14-8.94-1.23-13.23,1.33-6.28-8.3-8.96-9.64-2.66-.75,3.55-.17,6.48.57,9.95,1,4.67-1.03,7.07-4.08,10.51-5.3,5.99-11.65,10.48-18.9,13.82-5.24,2.41-1.49,10.57,3.85,9.14,14.92-4.01,32.84-6.49,35.55-24.97,1.24-8.45-1.22-16.66-2.63-24.92-.57-3.32-1.17-6.29-4.4-7.97-4.03-2.1-9.46-2.57-13.85-3.64-3.32-.81-7.68,2.42-6.15,6.15,2.03,4.94,5.33,9.79,6.1,15.14.7,4.84-.69,9.82-3.32,13.88-5.86,9.04-16.98,11.72-27.12,10.62-3.26-.35-5.65,3.48-4.82,6.33,7.15,24.62,39.15,10.42,52.9,1.11,8.76-5.93,11.9-13.98,10.67-24.41-1.14-9.64-2.96-19.78-11.44-25.65-5.31-3.67-10.31,4.99-5.05,8.63h0Z"/>
  <path class="cls-8" d="M298.7,621.86c3.22,0,3.22-5,0-5s-3.22,5,0,5h0Z"/>
  <path class="cls-8" d="M438.36,613.8c3.22,0,3.22-5,0-5s-3.22,5,0,5h0Z"/>
  <path class="cls-8" d="M374.8,689.96c3.22,0,3.22-5,0-5s-3.22,5,0,5h0Z"/>
  <path class="cls-8" d="M338.05,593.4c3.22,0,3.22-5,0-5s-3.22,5,0,5h0Z"/>
  <path class="cls-8" d="M301.63,672.64c3.22,0,3.22-5,0-5s-3.22,5,0,5h0Z"/>
  <path class="cls-7" d="M721.53,769.31c10.85.21,22.85.36,36.94.52l78.49-131.75c-2.53-2.86-6.23-4.37-9.79-5.58-6.83-2.33-13.8-4.1-20.85-5.51l-84.78,142.32Z"/>
  <path class="cls-7" d="M667.44,767.44c12.43.69,23.91,1.15,36.35,1.49l86.2-144.7c-4.42-.64-8.84-1.21-13.27-1.76-7.14-.9-14.29-1.73-21.44-2.5l-87.85,147.47Z"/>
  <path class="cls-7" d="M352.26,707.16c13.14.45,26.46.2,39.01-2.98l71.26-119.61c-4.32-4.37-9.28-6.39-9.28-6.39-7.34-1.19-14.69-2.38-22.03-3.56l-78.96,132.53Z"/>
  <path class="cls-7" d="M300.51,701.33c10.97,3.19,22.69,4.32,34.26,5.01l80.04-134.37c-11.33-1.83-22.64-3.66-33.97-5.49l-80.34,134.86Z"/>
  <path class="cls-6" d="M1415.41,390.79c-27.68-7.89-55.41-15.47-83.64-21.18-39.16-7.91-78.67-11.75-118.52-13.89-43.1-2.32-86.1-1.84-128.03,6.08,10.25-10.49,22.01-19.41,34.85-26.97,27.48-16.17,57.98-28.19,88.29-37.86,36.51-11.66,74.07-17.22,112.36-17.8,3.51-.05,4.71-4.69,1.77-6.52-69.63-43.27-154.21-61.25-235.48-50.77-10.18,1.31-20.29,3.03-30.32,5.22-4.38.96-8.76,2.3-13.13,3.55,21.98-26.25,51.76-44.99,86.63-50.48,12.47-1.97,25.12-2.61,37.72-3.25,3.55-.18,4.66-4.57,1.77-6.52-19.55-13.22-41.5-22.94-64.7-27.52-17.47-3.44-34.6-3.3-51.78-1.46,17.45-7.86,35.23-14.97,53.19-21.43,38.12-13.71,77.19-24.6,116.59-33.95,3.24-.77,3.44-6.11,0-6.75-68.75-12.78-139.26-14.91-208.7-6.77-69.01,8.08-136.69,26.03-200.66,53.13-9.51,4.03-18.93,8.29-28.26,12.72,8.41-23.86,24.3-44.62,45.29-58.87,2.88-1.95,1.79-6.35-1.77-6.52-16.86-.81-33.18,4.77-49.18,9.36-14.45,4.15-28.86,8.44-43.08,13.32-28.05,9.62-55.72,21.54-79.9,38.93-5.71,4.11-11.08,8.53-16.19,13.18-10.83-3.51-22.14-.2-33.03,2.24-12.24,2.74-24.45,5.68-36.47,9.26-23.5,6.99-46.65,16.45-66.48,31.09-38.96,28.75-62.12,74.09-71.17,120.92-5.49,28.41-6.26,57.46-4.4,86.28-.48.21-.96.43-1.43.64-12.2,5.52-23.94,12.17-34.71,20.11-.19.14-.38.28-.57.42-.74.55-1.48,1.1-2.21,1.67-.15.11-.29.22-.44.33,0,0,0,0,0,0-.26.15-.49.33-.69.55-6.58,5.15-12.76,10.8-18.41,17.01-15.77,17.32-27.54,37.91-36.67,59.39-5.99,14.08-10.84,28.58-14.9,43.3-8.61-1.39-17.22-2.78-25.83-4.18-4.49-.73-9.12-1.45-13.54-.4-9.17,2.18-14.87,11.17-19.04,19.63-13.82,28.05-21.73,58.99-23.09,90.23-.89,20.51,1.31,42.02,12.28,59.37,6.66,10.54,15.17,21.2,25.26,26.74.04.28.11.56.22.83-9.1,23.71-16.1,48.54-12.23,73.93,1.34,8.79,4.2,16.93,7.2,25.26,1.13,3.13,1.46,6.74,3.33,9.3-16.71,4.97-33.72,8.93-50.97,11.76-34.18,5.6-69.03,6.63-103.49,3.4-2.85-11.9-7.91-26.04-17.88-33.34-9.89-7.23-23.45-6.64-34.59-3-24.1,7.89-41.45,29.64-43.76,54.86-1.19,12.99,1.55,27.35,8.83,38.33,7.56,11.39,19.97,14.22,32.72,16.12,9.27,1.38,19.62,1.86,27.5-3.21,35.27,27.27,76.85,44.12,117.97,60.6,37.18,14.9,75.37,29.13,114.95,35.87.83,1.68,1.69,3.34,2.57,4.99-10.05,10.21-19.24,21.28-27.59,32.94-27.85,38.86-46.16,83.9-59.77,129.49-15.43,51.67-25.13,104.97-34.38,158.02-21.79,125.04-35.93,251.42-42.3,378.18-1.55,30.91-2.64,61.84-3.28,92.79-.04,1.89,1.64,3.5,3.5,3.5h518.71c51.83,0,103.66,0,155.49,0h357.23c13.91,0,27.85.25,41.76,0,.61-.01,1.22,0,1.83,0,1.53,0,2.53-.81,3.02-1.88.26-.45.45-.99.48-1.62,6.85-120.83,12.77-242.25,3.14-363.1-4.68-58.72-13.06-117.24-26.87-174.54-12.78-53-29.82-105.4-54.07-154.33-21.7-43.78-49.43-85.32-85.01-119.06-7.79-7.39-15.96-14.39-24.5-20.92,8.56-5.54,17-11.26,25.28-17.2,49.67-35.6,94.34-78.08,132.44-125.85,38.15-47.83,69.71-100.74,93.31-157.19,5.74-13.73,10.98-27.66,15.76-41.75,1.13-3.33-3.51-5.88-5.85-3.41-16.35,17.27-35.96,30.72-56.3,42.84-21.1,12.57-42.65,24.53-64.31,36.11-7.07,3.78-14.19,7.46-21.37,11.04,18.61-60.32,39.83-120.24,69.06-176.07,24.54-46.87,56.12-90.89,99.79-121.68,22.37-15.77,47.08-27.76,72.85-36.85,3.17-1.12,3.48-5.76,0-6.75Z"/>
</svg>