<?xml version="1.0" encoding="UTF-8"?>
<svg id="a" data-name="Layer 1" xmlns="http://www.w3.org/2000/svg" viewBox="0 0 298 379.74">
  <defs>
    <style>
      .b {
        fill: #a68e7e;
      }

      .b, .c, .d, .e, .f, .g, .h, .i, .j {
        stroke-width: 0px;
      }

      .c {
        fill: #c7b299;
      }

      .d {
        fill: #00a650;
      }

      .e {
        fill: #1a1a1a;
      }

      .f {
        fill: #d4a172;
      }

      .g {
        fill: #000;
      }

      .h {
        fill: #c63144;
      }

      .i {
        fill: #fff;
      }

      .j {
        fill: #9e6a38;
      }
    </style>
  </defs>
  <g>
    <g>
      <rect class="d" x="1" y="1" width="296" height="296" rx="10.79" ry="10.79" transform="translate(298 298) rotate(180)"/>
      <path class="e" d="M286.21,298H11.79c-6.5,0-11.79-5.29-11.79-11.79V11.79C0,5.29,5.29,0,11.79,0h274.41c6.5,0,11.79,5.29,11.79,11.79v274.41c0,6.5-5.29,11.79-11.79,11.79ZM11.79,2C6.39,2,2,6.39,2,11.79v274.41c0,5.4,4.39,9.79,9.79,9.79h274.41c5.4,0,9.79-4.39,9.79-9.79V11.79c0-5.4-4.39-9.79-9.79-9.79H11.79Z"/>
    </g>
    <g>
      <path class="j" d="M119.91,65.14c-1.93-3.96-4.66,4.52-6.34.45-2.6-6.34-6.22-9.62-14.37-13.69-6.89-3.44-12.57-5.25-20.24-5.94,11.88-6.22,26.45-7.08,38.98-2.29l17.76,2.61-12.75,21.57-3.05-2.71Z"/>
      <path class="g" d="M119.33,65.48c-.11-.21-.21-.42-.37-.59-.12-.13-.21-.16-.22-.16-.09,0-.21.02-.25.04-.17.08-.33.18-.47.29-.74.56-1.3,1.32-2.06,1.87s-1.63.67-2.32,0c-.46-.45-.66-1.08-.91-1.66-.34-.77-.7-1.52-1.11-2.26-1.59-2.85-3.85-5.14-6.53-6.98-3.55-2.44-7.55-4.39-11.55-5.98-4.67-1.86-9.55-2.97-14.55-3.42-.61-.06-.98-.92-.34-1.26,9.96-5.18,21.67-6.71,32.64-4.38,1.37.29,2.73.64,4.07,1.06.94.29,1.88.76,2.83.97.66.15,1.36.2,2.03.3,3,.44,6,.88,8.99,1.32,2.23.33,4.47.66,6.7.98.44.06.6.65.4.99-1.44,2.43-2.88,4.87-4.32,7.3-2.28,3.86-4.56,7.72-6.85,11.58-.53.89-1.06,1.79-1.59,2.68-.23.39-.74.42-1.06.14-1.02-.9-2.04-1.81-3.05-2.71-.65-.58.31-1.53.95-.95,1.02.9,2.04,1.81,3.05,2.71l-1.06.14c1.44-2.43,2.88-4.87,4.32-7.3,2.28-3.86,4.56-7.72,6.85-11.58.53-.89,1.06-1.79,1.59-2.68l.4.99c-4.86-.71-9.72-1.43-14.58-2.14l-2.8-.41c-.22-.03-.39-.06-.6-.14-1.29-.45-2.57-.9-3.89-1.27-5.35-1.48-10.94-1.98-16.48-1.54-6.22.5-12.35,2.23-17.89,5.11l-.34-1.26c4.53.41,8.98,1.29,13.26,2.85s8.37,3.5,12.18,5.87c2.89,1.8,5.51,4,7.43,6.84.95,1.41,1.64,2.92,2.33,4.46.1.22.2.43.35.62.05.07.11.1.12.11-.02-.01.13.02.04.02.03,0,.14-.02.22-.06.17-.08.32-.2.45-.3.81-.66,1.45-1.58,2.4-2.06,1.19-.6,2.18.09,2.73,1.17.39.77-.77,1.45-1.16.68Z"/>
    </g>
    <g>
      <path class="j" d="M95.93,115.26c-7.13-33.83-14.48-47.18-30.77-54.34,3.87-.79,12.44-2.68,22.17-2.68,17.91,0,26.78,1.38,41.22,11.97,7.13,5.22,12.87,12.09,18.53,18.87l11.56,18.66-23.79,17.43s-40.27-10.75-40.6-12.28,1.68,2.37,1.68,2.37Z"/>
      <path class="g" d="M95.28,115.44c-2.21-10.45-4.65-21.07-8.89-30.92-2.82-6.55-6.61-12.75-12.16-17.34-2.83-2.35-6.05-4.19-9.41-5.67-.53-.23-.38-1.12.16-1.23,3.9-.8,7.81-1.54,11.77-2.03,5.38-.66,10.77-.75,16.18-.62,4.25.11,8.51.37,12.7,1.13,3.85.7,7.59,1.88,11.15,3.51,9.07,4.16,16.94,10.64,23.61,17.98,1.85,2.04,3.64,4.14,5.41,6.25.73.87,1.53,1.7,2.13,2.67l3.3,5.33c2.61,4.22,5.22,8.43,7.83,12.65l.16.26c.21.33.05.71-.24.92-4.09,3-8.18,6-12.28,8.99-2.74,2.01-5.48,4.01-8.22,6.02l-2.55,1.87c-.39.28-.76.7-1.28.62-1.26-.2-2.54-.68-3.77-1.02-2.9-.79-5.79-1.58-8.69-2.38-6.94-1.93-13.89-3.87-20.76-6.03-2.19-.69-4.42-1.36-6.52-2.29-.43-.19-1.01-.41-1.24-.85-.35-.65.09-1.75.94-1.3.52.28.85,1.06,1.13,1.55s.52.94.77,1.41c.4.77-.76,1.45-1.16.68-.32-.61-.64-1.22-.99-1.81-.1-.17-.21-.35-.32-.51,0,0-.12-.21-.07-.11-.08-.18,0,0,0-.03l.92-.51c0,.06,0,.07,0,0,0,.04.09.3-.04-.04.03.08-.09-.19-.04-.06.04.12-.12-.08-.02-.01.05.03.09.06.14.09.14.08.28.15.43.22.43.2.58.26,1.09.45,2.99,1.14,6.07,2.05,9.13,2.97,7.88,2.37,15.82,4.57,23.76,6.73,1.9.52,3.8,1.03,5.7,1.54l-.52.07c2.68-1.97,5.37-3.93,8.05-5.9,4.26-3.12,8.52-6.24,12.78-9.36.99-.72,1.97-1.44,2.96-2.17l-.24.92c-2.23-3.6-4.46-7.21-6.7-10.81l-3.96-6.39c-.29-.46-.55-.95-.87-1.4-.43-.62-.98-1.18-1.46-1.76-.87-1.04-1.75-2.08-2.63-3.11-3.53-4.1-7.21-8.1-11.36-11.58-3.68-3.09-7.75-5.84-11.98-8.11-3.43-1.85-7.06-3.3-10.85-4.23s-7.96-1.4-12-1.6c-5.12-.26-10.29-.32-15.4.08-4.51.36-8.98,1.07-13.42,1.96-.7.14-1.4.29-2.1.43l.16-1.23c6.21,2.74,11.6,6.8,15.7,12.24,5.08,6.74,8.11,14.88,10.52,22.9,1.94,6.45,3.47,13.02,4.86,19.6.18.85-1.12,1.21-1.3.36Z"/>
    </g>
    <g>
      <path class="j" d="M173.92,114.24c-4.64,2.96-10.13,4.22-15.5,5.44-4.59,1.04-9.21,2.08-13.91,2.32-6.49.33-12.95-.88-19.29-2.27-4.04-.88-8.06-1.84-12.07-2.87-3.95-1.02-7.89-2.11-11.65-3.69-5.58-2.35-10.66-5.74-15.69-9.11-3.71-2.48-7.48-5.02-10.28-8.5,5.49,21.58,19.53,40.86,38.38,52.71,0,0,34.84-1.5,36.35-2.6s28.15-17.88,27.95-18.23-4.28-13.2-4.28-13.2"/>
      <path class="g" d="M174.26,114.82c-5.68,3.58-12.52,4.85-18.99,6.25-3.55.76-7.14,1.42-10.77,1.6s-7.31-.12-10.92-.66c-7.19-1.07-14.32-2.86-21.36-4.69-3.45-.9-6.89-1.87-10.2-3.21s-6.28-2.93-9.24-4.73c-3.27-1.99-6.47-4.13-9.62-6.3-2.96-2.04-5.84-4.25-8.11-7.05l1.13-.66c2.03,7.93,5.19,15.53,9.34,22.58,4.15,7.05,9.27,13.51,15.19,19.16,2.96,2.83,6.12,5.45,9.45,7.83.85.61,1.72,1.2,2.59,1.78.2.13.41.27.61.4.15.1.53.25.62.4.1.17-.1.06-.04.07.24.05.57-.02.81-.04,3.73-.17,7.45-.35,11.18-.54,5.18-.27,10.36-.56,15.54-.95,1.99-.15,3.98-.31,5.97-.54.65-.08,1.07-.12,1.74-.25.19-.04.39-.08.58-.13.06-.02.13-.04.19-.06-.17.06-.1.06-.01,0,2.57-1.85,5.35-3.46,8.02-5.17,4.39-2.81,8.79-5.61,13.16-8.45,1.64-1.07,3.28-2.13,4.9-3.23.47-.32.94-.64,1.39-.97.09-.06.23-.21.25-.2,0,0,.03-.04.04-.04.08.02-.11-.44-.07.09.02.25.14.93-.1.41-.26-.57-.42-1.21-.61-1.81-.37-1.12-.73-2.24-1.09-3.36-.72-2.25-1.44-4.5-2.16-6.74-.13-.4-.26-.8-.38-1.2-.26-.83,1.04-1.18,1.3-.36,1.23,3.86,2.45,7.73,3.72,11.58.12.36.23.71.36,1.06.04.12.08.23.12.35.05.14.05.18.01.04.17.61-.08.86-.53,1.2-1.07.81-2.22,1.54-3.34,2.28-4.23,2.8-8.51,5.52-12.78,8.26-3.55,2.27-7.11,4.51-10.63,6.82-.65.43-1.16.78-1.93.93-1.52.29-3.08.41-4.62.55-5.04.46-10.1.75-15.15,1.03-4.48.25-8.96.48-13.44.68-.79.04-1.65.18-2.44.11-.67-.06-1.47-.8-2.02-1.17-.87-.58-1.73-1.17-2.59-1.78-1.69-1.21-3.34-2.48-4.94-3.81-6.38-5.29-12-11.49-16.69-18.33-4.71-6.86-8.47-14.39-11.09-22.29-.64-1.92-1.2-3.86-1.71-5.82-.15-.6.68-1.21,1.13-.66,2.01,2.47,4.48,4.48,7.08,6.31s5.48,3.73,8.27,5.51,5.81,3.55,8.9,4.98,6.51,2.55,9.88,3.48c6.81,1.89,13.74,3.55,20.7,4.83,3.56.65,7.17,1.13,10.79,1.18,3.62.06,7.19-.39,10.74-1.08,3.75-.72,7.5-1.55,11.18-2.54s6.96-2.15,10.04-4.1c.74-.46,1.41.7.68,1.16h0Z"/>
    </g>
    <g>
      <path class="f" d="M116.13,117.59c.02-7.19-9.19-19.1-11.68-25.85-1.37-3.71-2.74-7.44-4.63-10.91-2.31-4.26-5.51-8.21-9.84-10.39,4.73-.45,9.54-.36,14.17.7s9.09,3.09,12.66,6.22c0,0,25.61,14.62,25.56,14.95s-13.53,15.48-13.75,15.65-12.49,9.63-12.49,9.63Z"/>
      <path class="g" d="M115.46,117.59c-.01-2.83-1.22-5.63-2.41-8.14-1.48-3.12-3.23-6.11-4.94-9.1-1.48-2.58-3.01-5.17-4.11-7.94-1.64-4.09-3.01-8.25-5.22-12.08s-5.16-7.28-9.13-9.3c-.65-.33-.27-1.2.34-1.26,6.87-.64,13.94-.12,20.31,2.69,1.45.64,2.84,1.39,4.16,2.27.95.63,1.79,1.41,2.72,2.07.43.3.94.54,1.39.8,5.67,3.24,11.34,6.5,16.98,9.79,2.19,1.28,4.4,2.53,6.54,3.9.5.32,1.22.7.84,1.41-.35.66-1.02,1.26-1.5,1.82-2.25,2.62-4.54,5.2-6.83,7.78-1.77,1.99-3.5,4.02-5.32,5.96-.35.38-.8.66-1.2.98-1.19.92-2.39,1.84-3.58,2.76-2.51,1.94-5.03,3.87-7.54,5.81-.16.12-.32.24-.48.37-.69.53-1.36-.64-.68-1.16,1.89-1.46,3.79-2.92,5.68-4.38,1.4-1.08,2.79-2.15,4.19-3.23.52-.4,1.03-.8,1.55-1.19.18-.14.37-.28.55-.43.17-.13.06-.03.27-.21.34-.29.63-.65.93-.98.89-.98,1.77-1.97,2.65-2.96,2.36-2.65,4.71-5.31,7.05-7.98.85-.97,1.7-1.94,2.53-2.92.12-.15.25-.29.37-.44.05-.06.09-.11.14-.17.12-.15-.05-.01.03-.04.26-.08-.1-1.16.16.68,0-.07.12.07-.04-.03-1.74-1.14-3.54-2.18-5.34-3.23-5.74-3.37-11.51-6.68-17.28-9.98-.76-.44-1.52-.87-2.28-1.31-1.07-.61-1.95-1.5-2.98-2.2-5.52-3.73-12.22-5.16-18.81-5.16-1.73,0-3.46.1-5.18.26l.34-1.26c7.78,3.96,11.38,12.54,14.26,20.28,2.35,6.33,6.31,11.85,9.27,17.88,1.45,2.95,2.94,6.22,2.96,9.57,0,.87-1.34.87-1.35,0Z"/>
    </g>
    <g>
      <path class="j" d="M119.58,31.9c-2.89-.75-5.85-1.54-9.8-1.14-4.05.41-7.23,1.89-9.23,3.04,2.71.34,5.46.72,8,1.73,3.74,1.5,6.86,4.36,9.04,7.75,2.84,4.4,3.19,7.76,4.24,11.25,2.91,9.77,12.51,21.17,20.37,20,6.7-.99,12.33-11.15,11.43-19.91-1.14-11.08-12.41-16.77-15.05-18.1-2.96-1.5-1.48-.09-19-4.62Z"/>
      <path class="g" d="M119.4,32.55c-3.31-.86-6.56-1.49-9.99-1.07-3.01.36-5.9,1.41-8.52,2.9l-.34-1.26c3.18.41,6.38.86,9.31,2.25,2.54,1.21,4.77,3.05,6.57,5.2,1.89,2.26,3.35,4.87,4.32,7.65.83,2.36,1.25,4.83,2.07,7.2,1.72,5,4.73,9.72,8.5,13.43,2.89,2.85,7.19,5.99,11.51,4.87,4.53-1.18,7.52-5.99,8.97-10.13,1.68-4.81,1.77-10.14-.56-14.76-1.85-3.68-4.88-6.64-8.25-8.95-1.75-1.2-3.63-2.33-5.59-3.17.21.09-.1-.04-.17-.06-.11-.04-.23-.08-.35-.12-.22-.07-.45-.12-.67-.17-.65-.14-1.3-.25-1.95-.37-3.42-.63-6.81-1.42-10.19-2.25-1.56-.38-3.11-.78-4.67-1.18-.84-.22-.48-1.52.36-1.3,4.48,1.16,8.97,2.29,13.51,3.18,1.36.27,2.81.4,4.13.85,1.66.56,3.25,1.53,4.72,2.44,3.39,2.09,6.52,4.72,8.81,8,2.92,4.18,3.97,9.17,3.18,14.19s-3.19,10.12-7.23,13.23c-8.81,6.78-18.51-4.17-22.59-11.29-1.32-2.3-2.43-4.76-3.17-7.31s-1.23-5.12-2.29-7.54c-2.5-5.7-7.16-10.24-13.31-11.7-1.64-.39-3.31-.61-4.98-.83-.61-.08-.98-.89-.34-1.26,2.77-1.58,5.79-2.65,8.95-3.06,3.63-.47,7.09.18,10.6,1.09.84.22.48,1.52-.36,1.3Z"/>
    </g>
    <g>
      <path class="j" d="M171.51,36.29c1.05-.41,2.23-.1,3.31.22,5.12,1.53,10.36,3.26,14.41,6.75,3.96,3.42,6.47,8.32,7.59,13.44s.92,10.44.11,15.61c0,0-19.32,1.54-19.6,1.14s-5.15-17.23-5.09-17.75-.72-19.42-.72-19.42Z"/>
      <path class="g" d="M171.33,35.64c1.68-.58,3.46.15,5.08.65s3.18,1.01,4.73,1.61c3.08,1.2,6.05,2.71,8.57,4.89,4.93,4.26,7.53,10.6,8.3,16.95.51,4.25.22,8.54-.43,12.75-.05.31-.38.47-.65.49-3.9.31-7.81.6-11.71.85-2.21.14-4.42.3-6.64.35-.46,0-1.15.11-1.57-.14-.4-.23-.5-.87-.63-1.27-1.48-4.63-2.79-9.32-4.07-14.01-.29-1.06-.73-2.2-.74-3.31,0-1.78-.11-3.57-.18-5.35-.17-4.52-.35-9.03-.54-13.55,0-.09,0-.18-.01-.27-.04-.87,1.31-.87,1.35,0,.16,3.85.31,7.7.46,11.55.08,2.2.17,4.4.24,6.61.01.42.03.84.02,1.27,0,.15-.03-.18,0-.04.02.1.04.2.06.29.07.3.15.6.23.91,1.21,4.67,2.58,9.31,3.98,13.93.22.71.42,1.43.67,2.13.02.06.08.16.08.23,0-.06-.18-.19-.38-.33.11.08-.14,0,.01,0,.11,0,.22.01.33.01,1.9.04,3.81-.13,5.7-.25,2.65-.16,5.31-.35,7.96-.55,1.7-.13,3.41-.32,5.12-.39.09,0,.18-.01.27-.02l-.65.49c1.04-6.69,1.04-13.77-1.63-20.1-1.15-2.72-2.77-5.26-4.87-7.34s-4.87-3.74-7.69-4.95c-1.61-.7-3.28-1.27-4.95-1.81-.83-.26-1.66-.52-2.49-.77-.98-.29-1.95-.57-2.95-.22-.82.28-1.18-1.02-.36-1.3Z"/>
    </g>
    <g>
      <path class="j" d="M152.94,33.63c-.79-3.68-2.89-7.06-5.85-9.38,1.71.02,3.34.62,4.95,1.2,7.26,2.67,14.83,5.54,19.97,11.33,2.53,2.86,4.33,6.28,6.1,9.66l3.18,8.93-11.64,5.19s-16.03-8.21-16.03-8.89-.68-18.05-.68-18.05Z"/>
      <path class="g" d="M152.29,33.81c-.79-3.6-2.79-6.79-5.68-9.08-.47-.37-.07-1.17.48-1.15,2.22.06,4.29.92,6.35,1.68,1.9.7,3.8,1.43,5.66,2.22,3.7,1.57,7.3,3.45,10.43,6.01,3.36,2.75,5.76,6.3,7.81,10.08.56,1.04,1.19,2.07,1.59,3.18l.97,2.73c.68,1.91,1.36,3.81,2.03,5.72.09.25-.05.65-.31.76-3.27,1.46-6.55,2.92-9.82,4.38-.56.25-1.12.5-1.68.75-.38.17-.67.13-1.02-.05-1.31-.66-2.6-1.34-3.89-2.02-3.72-1.94-7.55-3.81-11.08-6.08-.36-.23-.86-.49-1.07-.88-.17-.32-.12-.79-.13-1.15-.06-1.82-.13-3.65-.2-5.47-.15-3.86-.4-7.73-.45-11.59,0-.07,0-.15,0-.22-.03-.87,1.31-.87,1.35,0,.21,5.23.41,10.47.6,15.7.02.51.04,1.01.05,1.52,0,.18.1.61.02.78-.07.14-.07-.19-.08-.25-.05-.35-.1,0-.03-.04.04-.02.14.12.21.17.37.25.75.49,1.13.72,2.66,1.6,5.42,3.03,8.16,4.48,2.09,1.1,4.19,2.2,6.29,3.28h-.68c3.39-1.51,6.78-3.03,10.17-4.54l1.46-.65-.31.76c-.54-1.53-1.09-3.06-1.63-4.59s-1.02-3.31-1.81-4.81c-1.97-3.76-4.05-7.49-7.17-10.44-2.84-2.69-6.27-4.65-9.8-6.27-2-.92-4.06-1.73-6.12-2.5-2.24-.84-4.59-1.95-7.01-2.01l.48-1.15c3.04,2.42,5.18,5.88,6.02,9.68.19.84-1.11,1.21-1.3.36Z"/>
    </g>
    <g>
      <path class="f" d="M146.41,63.74c-3.4-11.2-11.24-20.7-20.66-27.64-9.42-6.94-20.39-11.5-31.54-15.06,29.4-3.21,60.04,8.27,80.09,30l9.87,21h-41.12l3.36-8.3Z"/>
      <path class="g" d="M145.76,63.92c-2.53-8.26-7.48-15.57-13.64-21.56-6.6-6.41-14.56-11.22-22.92-14.97-4.93-2.21-10.02-4.05-15.17-5.7-.76-.24-.56-1.24.18-1.32,9.32-1.01,18.76-.55,27.96,1.22s18.14,4.89,26.47,9.18c8.35,4.3,16.09,9.82,22.82,16.38.83.81,1.65,1.64,2.45,2.48.34.36.76.71,1.01,1.15.26.46.46.98.69,1.46l3.07,6.54c1.98,4.22,3.97,8.44,5.95,12.67l.12.25c.21.45-.04,1.01-.58,1.01h-41.12c-.4,0-.82-.44-.65-.85,1.12-2.77,2.24-5.53,3.36-8.3.32-.79,1.63-.45,1.3.36-1.12,2.77-2.24,5.53-3.36,8.3l-.65-.85h41.12l-.58,1.01c-1.68-3.58-3.37-7.16-5.05-10.74-1.14-2.42-2.28-4.84-3.41-7.27l-1.06-2.26c-.28-.61-.47-.85-.96-1.37-6.41-6.78-13.86-12.52-21.98-17.1s-16.78-7.92-25.79-10.01c-9.08-2.1-18.45-2.89-27.75-2.23-1.13.08-2.25.18-3.37.3l.18-1.32c9.26,2.96,18.38,6.58,26.67,11.72,7.63,4.73,14.48,10.79,19.57,18.22,2.78,4.06,4.99,8.52,6.43,13.23.25.83-1.05,1.19-1.3.36Z"/>
    </g>
    <g>
      <path class="j" d="M124.52,93.6c-3.07,1.08-6.03.84-7.85,10.59-.75,4.04-1.92,9.56-2.54,13.64-.55,3.58-.88,7.21-1.22,10.83-.9,9.75-1.79,19.51-2.69,29.26-.13,1.38-.22,2.92.44,4,1.01,1.67,3.01,1.17,4.56.5,3.4-1.45,6.85-2.93,9.85-5.48,3-2.55,5.55-6.33,6.31-10.91"/>
      <path class="g" d="M124.7,94.25c-1.21.42-2.45.66-3.51,1.39-1.59,1.08-2.38,3.06-2.93,4.82-1.01,3.21-1.46,6.63-2.11,9.93s-1.32,6.87-1.75,10.34c-1.01,8.11-1.58,16.3-2.33,24.44-.37,3.99-.73,7.98-1.1,11.97-.13,1.41-.64,3.85.64,4.9,1.09.89,2.83.02,3.91-.45,3.61-1.55,7.24-3.24,10.08-6.03,2.67-2.62,4.49-5.99,5.12-9.68.15-.85,1.45-.49,1.3.36-.59,3.45-2.2,6.64-4.51,9.26-2.45,2.78-5.65,4.69-8.99,6.23-1.53.7-3.17,1.61-4.84,1.92-1.41.26-2.83-.06-3.62-1.36-.92-1.51-.61-3.47-.46-5.14.2-2.22.41-4.43.61-6.65.79-8.6,1.52-17.2,2.38-25.79.39-3.93.95-7.83,1.68-11.71.68-3.62,1.29-7.29,2.13-10.87.59-2.52,1.45-5.46,3.51-7.2,1.28-1.08,2.86-1.42,4.41-1.96.82-.28,1.17,1.02.36,1.3h0Z"/>
    </g>
    <polygon class="j" points="39.27 289.89 36.63 277.52 36.17 262.97 37.23 254.93 39.65 245.64 42.91 237.58 44 232.92 43.65 224.78 43.76 218.47 45.61 212.14 50.25 203.73 55.95 196.01 62.34 189.11 69.81 182.8 76.88 180.05 84.84 179.13 84.84 177.34 88.38 174.24 93.41 171.06 101.56 167.57 105.22 164.88 119.03 154.71 168.14 167.57 197.65 176.33 201.42 180.58 207.86 186.42 211 190.04 215.16 194.25 224.73 197.35 230.94 202.36 235.08 207.16 238.79 217.27 240.57 224.63 242.47 233.76 242.94 239.46 241.83 246.2 240.76 252.59 240.53 254.37 242.03 256.85 244.32 260.32 246.37 265.54 249.43 274.76 252.46 289.07 173 289.07 39.27 289.89"/>
    <path class="g" d="M199.07,177.62c2.8,2.45,5.67,4.85,8.35,7.43,1.26,1.21,2.45,2.48,3.53,3.85s2.08,2.74,3.38,3.88c.65.57-.3,1.52-.95.95-1.3-1.14-2.32-2.53-3.38-3.88s-2.28-2.64-3.53-3.85c-2.69-2.58-5.55-4.97-8.35-7.43-.65-.57.3-1.52.95-.95h0Z"/>
    <path class="g" d="M194.61,191.05c4.67-.13,9.33.14,13.95.8s8.73,1.59,12.78,3.44c3.78,1.73,7.36,4.12,10.45,6.91,1.55,1.4,2.86,3,3.83,4.86s1.67,3.92,2.39,5.91c.77,2.14,1.56,4.26,2.1,6.47s1.04,4.61,1.55,6.91,1.03,4.52,1.41,6.81c.35,2.08.66,4.26.55,6.38-.09,1.9-.42,3.79-.84,5.64-.51,2.21-1.22,4.39-1.61,6.63-.18,1.01-.24,2.14.33,3.04.51.81,1.32,1.4,1.89,2.18,1.22,1.67,1.87,3.77,2.62,5.68,3.37,8.6,5.91,17.43,7.17,26.59.15,1.12.29,2.23.41,3.35.09.86-1.26.85-1.35,0-.97-8.98-3.11-17.79-6.26-26.25-.79-2.11-1.58-4.24-2.47-6.31-.39-.91-.83-1.83-1.46-2.59-.58-.7-1.31-1.26-1.78-2.05-1.02-1.75-.47-3.9-.02-5.73.53-2.18,1.15-4.33,1.57-6.53.33-1.75.51-3.51.43-5.29-.1-2.3-.48-4.57-.94-6.82s-.97-4.44-1.46-6.66-.95-4.54-1.63-6.75c-.64-2.07-1.42-4.1-2.16-6.13s-1.53-3.98-2.77-5.72c-1.17-1.64-2.73-2.98-4.31-4.22s-3.36-2.46-5.16-3.51c-3.75-2.17-7.8-3.53-12.05-4.34-4.52-.87-9.13-1.32-13.74-1.38-1.14-.02-2.28,0-3.42.03-.87.02-.87-1.32,0-1.35h0Z"/>
    <path class="g" d="M214.92,218.19c-1.96-2.35-4.3-4.34-6.73-6.18s-4.82-3.97-7.69-4.82c-.83-.25-.48-1.55.36-1.3,3.01.9,5.55,3.09,8.02,4.96s4.96,3.95,7,6.39c.55.66-.4,1.62-.95.95h0Z"/>
    <path class="g" d="M220.32,230.83c.92,3.04,1.19,6.22,1.23,9.39.04,2.89-.03,5.8-.33,8.68-.58,5.48-2.19,10.92-6.03,15.03-3.86,4.11-9.14,6.2-14.72,6.41-3.17.12-6.33-.26-9.47-.66s-6.14-.86-9.05-2.06c-3.31-1.37-6.53-3.01-9.76-4.55-2.92-1.39-5.83-2.88-8.13-5.2-.61-.62.34-1.57.95-.95,1.97,1.99,4.42,3.33,6.92,4.54,2.73,1.33,5.49,2.61,8.24,3.9s5.51,2.21,8.53,2.66,5.99.83,8.99.95,5.88-.06,8.68-.98c2.39-.78,4.63-2.07,6.51-3.73,4.03-3.55,6-8.52,6.78-13.74.46-3.07.54-6.2.54-9.31,0-3.39-.2-6.78-1.19-10.04-.25-.83,1.05-1.19,1.3-.36h0Z"/>
    <path class="g" d="M159,255.91c.49,1.55.06,3.21-.89,4.5-1.04,1.41-2.59,2.25-4.21,2.83-1.81.65-3.71,1.08-5.57,1.51s-3.93.83-5.91,1.14c-4.02.63-8.09,1-12.16,1.08s-7.94.02-11.82-.6-6.95-2.76-10.05-4.81c-1.52-1.01-3-2.1-4.3-3.38s-2.46-2.89-3.42-4.52c-3.67-6.21-6.36-13.58-5.32-20.87,1-7.01,5.13-13.5,11.14-17.27.74-.46,1.41.7.68,1.16-5.02,3.15-8.6,8.31-10.04,14.03-.73,2.9-.9,5.95-.42,8.91.61,3.74,2,7.36,3.69,10.73s3.53,6.14,6.37,8.4c1.34,1.07,2.8,1.99,4.26,2.89s3.05,1.95,4.71,2.62,3.5.91,5.31,1.07,3.75.26,5.63.3c3.76.08,7.52-.09,11.25-.49,4.18-.45,8.34-1.21,12.41-2.26,1.88-.48,3.87-.94,5.48-2.08,1.42-1,2.44-2.78,1.89-4.53-.26-.83,1.04-1.18,1.3-.36h0Z"/>
    <path class="g" d="M163.53,216.08c-.54,10.12,3.04,20.25.66,30.29-.2.84-1.5.49-1.3-.36,2.35-9.9-1.24-19.96-.71-29.93.05-.86,1.39-.87,1.35,0h0Z"/>
    <path class="g" d="M156.47,205.16c-.42-.8-1.12-1.34-1.78-1.93-.71-.63-1.26-1.32-1.74-2.13-.56-.95-1.11-1.71-2.04-2.33s-1.83-1.19-2.76-1.77c-3.8-2.38-7.73-4.59-12.04-5.91-8.22-2.52-17.09-2.31-25.08-5.66-4.25-1.78-8.23-4.91-13-5.06-.87-.03-.87-1.37,0-1.35,4.3.13,7.96,2.5,11.71,4.34,4,1.97,8.34,2.94,12.71,3.67s8.82,1.27,13.11,2.48,8.45,3.33,12.33,5.72c1.09.67,2.16,1.36,3.23,2.05.94.61,1.78,1.24,2.42,2.18s1.14,1.94,2.03,2.73c.77.69,1.57,1.33,2.07,2.27.41.77-.76,1.45-1.16.68h0Z"/>
    <path class="g" d="M181.95,194.48c-2.02-.07-4.05-.12-6.08-.13s-3.95.02-5.88.46l.4-.31c-2.13,3.86-3.81,8.28-4.4,12.65-.11.85-1.46.86-1.35,0,.5-3.73,1.75-7.32,3.3-10.74.38-.83.75-1.69,1.22-2.48.31-.51.91-.53,1.46-.62,1.1-.18,2.22-.27,3.34-.29,2.66-.07,5.33.02,7.98.11.86.03.87,1.38,0,1.35h0Z"/>
    <path class="g" d="M225.57,232.27c-.92,1.08-1.9,2.13-2.73,3.28-.76,1.04-1.36,2.17-1.26,3.49.07.86-1.28.86-1.35,0-.24-3.08,2.57-5.58,4.38-7.72.56-.66,1.51.3.95.95h0Z"/>
    <path class="g" d="M208.56,268.51c-.66,1.46-.32,3.42-.26,4.97.06,1.74.13,3.47.16,5.21.06,3.43-.06,6.87-.69,10.25-.16.85-1.46.49-1.3-.36.66-3.52.71-7.11.63-10.67-.04-1.74-.12-3.47-.17-5.21-.05-1.64-.23-3.34.47-4.87.36-.79,1.52-.1,1.16.68h0Z"/>
    <path class="g" d="M206.11,273.54c-.1,3.08-1.05,6.12-2.79,8.67-1.83,2.69-4.47,4.56-7.13,6.36-.72.49-1.39-.68-.68-1.16,2.46-1.67,4.95-3.39,6.64-5.88,1.61-2.36,2.52-5.14,2.61-7.99.03-.86,1.37-.87,1.35,0h0Z"/>
    <path class="g" d="M191.75,271.58c2.53,1.29,3.91,4.42,2.91,7.13-.48,1.31-1.41,2.45-2.62,3.15-1.47.85-3.2.84-4.85.91-3.61.16-7.24.26-10.83-.21-3.3-.43-6.91-1.27-9.56-3.39s-3.87-5.75-4.34-9.11c-.12-.85,1.18-1.21,1.3-.36.36,2.61,1.07,5.38,2.84,7.41,1.99,2.28,5.14,3.23,8.02,3.8,3.08.62,6.24.69,9.37.62,1.56-.03,3.13-.09,4.69-.18,1.44-.08,2.74-.43,3.75-1.51,2.08-2.22,1.31-5.75-1.35-7.1-.77-.39-.09-1.56.68-1.16h0Z"/>
    <path class="g" d="M158.31,270.16c.06,2.72-1.45,5.2-3.87,6.44-2.67,1.36-5.9,1.63-8.85,1.8-6.57.38-13.21.39-19.61-1.38-2.43-.67-5.17-1.89-5.88-4.56-.22-.84,1.08-1.2,1.3-.36.56,2.1,2.86,3.03,4.76,3.56,2.78.79,5.66,1.27,8.55,1.47,2.98.21,5.98.1,8.96,0,2.8-.09,5.66-.26,8.37-1.04,1.36-.4,2.68-1.02,3.61-2.12s1.33-2.43,1.3-3.81c-.02-.87,1.33-.87,1.35,0h0Z"/>
    <path class="g" d="M157.27,281.9c.05,1.17.69,2.21,1.17,3.25s.88,2.02,1.18,3.08c.6,2.08.72,4.33-.06,6.38-.31.8-1.61.45-1.3-.36.8-2.09.54-4.3-.16-6.38s-2.08-3.85-2.17-5.97c-.04-.87,1.31-.86,1.35,0h0Z"/>
    <path class="g" d="M163.17,277.46c.6.84.5,1.82.45,2.8-.07,1.28.45,2.3.78,3.5s.28,2.5.44,3.74.53,2.51.89,3.74c.24.83-1.06,1.19-1.3.36-.34-1.18-.69-2.37-.87-3.59s-.11-2.46-.4-3.66c-.26-1.11-.83-2.13-.9-3.29-.06-.96.35-2.09-.25-2.92-.5-.71.66-1.38,1.16-.68h0Z"/>
    <path class="g" d="M122.93,285.58c-4.33.16-7.46-3.15-10.09-6.14-1.54-1.75-3.07-3.5-4.63-5.23-1.44-1.6-2.89-3.26-4.62-4.56-1.89-1.42-4.12-2.38-6.52-2.17-.86.07-.86-1.27,0-1.35,4.25-.37,7.75,2.46,10.49,5.37,1.57,1.67,3.07,3.39,4.58,5.11s2.84,3.37,4.45,4.85c1.74,1.61,3.9,2.86,6.34,2.77.87-.03.87,1.32,0,1.35h0Z"/>
    <path class="g" d="M93.48,273.54c1.5.56,2.95,1.23,4.32,2.05,1.24.74,2.58,2.12,4.09,2.18.68.03.9.88.34,1.26-1.67,1.12-.33,3.86.23,5.24.76,1.85,1.71,3.61,2.8,5.29.48.73-.69,1.4-1.16.68-1.33-2.04-2.44-4.22-3.29-6.51-.73-1.96-1.32-4.48.74-5.86l.34,1.26c-1.63-.07-2.83-1.15-4.15-1.99-1.46-.92-3-1.69-4.62-2.29-.81-.3-.46-1.6.36-1.3h0Z"/>
    <path class="g" d="M93.98,281.01c1.66,3.96,4.58,7.33,5.17,11.7.11.86-1.23.85-1.35,0-.56-4.17-3.53-7.56-5.12-11.34-.34-.8.97-1.15,1.3-.36h0Z"/>
    <path class="g" d="M89.11,220.88c1.51,2.37,3.53,4.35,4.9,6.82s2.17,4.93,2.66,7.57c1.08,5.78.43,11.67-.6,17.41s-2.29,11.9-3.83,17.75c-1.43,5.46-3.15,10.9-5.56,16.01s-2.64,5.81-7.32,8.99c-.72.49-1.39-.68-.68-1.16,4.06-2.76,3.97-2.82,6.17-7.15,2.47-4.85,4.18-10.09,5.62-15.32,1.55-5.6,2.73-11.3,3.83-17.01,1.1-5.69,2.03-11.51,1.34-17.3-.34-2.9-1.12-5.8-2.44-8.41-1.4-2.77-3.62-4.92-5.27-7.52-.47-.73.7-1.41,1.16-.68h0Z"/>
    <path class="g" d="M52.08,217.76c-1.73,4.32-.96,9,.23,13.36.61,2.25,1.34,4.47,1.9,6.73s.93,4.44,1.17,6.7c.47,4.53.27,9.13-.55,13.61s-2.39,8.82-4.22,13.02c-2.18,4.99-4.66,9.85-7.12,14.7-.39.77-1.56.09-1.16-.68,2.18-4.29,4.36-8.58,6.35-12.95s3.63-8.55,4.6-13.09c.94-4.42,1.23-8.98.87-13.48-.18-2.31-.54-4.6-1.07-6.85s-1.24-4.48-1.87-6.72c-1.34-4.75-2.3-9.95-.4-14.69.32-.8,1.62-.45,1.3.36h0Z"/>
    <path class="g" d="M52.34,230.6c2.75,2.07,5.71,3.82,8.85,5.23.79.35.11,1.52-.68,1.16-3.14-1.41-6.11-3.16-8.85-5.23-.68-.52-.01-1.69.68-1.16h0Z"/>
    <g>
      <path class="c" d="M206.47,256.92c.94-.12,1.89-.08,2.82.11.97.2,2.01.68,2.32,1.62.14.42.11.88.02,1.32-.36,1.58-1.62,2.86-3.09,3.55s-3.13.86-4.76.86c-.14,0-.28,0-.39-.09-.12-.1-.14-.27-.16-.42-.14-1.28-.28-2.59.01-3.84s1.1-2.47,2.31-2.89"/>
      <path class="g" d="M206.47,256.25c1.76-.19,4.27-.06,5.42,1.52s.12,3.72-1.05,4.93c-1.37,1.42-3.28,2.05-5.2,2.26-.79.09-2.27.4-2.83-.34-.25-.33-.25-.75-.29-1.15-.06-.6-.12-1.2-.12-1.8,0-2.16.83-4.37,2.98-5.19.81-.31,1.16.99.36,1.3-1.83.7-2.06,2.99-1.96,4.66.02.26.04.52.06.77.01.13.03.26.04.39.08.27.04.31-.1.1.36.12,1.02-.02,1.4-.05.94-.07,1.88-.25,2.76-.6,1.44-.58,2.93-1.88,3.1-3.52.21-2.13-3.2-2.09-4.55-1.94-.86.1-.85-1.25,0-1.35h0Z"/>
    </g>
    <g>
      <path class="c" d="M128.45,255.49c-.23-.42-.78-.55-1.25-.63-.51-.09-1.03-.18-1.54-.27-1.5-.26-3.07-.51-4.5,0s-2.61,2.06-2.14,3.51c.4,1.25,1.78,1.88,3.05,2.22,1.23.33,2.51.52,3.78.56,1.06.04,2.25-.08,2.92-.89.68-.81.58-2,.44-3.05-.07-.5-.18-1.07-.61-1.32"/>
      <path class="g" d="M127.87,255.83c-.23-.33-1-.35-1.36-.41-.58-.1-1.16-.21-1.74-.3-1.05-.16-2.17-.27-3.2.04-.86.27-1.69.94-1.92,1.85s.33,1.62,1.07,2.05c.84.49,1.83.7,2.77.88,1.04.2,2.15.33,3.21.25.91-.08,1.71-.46,1.89-1.43.08-.46.04-.96,0-1.42-.04-.33-.03-.93-.33-1.14-.7-.49-.03-1.66.68-1.16.84.59.93,1.55,1.02,2.5s0,2.05-.65,2.85c-1.39,1.71-4.3,1.2-6.17.85s-4.33-1.04-4.81-3.15,1.34-3.9,3.24-4.32c1.34-.3,2.71-.1,4.05.12,1.17.2,2.69.18,3.43,1.25.5.71-.67,1.39-1.16.68h0Z"/>
    </g>
    <path class="g" d="M92.23,179c-2.43.77-4.98.73-7.5.81-2.34.08-4.68.28-6.98.74s-4.44,1.14-6.47,2.19c-2.2,1.14-4.07,2.74-5.88,4.4-6.88,6.3-12.98,13.53-17.44,21.75-.72,1.32-1.47,2.64-1.91,4.08-.32,1.04-.59,2.09-.91,3.13-.36,1.18-.76,2.35-.94,3.57s-.07,2.58.02,3.85.25,2.64.36,3.96c.22,2.54.3,5.11-.25,7.62-.52,2.35-1.53,4.55-2.48,6.74s-1.8,4.53-2.49,6.87c-1.35,4.63-2.12,9.4-2.4,14.21-.55,9.68.84,19.41,3.48,28.71.33,1.15.67,2.29,1.03,3.42.26.83-1.04,1.18-1.3.36-2.99-9.37-4.78-19.2-4.68-29.06.05-4.86.57-9.73,1.65-14.47.54-2.38,1.22-4.72,2.05-7.02s1.94-4.58,2.83-6.9c.95-2.46,1.42-4.92,1.37-7.56s-.46-5.27-.6-7.91c-.07-1.28-.06-2.53.2-3.79s.69-2.46,1.04-3.69c.38-1.33.67-2.71,1.27-3.96,4.12-8.56,10.06-16.16,16.85-22.76,1.74-1.69,3.52-3.38,5.46-4.85s3.93-2.48,6.13-3.24,4.53-1.21,6.85-1.47c2.45-.28,4.91-.25,7.37-.4,1.32-.08,2.62-.26,3.88-.66.83-.26,1.18,1.04.36,1.3h0Z"/>
    <path class="g" d="M118.33,155.92c-.35.6-.91,1.07-1.45,1.49-.79.64-1.63,1.21-2.48,1.78-1.98,1.32-4.02,2.56-6,3.89-.78.53-1.56,1.06-2.27,1.67-.25.21-.49.43-.7.68-.25.3-.58.98-.94,1.34-.56.56-1.32.83-2.03,1.14-.98.42-1.97.84-2.95,1.26-1.85.79-3.71,1.56-5.55,2.38-1.94.86-3.73,1.87-5.28,3.33-1.47,1.39-2.71,2.98-3.95,4.57-.53.68-1.48-.28-.95-.95,2.21-2.83,4.49-5.59,7.73-7.28,1.73-.9,3.56-1.61,5.36-2.38s3.75-1.57,5.6-2.39c.31-.14.63-.27.9-.48.36-.28.54-.67.77-1.04.18-.28.39-.52.63-.75.62-.61,1.35-1.13,2.06-1.64,1.86-1.32,3.8-2.5,5.71-3.74,1.03-.66,2.05-1.33,3.03-2.07.57-.43,1.29-.97,1.61-1.51.44-.75,1.61-.07,1.16.68h0Z"/>
    <g>
      <g>
        <path class="j" d="M138.46,66.11c-1.59-1.08-3.01-2.37-4.48-3.61s-4.07-2.94-5.27-3.8c-2.38-1.7-2.72-2.38-5.49-3.58-1.81-.78-4.32-1-5.49.59-.48.65-.6,1.48-.68,2.28-.4,3.89-.26,7.8-.11,11.71.24,6.43,1.91,17.05,3.52,23.28"/>
        <path class="g" d="M138.12,66.69c-1.87-1.29-3.49-2.87-5.28-4.25-1.42-1.08-2.91-2.06-4.37-3.09-1.3-.92-2.48-2.02-3.86-2.8-1.49-.85-3.39-1.73-5.14-1.23-.98.28-1.47,1-1.66,1.97-.24,1.22-.26,2.51-.31,3.75-.1,2.53-.03,5.06.06,7.59.14,3.87.54,7.71,1.1,11.54.62,4.24,1.36,8.48,2.43,12.62.22.84-1.08,1.2-1.3.36-1.01-3.91-1.72-7.89-2.32-11.88s-1.09-7.96-1.24-11.98c-.1-2.71-.2-5.42-.09-8.12.05-1.3.12-2.62.31-3.91.15-1.03.55-1.98,1.39-2.62,1.44-1.1,3.52-.92,5.14-.33s3.12,1.54,4.51,2.63c1.65,1.29,3.4,2.43,5.1,3.65,2.15,1.55,4.03,3.43,6.21,4.93.71.49.04,1.66-.68,1.16h0Z"/>
      </g>
      <g>
        <path class="j" d="M168.67,64.59c1.96-5.38,5.03-10.27,8.08-15.12,1-1.58,2.29-3.35,4.16-3.41,2.04-.07,3.49,1.91,4.49,3.69,3.6,6.44,6.45,13.3,8.46,20.39"/>
        <path class="g" d="M168.02,64.41c1.28-3.49,2.99-6.78,4.88-9.97.93-1.58,1.9-3.13,2.87-4.68.8-1.28,1.6-2.61,2.83-3.53,1.14-.85,2.58-1.11,3.91-.54s2.23,1.71,2.97,2.87c1.94,3.04,3.47,6.45,4.89,9.76,1.62,3.79,3.01,7.67,4.14,11.64.24.84-1.06,1.19-1.3.36-1.87-6.56-4.44-12.92-7.68-18.93-1.02-1.9-2.92-5.85-5.71-4.36-1.25.67-2.03,2.03-2.76,3.19-.88,1.41-1.77,2.82-2.62,4.24-1.97,3.29-3.8,6.69-5.12,10.3-.3.81-1.6.46-1.3-.36h0Z"/>
      </g>
      <g>
        <path class="f" d="M130.52,72.08c-1.48-2.35-4.03-3.98-6.78-4.34-.14-.02-.29-.03-.41.04-.12.07-.18.21-.23.35-.34.88-.68,1.76-.78,2.7-.08.77,0,1.54.09,2.3.34,3.14.7,6.31,1.74,9.29l12.34-1.83-5.97-8.51Z"/>
        <path class="g" d="M129.93,72.42c-.9-1.39-2.16-2.49-3.64-3.22-.71-.35-1.46-.58-2.23-.73-.1-.02-.2-.04-.3-.05,0-.15-.02-.15-.05,0-.13.14-.18.48-.25.66-.16.44-.3.89-.39,1.35-.2.97-.06,1.97.05,2.95s.22,2.03.37,3.04c.28,1.97.67,3.93,1.32,5.82l-.83-.47c3.59-.53,7.18-1.07,10.77-1.6l1.57-.23-.4.99c-1.99-2.84-3.98-5.67-5.97-8.51-.5-.71.67-1.39,1.16-.68,1.99,2.84,3.98,5.67,5.97,8.51.23.33.01.93-.4.99-3.59.53-7.18,1.07-10.77,1.6l-1.57.23c-.38.06-.7-.09-.83-.47-.78-2.27-1.18-4.62-1.48-6.99-.16-1.24-.35-2.51-.4-3.76-.04-1.13.19-2.19.57-3.24.33-.9.6-1.66,1.72-1.52,1,.13,1.96.44,2.87.86,1.77.82,3.26,2.16,4.31,3.79.47.73-.69,1.41-1.16.68Z"/>
      </g>
      <g>
        <path class="f" d="M187.08,67.56c-1.57-2.94-3.38-5.75-5.39-8.4-.33-.44-.73-.9-1.27-.98-.64-.08-1.2.41-1.59.92-.64.83-1.07,1.8-1.49,2.76l-1.61,3.64,2.38,5.44,8.98-3.38Z"/>
        <path class="g" d="M186.49,67.9c-1.54-2.86-3.28-5.61-5.24-8.2-.46-.61-.94-1.15-1.63-.49-.53.51-.89,1.23-1.21,1.89-.76,1.55-1.42,3.16-2.12,4.74v-.68c.79,1.81,1.58,3.63,2.38,5.44l-.76-.31c2.99-1.13,5.99-2.25,8.98-3.38.81-.31,1.16,1,.36,1.3-2.99,1.13-5.99,2.25-8.98,3.38-.25.09-.65-.06-.76-.31-.78-1.79-1.7-3.58-2.37-5.42-.14-.38-.06-.58.1-.95.3-.69.61-1.37.91-2.06.54-1.21,1.02-2.48,1.74-3.6.55-.85,1.32-1.77,2.42-1.75,1.17.02,1.86,1.18,2.47,2.01,1.81,2.44,3.43,5.02,4.87,7.7.41.76-.75,1.44-1.16.68Z"/>
      </g>
      <g>
        <path class="j" d="M118.29,147.23c-1.35,8.76-.4,8.76,7.14,16.57,1.88,1.95,8.54,7.11,10.78,8.62,15.04,10.17,30.02,25.75,41.63,26.54,17.79,1.21,12.4-4.45,17.79-3.37.67.13,11.68,1.65,14.28-1.89,3.2-4.34-2.21-16.16-1.08-22.23,1.6-8.54.63-9.54,1.48-17.92l-1.54-19.62c.39.41.66.67.71.67.23,0,4.8-2.23,4.8-2.23.23-.76.61-1.46.93-2.19.62-1.44.98-3,1.06-4.57.14-2.93-.93-6.62-1.88-9.55-.09-.27-.18-.54-.26-.8l1.45.44c.1-.03.19-.07.28-.1.52-.19,1.05-.44,1.36-.89.35-.5.35-1.16.34-1.77-.05-3.22-.24-6.75-2.39-9.15h.29c.06-1.93-.02-4.18-1.56-5.34-.62-.47-1.39-.68-2.15-.87-.35-.08-.7-.17-1.06-.24l1.92.04c.11-.95-.23-1.87-.83-2.63l-.15.04c-.01-.09-.02-.18-.04-.26-.94-6.39-3.01-13.5-7.43-18.17-.35-.37-.71-.73-1.09-1.07-3.56-3.24-8.15-5.22-12.78-6.63-7.49-2.29-15.31-3.28-23.09-4.23-10.14-1.24-21.06-2.28-29.99,2.68-.99.55-1.93,1.16-2.82,1.82-7.18,5.34-11.37,14.21-13.72,22.98-1.36,5.08,3.54,8.3,2.19,15.71l-4.58,39.61Z"/>
        <path class="g" d="M118.93,147.41c-.39,2.57-1.03,5.61.14,8.07.54,1.14,1.36,2.12,2.21,3.05,1.32,1.46,2.73,2.85,4.1,4.26,2.22,2.29,4.77,4.25,7.29,6.2,2.87,2.21,5.89,4.21,8.8,6.36,7.37,5.46,14.3,11.54,21.92,16.66,3.1,2.08,6.37,4.07,9.92,5.29s7.28,1.29,10.96,1.13c2.09-.09,4.45-.29,6.25-1.33.53-.31.72-.47,1.17-.91.32-.31.63-.64,1-.89.98-.68,2.13-.5,3.24-.32.6.1,1.49.19,2.27.25,1.4.11,2.81.17,4.22.13s2.86-.16,4.24-.52c1.08-.29,2.25-.74,2.86-1.73.67-1.1.76-2.47.74-3.72-.02-1.67-.29-3.34-.58-4.98-.62-3.44-1.54-6.89-1.66-10.41-.06-1.85.37-3.61.64-5.43s.43-3.52.5-5.29c.06-1.57.06-3.14.13-4.7.04-1.03.1-2.05.19-3.07.05-.66.18-1.33.17-1.99-.02-1.46-.23-2.95-.35-4.41-.37-4.72-.74-9.44-1.11-14.16l-.08-1c-.05-.59.76-.88,1.15-.48.08.08.52.42.53.53,0-.08-.52.11-.37-.07.07-.08.25-.1.37-.16.56-.25,1.11-.51,1.66-.77.84-.4,1.67-.8,2.5-1.2l-.31.4c.47-1.43,1.23-2.72,1.6-4.18s.44-2.86.3-4.32c-.27-2.82-1.18-5.57-2.06-8.25-.16-.49.35-.97.83-.83l.79.24c.17.05.34.09.5.15.04.02.1.04.15.04-.24,0-.17,0-.06-.1.25-.21.62-.23.87-.49s.31-.57.34-.91c.05-.66,0-1.34-.03-2-.1-2.54-.42-5.3-2.16-7.29-.38-.43-.13-1.14.48-1.15h.29c-.22.22-.45.44-.67.67.04-1.29.08-2.73-.54-3.9-.73-1.37-2.35-1.59-3.72-1.89-.75-.16-.58-1.34.18-1.32l1.92.04-.67.67c.07-.88-.22-1.59-.74-2.29l.76.31-.15.04c-.32.09-.78-.11-.83-.47-1.07-7.32-3.32-15.09-9.25-19.95-3.1-2.54-6.85-4.18-10.63-5.4-4.22-1.37-8.57-2.29-12.94-3.01s-8.74-1.26-13.13-1.77c-3.99-.46-8-.83-12.02-.76-3.9.06-7.81.55-11.5,1.83s-7.04,3.44-9.79,6.23c-5.24,5.31-8.34,12.42-10.28,19.53-.35,1.27-.42,2.49-.11,3.78.29,1.22.77,2.38,1.2,3.54.5,1.35.92,2.72,1.11,4.15.21,1.51.13,2.98-.1,4.48-.29,1.93-.45,3.89-.67,5.83-.48,4.16-.96,8.33-1.44,12.49-.51,4.4-1.02,8.79-1.53,13.19l-.89,7.71-.04.38c-.1.85-1.45.86-1.35,0,.22-1.9.44-3.8.66-5.7.49-4.26.98-8.52,1.48-12.77l1.55-13.38c.29-2.5.57-5.01.87-7.51.06-.52.16-1.03.21-1.55.15-1.64-.01-3.26-.45-4.84-.69-2.52-2.09-4.92-2.16-7.59-.04-1.59.51-3.14.97-4.64.56-1.82,1.2-3.62,1.94-5.38,1.45-3.47,3.25-6.79,5.56-9.77s5.2-5.66,8.54-7.53,7.31-3.02,11.24-3.51c8.26-1.04,16.74.31,24.92,1.41,4.47.6,8.92,1.31,13.3,2.38,4.09.99,8.17,2.25,11.9,4.22,3.5,1.85,6.58,4.39,8.78,7.7,2.08,3.14,3.41,6.75,4.31,10.38.45,1.8.78,3.62,1.05,5.45l-.83-.47.15-.04c.32-.09.58.07.76.31.65.87,1.01,1.88.92,2.97-.03.36-.28.68-.67.67l-1.92-.04.18-1.32c1.7.37,3.48.76,4.44,2.36.84,1.4.86,3.16.82,4.74-.01.37-.3.67-.67.67h-.29c.16-.38.32-.76.48-1.15,2.17,2.48,2.5,5.82,2.58,8.99.02.73.08,1.52-.17,2.23-.28.79-.92,1.26-1.66,1.57-.48.2-.81.3-1.3.16l-1.15-.34.83-.83c1.37,4.16,2.84,8.65,1.82,13.05-.26,1.14-.71,2.2-1.19,3.26-.26.57-.35,1.33-.94,1.64-1,.53-2.04.99-3.06,1.47-.5.23-1.01.5-1.53.68-.71.25-1.11-.29-1.57-.77l1.15-.48c.31,3.93.62,7.87.92,11.8l.52,6.62c.03.39.09.79.09,1.19,0,1.06-.2,2.16-.27,3.22-.06.93-.1,1.87-.13,2.81-.1,3.56-.24,7.05-.84,10.58-.29,1.73-.48,3.31-.31,5.07s.51,3.53.85,5.27c.65,3.33,1.6,6.88,1.26,10.3-.12,1.28-.46,2.6-1.33,3.59s-2.13,1.46-3.34,1.77c-2.8.71-5.83.64-8.69.41-.86-.07-1.73-.15-2.59-.29-.5-.08-1.1-.19-1.52-.12.08-.01-.18.04-.25.06-.05.01-.09.03-.13.04-.13.05.12-.07-.03.02-.08.04-.16.09-.24.14-.2.12.05-.06-.13.1-.33.29-.62.61-.94.9-1.22,1.09-2.76,1.65-4.35,1.96-1.49.29-3.01.4-4.52.43-2.14.05-4.32.02-6.45-.24-3.43-.42-6.65-1.85-9.65-3.51-3.75-2.08-7.25-4.6-10.66-7.19-3.77-2.85-7.44-5.82-11.17-8.72-6.14-4.79-12.7-9.01-18.63-14.07-1.23-1.05-2.34-2.18-3.47-3.33-1.27-1.3-2.58-2.59-3.76-3.98-.83-.98-1.58-2.01-2.05-3.21-.44-1.11-.57-2.31-.56-3.5.02-1.68.28-3.36.54-5.01.13-.85,1.43-.49,1.3.36Z"/>
      </g>
      <g>
        <path class="h" d="M196.78,156.08c-.08.15-.13.25-.13.25-.92.78,4.79-1.4,3.7-.88-1.17.56-3.49,9.03-4.72,9.43-4.44,1.43-14.57-2.36-19.22-1.93-1.32.12-2.63.16-3.95.13-4.34-.08-8.68-.85-12.97-1.62-1.1-.2-2.21-.4-3.27-.76-1.1-.38-2.13-.93-3.1-1.56-.89-.59-1.73-1.25-2.4-2.08,0,0-.01-.01-.01-.02-1.71-2.12-2.02-5.38-.46-7.61,1.56-2.24,5.02-3.02,7.23-1.4h.01l-.03.05c18.28,6.4,20.82,7.53,39.33,8.01Z"/>
        <path class="g" d="M197.36,156.42c-.08.14-.15.31-.28.41-.33.28-.68-.82-.39-1.01-.12.08,0,0,.1-.02.1-.02.2-.05.3-.07.49-.13.97-.29,1.44-.44.6-.2,1.86-.9,2.43-.39.21.18.27.58.11.82-.09.12-.17.19-.29.27-.15.11-.05,0-.1.05-.15.13-.26.34-.4.59-.4.73-.71,1.52-1.02,2.29-.72,1.79-1.33,3.67-2.26,5.37-.28.51-.61,1.03-1.18,1.25-.86.32-1.89.35-2.8.35-2.47-.01-4.95-.52-7.37-.99s-4.83-1.05-7.28-1.25c-1.19-.1-2.35.04-3.54.09-1.88.08-3.76.01-5.63-.15-3.66-.32-7.31-.95-10.91-1.65-3.08-.6-6.37-2.11-8.29-4.7s-2.02-6.29.09-8.69c.93-1.07,2.3-1.75,3.69-1.96.68-.1,1.35-.1,2.02.03.35.06.68.17,1,.3.13.06.27.11.4.18.12.06.7.28.28.28.5,0,.85.57.58,1.01l-.03.05-.4-.99c5.31,1.86,10.6,3.84,16.03,5.34,4.23,1.17,8.54,1.85,12.92,2.18,3.4.26,6.8.37,10.2.46.87.02.87,1.37,0,1.35-5.46-.14-10.96-.31-16.37-1.14-4.43-.68-8.72-1.94-12.97-3.36-3.41-1.14-6.79-2.34-10.17-3.53-.4-.14-.64-.6-.4-.99l.03-.05.58,1.01c-.48,0-.97-.51-1.44-.65-.56-.18-1.14-.24-1.73-.19-1.18.09-2.34.63-3.15,1.5-1.85,1.96-1.54,5.28.07,7.28,1.99,2.47,5.17,3.59,8.18,4.14,3.42.62,6.85,1.23,10.31,1.51,1.7.13,3.4.18,5.11.11,1.14-.05,2.25-.18,3.4-.1,2.25.16,4.48.65,6.69,1.09s4.55.94,6.86,1.11c.94.07,1.92.11,2.85-.05.2-.03.4-.08.6-.13.07-.02.16-.04.22-.07-.22.09,0-.04-.07.03.08-.08.23-.28.35-.49.98-1.66,1.56-3.57,2.28-5.34.34-.84.67-1.69,1.11-2.48.15-.28.33-.58.55-.81.09-.09.2-.18.31-.25.21-.13.14-.15-.07.14l.11.82h0c.16.06.32.13.48.19.28,0-.04.03-.19.08-.24.08-.48.16-.71.24-.59.2-1.18.4-1.78.57-.4.12-.87.29-1.29.23-.32-.05-.58-.28-.62-.61-.04-.35.22-.63.32-.8.42-.76,1.58-.08,1.16.68Z"/>
      </g>
      <g>
        <path class="i" d="M181.75,164.61l-11.52-1.6c-4.34-.08-6.46-.78-10.75-1.55-1.1-.2-2.21-.4-3.27-.76-1.1-.38-2.13-.93-3.1-1.56-.89-.59-1.73-1.25-2.4-2.08,0,0-.01-.01-.01-.02.04-.04.06-.06.06-.06.58-.54,1.37-.8,2.13-1.04.31-.1.63-.2.96-.19.3.01.58.12.86.23,4.56,1.72,9.26,3.24,14.09,3.86,8.79,1.13,28.73,2.98,27.91,3.29-.4.15-1.81,2.26-4.58,2.16-3.47-.13-7.14-.27-10.37-.67Z"/>
        <path class="g" d="M181.57,165.26c-2.9-.4-5.79-.81-8.69-1.21-1.14-.16-2.27-.35-3.41-.39-3.12-.12-6.13-.79-9.18-1.37-2.03-.39-4.04-.71-5.91-1.64-1.58-.79-3.18-1.86-4.26-3.27-.18-.24-.08-.62.11-.82.43-.44.99-.72,1.56-.95.71-.28,1.51-.6,2.28-.51.69.08,1.36.43,2,.66.79.29,1.59.57,2.38.84,3.11,1.05,6.28,1.94,9.53,2.44,4,.62,8.06.96,12.09,1.4,4.03.43,8.06.84,12.08,1.31,1.26.15,2.53.29,3.78.48.29.04.59.07.86.16.51.16.86.74.41,1.19-.23.24-.14.08-.4.32-.3.28-.6.55-.92.8-.97.74-2.11,1.2-3.34,1.25-1.79.08-3.65-.12-5.44-.22s-3.57-.24-5.35-.45c-.85-.1-.86-1.45,0-1.35,2.95.36,5.91.5,8.88.62,1.25.05,2.48.19,3.63-.4.66-.34,1.16-.82,1.71-1.31.09-.08.2-.19.3-.25.33-.18,1.05-.8.1,1.07-.02.04.2.04-.04,0-.3-.04-.6-.11-.9-.16-1.13-.17-2.31-.3-3.48-.43-7.47-.86-14.96-1.54-22.43-2.47-3.07-.38-6.07-1.02-9.03-1.92-1.65-.5-3.29-1.06-4.91-1.66-.8-.3-1.54-.73-2.4-.47-.69.21-1.49.43-2.01.96l.11-.82c.97,1.27,2.57,2.21,3.99,2.89,1.62.77,3.39,1.03,5.14,1.36,3.02.56,5.98,1.25,9.06,1.36,1.15.04,2.28.23,3.43.39l5.42.75c1.2.17,2.41.34,3.61.5.86.12.49,1.42-.36,1.3Z"/>
      </g>
      <g>
        <path class="i" d="M199.26,155.45c-2.32.98.09,4.1-2.43,4.04-9.06-.22-29.21-3.44-40.07-7.68-.19-.07-1.58-.57-2.17-1.03-.16-.13-.55-.6-.66-.78-.86-1.41-.65-1.7-.45-2.72l.93-.06c1.11-.16,2.55.58,3.03.74,1,.34,1.13.37,1.13.45,0,.11,27.6,5.2,27.6,5.2,0,0,7.13-1.02,7.35-.79s4.47,1.81,4.47,1.81l-4.59.91,5.84-.09Z"/>
        <path class="g" d="M199.6,156.03c-1.35.63-.45,2.27-1.08,3.35-.71,1.21-2.71.76-3.87.68-3.52-.22-7.03-.65-10.53-1.15-8.09-1.17-16.23-2.72-24.02-5.22-1.73-.56-3.54-1.11-5.17-1.93-.9-.45-1.52-1.19-1.95-2.1s-.34-1.62-.15-2.56c.06-.3.37-.48.65-.49,1.16-.08,2.17-.06,3.28.36.57.22,1.14.42,1.71.63.19.07.39.13.54.28.05.05.06.09.13.16.04.06.06.11.08.18-.09-.23-.24-.38-.45-.44.14-.03.47.11.61.14.47.1.94.19,1.41.28,3.52.69,7.05,1.34,10.58,2,3.82.71,7.64,1.42,11.47,2.13,1.04.19,2.09.39,3.13.58.09.02.2.02.29.05.26.08-.18,0-.23.01.15-.06.38-.05.54-.08.42-.06.84-.12,1.26-.17,1.15-.15,2.3-.3,3.45-.43.7-.08,1.67-.33,2.38-.13.07.02.12.05.2.08.38.14.01.02.09.06.12.06.24.12.37.18.5.22,1.01.42,1.52.62.78.3,1.56.6,2.34.89.56.21.71,1.16,0,1.3-1.53.3-3.06.6-4.59.91l-.18-1.32c1.95-.03,3.89-.06,5.84-.09.87-.01.87,1.33,0,1.35-1.95.03-3.89.06-5.84.09-.74.01-.94-1.17-.18-1.32,1.53-.3,3.06-.6,4.59-.91v1.3c-.65-.24-1.31-.49-1.96-.74-.84-.32-1.77-.6-2.55-1.05-.18-.1-.39-.38,0-.03.08.07.1,0-.09,0-.36.02-.71.04-1.07.07-1,.09-1.99.22-2.98.35-.82.11-1.64.22-2.45.33-.28.04-.54.08-.82.03-.8-.13-1.6-.29-2.39-.44-7.32-1.35-14.64-2.7-21.95-4.1-1-.19-2.04-.33-3.03-.6-.16-.05-.31-.09-.44-.21-.03-.03-.19-.24-.17-.3l.24.33c.07.03.05.02-.05-.02-.19.07-.83-.28-1.03-.36-.69-.26-1.38-.6-2.12-.66-.48-.04-.99.05-1.47.08l.65-.49c-.16.8-.17,1.24.26,1.98s1.05,1.11,1.85,1.44c1.41.58,2.85,1.07,4.3,1.54,3.59,1.15,7.25,2.06,10.93,2.86,7.25,1.58,14.64,2.8,22.05,3.36.78.06,1.56.11,2.34.14.4.02,1.34.23,1.54-.18.11-.22.05-.57.05-.8,0-.37,0-.73.07-1.09.14-.83.63-1.48,1.4-1.84s1.47.8.68,1.16Z"/>
      </g>
      <g>
        <path class="i" d="M217.22,114.71c-.31.45-.85.7-1.36.89-.09.04-.19.07-.28.1-.39.14-.79.26-1.19.37-3.33.9-6.88.81-10.35.71-2.55-.07-5.1-.15-7.65-.22-2.79-.08-6.22-.47-7.82-2.76l-5.32-8.03c1.04-.55,2.05-1.04,3.04-1.48,6.45-2.87,12.05-3.57,19.72-3.49,3.29.04,6.91.53,9.13,2.96.01.01.03.03.04.04,2.15,2.39,2.34,5.92,2.39,9.15,0,.61,0,1.27-.34,1.77Z"/>
        <path class="g" d="M217.7,115.18c-.49.62-1.22.91-1.94,1.17-.95.33-1.92.58-2.91.75-1.98.35-4,.43-6,.42s-4.16-.1-6.24-.16c-1.9-.06-3.82-.05-5.72-.2-2.58-.21-5.4-.83-6.95-3.09-.89-1.3-1.74-2.63-2.61-3.94s-1.77-2.68-2.66-4.02c-.19-.29-.07-.76.24-.92,2.85-1.49,5.83-2.76,8.94-3.61,2.93-.79,5.95-1.2,8.97-1.36s6.37-.31,9.44.3c2.79.56,5.35,2.02,6.64,4.65.74,1.5,1.05,3.14,1.2,4.79.08.89.11,1.78.13,2.67s.02,1.67-.43,2.42-1.61.07-1.16-.68c.36-.61.25-1.38.24-2.06-.02-.71-.04-1.43-.1-2.14-.11-1.33-.34-2.69-.86-3.92-1.09-2.6-3.45-3.93-6.12-4.45-2.81-.54-5.81-.39-8.65-.25s-5.61.48-8.34,1.17c-3.22.81-6.29,2.09-9.23,3.63l.24-.92c1.65,2.5,3.31,5,4.96,7.5.29.44.57.85.96,1.2,1.08.96,2.57,1.34,3.96,1.55,1.58.24,3.19.22,4.78.27,2.02.06,4.03.12,6.05.18,2.12.06,4.25.1,6.37-.11,1.11-.11,2.22-.3,3.3-.59.86-.23,1.96-.46,2.54-1.19.54-.68,1.49.28.95.95Z"/>
      </g>
      <path class="g" d="M133.43,104.59c2.91-1.93,5.84-3.87,8.96-5.45s6.58-2.72,10.12-3.37c7.02-1.28,14.33-2.04,21.32-.19,3.3.87,6.42,2.41,8.76,4.95l-.82-.11c4.71-2.56,10.14-3.96,15.46-4.5,2.88-.29,5.79-.29,8.68-.01,1.37.13,2.74.33,4.1.59,1.21.23,2.49.45,3.61.98,2.39,1.13,2.59,3.98,2.53,6.3-.01.37-.3.67-.67.67h-.29c-.87.02-.87-1.33,0-1.34h.29c-.22.22-.45.44-.67.67.05-1.89.05-4.33-1.99-5.19-1.02-.43-2.2-.6-3.28-.81-1.32-.25-2.65-.44-4-.56-5.21-.47-10.48.01-15.52,1.41-2.6.72-5.18,1.66-7.55,2.95-.25.14-.61.12-.82-.11-4.25-4.61-11.24-5.76-17.22-5.68-3.61.05-7.22.53-10.78,1.13s-6.68,1.49-9.8,2.99c-3.41,1.64-6.57,3.73-9.72,5.82-.72.48-1.4-.69-.68-1.16h0Z"/>
      <path class="g" d="M139.9,95.28c5.9-2,12.1-3.11,18.33-3.28,3.08-.09,6.18.06,9.24.44s6.05.97,8.82,2.29c2.62,1.25,4.94,3.2,6.35,5.77.42.76-.75,1.44-1.16.68-2.71-4.97-8.5-6.69-13.75-7.36-5.89-.76-11.91-.65-17.76.33-3.29.55-6.53,1.37-9.69,2.44-.82.28-1.18-1.02-.36-1.3h0Z"/>
      <path class="g" d="M178.26,96.13c4.79-2.38,10-3.69,15.3-4.26,2.45-.26,4.91-.37,7.37-.35,2.32.02,4.75.01,7.04.45,2.64.5,5.57,2.35,5.32,5.41-.07.86-1.42.87-1.35,0,.22-2.66-2.6-3.86-4.79-4.18s-4.37-.31-6.53-.32c-4.62-.02-9.26.4-13.74,1.53-2.74.69-5.4,1.64-7.93,2.89-.77.38-1.46-.78-.68-1.16h0Z"/>
      <g>
        <path class="b" d="M138.75,122.25l-4.46-.64c-2.04-.29-4.32-.52-5.95.72-1.36,1.03-1.89,2.81-2.33,4.46-.36,1.33-.35,3.19-.19,4.56.24,2.08,1.25,3.33,2.57,4.95,1.58,1.93,4.28,4.2,6.36,5.57,1.95,1.28,3.13,1.66,5.36,2.34,2.91.89,6.48,1.63,8.68-.47.72-.69,1.18-1.6,1.54-2.52,1.59-4.12,1.26-8.98-1.08-12.72-2.34-3.74-6.35-5.64-10.54-6.31"/>
        <path class="g" d="M138.57,122.9c-1.49-.21-2.97-.43-4.46-.64-1.24-.17-2.57-.35-3.81-.07-2.49.55-3.42,3.2-3.79,5.46-.39,2.38-.12,4.85,1.29,6.84s3.19,3.69,5.08,5.21,3.74,2.69,5.95,3.42,4.53,1.52,6.85,1.29c1.09-.11,2.12-.54,2.86-1.35.85-.94,1.29-2.24,1.61-3.44.64-2.4.65-4.96,0-7.36-.71-2.6-2.23-4.93-4.4-6.54s-4.64-2.43-7.22-2.86c-.85-.14-.49-1.44.36-1.3,5.29.88,10.04,3.77,12.08,8.91,1.03,2.6,1.25,5.49.76,8.24-.45,2.53-1.47,5.45-4,6.56-2.34,1.02-5.08.42-7.42-.26-1.21-.35-2.42-.72-3.58-1.23-1.24-.55-2.38-1.28-3.47-2.08-2.22-1.63-4.26-3.48-5.97-5.64-.79-.99-1.5-2.03-1.88-3.26s-.43-2.71-.36-4.04c.14-2.71,1.13-6.31,3.84-7.5,1.43-.63,3.02-.59,4.54-.41,1.84.22,3.67.51,5.5.77.85.12.49,1.42-.36,1.3h0Z"/>
      </g>
      <path class="g" d="M192.95,118.28c7.19,1.86,14.73,2.31,22.09,1.3.85-.12,1.21,1.18.36,1.3-7.61,1.05-15.36.62-22.81-1.3-.84-.22-.48-1.52.36-1.3h0Z"/>
      <g>
        <path class="g" d="M200.15,103.09c.32-.03.65-.01.96.07,1.93.49,3.21,2.15,3.97,3.74.64,1.32,1.1,2.76.85,4.17s-1.35,2.79-2.99,3.21c-.87.23-1.81.17-2.72.07-1-.11-2-.27-2.87-.69-1.71-.82-2.59-2.51-2.65-4.14s.56-3.22,1.27-4.74c.12-.26.25-.52.47-.73.3-.27.73-.42,1.16-.53,1.05-.28,1.45-.37,2.55-.43h0Z"/>
        <path class="g" d="M200.15,102.42c2.63-.13,4.61,2.18,5.62,4.36,1.1,2.39,1.42,5.33-.81,7.19-1.06.89-2.39,1.18-3.75,1.14s-2.93-.24-4.21-.86c-2.4-1.16-3.31-3.85-2.85-6.36.16-.87.47-1.71.82-2.53.29-.68.55-1.44,1.15-1.91,1.06-.84,2.74-.92,4.03-1.03.86-.08.86,1.27,0,1.35-.92.08-1.81.2-2.69.5-1.05.36-1.43,1.94-1.73,2.91-.6,1.93-.5,4.18,1.26,5.49.89.67,2.04.88,3.12,1s2.37.23,3.41-.33c1.98-1.07,2.08-3.34,1.35-5.24s-2.34-4.45-4.72-4.33c-.87.04-.86-1.3,0-1.35Z"/>
      </g>
      <path class="i" d="M197.92,105.56c-.15.05-.19.48-.15.49.1.04.15-.08.17-.14s.02-.16.01-.23c-.02-.23-.14-.16.09-.1h.36c.14-.09.16-.1.06-.01-.06.06-.12.11-.19.17-.1.1-.2.2-.3.3-.14.14-.4.33-.44.52v-.36s-.17,0-.17,0c0-.02.09-.13.1-.16.07-.19,0-.47-.04-.67l1.13.3c-.15.16-.27.32-.38.5-.04.08-.11.31-.16.37,0,.21-.18.16-.54-.16.02-.19.2-.19.54,0,0,.11-.27.3-.35.35-.68.43-1.51-.21-1.44-.96s.81-1.12,1.41-1.36c.65-.25,1.42-.22,1.93.3,1.25,1.27-.66,2.84-1.93,2.85-.86.01-1-.8-.81-1.47.2-.7.68-1.29,1.31-1.64.76-.43,1.44.74.68,1.16-.29.16-.86.71-.73,1.04l-.31-.4c-.17-.02-.19-.04-.08-.05.07,0,.14-.02.21-.05.12-.04.23-.09.33-.15.08-.05.38-.33.37-.34-.06-.15-.39-.04-.47-.01-.14.05-.28.13-.41.2l-.1.06c-.16.13-.25,0-.27-.36h-.36c-.12.1-.12.07.02-.08.07-.07.14-.12.21-.18.15-.09.34-.13.51-.13.38,0,.74.22.92.56.33.6.12,1.48-.5,1.81-.68.36-1.42-.14-1.48-.87s.44-1.44.92-1.96c.33-.35,1.04-.2,1.13.3.14.77.19,1.6-.44,2.17-.53.49-1.35.44-1.81-.12-.59-.73-.04-1.39.48-1.93.48-.49,1.2-1.3,1.9-.62,1.08,1.06.16,3.21-1.41,2.84s-1.18-2.66.12-3.1c.82-.28,1.18,1.02.36,1.3h0Z"/>
      <path class="i" d="M201.92,105.47c-.1.06-.05,0,.16-.17.04-.12.05-.15.04-.08.01-.13.02-.16.02-.11,0,.06,0,.02-.01-.11-.04-.13-.13-.24-.26-.29-.05-.03-.11-.04-.17-.04.07,0,.04,0-.09.02.12-.03-.14.08-.05.02-.07.04-.12.09-.15.15-.04.11-.05.13-.03.06v.11c-.02-.07-.01-.05,0,.07-.02-.07,0-.05.03.06-.04-.06-.02-.04.05.05l.82.11c-.09.05-.18.09-.28.14-.15.08-.35.12-.52.07s-.29-.16-.4-.31c-.23-.31-.11-.76.14-1.01.3-.31.84-.3,1.14.01.27.28.34.71.15,1.05-.14.25-.39.44-.68.49-.18.03-.35.03-.52-.07-.14-.08-.27-.24-.31-.4-.07-.33.1-.76.47-.83.02,0,.05,0,.07-.01-.11.05-.13.06-.07.03-.09.07-.16.13-.19.25-.04.14.01.35.12.45.37.22.65.18.84-.11.09-.18.09-.35,0-.53l-.92-.24c.09-.05.18-.09.28-.14.24-.12.63-.13.82.11.24.3.39.69.25,1.07s-.5.69-.94.69c-.41,0-.79-.26-.9-.67s.05-.86.42-1.06c.31-.17.75-.08.92.24s.09.74-.24.92h0Z"/>
      <g>
        <path class="j" d="M157.48,148.02l1.1.39c18.28,6.4,19.68,7.19,38.2,7.67,1.76.05,3.67.08,5.75.12,3.12.06,6.23-.54,9.3-1.14,3.36-.66,6.63-1.69,9.89-2.72,5.86-1.85,11.83-3.74,16.85-7.27l-1.38-8.41c-5.8.32-11.65-.29-17.26-1.8-8.02-2.15-15.49-6.13-22.05-11.21-1.88-1.45-3.69-3.01-5.19-4.85-2.4-2.93-6.5-7.28-9.44-13.05"/>
        <path class="g" d="M157.66,147.37c4.68,1.67,9.37,3.37,14.11,4.84,3.63,1.13,7.31,2,11.09,2.43,5.14.59,10.33.68,15.5.8,1.65.04,3.3.11,4.95.09,1.77-.03,3.52-.24,5.26-.54,3.4-.58,6.73-1.37,10.03-2.38,6.75-2.05,13.78-4.04,19.63-8.12l-.31.76c-.46-2.8-.92-5.6-1.38-8.41l.65.49c-9.25.49-18.46-1.38-26.85-5.26-3.98-1.84-7.76-4.11-11.3-6.71-1.76-1.29-3.5-2.64-5.07-4.17-1.27-1.24-2.37-2.65-3.52-4.01-2.93-3.46-5.71-7.05-7.79-11.09-.4-.77.77-1.45,1.16-.68,1.85,3.59,4.24,6.83,6.82,9.92,1.01,1.21,2.01,2.44,3.06,3.62,1.46,1.65,3.15,3.07,4.89,4.4,6.79,5.2,14.55,9.2,22.88,11.21,5.14,1.24,10.44,1.7,15.72,1.43.27-.01.6.22.65.49.46,2.8.92,5.6,1.38,8.41.05.32-.04.57-.31.76-5.26,3.67-11.45,5.59-17.5,7.5-6.54,2.06-13.25,3.83-20.16,3.7-9.46-.18-19.04-.18-28.2-2.85-5.32-1.55-10.53-3.48-15.75-5.34-.81-.29-.46-1.59.36-1.3h0Z"/>
      </g>
      <g>
        <path class="f" d="M203.07,75.29c-.06,0-.08,0-.08,0-8.67-.84-17.65,2.77-23.34,9.37-1.29,1.5-2.46,3.22-2.75,5.18-2.12-5.05-6.29-8.96-10.69-12.23-3.64-2.69-7.54-5.07-11.76-6.7-6.34-2.45-13.35-3.14-20.05-1.99.89-.66,1.83-1.27,2.82-1.82,8.93-4.96,19.85-3.92,29.99-2.68,7.78.95,15.59,1.95,23.09,4.23,4.63,1.41,9.23,3.39,12.78,6.63Z"/>
        <path class="g" d="M203.07,75.96c-8.05-.64-16.12,2.13-21.81,7.93-1.68,1.71-3.3,3.69-3.71,6.12-.09.54-1.01.68-1.23.16-2.42-5.67-7.26-9.82-12.22-13.26-5.46-3.79-11.51-6.59-18.13-7.52-3.77-.53-7.63-.47-11.39.17-.77.13-1.14-.77-.52-1.23,7.58-5.59,17.19-6.08,26.25-5.33,4.81.4,9.61,1.03,14.38,1.71,5.11.72,10.21,1.64,15.16,3.1,4.95,1.46,9.83,3.5,13.7,6.99.65.58-.31,1.53-.95.95-3.36-3.03-7.56-4.9-11.83-6.26-4.73-1.5-9.62-2.47-14.52-3.21s-9.54-1.33-14.32-1.8c-4.39-.43-8.84-.65-13.24-.17-5.03.54-9.86,2.15-13.95,5.17l-.52-1.23c6.87-1.16,14.02-.5,20.52,2.03,3.18,1.24,6.19,2.88,9.03,4.77s5.32,3.77,7.65,6.01c2.51,2.41,4.69,5.2,6.06,8.41l-1.23.16c.37-2.24,1.72-4.13,3.2-5.8,1.4-1.58,3-2.97,4.73-4.19,3.49-2.45,7.56-4.11,11.76-4.8,2.37-.39,4.74-.45,7.13-.26.86.07.87,1.42,0,1.35Z"/>
      </g>
      <path class="g" d="M177.51,89.15l1.21,3.96-1.32.18.02-.22c.08-.86,1.42-.86,1.35,0l-.02.22c-.06.74-1.09.94-1.32.18l-1.21-3.96c-.25-.83,1.05-1.19,1.3-.36h0Z"/>
      <g>
        <path class="i" d="M136.48,111.1c1.88-1.54,4.07-2.66,6.3-3.64,6.84-3.02,14.18-4.92,21.63-5.6,3.47-.32,7.1-.35,10.3,1.06,3.6,1.58,6.33,5,7.07,8.86.23,1.18.21,2.57-.67,3.4-.42.39-.97.59-1.51.76-8.1,2.65-16.91,1.81-25.29.31-5.15-.92-10.39-1.64-15.29-3.48-.58-.22-1.94-1.01-2.51-1.69"/>
        <path class="g" d="M136.01,110.62c2.7-2.19,5.92-3.6,9.13-4.87,3.44-1.36,6.99-2.44,10.61-3.23s7.11-1.31,10.7-1.48c3.37-.16,6.89.18,9.85,1.93,2.51,1.48,4.45,3.82,5.52,6.52.51,1.3.91,2.8.71,4.2-.22,1.59-1.29,2.41-2.74,2.89-6.9,2.29-14.37,2-21.47.99-4.07-.58-8.15-1.29-12.17-2.13-2.06-.43-4.11-.94-6.11-1.61-1.45-.49-2.95-1.11-3.99-2.29-.57-.65.38-1.6.95-.95.86.97,2.08,1.49,3.28,1.9,1.64.56,3.31,1,4.99,1.38,3.29.74,6.63,1.27,9.96,1.85,6.65,1.15,13.57,1.87,20.26.57.77-.15,1.53-.32,2.28-.52.82-.22,1.75-.41,2.49-.82,1.28-.72,1.04-2.38.75-3.59-.65-2.63-2.27-5.04-4.47-6.63-2.56-1.85-5.67-2.4-8.77-2.38-3.37.02-6.77.5-10.07,1.14-3.67.71-7.29,1.73-10.79,3.02s-7.05,2.72-9.93,5.05c-.67.54-1.63-.41-.95-.95h0Z"/>
      </g>
      <path class="g" d="M181.81,115.13c-.09,2.64-1.68,5.04-4.13,6.07-1.41.59-2.97.78-4.48.97-1.67.21-3.34.33-5.02.36-6.48.12-12.94-1.02-19.18-2.69-3.62-.97-7.18-2.12-10.72-3.34-.81-.28-.46-1.58.36-1.3,11.42,3.93,23.72,7.43,35.89,5.42,1.52-.25,3.08-.6,4.23-1.7,1.04-1,1.66-2.36,1.71-3.8.03-.86,1.38-.87,1.35,0h0Z"/>
      <g>
        <path class="g" d="M167.07,105.1c-.89-.92-2.27-1.37-3.62-1.4s-2.68.33-3.91.82c-.47.19-.94.4-1.31.73-.95.86-.93,2.25-.83,3.47.13,1.68.31,3.48,1.5,4.76,1.21,1.31,3.2,1.77,5.06,1.99,1.43.16,3.05.17,4.12-.72.98-.81,1.19-2.12,1.22-3.32.03-1.17-.07-2.34-.3-3.49-.17-.86-.42-1.74-1.05-2.39s-1.75-.98-2.57-.54"/>
        <path class="g" d="M166.59,105.58c-1.9-1.85-5.05-1.29-7.22-.26-1.15.54-1.38,1.53-1.34,2.72.03,1.11.13,2.27.45,3.33.72,2.38,3.03,3.13,5.27,3.41,1.07.13,2.31.26,3.32-.19,1.08-.47,1.45-1.57,1.53-2.67.1-1.42-.02-2.9-.36-4.28-.26-1.05-1.19-2.65-2.53-2.03-.78.36-1.47-.8-.68-1.16,1.3-.6,2.78-.15,3.66.96.97,1.24,1.14,3.02,1.24,4.53s.13,3.14-.65,4.43-2.13,1.77-3.54,1.85-3.05-.15-4.44-.58-2.69-1.2-3.48-2.47-.96-2.79-1.08-4.25c-.11-1.38-.15-2.93.87-4.01.59-.62,1.43-.94,2.22-1.22.93-.33,1.89-.56,2.87-.64,1.75-.14,3.57.33,4.85,1.57.62.61-.33,1.56-.95.95h0Z"/>
      </g>
      <path class="i" d="M161.22,106.24c-.13-.07-.16.48-.11.6.11.26.58.27.8.13.11-.07.15-.2.17-.33.02-.07.02-.14.03-.21.01-.14-.06-.29.1-.08.15.2.05.1-.1.11-.1,0-.18.03-.27.04-.28.03-.05.24-.36-.27-.23-.4-.22-.27-.02-.53.23-.29.72-.23.95,0s.33.51.28.84c-.05.29-.32.5-.36.77l-1.23-.52c.06-.14.13-.29.19-.43.15-.34.63-.41.92-.24.35.2.39.59.24.92-.06.14-.13.29-.19.43-.13.31-.56.39-.84.28-.33-.14-.44-.46-.39-.79.02-.15.07-.28.15-.41l.09-.11c.13-.25.2-.17.2.23h.95c-.41.52-1.2.83-1.73.26-.56-.61-.07-1.39.58-1.64.62-.24,1.63-.3,2.04.33.32.47.16,1.31-.06,1.79-.57,1.27-2.69,1.38-3.32.1s.45-3.28,1.97-2.41c.75.43.08,1.59-.68,1.16h0Z"/>
      <path class="i" d="M165.19,107s-.09,0-.13,0l.18-.02s-.09.02-.13.03l.16-.07s-.04.02-.06.04l.14-.11s-.02.02-.03.03l.11-.14v.02c.01-.05.03-.11.06-.16,0,.01,0,.03-.01.04l.02-.18v.02c0-.06-.02-.12-.02-.18,0,.02,0,.03.01.05l-.07-.16v.02s-.06-.09-.09-.14c0,.01.02.02.03.03l-.14-.11s.03.02.04.02l-.16-.07s.03.01.05.01l-.18-.02s.03,0,.05,0l-.18.02s.05,0,.07-.02l-.16.07s.04-.02.05-.03l-.14.11s.05-.04.07-.07l-.11.14c.04-.05.07-.11.1-.17l.58,1.01c-.31,0-.63-.08-.89-.25-.3-.2-.44-.59-.24-.92.21-.34.63-.53,1.02-.41.34.1.59.47.47.83s-.47.58-.83.47c-.02,0-.04-.01-.05-.01l.18.02s-.04,0-.06,0l.18-.02s-.04,0-.05.02l.16-.07s-.03.02-.05.03l.14-.11s-.03.02-.04.04l.11-.14v.02c-.1-.31-.18-.61-.26-.92.05.03.1.06.16.09l-.16-.07c.08.03.16.05.24.07l-.18-.02s.1,0,.14,0c.24,0,.46.13.58.33.13.22.11.46,0,.68-.13.26-.35.52-.65.6-.37.1-.79-.04-.99-.37-.23-.39-.09-.86.27-1.11.18-.13.44-.18.66-.16.18.01.35.07.48.2.12.12.2.31.2.48-.02.34-.3.7-.67.67h0Z"/>
      <g>
        <path class="g" d="M235.56,136.76c.3-1.03.74-2.02,1.31-2.93.31-.5.67-.98,1.14-1.33,1.12-.83,2.68-.77,4-.32,2.23.76,4.09,2.54,4.94,4.74s.68,4.77-.46,6.83c-.33.6-.75,1.17-1.31,1.56-.88.61-1.99.72-3.05.82-1.39.13-3,.18-3.97-.83-.36-.37-.58-.85-.77-1.33-.79-2.07-.3-.54-.87-2.12-.17-.48-.71-3.22-1.02-3.62l.05-1.47Z"/>
        <path class="g" d="M234.91,136.59c.51-1.68,1.34-3.69,2.84-4.72s3.38-.77,4.91-.15c3.28,1.34,5.5,4.57,5.5,8.12,0,1.76-.51,3.61-1.58,5.02-1.15,1.52-2.85,1.82-4.64,1.97-1.57.13-3.38.06-4.45-1.28-.62-.78-.89-1.8-1.3-2.69-.49-1.07-.65-2.26-.95-3.39-.12-.45-.38-.88-.4-1.32s.03-.92.05-1.38c.03-.86,1.38-.87,1.35,0l-.03.92c0,.07.03.44-.02.48-.07.06-.18-.33-.03-.18.06.06.1.23.13.31.34.89.51,1.85.73,2.78.09.36.19.7.32,1.04.05.14.11.26.08.21.02.04.05.08.07.13.52,1.06.69,2.43,1.94,2.88s2.98.22,4.22-.08c1.6-.39,2.43-1.79,2.87-3.3.85-2.98-.21-6.21-2.71-8.06-1.23-.91-2.96-1.65-4.51-1.25-1.76.45-2.62,2.75-3.09,4.3-.25.83-1.55.48-1.3-.36Z"/>
      </g>
      <path class="i" d="M239.33,134.66c-.23.08-.37.33-.28.56l-.17-.3c.13.17-.05.01-.06,0,.02.01-.04.04,0,0,.09-.08-.3-.23.22.07.26.15.27.05.19.18-.02.04-.14.2-.15.2l-.08-.17c-.12-.13-.23-.15-.31-.08,0,0-.02.02-.02.02-.03-.08.01-.31,0-.4,0-.18,0-.35.06-.52.17-.47.76-.69,1.18-.41l-.99.4v-.08c.01.12.01.24.01.36l.14.13.82-1.06c1.04.91.34,3.29-1.22,2.78-.82-.27-.47-1.57.36-1.3,0,0-.1.08-.06.04.05-.07.09-.17.1-.26.01-.13-.02-.22-.13-.31-.57-.5.18-1.49.82-1.06.4.27.54.64.47,1.12-.07.42-.66.63-.99.4l-.06-.04.34.09h-.07c.11-.02.23-.05.34-.08l-.06.05.24-.24-.03.07.09-.34c-.04.29.02.58-.03.88-.05.27-.17.53-.36.73-.42.42-1.14.51-1.58.07-.93-.92.49-2.92,1.65-2.24.59.35.6,1.2.26,1.73-.35.56-1.13.8-1.72.47-.56-.32-.66-1.01-.47-1.58s.64-.99,1.21-1.18c.83-.27,1.18,1.03.36,1.3h0Z"/>
      <path class="i" d="M241.96,134.84s-.01,0-.02.02l.11-.14s0,.01,0,.02l.07-.16h0c0-.05.02-.11.02-.17,0,0,0,.01,0,.02l-.02-.18s0,.02,0,.03l-.07-.16s.01.02.02.03l-.11-.14s.02.02.03.03l-.14-.11s.02.01.03.02l-.16-.07s.02,0,.03.01l-.18-.02s.02,0,.02,0l-.18.02s.02,0,.03,0l-.16.07s.02,0,.03-.02l-.14.11s.03-.03.04-.04l-.11.14s.02-.03.03-.05l-.07.16c.02-.05.03-.11.04-.17l-.02.18v-.02c.29.22.57.43.85.65-.07.02-.14.03-.21.05-.18.04-.36.02-.52-.07-.14-.08-.27-.24-.31-.4-.04-.17-.03-.37.07-.52.09-.14.23-.27.4-.31.07-.02.14-.03.21-.05.21-.05.41-.01.59.12.07.05.13.11.17.19.06.11.09.22.09.34-.02.2-.04.37-.15.55-.15.25-.42.42-.71.42s-.54-.17-.7-.41c-.07-.11-.11-.27-.11-.4,0-.18.08-.4.23-.52.06-.07.13-.11.22-.14.08-.04.17-.06.26-.06.17,0,.36.07.48.2s.21.3.2.48c0,.17-.06.37-.2.48h0Z"/>
    </g>
    <path class="g" d="M194.44,196.08c-2.28-.44-4.2-1.7-5.67-3.47-1.38-1.66-3.27-3.84-3.01-6.15.1-.85,1.45-.86,1.35,0-.12,1.08.33,1.99.91,2.88s1.19,1.71,1.86,2.5c1.31,1.53,2.94,2.56,4.93,2.94.85.17.49,1.46-.36,1.3h0Z"/>
    <path class="g" d="M144.06,148.65c-.47.83-1.1,1.48-1.8,2.12-.6.55-1.07,1.06-1.08,1.92,0,1.25.88,2.24,1.6,3.18.82,1.07,1.64,2.15,2.46,3.22.4.52.79,1.04,1.19,1.56.35.47.71.93.74,1.54.05,1.09-.8,2.1-1.22,3.06-.91,2.13-1.29,4.46-1.2,6.76.11,2.6.86,5.14,2.21,7.38.45.74-.72,1.42-1.16.68-2.46-4.08-3.06-9.18-1.66-13.73.34-1.12.82-2.18,1.38-3.21.35-.65.37-.99-.08-1.59-.47-.63-.95-1.25-1.43-1.87-.87-1.14-1.74-2.29-2.61-3.43-.72-.95-1.42-1.93-1.53-3.15-.09-1.05.22-2,.93-2.78s1.57-1.38,2.11-2.35c.43-.76,1.59-.08,1.16.68h0Z"/>
    <path class="e" d="M2.5,289.71c0,3.75,4.78,6.79,10.69,6.79h271.63c5.9,0,10.69-3.04,10.69-6.79"/>
  </g>
  <g>
    <path class="e" d="M79.23,322.36c-.36,4.17-.64,8.64-.85,13.43-.21,4.79-.32,9.27-.33,13.45l-8.7-.38.44-10.07-13.63-.59-.44,10.07-8.7-.38c.41-4.78.7-9.26.88-13.43.18-4.17.28-8.66.29-13.45l8.7.38-.44,10.07,13.63.59.44-10.07,8.7.38Z"/>
    <path class="e" d="M90.05,342.98c9.38.36,16.19.52,20.42.48-.22,1-.37,2.04-.45,3.11-.08,1.07-.16,2.42-.23,4.05l-28.77-1.26c.41-4.78.7-9.26.88-13.43.18-4.17.28-8.66.29-13.45l28.77,1.26-.29,6.7-20.03-.88-.16,3.56c1.18.08,2.94.17,5.26.27,3.92.17,7.99.27,12.19.31l-.28,6.37c-4.19-.33-8.25-.58-12.17-.75-2.32-.1-4.07-.17-5.26-.19l-.17,3.85Z"/>
    <path class="e" d="M145.36,325.29c-.36,4.16-.64,8.63-.84,13.39-.21,4.79-.32,9.27-.33,13.45l-13.25-.58-8.08-20.61-.22,20.25-9.52-.42c.41-4.78.7-9.26.88-13.43.18-4.15.28-8.62.29-13.42l13.63.59,8.09,21.16.28-20.8,9.07.4Z"/>
    <path class="e" d="M171.11,327.65c2.64,1.24,4.46,2.88,5.44,4.91.99,2.03,1.42,4.5,1.29,7.38-.12,2.74-.84,5.11-2.16,7.1-1.32,2-3.25,3.5-5.76,4.52-2.52,1.02-5.58,1.45-9.18,1.29-2.2-.1-4.43-.19-6.7-.29-2.27-.1-4.57-.21-6.89-.34.41-4.85.71-9.38.89-13.58.19-4.25.28-8.68.28-13.31,2.95-.12,6.9-.07,11.86.15,4.64.2,8.28.92,10.92,2.17ZM162.1,345.53c2.29.1,3.85-.39,4.66-1.47.81-1.08,1.26-2.59,1.35-4.54.08-1.88-.25-3.41-1-4.61-.75-1.2-2.24-1.84-4.46-1.94-2.4-.1-4.19-.11-5.38-.01l-.54,12.33,5.37.23Z"/>
    <path class="e" d="M208.92,342.46c-1.12,1.43-2.96,2.43-5.53,2.99.28.41.47.72.59.95l5.63,8.59-10.07-.44c-1-2.07-2.59-5.01-4.77-8.82l-5.44-.24-.38,8.59-8.74-.38c.41-4.78.7-9.26.88-13.43.18-4.17.28-8.66.29-13.45l8.74.38v.04s7.59.33,7.59.33c4.99.22,8.43,1.17,10.34,2.86,1.91,1.69,2.8,3.91,2.68,6.65-.09,2.15-.7,3.94-1.81,5.38ZM189.81,334.35l-.18,4.22,5,.22c2.1.09,3.69.09,4.77,0,1.08-.09,1.84-.27,2.27-.55.43-.28.66-.7.69-1.27.02-.54-.16-.97-.54-1.29s-1.11-.56-2.19-.73c-1.08-.17-2.68-.3-4.8-.4l-5-.22Z"/>
    <path class="e" d="M235.27,336.56c-2.93-.28-5.1-.46-6.5-.54l-.55,12.66c1.43.04,3.61.05,6.53.03l-.32,7.37-21.51-.94.32-7.37c2.83.27,4.99.45,6.47.54l.55-12.66c-1.48-.04-3.65-.05-6.49-.02l.32-7.37,21.51.94-.32,7.37Z"/>
    <path class="e" d="M257.79,343.29l10.21,14.25-10.7-.47-5.01-7.49-5.69,7.02-10.7-.47,11.41-13.3-9.87-13.56,10.7.47,4.71,6.88,5.25-6.45,10.7.47-11.01,12.65Z"/>
  </g>
  <path class="e" d="M90.16,366.23c18.23.17,36.46.65,54.68,1.45,18.22.8,36.42,1.92,54.59,3.36,10.24.81,20.48,1.72,30.71,2.73,1.44.14,1.43-2.11,0-2.25-18.14-1.79-36.32-3.27-54.52-4.43s-36.41-2-54.64-2.52c-10.27-.29-20.55-.49-30.82-.58-1.45-.01-1.45,2.24,0,2.25h0Z"/>
  <path class="e" d="M146.48,377.56c7.28.05,14.53.77,21.67,2.16,1.41.28,2.02-1.89.6-2.17-7.34-1.43-14.79-2.19-22.27-2.24-1.45-.01-1.45,2.24,0,2.25h0Z"/>
</svg>