<?xml version="1.0" encoding="UTF-8"?>
<svg id="a" data-name="Layer 1" xmlns="http://www.w3.org/2000/svg" viewBox="0 0 298 377.3">
  <defs>
    <style>
      .b {
        fill: #ffd86a;
      }

      .b, .c, .d, .e, .f, .g, .h, .i {
        stroke-width: 0px;
      }

      .c {
        fill: #1a1a1a;
      }

      .d {
        fill: #000;
      }

      .e {
        fill: #c63144;
      }

      .f {
        fill: #c790ff;
      }

      .g {
        fill: #fd8cff;
      }

      .h {
        fill: #6c6ce5;
      }

      .i {
        fill: #fff;
      }
    </style>
  </defs>
  <g>
    <g>
      <rect class="h" x="1" y="1" width="296" height="296" rx="10.79" ry="10.79"/>
      <path class="c" d="M286.21,298H11.79c-6.5,0-11.79-5.29-11.79-11.79V11.79C0,5.29,5.29,0,11.79,0h274.41c6.5,0,11.79,5.29,11.79,11.79v274.41c0,6.5-5.29,11.79-11.79,11.79ZM11.79,2C6.39,2,2,6.39,2,11.79v274.41c0,5.4,4.39,9.79,9.79,9.79h274.41c5.4,0,9.79-4.39,9.79-9.79V11.79c0-5.4-4.39-9.79-9.79-9.79H11.79Z"/>
    </g>
    <g>
      <path class="b" d="M230.59,152.43l-15.02,18.12,16.5,7.63c-1.17,3.71-2.34,7.44-4.17,10.88-1.82,3.43-4.34,6.59-7.69,8.58-1.59.94-3.32,1.6-5.05,2.25-2.23.85-4.46,1.69-6.7,2.54l-1,.41c3.24-6.63,2.42-14.43,1.49-21.74-.23-1.83-.5-3.68-1.29-5.34-5.73-11.92-14.69-11.55-16.52-11.77l-25.75-115.23,17.86-11.46c8.99,2.41,18.12,4.88,26.07,9.72s14.7,12.48,16.25,21.65c.64,3.81.45,7.94,2.51,11.21,1.66,2.62,4.49,4.21,6.94,6.09,9.25,7.11,13.62,20,10.6,31.27-1.43,5.35-4.37,10.39-4.5,15.93l-10.56,19.25Z"/>
      <path class="d" d="M231.14,152.97c-4.39,5.29-8.77,10.59-13.16,15.88l-1.85,2.24-.16-1.21c4.81,2.23,9.62,4.45,14.44,6.68.69.32,1.38.64,2.07.96.3.14.45.57.35.87-1.55,4.93-3.15,9.99-6.2,14.22-1.34,1.87-2.92,3.54-4.79,4.89-2.13,1.54-4.62,2.43-7.06,3.36s-4.75,1.76-7.09,2.72c-.69.28-1.12-.6-.87-1.13,1.85-3.86,2.31-8.16,2.2-12.39-.06-2.13-.25-4.26-.49-6.38s-.4-4.23-1.01-6.23c-.56-1.86-1.66-3.64-2.77-5.22-.93-1.32-2.01-2.53-3.23-3.58-1.78-1.53-3.89-2.66-6.15-3.27-1.4-.38-2.76-.45-4.19-.62-.33-.04-.66-.21-.74-.57-.23-1.03-.46-2.06-.69-3.08-.62-2.8-1.25-5.59-1.87-8.39l-2.77-12.41c-1.13-5.05-2.25-10.09-3.38-15.14-1.23-5.5-2.46-11-3.69-16.5-1.25-5.58-2.49-11.16-3.74-16.74-1.16-5.2-2.32-10.41-3.49-15.61l-2.95-13.19c-.71-3.16-1.41-6.33-2.12-9.49-.33-1.5-.7-2.99-1-4.5-.01-.06-.03-.13-.04-.19-.08-.35.05-.68.35-.87,5.77-3.7,11.55-7.41,17.32-11.11.28-.18.57-.43.92-.45.43-.02.95.23,1.35.34.48.13.96.26,1.44.39,1.05.29,2.11.58,3.16.87,4.1,1.16,8.18,2.43,12.12,4.05,7.17,2.94,13.93,7.1,18.83,13.2,2.22,2.77,4.03,5.85,5.18,9.22.59,1.73.96,3.5,1.19,5.31.26,2,.37,4.02.81,5.99s1.31,3.8,2.77,5.27c1.33,1.35,2.92,2.39,4.45,3.5,2.83,2.06,5.27,4.53,7.25,7.42,3.95,5.76,5.96,12.93,5.46,19.91-.27,3.85-1.44,7.42-2.78,11.01-.73,1.96-1.47,3.92-1.98,5.95-.25,1.01-.45,2.03-.55,3.06-.05.52.02,1.1-.19,1.58-.41.96-1.03,1.87-1.53,2.78l-3.1,5.65c-1.86,3.4-3.72,6.79-5.59,10.19l-.33.6c-.48.87-1.81.09-1.33-.78,2.59-4.73,5.18-9.45,7.77-14.18l1.97-3.58c.24-.44.7-1,.82-1.49-.09.36-.08-.19-.08-.19-.02-.17.03-.42.04-.58.03-.36.08-.71.13-1.07.11-.81.28-1.61.47-2.4.39-1.56.92-3.07,1.47-4.58,1.06-2.9,2.24-5.78,2.82-8.82,2.04-10.55-2.33-22.16-10.89-28.67-2.28-1.74-4.82-3.22-6.56-5.56s-2.26-5.44-2.59-8.38-.72-5.72-1.77-8.47c-.99-2.59-2.43-5.02-4.13-7.21-7.73-9.98-20-14.32-31.74-17.57-1.53-.42-3.06-.84-4.6-1.25l.59-.08c-5.21,3.35-10.43,6.69-15.64,10.04-.74.47-1.48.95-2.22,1.42l.35-.87c.23,1.03.46,2.06.69,3.08l1.87,8.39c.92,4.14,1.85,8.27,2.77,12.41,1.13,5.05,2.25,10.09,3.38,15.14l3.69,16.5c1.25,5.58,2.49,11.16,3.74,16.74,1.16,5.2,2.32,10.41,3.49,15.61.98,4.4,1.97,8.79,2.95,13.19.71,3.16,1.41,6.33,2.12,9.49.33,1.46.85,3,1,4.5,0,.06.03.13.04.19l-.74-.57c1.38.16,2.75.22,4.11.55,2.4.57,4.64,1.67,6.58,3.19,2.85,2.22,5.06,5.29,6.56,8.55.93,2.04,1.17,4.26,1.45,6.46s.52,4.43.64,6.65c.27,4.99-.16,10.06-2.35,14.62l-.87-1.13c2.54-1.04,5.13-1.97,7.7-2.95,2.97-1.13,5.74-2.39,8.04-4.64,4.51-4.44,6.48-10.64,8.33-16.52l.35.87c-4.81-2.23-9.62-4.45-14.44-6.68-.69-.32-1.38-.64-2.07-.96-.49-.23-.44-.87-.16-1.21,4.39-5.29,8.77-10.59,13.16-15.88l1.85-2.24c.63-.76,1.72.33,1.09,1.09Z"/>
    </g>
    <g>
      <path class="g" d="M235.69,291.22H70.45c-.1-1.69-.19-3.38-.29-5.07-1.91-33.23-3.67-67.5,7.46-98.86,5.63-15.88,15.68-31.6,31.48-37.41l94.68,6.94c14.39,9.26,19.69,27.49,22.99,44.28,5.82,29.67,8.81,59.89,8.93,90.13Z"/>
      <path class="d" d="M68.34,233.73c.49-9.5,1.52-19.1,3.45-28.49.06-.3.12-.6.19-.89.06-.31.13-.62.2-.93,1.34-6.14,3.07-12.19,5.3-18.05.6-1.56,1.22-3.1,1.89-4.63.05-.12.1-.23.15-.35,3.12-7.1,7.16-13.89,12.42-19.61,2.55-2.77,5.4-5.26,8.52-7.36,1.55-1.03,3.17-1.96,4.85-2.77.87-.42,1.76-.81,2.66-1.17.21-.08.43-.19.66-.27.16-.05.32-.1.49-.11.14-.01.27-.01.41-.01h.01c.39,0,.78.03,1.18.07.65.06,1.3.16,1.91.2,2.87.21,5.74.42,8.61.63,1.5.11,3,.22,4.51.33.27.02.54.04.82.06.27.02.54.04.82.06,6.49.48,12.99.96,19.49,1.43.26.02.52.04.78.05.16.02.32.03.48.04.1,0,.19,0,.29.02,4.75.35,9.5.7,14.25,1.05,1.01.07,2.01.15,3.02.22,1.18.09,2.37.18,3.55.26,2.93.22,5.87.44,8.8.65l10.29.75c.27.02.54.04.81.06.27.02.53.04.8.06,1.06.08,2.13.16,3.19.24.43.03.86.06,1.29.09.2.01.4.03.6.05.29,0,.58.04.87.06h.06c.25.02.5.04.75.06.13.01.25.02.38.03.37.02.73.05,1.1.08.43.03.86.06,1.29.09.04,0,.08.01.12.01.38.03.76.05,1.14.07.42.02.84.04,1.26.07.57.03,1.13.08,1.69.16.64.08,1.16.55,1.68.92.87.61,1.72,1.27,2.54,1.96.2.16.4.33.6.51.19.16.38.33.56.51.17.14.34.3.51.46,2.55,2.42,4.77,5.19,6.65,8.15.1.15.2.31.3.47.05.07.09.15.13.22.15.23.29.46.42.69.13.21.25.42.38.64.22.37.43.75.63,1.13.12.22.24.44.35.66.09.16.18.32.25.48.13.24.25.48.37.72.19.37.37.74.55,1.12,2.34,4.91,4.06,10.13,5.44,15.37.14.52.27,1.03.39,1.55.09.33.17.65.25.98.08.32.16.64.24.95,1.79,7.49,3.09,15.12,4.32,22.71,3.25,19.97,5.23,40.14,5.93,60.35.17,4.87.26,9.75.28,14.63,0,.25-.09.44-.24.56-.01.01-.02.02-.04.03-.02.02-.05.03-.07.05-.11.08-.25.13-.42.13H77.17c-2.15,0-4.3.04-6.45,0-.09-.01-.18,0-.27,0-.44,0-.75-.36-.77-.77-1.1-19.14-2.34-38.33-1.34-57.49ZM71.18,290.45h157.79c1.98,0,3.96-.03,5.94,0-.11-19.79-1.44-39.57-4-59.2-1.3-9.93-2.91-19.81-4.83-29.64-.43-2.21-.89-4.43-1.4-6.63-.07-.3-.14-.6-.21-.9-.07-.31-.15-.62-.22-.93-1.11-4.6-2.45-9.15-4.18-13.55-.82-2.08-1.74-4.14-2.78-6.13-.22-.43-.45-.85-.68-1.26-.08-.16-.17-.31-.25-.46-.18-.32-.36-.63-.54-.94-.05-.07-.09-.15-.14-.22-.01-.03-.03-.07-.06-.1-.13-.23-.28-.46-.42-.69-1.98-3.16-4.3-6.09-7.05-8.63-.05-.05-.1-.09-.15-.14-.19-.17-.38-.34-.58-.5-.19-.18-.4-.36-.6-.52-.22-.19-.44-.37-.66-.55-.35-.28-.71-.55-1.08-.82-.39-.28-.98-.54-1.29-.9-.07-.08-.11-.13-.12-.16-.02-.01-.05,0-.08-.01-.48-.09-1.01-.07-1.5-.11-.74-.05-1.47-.11-2.21-.16h-.03c-.37-.03-.74-.06-1.12-.09-.09,0-.19,0-.29-.02-.29-.02-.58-.04-.88-.06-.25-.02-.5-.04-.76-.06-1.17-.09-2.34-.17-3.51-.25-.82-.07-1.65-.13-2.48-.19-.17,0-.34-.02-.51-.03-.26-.03-.53-.05-.8-.06-.27-.02-.54-.04-.81-.06-1.5-.11-3-.22-4.5-.33-3.6-.26-7.2-.53-10.8-.79-1.47-.11-2.95-.22-4.42-.33-4.48-.32-8.96-.65-13.44-.98-.4-.03-.79-.06-1.19-.09-.86-.06-1.71-.12-2.57-.19-.97-.07-1.94-.14-2.91-.21-.28-.02-.57-.04-.85-.06-.28-.02-.55-.05-.83-.06-6.71-.5-13.41-.99-20.12-1.48-.13,0-.26-.02-.39-.03-.28-.02-.55-.04-.83-.06-.27-.02-.55-.04-.82-.06-4.05-.3-8.11-.59-12.17-.89-.46-.03-.93-.07-1.39-.1-.4-.03-.81-.06-1.21-.09-.01.01-.01,0-.01,0-.33-.03-.78-.15-1.11-.09-.11.02-.13.07-.29.15-.91.41-1.85.75-2.75,1.19-1.68.81-3.3,1.74-4.85,2.77-6.32,4.23-11.34,10.16-15.29,16.6-1.09,1.78-2.1,3.6-3.04,5.45-.28.56-.56,1.12-.82,1.69-.47.96-.91,1.93-1.33,2.91-.01.01-.02.02-.02.03-.64,1.5-1.25,3.01-1.82,4.54-.43,1.13-.83,2.27-1.22,3.42-.33.97-.65,1.96-.95,2.94-.13.41-.26.83-.38,1.24-1.12,3.69-2.06,7.43-2.86,11.2-.06.29-.13.58-.18.88-.07.28-.12.57-.18.85-.97,4.79-1.7,9.62-2.24,14.48-2.1,18.69-1.48,37.56-.48,56.31.24,4.38.49,8.77.75,13.16Z"/>
    </g>
    <path class="d" d="M99.6,276.78c.26,4.56.59,9.12,1,13.67.02.26.04.52.07.77.02.26.04.51.07.77h1.54c-.03-.26-.05-.52-.07-.77-.03-.26-.05-.52-.07-.77-1.3-14.65-1.87-29.35-1.7-44.05,0-.97.02-1.94.04-2.91.01-.7.03-1.39.05-2.09.36-16.42,1.64-32.82,3.86-49.1.13-.97-1.36-1.39-1.49-.41-1.37,10.11-2.4,20.26-3.07,30.43-1.2,18.13-1.27,36.33-.23,54.46Z"/>
    <g>
      <polygon class="f" points="118.32 158.49 120.74 164.79 123.08 178.33 125.75 192.82 129.12 211.02 132.56 222.75 134.01 225.96 138.38 230.31 144.87 233.22 154.99 234.22 161.44 234.61 167.51 232.88 175.9 226.6 179.57 220.09 180.88 214.48 180.47 206.68 177.46 190.82 175.38 178.43 172.83 167.37 119.53 155.35 118.32 158.49"/>
      <path class="d" d="M118.83,156.96l.28-.74.28-.73.09-.23,3.37.76.77.17.79.18,48.44,10.92h.04s.56,2.46.56,2.46l.03.11.15.66.18.77,1.64,7.13,2.08,12.38,3.02,15.87.4,7.8h0s-1.3,5.64-1.3,5.64l-3.68,6.52-8.43,6.32-3.64,1.04-.52.15h-.01l-.99.28-.06.02-.86.24h-.01l-6.46-.38-10.13-1.01h-.01l-6.5-2.91h-.02l-4.37-4.36-1.47-3.24-3.44-11.75-3.37-18.2-2.68-14.48-2.34-13.53-.44-1.15-.35-.92-.29-.76-.06-.15-1.28-3.35.59-1.53ZM161.43,234.53l.93-.26h.02s.85-.25.85-.25l.67-.19,3.57-1.02,8.37-6.27,3.66-6.48,1.3-5.59-.4-7.78-3.02-15.86-2.08-12.38-1.64-7.16-.18-.78-.15-.64-.03-.12-.53-2.32-48.44-10.92-.79-.18-.77-.17-3.19-.72-.05.14-.29.73-.28.74-.56,1.44,1.22,3.18.09.24.26.68.35.91.49,1.28,2.34,13.54,2.68,14.48,3.37,18.2,3.43,11.72,1.45,3.2,4.34,4.33,6.47,2.89,10.11,1,6.43.39Z"/>
    </g>
    <path class="d" d="M207.03,239.92c.04.37.08.75.12,1.12.77,7.53,1.56,15.05,2.47,22.57,1.08,8.98,2.37,17.92,3.88,26.84.04.26.08.51.13.77.02.17.05.33.08.5.02.09.03.18.05.27h1.55c-.05-.26-.09-.51-.14-.77-.04-.26-.08-.51-.13-.77-.76-4.55-1.5-9.1-2.16-13.66-1.74-12.13-3.02-24.32-4.27-36.51-.02-.12-.03-.24-.04-.36-.1-.98-1.64-.99-1.54,0Z"/>
    <g>
      <path class="b" d="M240.4,147.29c1.79,11.51,9.3,21.99,19.64,27.37-15.72,7.26-35.49,4.72-48.87-6.26,0,0-12.86-10.64-17.67-16.93-4.8-6.29,18.78-13.97,18.78-13.97l28.12,9.79Z"/>
      <path class="d" d="M241.14,147.09c1.4,8.82,6.08,16.94,12.92,22.67,1.96,1.64,4.1,3.06,6.36,4.24.48.25.52,1.09,0,1.33-12.97,5.95-28.43,5.49-41.19-.82-4.18-2.07-7.81-4.84-11.32-7.86-4.24-3.65-8.44-7.4-12.26-11.49-.84-.9-1.66-1.83-2.43-2.79-.51-.65-.96-1.28-1.09-2.11-.26-1.58.65-3.02,1.69-4.12,2.8-2.96,6.89-4.8,10.57-6.4,1.75-.76,3.52-1.47,5.31-2.13.75-.28,1.57-.69,2.37-.83.61-.11,1.39.33,1.95.53l4.42,1.54c7.24,2.52,14.47,5.04,21.71,7.55l.46.16c.93.32.53,1.81-.41,1.49-6.17-2.15-12.33-4.29-18.5-6.44-2.99-1.04-5.99-2.08-8.98-3.13-.11-.04-.56-.12-.62-.22.11.17.53-.12.32.02-.09.06-.24.08-.34.11-1.16.4-2.32.82-3.47,1.26-3.78,1.46-7.59,3.11-10.97,5.36-1.33.88-2.77,1.93-3.59,3.34-.71,1.21-.45,2.05.46,3.17,3.45,4.28,7.64,8,11.74,11.64,2.85,2.53,5.71,5.12,8.89,7.23,11.52,7.62,26.51,9.68,39.66,5.49,1.65-.53,3.27-1.15,4.84-1.87v1.33c-8.19-4.3-14.6-11.66-17.95-20.26-.95-2.44-1.63-4.98-2.05-7.57-.15-.97,1.33-1.39,1.49-.41Z"/>
    </g>
    <g>
      <path class="b" d="M121.46,46.14c.25,1.38-.57,2.73-.58,4.13-.02,2.12,1.81,3.83,3.78,4.63,4.06,1.64,8.65.46,12.83-.85,7.66-2.41,15.19-5.23,22.55-8.45,2.13-.93,4.53-2.25,4.89-4.55.25-1.62-.64-3.21-1.8-4.37-2.33-2.34-5.7-3.42-8.99-3.6-3.3-.18-6.58.45-9.82,1.08-7.93,1.54-16.31,3.3-22.2,8.83l-.65,3.15Z"/>
      <path class="d" d="M122.23,46.14c.22,1.69-.94,3.32-.47,4.98.41,1.44,1.77,2.47,3.09,3.03,3.44,1.47,7.4.63,10.84-.37,7.5-2.17,14.86-4.97,22.04-8.02,2.32-.99,6.89-2.4,6.44-5.71-.23-1.67-1.62-3.06-2.94-3.97s-2.95-1.55-4.58-1.9c-3.82-.82-7.76-.12-11.54.61-3.26.63-6.53,1.27-9.73,2.17-3.52,1-6.97,2.34-10.01,4.4-.76.51-1.48,1.07-2.16,1.67.03-.03-.56.47-.36.25.05-.05.03-.08-.02.04-.05.15-.07.32-.1.47l-.52,2.54c-.2.97-1.69.56-1.49-.41l.51-2.48c.06-.27.08-.6.22-.85.18-.32.58-.58.85-.81.39-.34.79-.66,1.2-.97,2.89-2.2,6.24-3.69,9.68-4.8s7.09-1.86,10.68-2.55c4.09-.79,8.29-1.61,12.45-.91,3.37.57,7.18,2.32,8.79,5.52.75,1.5.86,3.22,0,4.69-.78,1.34-2.16,2.25-3.51,2.94-1.77.9-3.64,1.62-5.47,2.37-2.06.85-4.14,1.67-6.22,2.47-4.12,1.56-8.28,3.01-12.48,4.32s-8.79,2.44-12.98.77c-1.66-.66-3.22-1.85-3.95-3.52-.36-.82-.45-1.69-.33-2.57.17-1.15.67-2.22.52-3.4-.13-.98,1.41-.97,1.54,0Z"/>
    </g>
    <g>
      <path class="b" d="M65.38,173.52c-1.43,6.5-2.83,13.42-.59,19.69.78,2.19,1.99,4.2,3.28,6.13,1.26,1.89,2.61,3.73,4.22,5.33,2.58,2.57,5.74,4.47,8.87,6.34-3.34-7.62-4.43-16.22-3.11-24.44.35-2.19.73-3.3,1.89-5.2s1.39-2.31,3.08-3.7l3.7-2.93c4.91-3.56,9-4.34,15.02-5.13-1.05,6.07-5.44,11.46-11.18,13.72,4.86-.42,9.88-.88,14.19-3.16,4.5-2.38,7.8-6.5,10.71-10.68,8.56-12.28,14.99-26.01,19.3-40.34,3.09-10.27,5.09-21.32,2.25-31.65-1.86-6.76-5.7-12.86-7.44-19.65-1.2-4.67-1.37-9.54-1.42-14.37-.01-.87-.03-1.79-.47-2.55-.36-.63-.98-1.07-1.61-1.44-2.7-1.59-5.99-2.17-9.08-1.6l-11.73,4.32c-1.96,3.83-4.57,7.34-7.67,10.32-3.77,3.62-8.4,6.65-10.62,11.38-1.46,3.11-1.7,6.62-1.97,10.04-.71,8.97-1.92,18.32-7,25.75-1.13,1.65-2.43,3.18-3.43,4.91-5.1,8.81-1.22,20.16-3.87,29.99-1.18,4.36-2.15,7.46-5.55,10.42l-1.24.99c-1.22,1.02-2.55,1.65-3.69,1.94-2.88.73-4.81,1.45-7.79,1.54s-6.04-.48-8.52-2.13c1.81,3.71,5.09,6.9,9.14,7.71,1.1.22,2.22.26,3.34.25,4.58-.04,9.52-1.21,12.4-4.78l-3.42,2.95Z"/>
      <path class="d" d="M66.12,173.73c-1.22,5.56-2.51,11.47-1.21,17.14.64,2.78,1.97,5.26,3.52,7.63s3.21,4.6,5.3,6.49c2.36,2.12,5.11,3.76,7.82,5.38l-1.05,1.05c-1.88-4.34-3.09-8.92-3.55-13.63-.23-2.35-.27-4.71-.13-7.07.14-2.15.33-4.4.95-6.47.86-2.9,2.73-5.53,5.08-7.39,2-1.59,3.95-3.24,6.19-4.49,3.93-2.18,8.29-2.92,12.7-3.5.54-.07.82.55.74.97-1.15,6.39-5.71,11.84-11.72,14.26l-.2-1.51c5.92-.51,11.99-1.19,16.81-5.01,4.54-3.6,7.79-8.76,10.85-13.61,6.5-10.32,11.57-21.52,15.24-33.15,1.9-6.04,3.49-12.25,3.99-18.58.5-6.31-.23-12.51-2.48-18.44s-5.2-11.12-6.48-17.15c-.67-3.15-.93-6.37-1.04-9.59-.03-.79-.05-1.58-.06-2.37-.01-.84.05-1.73-.11-2.56-.29-1.48-1.88-2.21-3.15-2.73-2.07-.85-4.84-1.37-7.03-.71-.95.28-1.87.69-2.79,1.03-2.75,1.01-5.5,2.03-8.25,3.04l-.59.22.46-.35c-2.18,4.22-5.09,8.02-8.59,11.22-3.18,2.91-6.88,5.52-9.09,9.31-2.48,4.25-2.31,9.45-2.77,14.2s-1.15,9.4-2.59,13.9c-.7,2.18-1.58,4.32-2.67,6.33-1.18,2.16-2.71,4.04-4.1,6.07-2.62,3.83-3.43,8.26-3.58,12.82-.16,4.61.22,9.25-.28,13.85-.24,2.21-.73,4.35-1.36,6.49-.55,1.88-1.23,3.75-2.27,5.41-.92,1.45-2.09,2.72-3.43,3.79s-2.81,2.16-4.56,2.67c-4.56,1.32-9.32,2.38-13.98.86-1.1-.36-2.15-.85-3.12-1.48l1.05-1.05c1.03,2.08,2.47,3.99,4.34,5.38,2.01,1.5,4.28,2.16,6.77,2.2,4.52.07,9.54-.89,12.55-4.55l1.09,1.09c-1.14.98-2.28,1.97-3.42,2.95-.75.64-1.84-.44-1.09-1.09,1.14-.98,2.28-1.97,3.42-2.95.76-.65,1.72.33,1.09,1.09-2.56,3.1-6.52,4.44-10.4,4.86-2.11.23-4.34.28-6.42-.21-1.91-.45-3.65-1.42-5.15-2.67-1.73-1.45-3.11-3.31-4.11-5.32-.32-.64.36-1.5,1.05-1.05,2.3,1.5,5.01,2.06,7.73,2.04,2.74-.03,5.35-.81,7.98-1.52,1.76-.48,3.21-1.57,4.59-2.73,1.72-1.45,3.03-3.33,3.88-5.41,1.91-4.67,2.48-9.61,2.5-14.62s-.34-10.23.91-15.18c.63-2.5,1.72-4.78,3.21-6.88,1.57-2.21,3.18-4.32,4.38-6.76,2.37-4.81,3.48-10.16,4.14-15.45.32-2.62.52-5.24.74-7.87.24-2.76.57-5.55,1.65-8.13,1.92-4.62,5.99-7.67,9.61-10.9,1.98-1.76,3.82-3.67,5.41-5.79.82-1.09,1.58-2.22,2.29-3.39.32-.53.62-1.06.91-1.6.23-.43.37-.85.84-1.06,1.98-.88,4.11-1.51,6.14-2.26l3.95-1.46c.71-.26,1.39-.57,2.14-.68,2.63-.39,5.32-.02,7.76,1.05,1.1.48,2.29,1.1,3.03,2.07.83,1.08.81,2.44.83,3.74.08,5.99.52,11.87,2.59,17.54,1.92,5.29,4.69,10.26,6.21,15.69,3.17,11.34.61,23.35-2.86,34.3s-7.92,20.96-13.65,30.55c-2.75,4.61-5.69,9.27-9.27,13.28-1.7,1.91-3.62,3.64-5.8,4.97-2.31,1.4-4.9,2.28-7.53,2.81-2.65.54-5.35.78-8.04,1.01-.94.08-.94-1.22-.2-1.51,5.52-2.22,9.59-7.35,10.64-13.18l.74.97c-3.69.49-7.43,1.07-10.8,2.71-2.39,1.16-4.38,2.76-6.44,4.39-.79.62-1.6,1.23-2.3,1.96-1.07,1.14-1.96,2.71-2.57,4.14-.77,1.78-.97,3.82-1.16,5.73-.21,2.21-.25,4.44-.12,6.65.29,5.03,1.47,10.02,3.48,14.65.29.66-.33,1.49-1.05,1.05-2.52-1.51-5.04-3.03-7.3-4.91s-4.11-4.16-5.76-6.59-3.18-4.99-4.01-7.84-.99-5.92-.77-8.89c.26-3.42.96-6.79,1.7-10.14.21-.97,1.7-.56,1.49.41Z"/>
    </g>
    <g>
      <path class="f" d="M100.21,130.66c1.73,7.04,5.38,15.37,11,19.95,2.4,1.95,10.63,7.66,13.45,8.92,19.52,8.77,77.6,23.67,89.63-9.7l1.38-20.43c.44.47.75.77.81.77.26,0,5.49-2.55,5.49-2.55.26-.87.7-1.67,1.06-2.5.71-1.65,1.12-3.43,1.21-5.22.16-3.35-1.07-7.56-2.16-10.92-.1-.31-.2-.62-.3-.92l1.66.5c.11-.04.22-.08.32-.12.59-.22,1.2-.5,1.56-1.02.4-.57.4-1.32.39-2.02-.05-3.69-.27-7.72-2.73-10.46h.33c.07-2.21-.02-4.77-1.78-6.11-.71-.54-1.59-.78-2.46-.99-.4-.1-.8-.19-1.21-.27l2.19.04c.13-1.08-.27-2.14-.95-3.01l-.17.05c-.01-.1-.03-.2-.04-.3-.41-2.78-1-5.68-1.87-8.5-1.4-4.59-3.5-8.97-6.63-12.28-.4-.43-.82-.83-1.25-1.22-4.07-3.7-9.32-5.97-14.62-7.58-8.57-2.61-17.5-3.75-26.39-4.84-11.59-1.42-24.07-2.61-34.28,3.06-1.13.63-2.2,1.32-3.22,2.08-8.21,6.11-13,16.24-15.69,26.28-.4,1.49-.77,3-1.16,4.51-1.13,4.36-2.42,8.68-5.06,12.28-1.71,2.32-3.93,4.24-5.64,6.57-5.34,7.24-5.03,17.22-2.88,25.96Z"/>
      <path class="d" d="M100.95,130.45c1.82,7.33,5.13,15.22,11.25,19.98,2.34,1.82,4.81,3.49,7.28,5.12,2.07,1.36,4.15,2.72,6.43,3.71,3.89,1.68,7.91,3.07,11.96,4.31,5.11,1.56,10.29,2.87,15.54,3.89,5.61,1.09,11.29,1.87,17,2.17,5.58.3,11.22.18,16.73-.73,5.01-.83,9.98-2.31,14.39-4.89s7.8-6,10.19-10.33c.8-1.46,1.74-3.02,1.85-4.59l.38-5.57c.3-4.41.6-8.82.9-13.23l.06-.88c.04-.64.83-1.05,1.31-.54.09.09.6.49.61.61,0-.11-.6.12-.42-.08.08-.09.28-.12.42-.18.64-.28,1.27-.58,1.9-.88.96-.45,1.91-.91,2.86-1.38l-.35.46c.53-1.63,1.41-3.1,1.83-4.78s.5-3.27.34-4.94c-.31-3.22-1.35-6.38-2.36-9.44-.18-.56.4-1.11.95-.95l.9.27c.19.06.38.11.57.17.05.02.11.05.17.05-.27-.01-.19,0-.07-.11.28-.24.71-.27.99-.56s.35-.65.38-1.04c.06-.75,0-1.53-.03-2.29-.11-2.91-.48-6.05-2.47-8.33-.43-.49-.15-1.31.54-1.31h.33c-.26.25-.51.51-.77.77.04-1.47.09-3.12-.62-4.46-.83-1.56-2.68-1.82-4.26-2.16-.85-.18-.66-1.53.2-1.51l2.19.04-.77.77c.08-1-.25-1.82-.84-2.62l.87.35-.17.05c-.36.1-.89-.13-.95-.54-.86-6.2-2.53-12.6-6.05-17.86-3.54-5.28-9.18-8.49-15.05-10.58-6.38-2.27-13.09-3.54-19.78-4.52s-12.94-1.82-19.44-2.22c-6.11-.37-12.37-.2-18.24,1.66-5.77,1.83-10.66,5.4-14.44,10.1-3.6,4.48-6.14,9.77-8,15.18-2.01,5.85-2.84,12.11-5.41,17.77-1.31,2.89-3.19,5.26-5.33,7.57s-3.95,4.56-5.12,7.43c-2.16,5.3-2.16,11.28-1.25,16.85.23,1.41.53,2.82.87,4.21.24.96-1.25,1.37-1.49.41-1.4-5.74-2.06-11.82-.87-17.66.57-2.79,1.59-5.51,3.14-7.9,1.78-2.74,4.3-4.85,6.25-7.45,3.99-5.31,4.87-12.14,6.68-18.36,1.65-5.67,3.94-11.24,7.24-16.16s7.74-9.26,13.18-11.85,12.03-3.54,18.28-3.51c6.51.04,13.01.93,19.46,1.76,7.09.92,14.19,2.01,21.06,4.03,6.09,1.78,12.23,4.35,16.75,8.94,4.46,4.54,6.82,10.79,8.18,16.91.35,1.59.64,3.2.87,4.82l-.95-.54.17-.05c.36-.1.66.08.87.35.74.99,1.16,2.15,1.05,3.4-.03.41-.33.78-.77.77l-2.19-.04.2-1.51c1.94.42,3.98.87,5.08,2.69.96,1.6.99,3.61.93,5.42-.01.42-.34.76-.77.77h-.33c.18-.43.36-.87.54-1.31,2.48,2.84,2.86,6.66,2.95,10.28.02.84.09,1.74-.19,2.54-.32.9-1.06,1.44-1.9,1.8-.54.23-.92.35-1.48.18l-1.31-.39.95-.95c1.57,4.75,3.25,9.89,2.08,14.92-.3,1.31-.81,2.52-1.37,3.73-.3.66-.4,1.52-1.07,1.88-1.14.61-2.33,1.13-3.5,1.68-.57.27-1.15.58-1.75.78-.81.28-1.27-.34-1.8-.88l1.31-.54c-.24,3.58-.49,7.17-.73,10.75l-.48,7.04c-.09,1.3-.07,2.53-.55,3.75-1.92,4.86-5.05,9.08-9.2,12.26s-8.94,5.14-13.92,6.36c-5.46,1.34-11.13,1.79-16.75,1.74-5.89-.05-11.77-.66-17.59-1.61-5.53-.91-11.01-2.14-16.4-3.66-4.46-1.26-8.88-2.7-13.19-4.42-1.88-.75-3.73-1.53-5.47-2.56-2.79-1.66-5.48-3.5-8.13-5.39s-5.03-3.76-7.01-6.3c-2.53-3.26-4.39-6.99-5.82-10.85-.69-1.85-1.27-3.75-1.74-5.67-.24-.96,1.25-1.37,1.49-.41Z"/>
    </g>
    <g>
      <path class="g" d="M113.8,85.86c3.17-4.57,8.33-7.28,13.29-9.82,7.35-3.76,14.76-7.54,22.71-9.77s16.58-2.8,24.4-.13c2.46.84,4.9,2.01,7.5,1.98,3.84-.04,7.19-2.68,10.97-3.35,3.3-.59,6.65.34,9.87,1.26,2.61.75,5.27,1.52,7.54,2.99,2.74,1.78,4.75,4.47,6.7,7.1,0,0,.09-.09.25-.26-1.4-4.59-3.5-8.97-6.63-12.28-.4-.43-.82-.83-1.25-1.22-4.07-3.7-9.32-5.97-14.62-7.58-8.57-2.61-17.5-3.75-26.39-4.84-11.59-1.42-24.07-2.61-34.28,3.06-1.13.63-2.2,1.32-3.22,2.08-8.21,6.11-13,16.24-15.69,26.28-.4,1.49-.77,3-1.16,4.51Z"/>
      <path class="d" d="M113.13,85.47c4.05-5.76,10.81-8.72,16.9-11.8,7.05-3.56,14.29-6.98,22.02-8.77,7.57-1.75,15.62-1.93,23,.73,1.8.65,3.61,1.44,5.53,1.66,1.81.21,3.55-.24,5.24-.88s3.24-1.42,4.93-1.96c1.8-.57,3.68-.75,5.56-.57,2.28.22,4.49.85,6.69,1.48,1.98.57,3.96,1.16,5.82,2.07,3.71,1.81,6.22,5.05,8.63,8.3l-1.21-.16c.08-.09.17-.18.25-.26l-.2.75c-1.24-4.02-3-7.99-5.77-11.2s-6.5-5.55-10.4-7.25c-8.56-3.73-18.1-5.13-27.28-6.32-8.57-1.11-17.34-2.41-25.99-1.44-4.21.47-8.39,1.57-12.14,3.56s-6.65,4.56-9.22,7.67c-2.81,3.4-4.98,7.31-6.7,11.35-1.87,4.41-3.06,9.01-4.25,13.64-.25.96-1.73.55-1.49-.41,1.09-4.25,2.18-8.48,3.81-12.56,1.53-3.81,3.4-7.5,5.8-10.85s5.22-6.25,8.58-8.55c3.62-2.46,7.78-4.04,12.07-4.87,8.74-1.67,17.7-.55,26.43.53,9.64,1.19,19.48,2.47,28.62,5.9,4.1,1.54,8.06,3.59,11.32,6.56s5.44,6.72,7.01,10.75c.4,1.01.75,2.05,1.07,3.09.08.26-.01.56-.2.75-.08.09-.17.18-.25.26-.38.39-.92.23-1.21-.16-2.08-2.8-4.24-5.66-7.35-7.37-1.61-.89-3.36-1.46-5.12-1.98-1.86-.55-3.73-1.11-5.63-1.47s-3.94-.48-5.87-.01c-1.64.4-3.18,1.11-4.73,1.76s-3.07,1.2-4.72,1.4c-1.79.21-3.57-.15-5.26-.71s-3.5-1.31-5.31-1.8-3.69-.83-5.57-1.01c-3.77-.35-7.58-.13-11.3.52-7.58,1.33-14.71,4.38-21.58,7.76-3.62,1.78-7.27,3.56-10.77,5.57-3.2,1.84-6.27,4.04-8.42,7.09-.57.8-1.9.04-1.33-.78Z"/>
    </g>
    <g>
      <path class="e" d="M201.95,154.72c-.1.18-.15.28-.15.28-1.06.89-2.23,1.65-3.47,2.25-1.33.64-2.74,1.09-4.15,1.55-5.08,1.64-10.2,3.29-15.52,3.78-1.51.14-3.01.18-4.52.15-4.97-.09-9.92-.98-14.83-1.85-1.26-.23-2.52-.45-3.74-.87-1.25-.43-2.43-1.06-3.54-1.79-1.02-.67-1.98-1.43-2.75-2.38,0,0-.01-.01-.02-.02-1.96-2.43-2.31-6.15-.53-8.7,1.79-2.57,5.74-3.45,8.26-1.6h.02l-.04.06c20.9,7.32,23.8,8.6,44.96,9.15Z"/>
      <path class="d" d="M202.62,155.11c-.55,1.01-1.95,1.74-2.92,2.29-1.14.65-2.36,1.14-3.6,1.57-2.67.93-5.39,1.78-8.12,2.54-5.58,1.56-11.17,2.28-16.96,1.82-2.91-.23-5.79-.66-8.66-1.15s-5.59-.78-8.15-1.9c-2.18-.96-4.38-2.41-5.8-4.35-1.31-1.8-1.82-4.14-1.47-6.32.37-2.32,1.86-4.28,4.02-5.23,1.02-.45,2.14-.68,3.26-.62.53.03,1.07.12,1.58.28.28.09.56.21.83.34.18.09.86.36.41.36.58,0,.97.66.67,1.16l-.04.06-.46-1.13c6.07,2.13,12.12,4.39,18.32,6.11,4.84,1.34,9.77,2.12,14.77,2.5,3.88.29,7.78.42,11.67.52.99.03.99,1.57,0,1.54-6.25-.16-12.53-.36-18.71-1.31-5.06-.78-9.97-2.22-14.82-3.84-3.89-1.3-7.76-2.68-11.63-4.03-.46-.16-.73-.68-.46-1.13l.04-.06.67,1.16c-.38,0-.68-.31-1-.48-.38-.2-.8-.34-1.22-.42-.86-.17-1.75-.08-2.58.17-1.87.56-3.23,2.03-3.68,3.92s.03,4.09,1.21,5.7c1.27,1.74,3.43,3.04,5.39,3.85,2.35.96,5,1.23,7.48,1.66,2.64.45,5.29.86,7.95,1.09,5.2.45,10.26.01,15.31-1.28,2.73-.7,5.41-1.56,8.09-2.43,1.34-.43,2.69-.86,3.96-1.47.58-.28,1.15-.59,1.69-.94s1.35-.75,1.66-1.31c.48-.87,1.81-.09,1.33.78Z"/>
    </g>
    <g>
      <path class="i" d="M177.55,162.64h-5.95c-4.97-.09-7.38-.89-12.29-1.77-1.26-.23-2.52-.45-3.74-.87-1.25-.43-2.43-1.06-3.54-1.79-1.02-.67-1.98-1.43-2.75-2.38,0,0-.01-.01-.02-.02.04-.05.07-.07.07-.07.67-.61,1.56-.91,2.43-1.19.36-.11.72-.23,1.09-.21.34.02.66.14.98.26,5.21,1.97,10.59,3.71,16.11,4.42,10.05,1.29,16.94,1.84,15.99,2.19-1.03.39-3.62,1.03-8.41,1.42Z"/>
      <path class="d" d="M177.55,163.41c-2.22,0-4.45.06-6.68-.02-2.39-.08-4.74-.41-7.09-.87-1.23-.24-2.45-.49-3.68-.73-1.49-.28-3-.5-4.45-.96-2.6-.83-5.37-2.44-7.05-4.63-.21-.27-.1-.71.12-.93.63-.66,1.52-1.01,2.36-1.3,1.05-.36,1.9-.49,2.96-.11,2.08.75,4.16,1.52,6.28,2.18,4.41,1.37,8.84,2.12,13.42,2.68,3.3.4,6.6.74,9.9,1.17.77.1,1.59.15,2.34.38s1.22,1.06.43,1.58c-.73.47-1.89.59-2.71.76-2.03.4-4.09.63-6.15.8-.99.08-.98-1.46,0-1.54,2.58-.21,5.25-.46,7.74-1.24.12-.04.27-.11.4-.13l.07-.02c-.47.14-.52.58-.13,1.29,0,0-.05-.02-.04-.02.06-.03.15.04-.06,0-.13-.02-.26-.06-.39-.08-.79-.15-1.58-.24-2.38-.34-6.94-.86-13.99-1.28-20.75-3.18-2.13-.6-4.24-1.3-6.33-2.05-.5-.18-.99-.36-1.49-.55-.53-.2-1.09-.5-1.67-.41-.87.15-2.08.57-2.7,1.21l.12-.93c.73.96,1.82,1.7,2.82,2.34,1.08.68,2.22,1.25,3.44,1.63,2.47.76,5.12,1.07,7.65,1.58,3.39.67,6.74.9,10.18.9h3.51c.99,0,.99,1.54,0,1.54Z"/>
    </g>
    <g>
      <path class="i" d="M195.2,155.34c-2.65,1.12-5.5,1.68-8.38,1.61-10.36-.25-18.2-2.26-30.61-7.11-.22-.08-1.81-.65-2.48-1.18-.19-.15-.63-.69-.75-.89-.98-1.61-.74-1.94-.52-3.1l1.06-.07c1.27-.19,2.91.66,3.47.85,1.14.39,1.29.43,1.29.52,0,.13,31.56,5.95,31.56,5.95,0,0,8.15-1.16,8.41-.91s5.11,2.07,5.11,2.07l-5.24,1.04-2.92,1.23Z"/>
      <path class="d" d="M195.4,156.08c-3.5,1.45-7.07,1.74-10.82,1.55-3.09-.16-6.17-.51-9.21-1.08-6.72-1.25-13.14-3.59-19.5-6.03-1.3-.5-2.54-.97-3.39-2.13-.44-.6-.84-1.33-.96-2.08-.1-.63.06-1.24.19-1.86.07-.35.42-.54.74-.57,1.33-.09,2.48-.07,3.75.41.65.25,1.3.48,1.96.72.22.08.45.15.62.32.06.06.07.1.15.18.04.06.07.13.09.2-.1-.27-.27-.44-.52-.51.16-.04.54.12.7.16.54.11,1.07.22,1.61.32,4.03.78,8.06,1.53,12.1,2.29,4.37.82,8.74,1.63,13.11,2.44,1.19.22,2.39.44,3.58.66.11.02.23.03.33.06.3.1-.2,0-.26.02.17-.07.43-.06.61-.09.48-.07.96-.13,1.44-.2,1.31-.18,2.63-.35,3.95-.49.8-.09,1.91-.38,2.72-.15.08.02.14.06.23.09.44.16.01.02.1.07.14.07.28.14.42.2.57.25,1.15.48,1.74.7.89.35,1.78.69,2.68,1.02.65.24.81,1.32,0,1.49l-4.61.91c-.21.04-.41.09-.62.12.28-.04.12-.05-.03.01-.17.07-.34.14-.51.22l-2.2.93c-.9.38-1.69-.94-.78-1.33,1.18-.5,2.37-1.17,3.64-1.42l4.71-.93v1.49c-.75-.28-1.5-.56-2.24-.85-.96-.37-2.02-.69-2.92-1.21-.2-.12-.45-.43,0-.03.09.08.11,0-.1.01-.41.02-.81.05-1.22.08-1.14.11-2.28.25-3.41.4-.94.12-1.87.25-2.81.38-.32.04-.61.09-.93.04-.91-.15-1.82-.34-2.74-.51-8.37-1.55-16.74-3.08-25.09-4.69-1.14-.22-2.34-.37-3.46-.69-.18-.05-.36-.1-.5-.24-.04-.04-.22-.27-.2-.34l.27.37c.08.03.06.03-.06-.02-.22.08-.95-.32-1.18-.41-.78-.3-1.58-.69-2.43-.76-.55-.04-1.13.05-1.68.09l.74-.57c-.08.41-.22.83-.15,1.26.1.59.5,1.2.89,1.64.7.82,1.93,1.12,2.9,1.5,3.24,1.26,6.5,2.46,9.82,3.5,5.58,1.75,11.28,2.93,17.12,3.29,1.75.11,3.51.21,5.26.06,2.05-.18,4.06-.72,5.96-1.51.91-.38,1.31,1.11.41,1.49Z"/>
    </g>
    <g>
      <path class="i" d="M225.32,107.42c-.36.52-.97.8-1.56,1.02-.11.04-.21.08-.32.12-.45.16-.9.3-1.36.42-3.8,1.03-7.87.93-11.84.81-2.92-.08-5.83-.17-8.75-.25-3.19-.09-7.11-.54-8.94-3.16l-6.08-9.18c1.19-.63,2.35-1.19,3.48-1.69,7.38-3.28,13.77-4.08,22.54-3.99,3.77.04,7.9.6,10.44,3.38.02.02.03.03.05.05,2.46,2.74,2.68,6.77,2.73,10.46.01.7,0,1.45-.39,2.02Z"/>
      <path class="d" d="M225.87,107.96c-.56.71-1.39,1.04-2.22,1.33-1.08.38-2.2.66-3.33.86-2.27.4-4.57.49-6.86.48s-4.75-.11-7.13-.18c-2.18-.06-4.37-.06-6.54-.23-2.95-.24-6.17-.95-7.95-3.53-1.02-1.48-1.99-3.01-2.99-4.51s-2.03-3.06-3.04-4.59c-.22-.34-.08-.87.28-1.05,3.26-1.71,6.66-3.16,10.22-4.12,3.35-.91,6.8-1.37,10.26-1.56s7.28-.36,10.79.34c3.19.64,6.12,2.31,7.59,5.31.84,1.71,1.2,3.59,1.38,5.48.09,1.02.13,2.03.15,3.05s.02,1.91-.49,2.77-1.84.08-1.33-.78c.41-.69.29-1.58.27-2.36-.02-.82-.05-1.63-.12-2.45-.13-1.52-.39-3.07-.98-4.49-1.24-2.97-3.94-4.49-7-5.08-3.21-.62-6.64-.44-9.89-.29-3.22.16-6.41.55-9.54,1.34-3.68.93-7.19,2.39-10.55,4.15l.28-1.05c1.89,2.86,3.78,5.71,5.67,8.57.33.5.65.97,1.1,1.37,1.23,1.09,2.94,1.54,4.53,1.78,1.8.27,3.65.26,5.46.31,2.31.07,4.61.14,6.92.2,2.43.07,4.86.11,7.28-.13,1.27-.13,2.53-.34,3.77-.68.98-.27,2.24-.53,2.9-1.36.61-.78,1.7.32,1.09,1.09Z"/>
    </g>
    <path class="d" d="M129.53,95.85c3.33-2.21,6.67-4.43,10.25-6.23,3.67-1.86,7.52-3.11,11.57-3.85,8.03-1.46,16.38-2.33,24.37-.21,3.77,1,7.34,2.76,10.01,5.65l-.93-.12c5.39-2.93,11.59-4.53,17.67-5.14,3.29-.33,6.62-.34,9.92-.01,1.57.15,3.13.38,4.68.68,1.38.27,2.85.51,4.13,1.12,2.73,1.3,2.96,4.55,2.89,7.2-.01.42-.34.76-.77.77h-.33c-.99.02-.99-1.52,0-1.54h.33c-.26.25-.51.51-.77.77.06-2.16.06-4.95-2.27-5.94-1.17-.49-2.52-.69-3.75-.92-1.51-.29-3.04-.5-4.57-.64-5.95-.53-11.98.01-17.74,1.61-2.97.83-5.92,1.9-8.64,3.37-.29.16-.7.13-.93-.12-4.85-5.27-12.85-6.58-19.69-6.5-4.13.05-8.26.6-12.33,1.29s-7.64,1.71-11.21,3.42c-3.9,1.87-7.51,4.27-11.11,6.66-.83.55-1.6-.78-.78-1.33h0Z"/>
    <path class="d" d="M136.93,85.21c6.75-2.29,13.84-3.56,20.96-3.75,3.53-.1,7.06.07,10.56.5,3.46.43,6.91,1.11,10.08,2.62,2.99,1.43,5.65,3.66,7.25,6.6.47.87-.85,1.65-1.33.78-3.1-5.68-9.72-7.65-15.72-8.42-6.73-.87-13.61-.74-20.31.37-3.76.63-7.47,1.57-11.08,2.79-.94.32-1.34-1.17-.41-1.49h0Z"/>
    <path class="d" d="M180.78,86.18c5.48-2.72,11.43-4.21,17.49-4.87,2.8-.3,5.61-.42,8.43-.4,2.65.02,5.43.02,8.05.51,3.02.57,6.37,2.68,6.08,6.18-.08.98-1.62.99-1.54,0,.25-3.04-2.98-4.42-5.48-4.78s-5-.36-7.46-.37c-5.28-.02-10.58.46-15.71,1.75-3.13.79-6.17,1.87-9.07,3.31-.89.44-1.67-.89-.78-1.33h0Z"/>
    <g>
      <path class="g" d="M131.3,113.42l-5.1-.73c-2.33-.33-4.94-.6-6.81.83-1.56,1.18-2.16,3.21-2.66,5.1-.41,1.52-.4,3.65-.22,5.22.27,2.38,1.43,3.81,2.94,5.66,1.81,2.21,4.89,4.8,7.27,6.37,2.23,1.46,3.58,1.9,6.13,2.67,3.33,1.01,7.4,1.87,9.92-.54.82-.78,1.35-1.83,1.76-2.89,1.81-4.71,1.44-10.27-1.24-14.54s-7.27-6.44-12.05-7.22l.05.06Z"/>
      <path class="d" d="M131.1,114.17c-1.7-.24-3.4-.49-5.1-.73-1.42-.2-2.94-.4-4.36-.08-2.85.63-3.9,3.65-4.33,6.24-.45,2.72-.14,5.54,1.48,7.81s3.65,4.22,5.81,5.95,4.27,3.08,6.8,3.92,5.18,1.73,7.83,1.47c1.24-.12,2.42-.61,3.27-1.55.97-1.07,1.48-2.56,1.84-3.94.74-2.74.75-5.67,0-8.41-.81-2.97-2.55-5.64-5.03-7.48s-5.3-2.78-8.25-3.27c-.98-.16-.56-1.65.41-1.49,6.04,1.01,11.48,4.31,13.81,10.18,1.18,2.97,1.43,6.28.87,9.42-.51,2.89-1.68,6.23-4.57,7.49-2.68,1.17-5.8.48-8.49-.3-1.38-.4-2.77-.83-4.09-1.41-1.41-.62-2.72-1.47-3.96-2.38-2.54-1.86-4.87-3.97-6.83-6.45-.9-1.14-1.72-2.32-2.15-3.72s-.49-3.1-.41-4.62c.16-3.1,1.29-7.21,4.39-8.58,1.63-.72,3.46-.67,5.19-.47,2.1.25,4.19.59,6.28.88.98.14.56,1.62-.41,1.49h0Z"/>
    </g>
    <path class="d" d="M197.58,111.5c8.23,2.12,16.84,2.64,25.25,1.49.97-.13,1.39,1.35.41,1.49-8.71,1.2-17.56.71-26.07-1.49-.96-.25-.55-1.73.41-1.49h0Z"/>
    <g>
      <path class="d" d="M201.35,95.12c.34-.03.69-.01,1.01.07,2.03.52,3.38,2.26,4.18,3.94.67,1.39,1.16,2.9.89,4.39s-1.42,2.93-3.15,3.38c-.92.24-1.91.18-2.86.08-1.05-.11-2.11-.29-3.02-.73-1.8-.86-2.72-2.64-2.79-4.36s.59-3.39,1.34-4.99c.13-.27.26-.55.5-.77.31-.29.77-.44,1.22-.56,1.1-.3,1.53-.39,2.69-.45h0Z"/>
      <path class="d" d="M201.35,94.35c2.8-.14,4.91,2.31,5.98,4.64,1.18,2.56,1.5,5.69-.91,7.66-1.18.96-2.64,1.24-4.13,1.17s-3.05-.28-4.38-.96c-2.56-1.31-3.44-4.24-2.88-6.92.18-.88.5-1.72.86-2.54.31-.73.59-1.53,1.26-2.01,1.15-.83,2.84-.92,4.21-1.04.99-.09.98,1.45,0,1.54-.93.08-1.81.2-2.71.49-1.15.36-1.51,1.87-1.85,2.92-.66,2.02-.62,4.36,1.18,5.79.9.71,2.08.95,3.19,1.09,1.21.15,2.56.28,3.68-.31,2.12-1.12,2.16-3.52,1.39-5.52s-2.44-4.57-4.89-4.44c-.99.05-.99-1.49,0-1.54Z"/>
    </g>
    <path class="i" d="M199.03,97.77c-.07.02-.08.14-.1.2-.02.07-.03.15-.01.23,0,0-.11,0-.05-.02.18-.05.19-.41.04-.54l.34.2-.11-.03h.41l-.1.04.34-.2c-.24.19-.45.41-.67.63-.14.14-.41.34-.44.52v-.41s-.25,0-.26-.03c0,0,.08-.12.08-.14,0-.23,0-.43-.04-.66l1.29.34c-.17.18-.31.37-.43.59-.02.04-.07.18-.1.21-.15.17.37.12-.14-.13l-.39-.11c.51.06-.3.09-.19.18l.34.2h.05c.11-.07.23-.14.34-.2-.25.23-.39.46-.76.54s-.7-.06-.95-.31c-.55-.55-.34-1.37.2-1.82.96-.8,3.09-1.21,3.47.44.17.76-.27,1.45-.86,1.88-.52.38-1.45.78-2.09.45-.68-.35-.55-1.19-.31-1.79.25-.64.71-1.16,1.31-1.5.87-.49,1.64.84.78,1.33-.3.17-.86.74-.74,1.03l-.35-.46.09.05-.39-.11c.26.01.5-.07.72-.2.1-.06.18-.17.27-.23.12-.07.01-.17.1-.04-.09-.12-.34-.03-.44,0-.15.05-.27.16-.42.21l-.11.06c-.14.1-.16,0-.06-.33l-.34-.2.11.03h-.41c-.17.14-.17.12,0-.07.07-.07.15-.14.24-.2.17-.1.37-.15.57-.15.42,0,.82.25,1.02.62.36.67.13,1.62-.55,1.99-.75.4-1.59-.16-1.65-.97s.47-1.54.99-2.1c.37-.4,1.18-.23,1.29.34.15.84.2,1.72-.48,2.35-.58.54-1.49.49-1.99-.12-.65-.79-.07-1.53.51-2.12.53-.55,1.32-1.4,2.08-.65,1.18,1.16.16,3.49-1.55,3.09s-1.3-2.9.12-3.38c.94-.32,1.34,1.17.41,1.49h0Z"/>
    <path class="i" d="M203.26,97.67h-.03c.12-.05.2-.14.24-.26.05-.13.02-.04.01,0l.03-.2s0,.06,0,.09l-.03-.2c.01.05,0,.04-.02-.03-.02-.07-.06-.12-.11-.17l-.11-.08c-.14-.05-.17-.06-.09-.04l-.2-.03s.06,0,.1,0l-.2.03s.06-.01.06-.01l-.12.05s.04-.02-.02.02c-.07.05-.12.12-.15.2-.05.13-.01.02,0-.01l-.03.2s0-.07,0-.11l.03.2s-.04-.14,0-.02c.03.06.03.07.02.04-.03-.05,0-.03.07.08l.93.12c-.1.05-.19.1-.29.15-.18.09-.4.14-.59.08s-.33-.18-.46-.35c-.14-.18-.16-.48-.1-.7.04-.17.14-.32.26-.44.34-.35.95-.34,1.28.01.3.31.38.79.17,1.18-.15.27-.44.49-.75.55-.21.04-.4.03-.59-.08-.16-.09-.31-.28-.35-.46-.09-.37.11-.87.54-.95.02,0,.05,0,.07-.02-.12.06-.15.07-.08.03-.07.04-.13.1-.18.18-.05.13-.06.16-.05.09l-.03.2s0-.04,0-.07l.03.2c.05.18.23.33.4.38l.2.03h-.03c.07-.01.14-.02.2-.03.1-.03.18-.08.23-.17.08-.06.14-.14.16-.24l.03-.2s0,.04,0,.05l-.03-.2-.05-.14-1.05-.28c.1-.05.19-.1.29-.15.16-.08.31-.12.49-.09.15.02.34.09.44.21.13.17.25.33.3.54s.05.45-.02.65c-.16.44-.56.77-1.05.77s-.88-.3-1.01-.75.06-.96.47-1.18c.35-.2.86-.1,1.05.28s.1.85-.28,1.05h0Z"/>
    <g>
      <path class="f" d="M157.02,145.51l1.26.45c20.9,7.32,22.5,8.22,43.67,8.77,2.01.05,4.19.1,6.57.14,3.57.06,7.13-.61,10.63-1.3,3.84-.75,7.58-1.93,11.31-3.1,6.7-2.11,13.52-4.28,19.27-8.32l-1.57-9.61c-6.63.36-13.32-.33-19.73-2.06-9.16-2.46-17.71-7.01-25.21-12.82-2.15-1.66-4.22-3.44-5.94-5.54-2.74-3.35-7.43-8.32-10.8-14.92l-29.45,48.31Z"/>
      <path class="d" d="M157.23,144.76c5.35,1.91,10.71,3.85,16.14,5.54,4.15,1.29,8.36,2.28,12.67,2.78,5.87.67,11.81.78,17.72.91,1.88.04,3.77.13,5.66.1,2.02-.03,4.03-.28,6.02-.62,3.89-.66,7.69-1.57,11.47-2.72,7.71-2.34,15.76-4.62,22.45-9.28l-.35.87c-.52-3.2-1.05-6.41-1.57-9.61l.74.57c-10.58.56-21.1-1.57-30.7-6.02-4.55-2.11-8.88-4.7-12.92-7.67-2.01-1.48-4-3.02-5.79-4.77-1.46-1.42-2.71-3.03-4.03-4.58-3.35-3.96-6.53-8.05-8.91-12.68-.45-.88.88-1.66,1.33-.78,2.11,4.1,4.84,7.81,7.8,11.34,1.16,1.38,2.3,2.79,3.49,4.14,1.67,1.88,3.6,3.5,5.59,5.03,7.76,5.94,16.63,10.51,26.16,12.81,5.88,1.42,11.93,1.95,17.97,1.63.31-.02.69.25.74.57.52,3.2,1.05,6.41,1.57,9.61.06.37-.05.66-.35.87-6.01,4.19-13.09,6.39-20.01,8.57-7.48,2.35-15.14,4.38-23.05,4.23-10.82-.21-21.77-.21-32.24-3.25-6.08-1.77-12.04-3.98-18-6.1-.93-.33-.53-1.82.41-1.49h0Z"/>
    </g>
    <g>
      <path class="i" d="M133.02,103.29c2.15-1.76,4.66-3.04,7.2-4.16,7.83-3.45,16.21-5.62,24.73-6.4,3.97-.36,8.12-.4,11.77,1.21,4.11,1.81,7.23,5.72,8.08,10.13.26,1.35.24,2.94-.77,3.88-.47.44-1.1.67-1.72.87-9.26,3.03-19.33,2.07-28.92.36-5.88-1.05-11.88-1.88-17.47-3.98-.67-.25-2.22-1.16-2.87-1.93l-.04.02Z"/>
      <path class="d" d="M132.48,102.75c3.09-2.5,6.76-4.12,10.44-5.56,3.93-1.55,7.99-2.79,12.12-3.69,4.01-.88,8.13-1.5,12.24-1.69,3.85-.18,7.88.21,11.26,2.21,2.87,1.7,5.09,4.37,6.31,7.46.59,1.49,1.04,3.2.81,4.8-.26,1.82-1.47,2.76-3.13,3.31-7.89,2.61-16.42,2.28-24.55,1.13-4.65-.66-9.31-1.47-13.91-2.43-2.36-.49-4.7-1.07-6.98-1.84-1.66-.56-3.37-1.27-4.57-2.61-.66-.74.43-1.83,1.09-1.09.98,1.11,2.38,1.7,3.75,2.17,1.87.64,3.78,1.15,5.71,1.58,3.76.85,7.58,1.45,11.38,2.11,7.6,1.32,15.52,2.13,23.16.66.88-.17,1.75-.37,2.61-.6.93-.25,2-.46,2.85-.94,1.46-.82,1.19-2.72.86-4.1-.74-3.01-2.6-5.76-5.11-7.58-2.92-2.11-6.49-2.74-10.03-2.72-3.85.02-7.74.57-11.52,1.3-4.2.82-8.33,1.97-12.34,3.46-3.94,1.46-8.06,3.11-11.35,5.78-.76.62-1.86-.47-1.09-1.09h0Z"/>
    </g>
    <path class="d" d="M184.84,107.9c-.1,3.01-1.92,5.76-4.72,6.93-1.61.68-3.4.89-5.12,1.11-1.9.24-3.82.38-5.74.41-7.41.14-14.79-1.17-21.93-3.07-4.14-1.1-8.21-2.42-12.26-3.82-.93-.32-.53-1.81.41-1.49,13.06,4.5,27.12,8.49,41.03,6.2,1.74-.29,3.52-.69,4.83-1.94,1.19-1.14,1.9-2.7,1.95-4.34.03-.99,1.57-.99,1.54,0h0Z"/>
    <g>
      <path class="d" d="M154.91,97.75c-.92-.94-2.33-1.4-3.71-1.43s-2.74.34-4.01.84c-.48.19-.97.41-1.34.74-.98.88-.95,2.31-.85,3.56.13,1.72.32,3.56,1.54,4.88,1.24,1.34,3.27,1.82,5.19,2.03,1.47.17,3.13.17,4.22-.73,1-.83,1.22-2.17,1.25-3.4.03-1.2-.08-2.4-.3-3.57-.17-.88-.43-1.78-1.08-2.44s-1.79-1-2.64-.56l1.73.09Z"/>
      <path class="d" d="M154.37,98.29c-1.87-1.81-4.79-1.28-6.96-.4-1.26.51-1.68,1.33-1.67,2.66,0,1.09.11,2.23.38,3.29.63,2.47,2.77,3.34,5.1,3.69,1.08.16,2.29.29,3.35-.03,1.12-.34,1.64-1.26,1.8-2.37.21-1.46.05-3.07-.26-4.5-.23-1.08-1.08-2.95-2.53-2.3-.9.4-1.68-.92-.78-1.33,1.38-.62,2.94-.18,3.86,1.02,1.03,1.33,1.2,3.25,1.29,4.87.09,1.48.08,3.18-.75,4.47s-2.32,1.8-3.81,1.86c-2.83.1-6.53-.63-8.08-3.26-.8-1.35-.96-2.97-1.07-4.5-.1-1.4-.07-2.96,1-4.02.65-.64,1.56-.97,2.4-1.26.93-.32,1.9-.54,2.88-.61,1.79-.12,3.63.38,4.94,1.64.71.69-.38,1.78-1.09,1.09h0Z"/>
    </g>
    <path class="i" d="M148.88,98.99c.15.08.02-.1.02.04,0,.09-.05.18-.04.28,0,.24.06.32.28.35.17.02.41,0,.53-.13.06-.07.08-.23.09-.32s-.05-.41.05-.22l.28.28c-.1-.08-.24-.06-.37-.04-.07,0-.14.02-.2.05-.09.03-.1.04-.02.02l.11-.39v.11c-.03-.13-.07-.26-.1-.39h0c-.11-.06-.23-.13-.34-.2-.21.11-.27.12-.17.02.05-.05.09-.1.13-.16.26-.33.82-.26,1.09,0s.37.57.31.93c-.03.16-.08.31-.16.45-.07.12-.19.21-.21.35l-1.41-.59c.06-.15.13-.29.19-.44.17-.38.72-.47,1.05-.28.39.23.44.67.28,1.05-.06.15-.13.29-.19.44-.15.35-.65.45-.96.32-.38-.17-.5-.52-.45-.91.02-.16.08-.3.16-.44l.09-.11c.13-.23.16-.21.09.06l.2.34-.07-.07h1.09c-.45.57-1.31.87-1.88.27-.63-.66-.09-1.54.62-1.81.66-.25,1.75-.31,2.18.37.33.52.18,1.38-.06,1.91-.61,1.35-2.88,1.49-3.55.11-.31-.64-.29-1.5.11-2.1.45-.67,1.32-.88,2.02-.48.86.49.09,1.82-.78,1.33h0Z"/>
    <path class="i" d="M152.99,99.77s-.09,0-.14,0l.2-.03s-.09.02-.13.03l.18-.08s-.04.02-.06.04l.16-.12s-.02.02-.03.03l.12-.16v.02c.02-.06.04-.12.07-.18,0,.01-.01.03-.01.04l.03-.2v.02c0-.07-.02-.14-.03-.2,0,.02,0,.03.01.05l-.08-.18v.02c-.03-.05-.07-.1-.11-.16,0,.01.02.02.03.03l-.16-.12s.03.02.05.02l-.18-.08s.03.01.05.01l-.2-.03s.04,0,.05,0l-.2.03s.05,0,.08-.02l-.18.08s.04-.02.06-.04l-.16.12s.05-.04.07-.07l-.12.16c.04-.06.07-.11.1-.18l.67,1.16c-.33.01-.68-.08-.95-.27-.16-.11-.31-.26-.35-.46s-.03-.41.08-.59c.24-.38.7-.59,1.14-.46.38.12.67.54.54.95s-.54.67-.95.54c-.02,0-.04-.01-.06-.01l.2.03s-.04,0-.06,0l.2-.03s-.04,0-.05.02l.18-.08s-.03.02-.05.03l.16-.12s-.03.03-.04.04l.12-.16v.02c-.11-.35-.2-.7-.29-1.05.05.03.1.06.16.09l-.18-.08c.08.03.16.05.25.07l-.2-.03s.1,0,.15,0c.27,0,.53.15.67.38.15.25.12.53,0,.78-.14.29-.39.56-.71.65-.42.11-.88-.04-1.11-.42-.26-.44-.1-.97.3-1.24.2-.14.48-.19.72-.18.21.02.39.08.54.23.13.13.23.35.23.54-.02.39-.34.8-.77.77h0Z"/>
    <g>
      <path class="d" d="M246.29,132.64c.34-1.18.85-2.31,1.5-3.35.36-.57.76-1.12,1.3-1.52,1.28-.95,3.07-.88,4.58-.36,2.55.87,4.68,2.9,5.65,5.41s.78,5.45-.52,7.81c-.38.69-.86,1.34-1.5,1.78-1,.7-2.28.83-3.49.94-1.59.14-3.42.2-4.53-.95-.41-.43-.67-.97-.88-1.52-.9-2.36-.35-.62-.99-2.43-.2-.55-.81-3.68-1.16-4.14l.06-1.68Z"/>
      <path class="d" d="M245.54,132.43c.58-1.92,1.54-4.22,3.25-5.39s3.86-.88,5.61-.17c3.75,1.53,6.29,5.22,6.29,9.28,0,2.01-.59,4.12-1.81,5.74-1.31,1.74-3.26,2.08-5.31,2.25-1.8.15-3.87.07-5.09-1.46-.71-.89-1.02-2.05-1.49-3.08-.56-1.22-.74-2.59-1.09-3.88-.14-.51-.43-1.01-.45-1.51s.04-1.05.05-1.57c.03-.99,1.57-.99,1.54,0l-.04,1.06c0,.08.04.5-.02.55-.08.07-.2-.37-.04-.21.07.07.12.26.15.36.39,1.02.58,2.12.84,3.18.1.41.22.79.37,1.19.06.16.12.3.09.24.02.05.06.09.09.14.6,1.21.79,2.78,2.22,3.29s3.4.25,4.82-.1c1.83-.45,2.78-2.05,3.28-3.77.98-3.41-.24-7.1-3.1-9.22-1.41-1.04-3.39-1.88-5.16-1.43-2.01.52-2.99,3.14-3.53,4.92-.29.95-1.77.54-1.49-.41Z"/>
    </g>
    <path class="i" d="M250.6,130.23c-.26.09-.42.38-.32.64l-.2-.34c.15.19-.06.01-.07,0,.02.01-.05.05,0,0,.1-.1-.35-.27.25.08.3.17.31.05.22.21-.03.05-.16.23-.18.23l-.09-.2c-.14-.15-.26-.18-.36-.1,0,0-.03.03-.03.03-.04-.09.01-.35,0-.46,0-.21,0-.4.07-.6.19-.54.86-.79,1.35-.46l-1.13.46v-.1c.01.14.01.27.01.41l.16.15.93-1.21c1.19,1.04.39,3.76-1.4,3.18-.94-.31-.54-1.79.41-1.49,0,0-.11.1-.06.04.06-.08.1-.2.11-.3.01-.15-.03-.25-.15-.35-.65-.57.21-1.7.93-1.21.46.31.62.73.53,1.28-.07.48-.75.72-1.13.46l-.07-.04.39.11h-.08c.13-.03.26-.06.39-.1l-.07.05.28-.28-.03.08.11-.39c-.04.33.03.67-.03,1-.06.31-.19.61-.42.83-.48.48-1.3.58-1.81.08-1.06-1.06.56-3.34,1.88-2.56.68.4.69,1.37.3,1.98-.4.64-1.3.92-1.97.54-.64-.36-.76-1.16-.54-1.81s.73-1.14,1.39-1.35c.94-.31,1.35,1.17.41,1.49h0Z"/>
    <path class="i" d="M253.6,130.43s-.01.01-.02.02l.12-.16s0,.01-.01.02l.08-.18h0c0-.06.02-.13.03-.19,0,0,0,.02,0,.02l-.03-.2s0,.02.01.03l-.08-.18s.01.02.02.03l-.12-.16s.02.02.03.03l-.16-.12s.02.02.04.02l-.18-.08s.03,0,.04.01l-.2-.03s.02,0,.03,0l-.2.03s.03,0,.04-.01l-.18.08s.02-.01.03-.02l-.16.12s.03-.03.05-.05l-.12.16s.02-.04.03-.06l-.08.18c.03-.06.04-.13.05-.19l-.03.2v-.02c.33.25.65.5.98.74-.08.02-.16.04-.24.05-.2.04-.41.03-.59-.08-.16-.09-.31-.28-.35-.46-.04-.2-.04-.42.08-.59.11-.16.26-.31.46-.35.08-.02.16-.04.24-.05.25-.05.47-.02.67.14.08.05.15.13.2.22.07.12.1.25.11.39-.03.23-.05.42-.17.63-.17.29-.48.49-.81.49s-.62-.19-.8-.47c-.08-.13-.12-.31-.12-.46,0-.21.09-.46.26-.59.07-.08.15-.13.25-.16.09-.05.19-.07.3-.07.19,0,.41.08.54.23s.23.34.23.54c0,.19-.07.42-.23.54h0Z"/>
    <g>
      <path class="g" d="M154.65,52.71c5.25-2.12,11.1.31,16.32,2.49,2.1.88,4.31,1.73,6.57,1.52,2.26-.21,4.56-1.85,4.73-4.11.17-2.18-1.58-4.05-1.93-6.21-.27-1.64.29-3.3.97-4.82,1.06-2.37,2.43-4.61,3.19-7.09s.8-5.36-.68-7.49c-2.34-3.36-7.2-3.47-11.26-2.96-3.05.39-6.15.97-8.82,2.49-1.6.91-2.99,2.14-4.38,3.36-3.65,3.22-7.45,6.65-9.07,11.24l-1.5,9.78,5.86,1.8Z"/>
      <path class="d" d="M154.45,51.97c4.03-1.57,8.39-.66,12.32.74,2.03.72,3.99,1.64,6.01,2.39,1.9.7,4.06,1.29,6.04.55,1.55-.58,2.89-1.97,2.69-3.73s-1.48-3.32-1.85-5.09c-.44-2.1.31-4.14,1.17-6.02.92-2,2.05-3.91,2.77-6,1.17-3.44.88-7.6-2.78-9.33-3.09-1.46-6.96-.93-10.2-.38-2.06.35-4.14.87-6,1.84s-3.55,2.48-5.17,3.92c-2.92,2.58-5.9,5.3-7.69,8.83-.46.9-.71,1.67-.86,2.63l-.52,3.38c-.28,1.81-.56,3.61-.83,5.42l-.54-.95c1.95.6,3.9,1.2,5.86,1.8.94.29.54,1.78-.41,1.49-1.95-.6-3.9-1.2-5.86-1.8-.43-.13-.6-.52-.54-.95.26-1.71.52-3.41.79-5.12l.52-3.38c.09-.6.15-1.18.37-1.75,1.54-3.92,4.51-6.98,7.58-9.76,1.57-1.42,3.14-2.88,4.88-4.09,1.85-1.29,3.96-2.11,6.14-2.62,3.64-.86,7.85-1.47,11.53-.48s5.99,4,5.92,7.83c-.04,2.15-.74,4.18-1.62,6.11-.93,2.04-2.16,3.99-2.8,6.15-.32,1.08-.43,2.17-.12,3.27.29.99.8,1.9,1.2,2.85.72,1.72.91,3.59-.22,5.19s-3.04,2.49-4.96,2.6c-2.65.15-5.13-1.01-7.51-1.99-4.64-1.92-9.92-4-14.9-2.07-.92.36-1.33-1.13-.41-1.49Z"/>
    </g>
    <g>
      <path class="g" d="M143.85,55.29c-4.6.74-8.36,4-11.56,7.39s-6.22,7.12-10.33,9.32c-4.11,2.2-9.76,2.39-12.97-.99-4.39-4.62-1.87-12.61-5.07-18.12-1.78-3.08-5.11-4.93-8.43-6.2-.65-.25-1.32-.5-1.82-.98-1.15-1.12-.9-3.14.13-4.37s2.6-1.85,4.12-2.36c1.66-.55,3.35-1.04,5.08-1.24,3.59-.41,7.2.43,10.72,1.26,8.88,2.1,17.77,4.21,26.65,6.31l5.65,2.65-2.18,7.31Z"/>
      <path class="d" d="M144.05,56.04c-9.9,1.69-13.76,12.98-22.38,16.97-3.6,1.67-8.24,2.08-11.69-.18-3.55-2.32-4.34-6.5-4.73-10.42-.21-2.08-.33-4.19-.85-6.23s-1.6-3.97-3.26-5.43-3.83-2.53-5.95-3.36c-.96-.37-1.92-.79-2.5-1.68-.54-.84-.64-1.89-.44-2.86.45-2.18,2.4-3.43,4.33-4.19,2.45-.97,5.1-1.68,7.74-1.77s5.51.44,8.18,1.05c2.83.65,5.65,1.33,8.47,2,5.64,1.34,11.28,2.67,16.92,4.01.97.23,2.05.36,2.97.76.39.17.77.36,1.16.54l3.65,1.71.76.36c.3.14.44.57.35.87-.73,2.44-1.45,4.87-2.18,7.31-.28.95-1.77.54-1.49-.41.73-2.44,1.45-4.87,2.18-7.31l.35.87-2.34-1.1c-1.02-.48-2.04-1.07-3.1-1.46-.71-.26-1.52-.37-2.27-.55l-4.04-.96-8.08-1.91c-5.28-1.25-10.55-2.67-15.87-3.71-2.64-.51-5.35-.77-8.01-.27-1.29.25-2.55.62-3.79,1.04-1.04.35-2.11.74-2.99,1.41-.81.62-1.41,1.49-1.45,2.54-.04,1.15.69,1.74,1.69,2.15,1.99.8,3.94,1.63,5.68,2.91,1.63,1.2,3.05,2.69,3.92,4.54s1.21,3.68,1.45,5.61c.46,3.68.23,8.07,2.68,11.12s7.06,3.37,10.65,2.14c4.23-1.46,7.39-5.01,10.33-8.21,3.02-3.28,6.2-6.67,10.39-8.44,1.02-.43,2.07-.75,3.16-.93.97-.17,1.39,1.32.41,1.49Z"/>
    </g>
    <g>
      <path class="g" d="M148.42,41.78c1.02-.15,2.08-.08,3.08.2.26.07.55.19.64.44.09.25-.05.52-.16.77-.81,1.7-.5,3.87.75,5.28.81.91,2.02,1.6,2.31,2.79.43,1.74-1.37,3.2-3.03,3.89-1.63.68-3.35,1.14-5.1,1.34-1.3.15-2.84.07-3.61-1-.91-1.27-.14-3-.09-4.55.04-1.43-.6-2.86-1.69-3.77-.72-.6-1.74-1.35-1.37-2.21.2-.47.74-.68,1.22-.83,2.72-.9,5.45-1.79,8.17-2.69l-1.12.35Z"/>
      <path class="d" d="M148.42,41.01c1.27-.16,4.84-.26,4.49,1.87-.07.43-.34.82-.46,1.25s-.16.82-.14,1.24c.03.93.37,1.84.97,2.55,1.02,1.19,2.53,1.99,2.59,3.74s-1.32,2.99-2.67,3.76c-1.75.99-3.83,1.5-5.8,1.78-1.46.2-3.22.25-4.37-.86-1.41-1.36-.79-3.24-.62-4.93.09-.91-.04-1.78-.5-2.59s-1.26-1.28-1.9-1.97c-.53-.58-.89-1.32-.61-2.11.35-.99,1.45-1.27,2.34-1.56,2.53-.83,5.06-1.66,7.59-2.5.94-.31,1.35,1.18.41,1.49-1.8.59-3.6,1.18-5.4,1.78-.83.27-1.65.54-2.48.82-.22.07-.99.23-1.02.55-.03.26.42.61.58.75,1.05.97,1.96,1.83,2.37,3.26s-.06,2.86-.13,4.35c-.18,3.61,5.57,1.71,7.38,1.04,1.18-.44,2.79-1.15,3.22-2.46.46-1.39-1.21-2.3-1.99-3.16-1.03-1.12-1.58-2.65-1.49-4.17.02-.37.07-.74.16-1.09.05-.2.44-.88.38-1.03-.1-.26-1.12-.29-1.35-.31-.52-.03-1.03,0-1.55.06-.98.12-.97-1.42,0-1.54h0Z"/>
    </g>
    <path class="d" d="M100.51,241.38c3.33,3.31,7.04,6.31,11.36,8.24,4.75,2.13,10.15,2.57,15.3,2.56,9.51-.03,19.27-1.75,28-5.61,4.52-2,8.82-4.61,12.34-8.12.7-.7,1.79.39,1.09,1.09-6.51,6.5-15.52,10.19-24.36,12.22-5,1.15-10.15,1.77-15.28,1.92s-11.12-.13-16.19-2.04-9.5-5.35-13.34-9.17c-.7-.7.39-1.79,1.09-1.09h0Z"/>
    <path class="d" d="M182.81,170.4c.78,4.53,2.26,8.87,4.55,12.87,2.3,4.01,5.42,7.27,8.48,10.7,1.63,1.82,3.29,3.61,5.11,5.24,1.01.9,2.02,1.79,3,2.72,1.09,1.02,1.98,2.23,2.99,3.33,1.09,1.19,2.22,2.34,3.28,3.56,1.26,1.45,2.46,2.96,3.57,4.52s1.91,3.25,2.56,5.12c.72,2.06,1.16,4.2,1.03,6.4-.14,2.41-1.19,4.67-1.9,6.95-1.27,4.07-4.21,7.23-8,9.09-4.09,2.01-8.45,3.48-12.91,4.4-9.03,1.87-18.55,1.63-27.45-.83-1.11-.31-2.2-.65-3.29-1.02-.93-.32-.53-1.81.41-1.49,8.54,2.94,17.8,3.74,26.73,2.41,4.42-.66,8.76-1.82,12.89-3.52,1.97-.81,4.02-1.69,5.7-3.02s2.91-2.92,3.79-4.77c.47-.99.73-2.03,1.08-3.06.37-1.11.81-2.2,1.11-3.33.57-2.19.34-4.49-.3-6.64-.55-1.85-1.21-3.59-2.29-5.2s-2.17-2.97-3.36-4.38c-1.06-1.26-2.2-2.44-3.32-3.64-1.04-1.12-1.94-2.41-3.05-3.45-2.51-2.35-5.11-4.58-7.43-7.13-3-3.28-6.15-6.5-8.59-10.24-2.37-3.64-4.15-7.68-5.21-11.9-.27-1.08-.49-2.17-.67-3.27-.17-.97,1.32-1.39,1.49-.41h0Z"/>
    <path class="d" d="M162.35,234.22c0-4.02.32-8.3-.71-12.22-1.13-4.32-3.06-8.67-5.86-12.17-1.88-2.34-4.16-4.3-6.62-6-.81-.56-.04-1.89.78-1.33,4.52,3.12,8.18,7.05,10.55,12.03,1.63,3.42,2.95,7.08,3.24,10.87.22,2.93.16,5.88.16,8.82,0,.99-1.54.99-1.54,0h0Z"/>
    <path class="d" d="M155.68,208.42c1.39-2.19,2.66-4.49,4.23-6.56.59-.78,1.93-.01,1.33.78-1.58,2.07-2.84,4.36-4.23,6.56-.53.83-1.86.06-1.33-.78h0Z"/>
    <path class="d" d="M174.19,170.4c1.45,4.55,2.17,9.21,2.88,13.92s2.01,9.75,2.91,14.66,1.92,9.73,1.61,14.62c-.31,4.94-1.91,9.72-5.13,13.53-3.41,4.03-8.21,6.69-13.21,8.23-.95.29-1.36-1.19-.41-1.49,4.3-1.33,8.42-3.51,11.57-6.77,3.4-3.51,5.21-8.14,5.6-12.98s-.58-9.52-1.42-14.19-2.07-9.3-2.82-14.01c-.81-5.1-1.49-10.16-3.06-15.1-.3-.95,1.19-1.35,1.49-.41h0Z"/>
    <path class="d" d="M162.82,235.45c-4.73.14-9.45-.23-14.14-.83-1.98-.25-3.92-.5-5.77-1.28-1.64-.7-3.12-1.69-4.6-2.68s-2.97-1.89-4.14-3.23c-.88-1.01-1.52-2.16-2-3.41-.5-1.33-.81-2.72-1.15-4.1-.46-1.88-1.02-3.73-1.53-5.6-1.66-6.12-2.7-12.34-3.93-18.55-.69-3.49-1.59-6.96-2.21-10.47-.39-2.19-.68-4.39-.99-6.59-.45-3.11-.9-6.23-1.45-9.32-.37-2.05-.68-4.64-1.58-6.4-.45-.88.88-1.66,1.33-.78.82,1.62,1.12,3.54,1.46,5.31.52,2.69.93,5.39,1.33,8.1.37,2.51.71,5.02,1.1,7.53s1,5.01,1.53,7.51c1.35,6.34,2.31,12.76,3.82,19.06.85,3.55,1.92,7.04,2.79,10.58.67,2.72,1.45,5.24,3.65,7.12,1.54,1.32,3.39,2.43,5.13,3.46s3.58,1.71,5.61,1.99c5.2.74,10.47,1.19,15.73,1.04.99-.03.99,1.51,0,1.54h0Z"/>
    <path class="d" d="M218.78,92.58v-2.46c0-.99,1.54-.99,1.54,0v2.46c0,.99-1.54.99-1.54,0h0Z"/>
    <path class="d" d="M216.44,91.96l-.39-1.85c-.08-.41.12-.83.54-.95.38-.1.86.13.95.54l.39,1.85c.08.41-.12.83-.54.95-.38.1-.86-.13-.95-.54h0Z"/>
    <path class="d" d="M213.08,90.73l.38-1.85c.08-.41.57-.64.95-.54.42.12.62.54.54.95l-.38,1.85c-.08.41-.57.64-.95.54-.42-.12-.62-.54-.54-.95h0Z"/>
    <path class="d" d="M208.95,90.7c-.06.07.08-.14.1-.17-.05.11.02-.11.02-.12-.03.12,0-.1,0-.11,0-.1,0-.11,0-.03-.01-.05-.02-.1-.04-.15-.12-.4.14-.84.54-.95s.83.14.95.54c.22.75.01,1.51-.49,2.09-.27.32-.81.28-1.09,0-.31-.31-.27-.77,0-1.09h0Z"/>
    <path class="d" d="M207.69,91.81c-.44-.42-.81-.9-1.11-1.42-.21-.36-.08-.84.28-1.05s.85-.09,1.05.28c.26.46.49.74.87,1.11.3.29.29.8,0,1.09s-.79.29-1.09,0h0Z"/>
    <path class="d" d="M204.71,91.55c.02-.18.03-.35.02-.53,0-.04,0-.08,0-.12,0,.06,0,.06,0,0-.02-.09-.04-.19-.07-.28-.11-.39.13-.86.54-.95s.83.12.95.54.17.89.11,1.34c-.05.4-.32.79-.77.77-.38-.02-.82-.34-.77-.77h0Z"/>
    <path class="d" d="M201.34,91.85c.01.11-.04-.17-.05-.2-.02-.08-.05-.16-.07-.24-.07-.22.05.09-.05-.12-.05-.1-.1-.19-.16-.29-.21-.34-.09-.86.28-1.05s.83-.09,1.05.28c.31.5.46,1.04.54,1.61.05.4-.39.79-.77.77-.46-.02-.72-.34-.77-.77h0Z"/>
    <path class="d" d="M198.54,92.17l-.37-1.86c-.08-.41.12-.83.54-.95.38-.1.86.13.95.54l.37,1.86c.08.41-.12.83-.54.95-.38.1-.86-.13-.95-.54h0Z"/>
    <path class="d" d="M196.51,93.43l-1.32-1.55c-.27-.32-.31-.78,0-1.09.28-.28.82-.32,1.09,0l1.32,1.55c.27.32.31.78,0,1.09-.28.28-.82.32-1.09,0h0Z"/>
    <path class="d" d="M192.8,93.8l.25-1.74c.06-.41.58-.64.95-.54.44.12.6.53.54.95l-.25,1.74c-.06.41-.58.64-.95.54-.44-.12-.6-.53-.54-.95h0Z"/>
    <path class="d" d="M190.24,94.73c-.02-.31-.14-.64-.32-.94-.22-.35-.08-.85.28-1.05s.83-.08,1.05.28c.33.53.49,1.11.53,1.72.03.42-.37.77-.77.77-.44,0-.74-.35-.77-.77h0Z"/>
    <path class="d" d="M188.79,96.37l-1.68-.85c-.37-.19-.48-.71-.28-1.05.22-.38.68-.47,1.05-.28l1.68.85c.37.19.48.71.28,1.05-.22.38-.68.47-1.05.28h0Z"/>
    <path class="d" d="M211.28,90.52l-.12-1.23c-.04-.4.38-.79.77-.77.45.02.73.34.77.77l.12,1.23c.04.4-.38.79-.77.77-.45-.02-.73-.34-.77-.77h0Z"/>
    <path class="d" d="M178.98,95.77c-.28-.62-.44-1.27-.43-1.96.01-.99,1.55-.99,1.54,0,0,.4.05.81.22,1.18s.11.83-.28,1.05c-.33.19-.88.1-1.05-.28h0Z"/>
    <path class="d" d="M176.95,93.79l-.46-1.52c-.29-.95,1.2-1.36,1.49-.41l.46,1.52c.29.95-1.2,1.36-1.49.41h0Z"/>
    <path class="d" d="M174.03,92.24l.82-1.03c.25-.32.83-.28,1.09,0,.31.34.27.75,0,1.09l-.82,1.03c-.25.32-.83.28-1.09,0-.31-.34-.27-.75,0-1.09h0Z"/>
    <path class="d" d="M172.08,92.57l-.24-2.26c-.04-.41.39-.77.77-.77.45,0,.73.35.77.77l.24,2.26c.04.41-.39.77-.77.77-.45,0-.73-.35-.77-.77h0Z"/>
    <path class="d" d="M170.1,92.76c-.28-.43-.48-.92-.58-1.42-.08-.39.11-.85.54-.95.38-.09.87.11.95.54.09.45.19.7.42,1.06.22.34.08.87-.28,1.05-.38.2-.82.09-1.05-.28h0Z"/>
    <path class="d" d="M166.66,92.07c-.03-.65.05-1.31.23-1.94.28-.95,1.76-.55,1.49.41-.15.51-.2,1-.18,1.53.02.42-.37.77-.77.77-.43,0-.75-.35-.77-.77h0Z"/>
    <path class="d" d="M165.04,92.83c-.77-.51-1.21-1.29-1.26-2.21-.02-.42.37-.77.77-.77.44,0,.75.35.77.77.02.32.21.68.5.88.35.23.49.68.28,1.05-.2.34-.71.51-1.05.28h0Z"/>
    <path class="d" d="M161.43,92.77l-.48-1.41c-.13-.39.15-.84.54-.95.42-.12.81.14.95.54l.48,1.41c.13.39-.15.84-.54.95-.42.12-.81-.14-.95-.54h0Z"/>
    <path class="d" d="M158.72,92.99c-.11-.65-.16-1.29-.11-1.95.03-.41.33-.77.77-.77.39,0,.8.35.77.77-.04.52-.03,1.03.06,1.54.07.41-.11.83-.54.95-.37.1-.88-.13-.95-.54h0Z"/>
    <path class="d" d="M156.56,93.68l-.72-1.03c-.23-.33-.07-.87.28-1.05.4-.21.81-.08,1.05.28l.72,1.03c.23.33.07.87-.28,1.05-.4.21-.81.08-1.05-.28h0Z"/>
    <path class="d" d="M152.96,93.74c.13-.38.18-.76.1-1.16s.12-.83.54-.95c.38-.1.86.13.95.54.13.66.12,1.33-.1,1.97-.13.39-.53.65-.95.54-.39-.11-.67-.55-.54-.95h0Z"/>
    <path class="d" d="M151.13,94.75c-.48-.47-.74-1.1-.75-1.77,0-.4.36-.79.77-.77s.76.34.77.77c0,.13.02.24.07.37.05.11.14.22.23.31.29.28.31.81,0,1.09s-.78.3-1.09,0h0Z"/>
    <path class="d" d="M148.13,95.36l-.61-1.54c-.15-.39.17-.85.54-.95.44-.12.79.15.95.54l.61,1.54c.15.39-.17.85-.54.95-.44.12-.79-.15-.95-.54h0Z"/>
    <path class="d" d="M145.61,96.74c-.27-.49-.57-.95-.9-1.39-.25-.33-.05-.86.28-1.05.39-.23.8-.06,1.05.28.33.44.63.91.9,1.39.2.36.09.84-.28,1.05s-.85.09-1.05-.28h0Z"/>
    <path class="d" d="M142.16,97.4c.04-.51.05-1.04-.03-1.55-.06-.41.1-.83.54-.95.36-.1.88.12.95.54.1.65.14,1.3.09,1.96-.03.41-.33.77-.77.77-.39,0-.81-.35-.77-.77h0Z"/>
    <path class="d" d="M140.04,98.22l-.39-1.65c-.23-.96,1.25-1.37,1.49-.41l.39,1.65c.23.96-1.25,1.37-1.49.41h0Z"/>
    <path class="d" d="M137.87,99.64l-.42-.82c-.18-.36-.1-.85.28-1.05.35-.19.86-.11,1.05.28l.42.82c.18.36.1.85-.28,1.05-.35.19-.86.11-1.05-.28h0Z"/>
    <path class="d" d="M135.65,100.37l-.45-1.43c-.12-.4.15-.84.54-.95.41-.11.82.14.95.54l.45,1.43c.12.4-.15.84-.54.95-.41.11-.82-.14-.95-.54h0Z"/>
    <path class="d" d="M134.13,101.87c-.36-.23-.7-.51-.98-.84-.26-.31-.32-.79,0-1.09.29-.26.81-.33,1.09,0,.11.13.23.26.36.37.03.02.05.05.08.07.11.09.04,0,0,0,.05,0,.18.13.23.16.34.22.51.69.28,1.05-.22.34-.69.51-1.05.28h0Z"/>
    <path class="c" d="M295.5,289.71c0,3.75-4.78,6.79-10.69,6.79H13.19c-5.9,0-10.69-3.04-10.69-6.79"/>
  </g>
  <g>
    <path class="c" d="M87.73,328.78c0,4.18.12,8.66.33,13.45.21,4.79.49,9.27.85,13.43l-8.7.38-.44-10.07-13.63.59.44,10.07-8.7.38c-.01-4.8-.11-9.28-.29-13.45-.18-4.17-.48-8.65-.88-13.43l8.7-.38.44,10.07,13.63-.59-.44-10.07,8.7-.38Z"/>
    <path class="c" d="M100.3,348.38c9.38-.46,16.17-.89,20.38-1.3-.13,1.02-.19,2.07-.18,3.14,0,1.08.05,2.43.12,4.06l-28.77,1.26c-.01-4.8-.11-9.28-.29-13.45-.18-4.17-.48-8.65-.88-13.43l28.77-1.26.29,6.7-20.03.88.16,3.55c1.19-.03,2.94-.09,5.26-.19,3.92-.17,7.98-.42,12.17-.75l.28,6.37c-4.2.04-8.27.14-12.19.31-2.32.1-4.07.19-5.26.27l.17,3.85Z"/>
    <path class="c" d="M138.55,338.14l15.81-.69.67,15.33-6.52.29-1.06-6.52c-.64,2.38-1.88,4.17-3.73,5.39-1.85,1.22-4.15,1.89-6.89,2.01-2.49.11-4.73-.35-6.72-1.38s-3.57-2.55-4.76-4.58-1.84-4.42-1.96-7.19c-.19-4.42.98-7.97,3.5-10.65,2.53-2.68,6.58-4.15,12.16-4.39,3.18-.14,6.01.26,8.49,1.19,2.48.93,4.61,2.45,6.41,4.54-1.09.62-3.21,1.85-6.37,3.69l-.9.56c-1.01-.92-2.16-1.59-3.46-2.02-1.31-.42-2.67-.61-4.1-.54-2.37.1-4.11.8-5.21,2.1-1.11,1.3-1.62,2.86-1.54,4.69.09,1.97.78,3.54,2.08,4.69,1.3,1.16,3.23,1.68,5.8,1.56,1.11-.05,2.18-.26,3.22-.62,1.03-.37,1.89-.96,2.57-1.78l-7.22.31-.26-6Z"/>
    <path class="c" d="M166.43,345.49c9.38-.46,16.17-.89,20.38-1.3-.13,1.02-.19,2.07-.18,3.14.01,1.08.05,2.43.12,4.06l-28.77,1.26c-.01-4.8-.11-9.28-.29-13.45-.18-4.17-.48-8.65-.88-13.43l28.77-1.26.29,6.7-20.03.87.16,3.55c1.19-.03,2.94-.09,5.26-.19,3.92-.17,7.98-.42,12.17-.75l.28,6.37c-4.2.04-8.27.14-12.19.31-2.32.1-4.07.19-5.26.27l.17,3.85Z"/>
    <path class="c" d="M219.99,323.04c0,4.18.12,8.65.33,13.42.21,4.79.49,9.27.85,13.43l-13.26.58-9.84-19.83,1.55,20.19-9.52.42c-.01-4.8-.11-9.28-.29-13.45-.18-4.15-.47-8.61-.88-13.39l13.63-.59,9.9,20.38-1.54-20.75,9.07-.4Z"/>
    <path class="c" d="M247.48,348.74c-.53-1.39-1.24-3.12-2.12-5.21l-11.81.52-1.62,5.38-9.29.41,9.19-27.33,13.63-.59,11.61,26.43-9.59.42ZM243,337.84c-1.05-2.55-2.13-5.1-3.23-7.65l-.99-2.37c-.77,2.28-1.89,5.73-3.37,10.35l7.59-.33Z"/>
  </g>
  <path class="c" d="M95.54,374.93c7.81,3.88,16.73,2.41,24.68-.24,4.31-1.44,8.51-3.19,12.85-4.54,2.25-.7,4.59-1.42,6.96-1.49,2.22-.06,4.2.65,6.14,1.65,3.43,1.77,6.59,3.69,10.55,3.84,3.75.15,7.37-1.08,10.77-2.54,3.73-1.6,7.29-3.6,11.09-5.05,1.88-.72,4.15-1.65,6.19-1.43,1.91.21,3.24,1.81,4.51,3.09,5.53,5.55,14.76,6.06,20.65.71,1.07-.98-.52-2.56-1.59-1.59-2.51,2.28-5.9,3.3-9.27,3.1-3.63-.22-6.34-1.95-8.84-4.46-1.14-1.14-2.37-2.28-3.94-2.8-1.93-.64-4-.18-5.88.39-3.69,1.1-7.14,2.87-10.6,4.52s-6.94,3.29-10.71,3.72c-3.96.46-7.16-.93-10.56-2.78-1.65-.9-3.34-1.79-5.16-2.25-2.04-.52-4.14-.41-6.19-.03-4.39.82-8.61,2.54-12.78,4.08-8.68,3.2-18.84,6.59-27.74,2.17-1.29-.64-2.43,1.3-1.14,1.94h0Z"/>
</svg>