<?xml version="1.0" encoding="UTF-8"?>
<svg id="a" data-name="Layer 1" xmlns="http://www.w3.org/2000/svg" viewBox="0 0 298 385.13">
  <defs>
    <style>
      .b {
        fill: #a68e7e;
      }

      .b, .c, .d, .e, .f, .g, .h {
        stroke-width: 0px;
      }

      .c {
        fill: #1a1a1a;
      }

      .d {
        fill: #d4a172;
      }

      .e {
        fill: #000;
      }

      .f {
        fill: #fb9300;
      }

      .g {
        fill: #fff;
      }

      .h {
        fill: #9e6a38;
      }
    </style>
  </defs>
  <g>
    <rect class="f" x="1" y="1" width="296" height="296" rx="10.79" ry="10.79"/>
    <g>
      <path class="c" d="M286.21,298H11.79c-6.5,0-11.79-5.29-11.79-11.79V11.79C0,5.29,5.29,0,11.79,0h274.42c6.5,0,11.79,5.29,11.79,11.79v274.42c0,6.5-5.29,11.79-11.79,11.79ZM11.79,2C6.39,2,2,6.39,2,11.79v274.42c0,5.4,4.39,9.79,9.79,9.79h274.42c5.4,0,9.79-4.39,9.79-9.79V11.79c0-5.4-4.39-9.79-9.79-9.79H11.79Z"/>
      <path class="c" d="M296.5,289.71c0,3.75-4.82,6.79-10.76,6.79H12.26c-5.94,0-10.76-3.04-10.76-6.79h295Z"/>
    </g>
    <g>
      <g>
        <path class="h" d="M54.61,289.51v.49h177.46c-.02-.17-.03-.33-.05-.49-.2-2.21-.41-4.44-.65-6.65-1.6-15.45-3.88-30.83-6.87-46.05-3.12-15.93-7.93-33.07-19.65-43.71-.21-.19-.41-.37-.62-.55-.21-.19-.42-.37-.64-.54-1.13-.95-2.32-1.83-3.57-2.65-.08-.05-.16-.11-.24-.16l-27.41-2.01-74.38-5.45c-.12.04-.24.09-.35.14-.28.1-.56.21-.83.32-.27.11-.55.23-.81.34-15.85,6.8-26.04,23.03-31.85,39.42-6.93,19.53-9.2,40.1-9.5,60.9-.04,2.21-.05,4.43-.03,6.65Z"/>
        <path class="e" d="M53.81,282.86c.05-3.65.17-7.31.35-10.96,1.02-19.49,4.14-39.37,12.03-57.34,3.35-7.64,7.69-14.94,13.36-21.09,2.73-2.98,5.8-5.66,9.16-7.91,1.66-1.11,3.41-2.12,5.22-2.99.48-.24.97-.46,1.47-.68.26-.11.53-.23.79-.33h0c.2-.09.38-.17.58-.24.08-.03.16-.06.24-.09.32-.15.66-.29,1-.31,1.22-.08,2.57.19,3.78.27,3.08.23,6.17.45,9.25.68,9.65.71,19.28,1.42,28.93,2.12,9.21.68,18.44,1.35,27.65,2.03h.02c1.5.11,2.99.22,4.48.33.05,0,.1,0,.15,0h0c7.68.56,15.34,1.13,23.02,1.68,1.45.11,2.94.13,4.39.32.19.03.36.09.53.16,0,0,0,0,.02,0,.45.21.85.54,1.25.82.02,0,.03.02.05.03,0,0,0,0,.02,0,.87.63,1.73,1.28,2.56,1.98.22.18.42.34.64.53h0c.21.19.41.37.62.56.22.2.43.4.65.61,2.89,2.73,5.37,5.9,7.47,9.26,4.32,6.93,7.09,14.75,9.17,22.6,2.44,9.25,4.05,18.73,5.59,28.17,1.61,9.88,2.92,19.81,3.95,29.76.23,2.21.44,4.44.65,6.65,0,.17.03.32.04.49h-1.66c0-.17-.02-.33-.04-.49-.2-2.22-.41-4.44-.65-6.65-.46-4.55-.99-9.1-1.59-13.63-1.39-10.67-3.12-21.3-5.19-31.86-1.57-8.02-3.46-16.04-6.46-23.66-2.9-7.36-6.95-14.42-12.81-19.83-.06-.05-.12-.11-.18-.16h0c-.21-.2-.4-.37-.61-.55h0c-.22-.2-.42-.37-.63-.55-.24-.2-.47-.38-.71-.58-.38-.3-.77-.6-1.17-.88-.41-.3-1.06-.59-1.39-.97-.08-.09-.12-.15-.14-.18-.03,0-.05,0-.08,0-.52-.09-1.08-.08-1.61-.12-6.41-.47-12.84-.94-19.25-1.41-10.27-.75-20.54-1.51-30.82-2.26-10.2-.74-20.4-1.49-30.6-2.24-6.03-.44-12.05-.88-18.09-1.32-.25-.02-.58-.09-.88-.11,0,0,0,0,0,0-.11,0-.21,0-.3.02-.12.02-.14.07-.31.16-.1.04-.19.08-.27.12-.27.12-.54.24-.81.34h0c-.63.26-1.25.52-1.86.81-1.8.87-3.54,1.87-5.21,2.99-6.8,4.54-12.2,10.92-16.44,17.85-4.56,7.43-7.8,15.55-10.31,23.88-2.88,9.61-4.75,19.51-5.87,29.48-.92,8.2-1.35,16.42-1.47,24.67-.03,2.21-.04,4.43-.03,6.65v.49h-1.65c0-.17,0-.32,0-.49-.02-2.21,0-4.44.03-6.65Z"/>
      </g>
      <path class="e" d="M86.99,290h1.65c0-.17,0-.32,0-.49,0-1.33,0-2.66.02-3.99,0-.89.02-1.78.04-2.66.31-18.56,1.71-37.11,4.21-55.5.14-1.05-1.46-1.5-1.6-.44-1.48,10.86-2.59,21.78-3.31,32.72-.51,7.74-.83,15.48-.96,23.23-.04,2.22-.06,4.44-.06,6.65,0,.17,0,.32,0,.49Z"/>
      <path class="e" d="M198.11,231.15c1.07,10.45,2.21,20.88,3.43,31.31.79,6.81,1.62,13.61,2.47,20.41.27,2.21.56,4.43.84,6.65.02.16.04.32.07.49h1.65c-.02-.17-.05-.32-.06-.49-.12-.88-.24-1.75-.34-2.63-.17-1.34-.34-2.67-.5-4.01-2.16-17.21-4.13-34.45-5.89-51.71-.11-1.05-1.77-1.06-1.66,0Z"/>
      <g>
        <path class="h" d="M102.8,76.53c-2.37-4.86-5.73,5.56-7.79.56-3.2-7.79-7.65-11.82-17.66-16.83-8.47-4.23-15.45-6.46-24.87-7.3,14.61-7.65,32.51-8.7,47.92-2.82l21.83,3.21-15.67,26.51-3.75-3.33Z"/>
        <path class="e" d="M102.08,76.95c-.13-.26-.26-.51-.46-.72-.14-.15-.26-.19-.27-.2-.11-.01-.25.02-.31.05-.21.1-.4.22-.58.36-.91.69-1.6,1.62-2.53,2.29s-2,.83-2.85,0c-.57-.55-.81-1.33-1.12-2.04-.41-.95-.87-1.87-1.37-2.77-1.96-3.5-4.74-6.32-8.03-8.59-4.37-3-9.28-5.39-14.2-7.35-5.74-2.29-11.74-3.65-17.89-4.21-.75-.07-1.21-1.13-.42-1.54,12.25-6.37,26.63-8.25,40.13-5.39,1.68.36,3.35.79,5,1.3,1.15.36,2.31.93,3.48,1.19.81.18,1.67.25,2.49.37,3.68.54,7.37,1.08,11.05,1.62,2.75.4,5.49.81,8.24,1.21.54.08.74.8.49,1.22-1.77,2.99-3.54,5.99-5.31,8.98-2.81,4.75-5.61,9.49-8.42,14.24-.65,1.1-1.3,2.2-1.95,3.3-.28.48-.9.52-1.3.17-1.25-1.11-2.5-2.22-3.75-3.33-.8-.71.38-1.88,1.17-1.17l3.75,3.33-1.3.17c1.77-2.99,3.54-5.99,5.31-8.98,2.81-4.75,5.61-9.49,8.42-14.24.65-1.1,1.3-2.2,1.95-3.3l.49,1.22c-5.97-.88-11.94-1.75-17.92-2.63l-3.44-.51c-.27-.04-.48-.08-.73-.17-1.59-.55-3.16-1.11-4.78-1.56-6.58-1.82-13.45-2.43-20.25-1.89-7.65.61-15.18,2.74-21.99,6.28l-.42-1.54c5.57.51,11.04,1.59,16.31,3.5s10.29,4.3,14.98,7.22c3.56,2.22,6.78,4.91,9.13,8.41,1.17,1.73,2.02,3.58,2.87,5.48.12.27.25.53.42.76.06.08.13.12.15.13-.02-.02.16.03.06.03.03,0,.18-.03.27-.07.2-.1.39-.24.55-.37,1-.81,1.78-1.95,2.96-2.54,1.46-.73,2.68.11,3.35,1.44.48.95-.95,1.79-1.43.84Z"/>
      </g>
      <g>
        <path class="h" d="M73.32,138.13c-8.76-41.58-17.8-57.99-37.82-66.79,4.75-.97,15.29-3.3,27.25-3.3,22.01,0,32.92,1.7,50.67,14.71,8.76,6.42,15.82,14.86,22.77,23.2l14.21,22.94-29.24,21.43s-49.5-13.21-49.91-15.1,2.07,2.91,2.07,2.91Z"/>
        <path class="e" d="M72.52,138.35c-2.71-12.85-5.71-25.9-10.93-38-3.47-8.05-8.13-15.67-14.94-21.32-3.48-2.89-7.44-5.15-11.57-6.98-.65-.29-.47-1.38.2-1.51,4.8-.98,9.6-1.9,14.47-2.49,6.61-.81,13.23-.92,19.88-.76,5.23.13,10.47.46,15.61,1.39,4.74.86,9.33,2.31,13.71,4.31,11.15,5.11,20.82,13.07,29.02,22.1,2.28,2.51,4.47,5.08,6.65,7.68.9,1.07,1.88,2.09,2.62,3.28,1.35,2.19,2.71,4.37,4.06,6.56,3.21,5.18,6.42,10.36,9.63,15.55l.2.32c.25.41.06.87-.3,1.13-5.03,3.69-10.06,7.37-15.09,11.06-3.37,2.47-6.73,4.93-10.1,7.4-1.04.77-2.09,1.53-3.13,2.3-.48.35-.94.86-1.57.76-1.55-.24-3.13-.84-4.64-1.25-3.56-.97-7.12-1.94-10.68-2.93-8.54-2.37-17.07-4.75-25.52-7.42-2.69-.85-5.43-1.67-8.01-2.81-.52-.23-1.24-.51-1.53-1.04-.43-.8.1-2.15,1.16-1.59.64.34,1.05,1.3,1.39,1.9s.64,1.15.94,1.74c.49.95-.94,1.78-1.43.84-.39-.75-.79-1.49-1.22-2.22-.13-.21-.25-.43-.39-.63,0,0-.15-.26-.09-.14-.1-.22,0,0,0-.04l1.14-.63c0,.08,0,.08,0,0,0,.04.11.37-.05-.05.04.1-.11-.23-.05-.07.05.15-.15-.1-.02-.02.06.04.11.08.17.11.17.09.34.19.52.27.52.25.71.32,1.34.56,3.67,1.41,7.46,2.52,11.22,3.65,9.69,2.92,19.44,5.62,29.21,8.28,2.33.64,4.67,1.27,7,1.89l-.64.08c3.3-2.42,6.6-4.84,9.9-7.25,5.24-3.84,10.47-7.67,15.71-11.51,1.21-.89,2.42-1.78,3.63-2.66l-.3,1.13c-2.74-4.43-5.49-8.86-8.23-13.29-1.62-2.62-3.25-5.24-4.87-7.86-.35-.57-.68-1.17-1.06-1.72-.53-.76-1.2-1.45-1.8-2.16-1.07-1.28-2.15-2.55-3.23-3.82-4.33-5.04-8.86-9.95-13.97-14.23-4.53-3.79-9.53-7.17-14.73-9.97-4.22-2.27-8.68-4.05-13.33-5.2-4.83-1.19-9.79-1.72-14.74-1.97-6.29-.32-12.65-.4-18.93.1-5.55.44-11.04,1.31-16.49,2.42-.86.17-1.72.35-2.58.53l.2-1.51c7.64,3.37,14.26,8.36,19.3,15.04,6.25,8.29,9.97,18.29,12.93,28.15,2.38,7.93,4.26,16,5.97,24.1.22,1.04-1.38,1.48-1.6.44Z"/>
      </g>
      <g>
        <path class="h" d="M169.19,136.88c-5.71,3.64-12.46,5.19-19.06,6.68-5.64,1.28-11.32,2.56-17.1,2.85-7.97.4-15.91-1.08-23.71-2.78-4.96-1.08-9.91-2.26-14.83-3.53-4.85-1.25-9.7-2.59-14.32-4.54-6.86-2.89-13.1-7.06-19.29-11.2-4.56-3.05-9.2-6.17-12.63-10.45,6.75,26.53,24,50.23,47.17,64.8,0,0,42.82-1.85,44.68-3.2,1.86-1.35,34.61-21.98,34.36-22.41s-5.27-16.23-5.27-16.23h0Z"/>
        <path class="e" d="M169.61,137.59c-6.98,4.4-15.38,5.96-23.34,7.68-4.36.94-8.77,1.75-13.24,1.97s-8.98-.15-13.42-.81c-8.84-1.32-17.6-3.51-26.25-5.76-4.24-1.1-8.47-2.3-12.54-3.94s-7.72-3.6-11.36-5.81c-4.02-2.44-7.95-5.07-11.83-7.74-3.63-2.5-7.17-5.22-9.97-8.67l1.38-.81c2.49,9.74,6.38,19.09,11.48,27.76,5.1,8.66,11.4,16.61,18.67,23.56,3.64,3.48,7.52,6.7,11.61,9.62,1.05.75,2.11,1.47,3.18,2.18.25.17.5.33.75.49.19.12.65.31.76.49.13.21-.13.08-.05.09.29.06.7-.03.99-.04,4.58-.2,9.16-.43,13.74-.67,6.37-.34,12.74-.69,19.1-1.17,2.45-.18,4.89-.38,7.33-.66.8-.09,1.31-.15,2.13-.3.24-.04.47-.1.71-.16.08-.02.16-.05.23-.07-.2.08-.12.07-.02,0,3.16-2.28,6.58-4.26,9.86-6.36,5.4-3.45,10.8-6.9,16.18-10.39,2.02-1.31,4.04-2.62,6.03-3.97.58-.39,1.15-.78,1.71-1.19.11-.08.28-.26.31-.24,0,0,.04-.05.05-.04.1.03-.13-.54-.08.11.02.31.17,1.14-.12.5-.32-.7-.52-1.49-.76-2.22-.45-1.37-.9-2.75-1.34-4.13-.89-2.76-1.77-5.53-2.65-8.29-.16-.49-.31-.99-.47-1.48-.32-1.02,1.28-1.45,1.6-.44,1.51,4.75,3.01,9.5,4.58,14.23.14.44.29.87.44,1.31.05.14.1.29.15.43.06.18.06.22.01.05.21.76-.1,1.06-.65,1.48-1.32,1-2.72,1.89-4.1,2.81-5.2,3.44-10.46,6.79-15.71,10.15-4.36,2.79-8.73,5.55-13.07,8.38-.8.52-1.42.96-2.38,1.14-1.87.36-3.78.51-5.68.68-6.2.56-12.41.92-18.62,1.27-5.51.31-11.02.58-16.53.84-.97.04-2.03.22-3,.13-.83-.07-1.8-.99-2.48-1.44-1.07-.71-2.13-1.44-3.18-2.19-2.08-1.49-4.1-3.05-6.07-4.68-7.85-6.5-14.75-14.13-20.52-22.53-5.79-8.44-10.41-17.69-13.63-27.4-.78-2.36-1.48-4.75-2.1-7.16-.19-.74.84-1.48,1.38-.81,2.47,3.04,5.51,5.51,8.7,7.75s6.73,4.59,10.16,6.77,7.14,4.37,10.93,6.12,8,3.13,12.14,4.27c8.38,2.32,16.89,4.36,25.44,5.93,4.38.8,8.81,1.39,13.27,1.46s8.84-.48,13.2-1.32c4.6-.89,9.22-1.91,13.75-3.12s8.55-2.64,12.35-5.04c.9-.57,1.74.86.84,1.43h0Z"/>
      </g>
      <g>
        <path class="d" d="M89.93,134.88c.03-8.84-3.07-17.36-6.13-25.66-1.68-4.56-3.37-9.14-5.69-13.42-2.84-5.23-6.78-10.1-12.1-12.77,5.81-.56,11.73-.44,17.42.86,5.69,1.29,11.17,3.8,15.56,7.65,0,0,31.49,17.97,31.42,18.37s-16.63,19.02-16.9,19.24-23.57,5.72-23.57,5.72Z"/>
        <path class="e" d="M89.1,134.88c0-8.05-2.56-15.76-5.29-23.24-2.58-7.08-5.07-14.46-9.69-20.53-2.3-3.02-5.14-5.62-8.53-7.36-.8-.41-.33-1.47.42-1.54,8.81-.83,17.91-.08,25.98,3.78,1.84.88,3.6,1.91,5.25,3.11.78.57,1.49,1.27,2.29,1.8.73.48,1.54.88,2.3,1.32,7.5,4.29,14.99,8.58,22.44,12.96,1.47.86,2.94,1.73,4.39,2.61.72.44,1.64.86,2.25,1.46.78.77-.14,1.57-.64,2.17-1.08,1.29-2.19,2.56-3.3,3.83-3.08,3.52-6.17,7.02-9.28,10.51-1.02,1.15-2.04,2.3-3.08,3.43-.47.52-.82.77-1.5.95-7.37,1.98-14.85,3.62-22.28,5.38-.22.05-.45.11-.67.16-1.04.24-1.48-1.35-.44-1.6,6.95-1.64,13.91-3.28,20.85-5,.62-.15,1.24-.31,1.85-.47.2-.05.39-.11.59-.16.12-.03.44-.18.08,0-.27.13-.14.13-.03,0s.23-.25.34-.37c.41-.45.82-.91,1.23-1.36,2.84-3.17,5.67-6.36,8.48-9.55,1.41-1.6,2.82-3.2,4.21-4.81.51-.59,1.02-1.18,1.52-1.78.16-.19.32-.38.48-.58.06-.08.12-.15.19-.23.09-.11.25-.19.06-.07.35-.23-.25-1.26.24.79-.03-.12.15.09-.05-.04-.3-.2-.6-.4-.91-.59-1.19-.74-2.4-1.46-3.61-2.17-7.39-4.38-14.85-8.64-22.31-12.91-1.14-.65-2.28-1.31-3.43-1.96-1.06-.6-1.89-1.37-2.88-2.1-6.87-5.1-15.49-7.09-23.93-7.14-2.23-.01-4.46.11-6.68.31l.42-1.54c6.45,3.28,10.77,9.44,13.8,15.83,1.72,3.62,3.1,7.38,4.48,11.14,1.44,3.92,2.88,7.85,3.99,11.88,1.24,4.47,2.06,9.06,2.06,13.71,0,1.07-1.66,1.07-1.66,0Z"/>
      </g>
      <g>
        <path class="h" d="M102.39,35.67c-3.56-.92-7.19-1.9-12.05-1.4-4.98.51-8.88,2.32-11.34,3.73,3.34.42,6.71.88,9.83,2.13,4.6,1.84,8.43,5.36,11.12,9.52,3.49,5.41,3.93,9.54,5.21,13.83,3.58,12,15.38,26.02,25.04,24.59,8.23-1.22,15.15-13.71,14.05-24.47-1.4-13.61-15.25-20.61-18.49-22.25-3.64-1.84-1.82-.11-23.35-5.68Z"/>
        <path class="e" d="M102.17,36.46c-4.07-1.05-8.06-1.83-12.28-1.32-3.7.45-7.25,1.73-10.47,3.57l-.42-1.54c3.91.5,7.85,1.05,11.44,2.77,3.12,1.49,5.87,3.75,8.08,6.39,2.33,2.78,4.12,5.98,5.31,9.4,1.01,2.9,1.54,5.94,2.54,8.84,2.11,6.15,5.81,11.95,10.45,16.51,3.56,3.5,8.83,7.37,14.14,5.99,5.57-1.45,9.25-7.36,11.02-12.45,2.07-5.92,2.17-12.47-.69-18.14-2.28-4.52-6-8.17-10.14-11.01-2.15-1.48-4.46-2.87-6.87-3.9.25.11-.12-.05-.2-.08-.14-.05-.28-.1-.43-.15-.27-.08-.55-.15-.83-.21-.8-.18-1.6-.31-2.4-.45-4.21-.77-8.37-1.74-12.53-2.77-1.91-.47-3.83-.96-5.74-1.45-1.03-.27-.59-1.86.44-1.6,5.5,1.42,11.02,2.81,16.6,3.9,1.68.33,3.45.5,5.08,1.05,2.04.69,3.99,1.88,5.8,2.99,4.17,2.56,8.01,5.8,10.83,9.83,3.59,5.14,4.87,11.27,3.91,17.44s-3.92,12.44-8.88,16.26c-10.83,8.33-22.75-5.13-27.76-13.88-1.62-2.83-2.98-5.85-3.9-8.98s-1.51-6.29-2.82-9.27c-3.08-7.01-8.81-12.59-16.36-14.38-2.01-.48-4.07-.75-6.12-1.01-.76-.1-1.2-1.1-.42-1.54,3.4-1.94,7.12-3.26,11.01-3.76,4.46-.57,8.72.23,13.02,1.34,1.03.27.59,1.86-.44,1.6Z"/>
      </g>
      <g>
        <path class="h" d="M166.23,41.06c1.29-.51,2.74-.12,4.07.28,6.3,1.88,12.73,4.01,17.71,8.3,4.87,4.2,7.96,10.23,9.33,16.52,1.37,6.29,1.13,12.83.13,19.19,0,0-23.75,1.89-24.1,1.4s-6.33-21.18-6.26-21.82-.89-23.87-.89-23.87Z"/>
        <path class="e" d="M166.01,40.26c2.07-.71,4.26.19,6.24.8s3.91,1.24,5.82,1.98c3.79,1.47,7.44,3.34,10.53,6.01,6.06,5.23,9.26,13.02,10.2,20.84.63,5.22.28,10.49-.53,15.67-.06.38-.46.58-.8.61-4.8.38-9.6.74-14.4,1.05-2.72.18-5.44.37-8.16.43-.57.01-1.41.13-1.93-.17-.49-.28-.62-1.07-.78-1.56-1.82-5.69-3.43-11.46-5-17.22-.35-1.3-.9-2.7-.91-4.07-.01-2.19-.13-4.39-.22-6.58-.21-5.55-.43-11.1-.66-16.65,0-.11,0-.22-.01-.34-.04-1.07,1.61-1.06,1.66,0,.19,4.73.38,9.46.57,14.19.1,2.71.21,5.41.29,8.12.02.52.03,1.04.03,1.56,0,.19-.04-.23,0-.04.02.12.05.24.08.36.08.37.18.74.28,1.11,1.49,5.74,3.17,11.45,4.89,17.13.27.87.52,1.76.82,2.62.03.08.1.2.1.28,0-.08-.22-.24-.46-.41.14.1-.17,0,.01,0,.13,0,.27.01.4.02,2.33.05,4.68-.16,7.01-.3,3.26-.2,6.52-.43,9.78-.67,2.09-.15,4.19-.39,6.29-.48.11,0,.22-.02.33-.03l-.8.61c1.27-8.22,1.28-16.93-2-24.71-1.41-3.34-3.4-6.46-5.99-9.02-2.69-2.67-5.99-4.6-9.45-6.09-1.98-.86-4.03-1.56-6.09-2.22-1.02-.32-2.04-.64-3.06-.94-1.2-.35-2.4-.7-3.63-.28-1.01.35-1.44-1.25-.44-1.6Z"/>
      </g>
      <g>
        <path class="h" d="M143.4,37.79c-.97-4.52-3.56-8.67-7.19-11.53,2.1.02,4.11.76,6.08,1.48,8.92,3.28,18.23,6.81,24.54,13.93,3.12,3.51,5.32,7.72,7.5,11.87l3.91,10.98-14.3,6.38s-19.7-10.09-19.7-10.93-.84-22.19-.84-22.19Z"/>
        <path class="e" d="M142.6,38.01c-.98-4.43-3.43-8.34-6.98-11.16-.57-.46-.09-1.43.59-1.41,2.73.08,5.27,1.13,7.8,2.06,2.34.87,4.67,1.76,6.96,2.73,4.55,1.93,8.97,4.24,12.82,7.38,4.13,3.38,7.07,7.74,9.6,12.39.69,1.28,1.46,2.54,1.95,3.91l1.19,3.36c.83,2.34,1.67,4.68,2.5,7.03.11.31-.07.8-.38.94-4.02,1.79-8.05,3.59-12.07,5.38-.69.31-1.38.62-2.07.92-.46.2-.82.16-1.26-.06-1.61-.81-3.19-1.65-4.79-2.48-4.57-2.39-9.28-4.68-13.62-7.48-.44-.28-1.06-.6-1.32-1.08-.21-.39-.14-.98-.16-1.41-.08-2.24-.16-4.49-.25-6.73-.18-4.74-.49-9.5-.55-14.24,0-.09,0-.18-.01-.28-.04-1.07,1.61-1.06,1.66,0,.25,6.43.51,12.87.74,19.3.02.62.05,1.25.07,1.87,0,.22.13.75.03.96-.08.17-.08-.23-.09-.31-.06-.43-.12,0-.03-.05.05-.03.17.14.26.21.45.31.92.6,1.39.88,3.27,1.96,6.66,3.73,10.03,5.51,2.57,1.36,5.15,2.7,7.73,4.03h-.84c4.17-1.86,8.34-3.72,12.5-5.58l1.8-.8-.38.94-2.01-5.65c-.7-1.96-1.26-4.07-2.22-5.92-2.42-4.62-4.98-9.21-8.81-12.83-3.49-3.3-7.7-5.72-12.05-7.71-2.46-1.13-4.99-2.12-7.52-3.07-2.75-1.03-5.64-2.39-8.62-2.47l.59-1.41c3.74,2.98,6.37,7.22,7.4,11.89.23,1.04-1.37,1.48-1.6.44Z"/>
      </g>
      <g>
        <path class="d" d="M135.37,74.81c-4.18-13.76-13.81-25.44-25.39-33.97-11.58-8.53-25.06-14.14-38.77-18.51,36.14-3.95,73.8,10.16,98.45,36.87l12.13,25.81h-50.55l4.13-10.2Z"/>
        <path class="e" d="M134.57,75.03c-3.11-10.15-9.19-19.14-16.77-26.5-8.11-7.88-17.89-13.79-28.17-18.4-6.06-2.72-12.32-4.98-18.65-7-.93-.3-.69-1.53.22-1.63,11.45-1.24,23.07-.68,34.37,1.5,11.31,2.19,22.3,6.01,32.53,11.29,10.26,5.29,19.78,12.07,28.05,20.13,1.02,1,2.03,2.02,3.01,3.05.42.44.94.88,1.24,1.41.32.57.57,1.2.84,1.8l3.78,8.04c2.44,5.19,4.88,10.38,7.32,15.57l.14.3c.26.55-.04,1.25-.72,1.25h-50.55c-.49,0-1.01-.54-.8-1.05,1.38-3.4,2.76-6.8,4.13-10.2.4-.98,2-.55,1.6.44-1.38,3.4-2.76,6.8-4.13,10.2l-.8-1.05h50.55l-.72,1.25c-2.07-4.4-4.14-8.8-6.21-13.2l-4.2-8.93-1.3-2.78c-.35-.75-.58-1.05-1.18-1.68-7.87-8.33-17.03-15.4-27.02-21.02-9.91-5.58-20.62-9.73-31.7-12.3-11.16-2.59-22.68-3.55-34.11-2.74-1.38.1-2.77.22-4.15.37l.22-1.63c11.38,3.63,22.6,8.09,32.78,14.41,9.37,5.82,17.8,13.26,24.06,22.39,3.42,4.99,6.13,10.47,7.91,16.26.31,1.02-1.29,1.46-1.6.44Z"/>
      </g>
      <g>
        <path class="h" d="M124.66,77.85c-1.95-1.33-3.7-2.92-5.51-4.44-1.75-1.47-5.01-3.62-6.48-4.67-2.92-2.09-3.34-2.92-6.75-4.4-2.22-.96-5.31-1.23-6.75.72-.59.8-.74,1.82-.84,2.81-.5,4.78-.32,9.59-.13,14.39.3,7.91,2.34,20.95,4.33,28.62l22.14-33.03Z"/>
        <path class="e" d="M124.24,78.56c-2.29-1.58-4.28-3.53-6.49-5.22-1.74-1.33-3.58-2.53-5.37-3.8-1.59-1.13-3.05-2.48-4.75-3.45-1.83-1.04-4.17-2.12-6.31-1.51-1.2.34-1.81,1.23-2.04,2.43-.29,1.5-.32,3.09-.38,4.61-.12,3.11-.03,6.22.08,9.33.17,4.76.67,9.48,1.36,14.19.76,5.21,1.68,10.42,2.99,15.52.27,1.03-1.33,1.47-1.6.44-1.24-4.8-2.11-9.7-2.85-14.61s-1.33-9.79-1.52-14.72c-.13-3.33-.24-6.66-.12-9.99.06-1.6.14-3.22.38-4.81.19-1.26.67-2.44,1.71-3.23,1.77-1.35,4.33-1.13,6.31-.41,2.05.75,3.83,1.89,5.54,3.23,2.02,1.59,4.18,2.98,6.27,4.49,2.64,1.91,4.96,4.21,7.64,6.07.87.6.04,2.04-.84,1.43h0Z"/>
      </g>
      <g>
        <path class="h" d="M161.79,75.99c2.41-6.61,6.18-12.63,9.93-18.59,1.22-1.95,2.81-4.12,5.11-4.2,2.51-.09,4.29,2.35,5.52,4.54,4.43,7.91,7.93,16.35,10.4,25.07l-30.96-6.82Z"/>
        <path class="e" d="M160.99,75.77c1.57-4.28,3.68-8.34,5.99-12.26,1.14-1.94,2.33-3.84,3.53-5.75.98-1.57,1.97-3.2,3.48-4.33,1.4-1.05,3.18-1.36,4.8-.66s2.74,2.1,3.66,3.53c2.39,3.74,4.27,7.93,6.01,12,2,4.66,3.7,9.43,5.09,14.3.29,1.03-1.3,1.47-1.6.44-2.3-8.07-5.46-15.88-9.44-23.26-1.26-2.34-3.59-7.19-7.02-5.35-1.54.82-2.5,2.49-3.39,3.92-1.09,1.73-2.17,3.46-3.22,5.22-2.42,4.05-4.67,8.22-6.3,12.66-.36.99-1.97.56-1.6-.44h0Z"/>
      </g>
      <g>
        <path class="d" d="M114.89,85.19c-1.82-2.88-4.96-4.89-8.34-5.33-.17-.02-.36-.04-.5.05-.15.09-.22.26-.28.43-.41,1.08-.83,2.17-.95,3.31-.1.94,0,1.89.11,2.83.42,3.86.86,7.76,2.14,11.42l15.17-2.25-7.34-10.46Z"/>
        <path class="e" d="M114.17,85.61c-1.1-1.71-2.65-3.06-4.48-3.96-.87-.42-1.8-.72-2.75-.9-.12-.02-.25-.05-.37-.06,0-.18-.02-.18-.07,0-.16.17-.22.59-.3.81-.19.54-.37,1.09-.48,1.66-.24,1.2-.07,2.42.06,3.62s.28,2.5.45,3.74c.34,2.43.83,4.83,1.62,7.15l-1.02-.58c4.41-.66,8.83-1.31,13.24-1.97l1.93-.29-.49,1.22c-2.45-3.49-4.89-6.97-7.34-10.46-.61-.87.82-1.7,1.43-.84,2.45,3.49,4.89,6.97,7.34,10.46.28.4.01,1.14-.49,1.22-4.41.66-8.83,1.31-13.24,1.97l-1.93.29c-.46.07-.86-.11-1.02-.58-.95-2.78-1.45-5.68-1.81-8.59-.19-1.53-.43-3.08-.49-4.62-.05-1.39.24-2.69.71-3.98.4-1.1.74-2.04,2.11-1.87,1.23.15,2.41.54,3.53,1.06,2.17,1.01,4,2.65,5.3,4.66.58.9-.85,1.73-1.43.84Z"/>
      </g>
      <g>
        <path class="d" d="M184.41,79.63c-1.93-3.61-4.15-7.06-6.63-10.32-.41-.54-.89-1.11-1.56-1.2-.78-.1-1.47.5-1.95,1.13-.78,1.02-1.31,2.21-1.83,3.39l-1.98,4.47,2.92,6.69,11.04-4.15Z"/>
        <path class="e" d="M183.7,80.05c-1.89-3.52-4.03-6.89-6.44-10.08-.57-.75-1.16-1.42-2-.6-.65.63-1.09,1.52-1.48,2.32-.93,1.91-1.74,3.88-2.6,5.83v-.84c.97,2.23,1.95,4.46,2.92,6.69l-.94-.38c3.68-1.38,7.36-2.77,11.04-4.15,1-.38,1.43,1.22.44,1.6-3.68,1.38-7.36,2.77-11.04,4.15-.31.12-.8-.07-.94-.38-.96-2.21-2.09-4.4-2.91-6.66-.17-.47-.08-.71.12-1.16.37-.85.75-1.69,1.12-2.53.66-1.49,1.25-3.05,2.14-4.42.67-1.04,1.62-2.18,2.98-2.15,1.44.03,2.28,1.45,3.04,2.47,2.22,3,4.21,6.17,5.98,9.46.5.94-.92,1.78-1.43.84Z"/>
      </g>
      <g>
        <path class="h" d="M221.47,137.58c-.39.56-1.04.86-1.68,1.1-.12.04-.23.08-.35.13l-1.78-.54c.11.32.21.65.32.99,1.17,3.61,2.49,8.14,2.32,11.74-.09,1.93-.54,3.84-1.3,5.62-.39.89-.85,1.76-1.14,2.69,0,0-5.62,2.75-5.9,2.75-.07,0-.4-.32-.87-.82l-1.49,21.96c-12.93,35.88-75.38,19.86-96.37,10.43-3.03-1.36-11.89-7.5-14.46-9.6-6.04-4.92-9.96-13.89-11.82-21.45-2.31-9.39-2.65-20.12,3.1-27.91,1.84-2.5,4.23-4.56,6.07-7.06,3.83-5.2,5.02-11.81,6.69-18.05,2.89-10.79,8.04-21.69,16.87-28.25,1.1-.82,2.25-1.57,3.46-2.24,10.98-6.09,24.4-4.81,36.86-3.29,9.56,1.17,19.17,2.39,28.38,5.21,5.69,1.74,11.34,4.17,15.71,8.15.46.42.91.86,1.34,1.31,5.44,5.74,7.98,14.48,9.14,22.34.02.11.03.22.05.32l.18-.05c.73.93,1.16,2.07,1.02,3.23l-2.36-.05c.43.09.87.19,1.3.3.93.23,1.88.49,2.64,1.07,1.89,1.43,1.99,4.19,1.92,6.56h-.35c2.64,2.95,2.88,7.28,2.94,11.25.01.75,0,1.56-.42,2.17Z"/>
        <path class="e" d="M222.05,138.17c-.57.72-1.91,1.6-2.87,1.42-.58-.11-1.17-.35-1.74-.52l1.02-1.02c1.69,5.11,3.49,10.63,2.24,16.04-.32,1.4-.87,2.71-1.47,4.01-.32.71-.43,1.64-1.15,2.02-1.22.65-2.51,1.21-3.76,1.8-.62.29-1.24.62-1.88.84-.87.3-1.37-.36-1.93-.95l1.41-.59c-.48,7.07-.96,14.15-1.44,21.22-.1,1.54-.82,2.93-1.49,4.31-1.04,2.15-2.34,4.16-3.85,6-2.94,3.59-6.75,6.41-10.91,8.43-9.14,4.43-19.68,5.38-29.7,5.03-10.61-.36-21.18-2.22-31.43-4.93-4.41-1.17-8.77-2.51-13.06-4.06-3.68-1.33-7.3-2.75-10.63-4.82-2.58-1.61-5.1-3.32-7.58-5.09-2.23-1.59-4.42-3.19-6.26-5.24-5.02-5.61-8-13.05-9.65-20.32s-2.21-15.67.8-22.86c.73-1.74,1.65-3.39,2.8-4.9,1.28-1.69,2.76-3.18,4.17-4.75,2.82-3.15,4.62-6.76,5.88-10.77,1.22-3.89,2.02-7.9,3.21-11.8s2.54-7.42,4.29-10.92c3.47-6.93,8.47-13.29,15.27-17.19,7.19-4.13,15.62-5.1,23.78-4.85,4.18.13,8.34.56,12.49,1.06,4.64.55,9.28,1.13,13.9,1.85,8.68,1.37,17.69,3.19,25.53,7.32,3.68,1.94,7.05,4.5,9.6,7.81,2.33,3.02,3.99,6.5,5.22,10.09s2.01,7.29,2.56,11.03l-1.02-.58.18-.05c.39-.11.71.08.94.38.8,1.07,1.24,2.31,1.13,3.65-.04.44-.35.84-.83.83l-2.36-.05.22-1.63c2.09.45,4.28.93,5.46,2.9,1.03,1.72,1.06,3.88,1,5.82-.01.45-.37.82-.83.83h-.35c.2-.47.39-.94.59-1.41,1.7,1.95,2.52,4.36,2.87,6.89.18,1.29.26,2.59.29,3.9.03,1.23.15,2.53-.51,3.63-.55.91-1.98.08-1.43-.84s.31-2.19.27-3.19c-.04-1.11-.1-2.22-.26-3.32-.31-2.13-.97-4.25-2.41-5.9-.46-.53-.16-1.4.59-1.41h.35c-.28.27-.55.55-.83.82.04-1.58.1-3.36-.67-4.8-.89-1.68-2.88-1.96-4.58-2.33-.92-.2-.71-1.64.22-1.63l2.36.05-.83.83c.09-1.08-.27-1.96-.9-2.82l.94.38-.18.05c-.39.11-.95-.13-1.02-.58-1.08-7.4-3.08-15.29-7.97-21.16-5.39-6.48-13.74-9.47-21.66-11.5-8.79-2.25-17.85-3.34-26.85-4.38-8.06-.93-16.39-1.64-24.4.07-3.95.84-7.76,2.29-11.16,4.49-3.19,2.06-5.95,4.73-8.29,7.72-4.73,6.05-7.73,13.35-9.75,20.71-1.05,3.83-1.86,7.74-3.2,11.49s-3.35,7.11-6.08,10.1c-1.43,1.57-2.94,3.09-4.15,4.86-1.02,1.5-1.85,3.12-2.47,4.82-1.29,3.57-1.72,7.38-1.62,11.16.2,7.44,2.2,15.06,5.54,21.71,1.64,3.26,3.67,6.39,6.32,8.92,1.83,1.75,3.98,3.17,6.05,4.61,3.87,2.69,7.74,5.3,12.12,7.08,3.71,1.51,7.51,2.81,11.34,3.98,9.64,2.94,19.57,5.08,29.61,6.07,10.01.99,20.46.95,30.16-1.99,4.32-1.31,8.51-3.25,12.07-6.06,3.58-2.82,6.42-6.43,8.34-10.56.33-.71.88-1.76,1-2.36.07-.36.05-.77.08-1.13l.36-5.28c.29-4.32.59-8.65.88-12.97l.17-2.5c.05-.68.89-1.13,1.41-.59.1.1.64.52.65.66,0-.1-.64.13-.45-.09.09-.1.3-.12.45-.19.69-.31,1.37-.63,2.04-.95,1.03-.49,2.05-.98,3.07-1.48l-.38.49c.57-1.75,1.51-3.34,1.97-5.14s.54-3.52.37-5.31c-.34-3.47-1.45-6.85-2.54-10.15-.2-.6.43-1.19,1.02-1.02l1.41.42c.1.03.2.08.3.09l.05.02c-.31-.02-.33-.06-.07-.12.12-.13.46-.19.62-.28.29-.16.49-.34.69-.6.66-.84,1.83.34,1.17,1.17Z"/>
      </g>
      <g>
        <path class="g" d="M221.47,137.58c-.39.56-1.04.86-1.68,1.1-.12.04-.23.08-.35.13-.48.17-.97.32-1.46.45-4.09,1.11-8.46,1-12.73.88-3.14-.09-6.27-.18-9.41-.27-3.43-.1-7.64-.58-9.62-3.4l-6.54-9.87c1.28-.67,2.52-1.28,3.74-1.82,7.93-3.53,14.81-4.39,24.23-4.29,4.05.04,8.49.65,11.22,3.64.02.02.03.04.05.05,2.64,2.94,2.88,7.28,2.94,11.24.01.75,0,1.56-.42,2.17Z"/>
        <path class="e" d="M222.05,138.17c-.6.76-1.5,1.12-2.39,1.44-1.16.41-2.36.71-3.58.92-2.44.43-4.91.53-7.38.51-2.56-.02-5.11-.12-7.66-.2-2.34-.07-4.7-.06-7.03-.25-3.17-.26-6.63-1.02-8.55-3.8-1.1-1.59-2.14-3.23-3.21-4.85s-2.18-3.29-3.27-4.94c-.24-.36-.08-.93.3-1.13,3.51-1.83,7.16-3.4,10.99-4.43,3.6-.97,7.31-1.47,11.03-1.67,3.82-.21,7.83-.39,11.61.37,3.43.69,6.58,2.49,8.16,5.71.91,1.84,1.29,3.86,1.48,5.89.1,1.09.14,2.19.16,3.28s.02,2.06-.53,2.98-1.98.08-1.43-.84c.44-.74.31-1.7.29-2.54-.02-.88-.05-1.76-.13-2.63-.14-1.64-.41-3.3-1.05-4.82-1.34-3.2-4.24-4.83-7.52-5.47-3.45-.67-7.14-.48-10.63-.31s-6.9.59-10.26,1.44c-3.96,1-7.73,2.57-11.34,4.46l.3-1.13c2.03,3.07,4.07,6.14,6.1,9.22.36.54.69,1.04,1.19,1.48,1.32,1.18,3.16,1.65,4.87,1.91,1.94.29,3.92.28,5.87.33,2.48.07,4.96.15,7.44.22,2.61.07,5.23.12,7.83-.14,1.37-.14,2.72-.37,4.05-.73,1.06-.29,2.41-.57,3.12-1.46.66-.84,1.83.34,1.17,1.17Z"/>
      </g>
      <path class="e" d="M118.47,125.15c3.58-2.38,7.17-4.76,11.02-6.7s8.08-3.34,12.44-4.14c8.63-1.57,17.61-2.51,26.21-.23,4.05,1.07,7.89,2.96,10.76,6.08l-1-.13c5.79-3.15,12.47-4.87,19-5.53,3.54-.36,7.12-.36,10.66-.01,1.69.17,3.37.41,5.04.73,1.48.29,3.06.55,4.44,1.2,2.94,1.39,3.19,4.89,3.1,7.74-.01.45-.37.82-.83.83h-.35c-1.07.02-1.07-1.63,0-1.65h.35c-.28.27-.55.55-.83.82.07-2.32.07-5.33-2.44-6.38-1.25-.53-2.71-.74-4.04-.99-1.62-.31-3.26-.54-4.91-.68-6.4-.57-12.88.01-19.07,1.74-3.2.89-6.37,2.04-9.29,3.62-.31.17-.75.14-1-.13-5.22-5.66-13.82-7.08-21.17-6.98-4.44.06-8.88.65-13.25,1.39s-8.22,1.83-12.05,3.68c-4.19,2.01-8.08,4.59-11.94,7.16-.89.59-1.72-.84-.84-1.43h0Z"/>
      <path class="e" d="M126.43,113.71c7.26-2.46,14.88-3.82,22.54-4.04,3.79-.11,7.59.07,11.36.54s7.43,1.19,10.84,2.82c3.22,1.54,6.08,3.93,7.8,7.09.51.94-.92,1.77-1.43.84-3.33-6.11-10.45-8.22-16.91-9.05-7.24-.93-14.63-.8-21.84.4-4.05.67-8.03,1.68-11.92,3-1.01.34-1.45-1.26-.44-1.6h0Z"/>
      <path class="e" d="M173.58,114.75c5.89-2.92,12.29-4.53,18.8-5.23,3.01-.32,6.04-.45,9.06-.43,2.85.02,5.84.02,8.65.55,3.25.61,6.85,2.89,6.54,6.64-.09,1.05-1.74,1.06-1.66,0,.27-3.27-3.2-4.75-5.89-5.14s-5.37-.39-8.03-.4c-5.68-.02-11.38.5-16.89,1.88-3.37.84-6.64,2.01-9.75,3.55-.95.47-1.79-.96-.84-1.43h0Z"/>
      <g>
        <path class="b" d="M120.38,144.04c-1.83-.26-3.66-.52-5.49-.78-2.5-.36-5.31-.64-7.32.89-1.67,1.27-2.32,3.45-2.86,5.48-.44,1.64-.43,3.93-.24,5.61.29,2.56,1.53,4.09,3.16,6.09,1.94,2.37,5.26,5.17,7.82,6.85,2.4,1.57,3.85,2.04,6.59,2.88,3.58,1.09,7.96,2.01,10.67-.58.88-.84,1.45-1.96,1.89-3.1,1.95-5.06,1.55-11.04-1.33-15.63s-7.81-6.93-12.96-7.76l.06.07Z"/>
        <path class="e" d="M120.16,144.84c-1.83-.26-3.66-.53-5.49-.78-1.53-.21-3.16-.43-4.68-.09-3.06.67-4.2,3.93-4.66,6.71-.48,2.92-.15,5.96,1.59,8.4,1.74,2.44,3.92,4.53,6.25,6.4,2.23,1.79,4.59,3.31,7.31,4.21,2.66.88,5.57,1.86,8.42,1.58,1.34-.13,2.6-.66,3.51-1.66,1.04-1.15,1.59-2.76,1.98-4.23.79-2.95.8-6.1,0-9.05-.87-3.19-2.74-6.06-5.41-8.04s-5.7-2.99-8.87-3.51c-1.05-.18-.6-1.77.44-1.6,6.5,1.08,12.35,4.64,14.85,10.95,1.27,3.2,1.53,6.75.94,10.13-.55,3.11-1.81,6.7-4.92,8.06-2.88,1.25-6.24.52-9.12-.33-1.49-.44-2.98-.89-4.4-1.52-1.52-.67-2.92-1.58-4.26-2.56-2.73-2-5.24-4.27-7.34-6.93-.97-1.22-1.85-2.5-2.31-4s-.53-3.33-.44-4.96c.17-3.33,1.39-7.76,4.72-9.22,1.75-.77,3.72-.72,5.58-.5,2.26.27,4.51.63,6.76.95,1.05.15.6,1.75-.44,1.6h0Z"/>
      </g>
      <path class="e" d="M191.63,141.98c8.84,2.28,18.1,2.84,27.15,1.6,1.04-.14,1.49,1.45.44,1.6-9.36,1.29-18.88.76-28.03-1.6-1.03-.27-.59-1.86.44-1.6h0Z"/>
      <g>
        <path class="e" d="M200.48,123.31c.4-.03.8-.01,1.18.08,2.37.61,3.94,2.64,4.89,4.6.78,1.63,1.35,3.39,1.04,5.12s-1.66,3.42-3.68,3.95c-1.07.28-2.23.21-3.34.09-1.22-.13-2.46-.34-3.53-.85-2.1-1.01-3.18-3.09-3.26-5.09s.69-3.96,1.56-5.83c.15-.32.3-.64.58-.9.37-.34.9-.51,1.42-.65,1.29-.35,1.79-.45,3.14-.53h0Z"/>
        <path class="e" d="M200.48,122.48c3.24-.17,5.67,2.68,6.91,5.36,1.36,2.94,1.75,6.55-.99,8.83-1.31,1.09-2.93,1.45-4.61,1.4s-3.6-.29-5.17-1.06c-2.95-1.43-4.07-4.73-3.51-7.81.2-1.07.58-2.1,1-3.11.36-.84.68-1.77,1.41-2.35,1.3-1.03,3.37-1.13,4.95-1.27,1.06-.09,1.06,1.56,0,1.66-1.13.1-2.23.24-3.31.61-1.29.44-1.76,2.39-2.13,3.57-.74,2.38-.61,5.14,1.55,6.75,1.1.82,2.51,1.08,3.84,1.23s2.92.28,4.19-.41c2.44-1.32,2.55-4.1,1.67-6.44s-2.87-5.47-5.8-5.32c-1.07.05-1.06-1.6,0-1.66Z"/>
      </g>
      <path class="g" d="M197.75,126.34c-.18.06-.23.59-.18.61.12.04.18-.09.22-.17s.03-.2.02-.28c-.03-.28-.17-.19.11-.12h.44c.17-.12.19-.12.07-.02-.08.07-.15.14-.23.21-.13.12-.25.24-.37.37-.17.17-.5.4-.54.64v-.44c0,.06-.2,0-.2,0,0-.02.11-.15.12-.19.09-.24,0-.58-.05-.82l1.38.37c-.18.19-.33.39-.47.61-.05.09-.13.38-.19.45,0,.26-.22.2-.67-.19.02-.23.25-.23.67,0-.01.14-.33.37-.43.44-.84.52-1.85-.26-1.77-1.19s.99-1.38,1.73-1.67c.8-.31,1.75-.27,2.38.37,1.54,1.56-.81,3.49-2.37,3.5-1.06.01-1.23-.99-1-1.81.24-.86.84-1.58,1.61-2.02.93-.52,1.77.91.84,1.43-.35.2-1.06.88-.9,1.28l-.38-.49c-.2-.03-.24-.05-.1-.06.09,0,.18-.03.26-.06.15-.04.28-.11.41-.19.1-.06.46-.4.45-.42-.08-.18-.48-.05-.58-.02-.18.06-.35.16-.51.25l-.13.08c-.19.15-.3,0-.33-.45h-.44c-.15.12-.14.09.03-.1.08-.08.17-.15.26-.22.19-.11.41-.17.63-.16.47,0,.91.28,1.13.69.4.74.14,1.82-.62,2.22-.84.44-1.74-.18-1.82-1.07s.54-1.77,1.13-2.41c.4-.43,1.27-.25,1.38.37.17.95.23,1.96-.54,2.67-.65.6-1.66.55-2.22-.14-.73-.9-.05-1.71.59-2.37.59-.61,1.48-1.6,2.33-.76,1.33,1.3.19,3.94-1.74,3.49-1.93-.45-1.45-3.27.14-3.81,1.01-.35,1.44,1.25.44,1.6h0Z"/>
      <path class="g" d="M202.66,126.23c-.12.07-.06,0,.19-.21.05-.15.07-.18.04-.1.01-.16.02-.2.02-.13,0,.07,0,.02-.02-.13-.04-.16-.16-.29-.32-.35-.07-.03-.14-.05-.21-.04.09,0,.05,0-.11.02.14-.03-.17.09-.06.02-.08.04-.14.11-.19.19-.05.13-.06.16-.03.08l-.02.13c0-.09,0-.06.02.09-.02-.08-.01-.06.04.07-.04-.07-.02-.05.06.06l1,.13c-.11.06-.23.12-.34.17-.19.1-.43.15-.64.08s-.36-.2-.49-.38c-.28-.38-.13-.93.17-1.24.37-.38,1.03-.37,1.4.01.33.34.42.87.19,1.29-.17.31-.48.54-.83.61-.22.04-.44.04-.64-.08-.17-.1-.34-.3-.38-.49-.09-.4.12-.94.58-1.02.03,0,.06,0,.08-.02-.13.06-.16.07-.08.03-.11.08-.19.16-.23.3-.05.18.02.43.14.56.45.27.8.23,1.03-.13.11-.22.11-.43,0-.65l-1.13-.3c.11-.06.23-.12.34-.17.3-.15.77-.16,1,.13.3.37.48.85.31,1.32s-.62.85-1.15.85c-.51,0-.97-.33-1.11-.82s.07-1.05.52-1.3c.38-.21.92-.1,1.13.3s.11.91-.3,1.13h0Z"/>
      <g>
        <path class="h" d="M137.45,182.86h0c7.63-2.46,15.85-2.4,23.45.16,12.54,4.24,17.32,4.95,35.44,5.41,2.17.06,4.51.1,7.06.15,3.84.07,7.66-.66,11.43-1.4,4.13-.81,8.15-2.07,12.16-3.34,7.2-2.27,14.54-4.6,20.72-8.94l-1.69-10.33c-7.13.39-14.32-.36-21.22-2.21-9.85-2.65-19.04-7.53-27.11-13.78-2.31-1.79-4.54-3.7-6.39-5.96-2.95-3.6-7.99-8.94-11.61-16.04l-42.25,56.27Z"/>
        <path class="e" d="M137.23,182.06c7.84-2.53,16.32-2.38,24.11.24,5.02,1.69,10.07,3.23,15.32,4.03,6.44.99,13.02,1.1,19.52,1.27,4.25.11,8.52.37,12.75-.21,4.35-.6,8.66-1.57,12.87-2.81,4.45-1.31,8.91-2.69,13.27-4.29s8.46-3.48,12.22-6.1l-.38.94c-.56-3.44-1.13-6.89-1.69-10.33l.8.61c-11.37.6-22.69-1.69-33.01-6.47-4.89-2.27-9.54-5.05-13.89-8.25-2.16-1.59-4.3-3.25-6.23-5.12-1.57-1.53-2.92-3.26-4.33-4.93-3.6-4.25-7.02-8.66-9.58-13.64-.49-.95.94-1.79,1.43-.84,2.27,4.41,5.21,8.4,8.38,12.19,1.24,1.49,2.47,3,3.76,4.45,1.79,2.02,3.87,3.77,6.01,5.41,8.35,6.39,17.88,11.3,28.13,13.78,6.32,1.52,12.83,2.09,19.32,1.75.33-.02.74.27.8.61.56,3.44,1.13,6.89,1.69,10.33.06.39-.05.71-.38.94-6.72,4.69-14.68,7.08-22.42,9.5-4.19,1.31-8.38,2.45-12.7,3.26-2.12.4-4.26.75-6.41.92-2.19.18-4.38.09-6.58.04-7-.15-14.06-.23-21.02-1.05-5.11-.6-10.06-1.81-14.95-3.37-1.85-.59-3.68-1.27-5.55-1.78-2.31-.63-4.67-1.03-7.06-1.19-4.65-.31-9.33.26-13.77,1.69-1.02.33-1.45-1.27-.44-1.6h0Z"/>
      </g>
      <g>
        <path class="d" d="M204.08,89.13c-.07,0-.1,0-.1,0-10.66-1.03-21.7,3.41-28.69,11.52-1.59,1.85-3.02,3.96-3.38,6.37-2.61-6.21-7.73-11.02-13.14-15.03-4.47-3.31-9.27-6.24-14.46-8.24-7.8-3.01-16.41-3.86-24.65-2.44,1.1-.82,2.25-1.57,3.46-2.24,10.98-6.09,24.4-4.81,36.86-3.29,9.56,1.17,19.17,2.39,28.38,5.21,5.69,1.74,11.34,4.17,15.71,8.15Z"/>
        <path class="e" d="M204.08,89.96c-9.89-.79-19.82,2.62-26.81,9.75-2.06,2.1-4.06,4.53-4.56,7.52-.11.67-1.24.84-1.51.2-2.97-6.97-8.93-12.07-15.02-16.3-6.72-4.66-14.14-8.1-22.29-9.24-4.64-.65-9.38-.57-14,.21-.94.16-1.41-.95-.64-1.51,9.32-6.87,21.13-7.47,32.27-6.55,5.91.49,11.81,1.27,17.68,2.1,6.28.89,12.55,2.02,18.64,3.81,6.08,1.79,12.08,4.3,16.84,8.6.79.72-.38,1.88-1.17,1.17-4.13-3.72-9.29-6.02-14.54-7.69-5.82-1.85-11.83-3.03-17.85-3.95-5.84-.89-11.72-1.64-17.6-2.21-5.4-.52-10.87-.8-16.28-.21-6.18.67-12.12,2.65-17.15,6.35l-.64-1.51c8.45-1.43,17.23-.62,25.23,2.5,3.91,1.52,7.61,3.54,11.1,5.87s6.53,4.63,9.41,7.39c3.08,2.96,5.76,6.39,7.45,10.34l-1.51.2c.46-2.75,2.11-5.08,3.93-7.12,1.72-1.94,3.69-3.65,5.81-5.14,4.29-3.01,9.29-5.05,14.46-5.9,2.92-.48,5.82-.55,8.76-.32,1.06.08,1.06,1.74,0,1.66Z"/>
      </g>
      <path class="e" d="M172.66,106.17l1.48,4.86-1.63.22.02-.27c.09-1.05,1.75-1.06,1.66,0l-.02.27c-.08.91-1.34,1.15-1.63.22-.49-1.62-.99-3.24-1.48-4.86-.31-1.02,1.29-1.46,1.6-.44h0Z"/>
      <g>
        <path class="g" d="M122.23,133.15c2.31-1.9,5.01-3.26,7.74-4.47,8.41-3.71,17.43-6.05,26.59-6.88,4.27-.39,8.73-.43,12.66,1.3,4.42,1.94,7.78,6.15,8.69,10.89.28,1.46.26,3.16-.82,4.17-.51.48-1.19.72-1.85.94-9.96,3.25-20.78,2.23-31.09.38-6.33-1.13-12.77-2.02-18.79-4.28-.72-.27-2.39-1.24-3.08-2.08l-.04.02Z"/>
        <path class="e" d="M121.64,132.56c3.32-2.69,7.27-4.43,11.22-5.98,4.23-1.67,8.59-3,13.04-3.97,4.31-.94,8.74-1.62,13.16-1.82,4.14-.19,8.47.22,12.11,2.37,3.08,1.82,5.47,4.69,6.79,8.02.63,1.6,1.11,3.44.87,5.16-.28,1.95-1.58,2.96-3.37,3.55-8.48,2.81-17.66,2.45-26.39,1.22-5-.71-10.01-1.58-14.96-2.61-2.54-.53-5.05-1.15-7.51-1.98-1.79-.6-3.63-1.37-4.91-2.81-.71-.79.46-1.97,1.17-1.17,1.06,1.19,2.56,1.83,4.03,2.33,2.01.68,4.06,1.23,6.13,1.7,4.05.91,8.15,1.56,12.24,2.27,8.18,1.42,16.69,2.3,24.9.71.94-.18,1.88-.4,2.8-.64,1-.27,2.15-.5,3.06-1.01,1.57-.88,1.28-2.93.92-4.41-.8-3.24-2.79-6.2-5.49-8.15-3.14-2.27-6.97-2.95-10.78-2.93-4.14.02-8.32.61-12.38,1.4-4.51.88-8.96,2.12-13.27,3.72-4.24,1.57-8.66,3.35-12.21,6.21-.82.66-2-.5-1.17-1.17h0Z"/>
      </g>
      <path class="e" d="M177.94,138.1c-.11,3.24-2.07,6.2-5.07,7.46-1.74.73-3.65.96-5.5,1.2-2.05.26-4.11.41-6.17.44-7.97.15-15.9-1.26-23.58-3.3-4.45-1.19-8.83-2.6-13.18-4.1-1-.35-.57-1.95.44-1.6,14.04,4.84,29.16,9.13,44.12,6.66,1.87-.31,3.78-.74,5.19-2.09,1.28-1.22,2.04-2.9,2.1-4.67.03-1.06,1.69-1.07,1.66,0h0Z"/>
      <g>
        <path class="e" d="M159.82,125.78c-1.1-1.13-2.79-1.69-4.45-1.72s-3.29.4-4.81,1c-.58.23-1.16.49-1.61.89-1.17,1.06-1.14,2.77-1.02,4.27.16,2.06.38,4.27,1.84,5.86,1.49,1.61,3.93,2.18,6.23,2.44,1.76.2,3.75.21,5.07-.88,1.2-.99,1.47-2.6,1.5-4.08.03-1.44-.09-2.88-.36-4.29-.2-1.05-.52-2.13-1.3-2.93s-2.15-1.21-3.16-.67l2.08.11Z"/>
        <path class="e" d="M159.23,126.36c-2.34-2.27-6.2-1.58-8.87-.32-1.41.67-1.7,1.88-1.65,3.34.04,1.36.15,2.78.55,4.09.88,2.92,3.73,3.84,6.48,4.19,1.31.17,2.84.32,4.09-.23,1.33-.58,1.78-1.94,1.88-3.29.13-1.74-.02-3.57-.44-5.27-.32-1.3-1.46-3.26-3.11-2.5-.96.44-1.8-.98-.84-1.43,1.6-.74,3.42-.19,4.49,1.18,1.19,1.52,1.4,3.71,1.53,5.57s.16,3.86-.8,5.45-2.62,2.17-4.36,2.28-3.75-.18-5.46-.71-3.31-1.47-4.28-3.03-1.18-3.43-1.33-5.22c-.14-1.69-.18-3.61,1.07-4.93.72-.76,1.76-1.15,2.72-1.5,1.14-.41,2.32-.69,3.53-.79,2.15-.17,4.39.4,5.96,1.94.77.74-.41,1.92-1.17,1.17h0Z"/>
      </g>
      <path class="g" d="M152.63,127.18c-.16-.09-.2.59-.13.74.14.31.72.33.98.16.14-.09.18-.24.21-.4.02-.09.03-.17.04-.26.01-.17-.07-.35.13-.09.19.24.06.13-.13.13-.12,0-.22.03-.34.05-.34.04-.07.3-.44-.33-.29-.49-.28-.33-.02-.65.28-.35.88-.28,1.17,0s.41.63.34,1.03c-.06.36-.4.62-.44.94l-1.51-.64c.08-.18.15-.35.23-.53.18-.41.78-.5,1.13-.3.43.24.48.73.3,1.13-.08.18-.15.35-.23.53-.16.38-.69.48-1.03.34-.41-.17-.54-.56-.48-.98.03-.18.09-.34.18-.5l.1-.14c.16-.3.24-.21.24.28h1.17c-.5.64-1.48,1.02-2.12.32-.69-.75-.09-1.7.71-2.02.76-.3,2-.37,2.51.4.39.58.19,1.61-.07,2.2-.71,1.57-3.31,1.69-4.09.12s.55-4.03,2.43-2.97c.93.53.09,1.96-.84,1.43h0Z"/>
      <path class="g" d="M157.52,128.11c-.06,0-.11,0-.16,0l.22-.03c-.05,0-.11.02-.16.04l.2-.08s-.05.03-.07.04l.17-.13s-.03.02-.04.04l.13-.17v.02c.02-.07.04-.13.07-.2,0,.02-.01.03-.01.05l.03-.22v.03c-.01-.07-.02-.15-.03-.22,0,.02,0,.04.02.06l-.08-.2.02.02-.13-.17s.03.03.04.04l-.17-.13s.03.02.05.03l-.2-.08s.04.01.06.02l-.22-.03s.04,0,.06,0l-.22.03s.06-.01.09-.02l-.2.08s.05-.03.07-.04l-.17.13s.06-.05.08-.09l-.13.17c.05-.07.09-.14.12-.21l.72,1.25c-.38.01-.78-.1-1.09-.31-.36-.25-.54-.73-.3-1.13.26-.42.77-.65,1.26-.5.41.13.72.58.58,1.02s-.58.72-1.02.58c-.02,0-.04-.01-.07-.02l.22.03s-.05,0-.07,0l.22-.03s-.04.01-.07.02l.2-.08s-.04.02-.06.04l.17-.13s-.03.03-.05.05l.13-.17-.02.03-.3-1.13c.06.04.13.08.19.11l-.2-.08c.1.04.2.07.3.08l-.22-.03c.06,0,.12,0,.18,0,.29,0,.57.16.72.41.16.27.13.57,0,.84-.16.33-.43.64-.79.73-.46.12-.97-.04-1.22-.46-.29-.48-.11-1.06.33-1.36.23-.16.54-.22.81-.2.22.02.42.08.59.24.14.14.25.38.24.59-.02.42-.37.86-.83.83h0Z"/>
      <g>
        <path class="e" d="M244.01,164.7c.37-1.27.91-2.48,1.61-3.6.38-.61.82-1.2,1.4-1.63,1.38-1.02,3.3-.94,4.92-.39,2.74.93,5.03,3.12,6.08,5.82s.84,5.86-.56,8.4c-.41.74-.92,1.44-1.61,1.92-1.08.75-2.45.89-3.76,1.01-1.71.15-3.68.22-4.88-1.02-.44-.46-.72-1.04-.94-1.64-.97-2.54-.37-.66-1.07-2.61-.21-.59-.87-3.95-1.25-4.45l.06-1.8Z"/>
        <path class="e" d="M243.21,164.48c.62-2.07,1.65-4.54,3.5-5.8s4.15-.95,6.03-.18c4.03,1.64,6.77,5.62,6.76,9.98,0,2.16-.63,4.43-1.94,6.17-1.41,1.87-3.5,2.24-5.71,2.42-1.93.16-4.16.07-5.47-1.57-.76-.95-1.09-2.21-1.6-3.31-.6-1.31-.8-2.78-1.17-4.17-.15-.55-.46-1.09-.49-1.63s.04-1.13.06-1.69c.04-1.06,1.69-1.07,1.66,0l-.04,1.14c0,.08.04.54-.02.6-.08.07-.22-.4-.04-.22.08.08.12.28.16.38.42,1.09.62,2.28.9,3.41.11.44.24.85.39,1.28.06.17.13.33.1.25.03.05.07.1.09.15.64,1.3.85,2.99,2.38,3.54s3.66.27,5.19-.1c1.97-.48,2.99-2.2,3.52-4.05,1.05-3.66-.26-7.64-3.33-9.91-1.52-1.12-3.64-2.02-5.55-1.53-2.16.55-3.22,3.38-3.79,5.29-.31,1.02-1.91.58-1.6-.44Z"/>
      </g>
      <path class="g" d="M248.65,162.11c-.28.09-.46.41-.34.69l-.21-.37c.16.21-.07.01-.08,0,.02.01-.05.05,0,0,.11-.1-.37-.29.27.09.32.19.33.06.24.22-.03.05-.18.24-.19.24l-.1-.21c-.15-.16-.28-.19-.38-.1,0,0-.03.03-.03.03-.04-.1.01-.38,0-.5-.01-.22,0-.43.07-.64.21-.58.93-.85,1.45-.5l-1.22.49.02-.1v.44l.17.16,1-1.3c1.28,1.11.42,4.04-1.5,3.42-1.01-.33-.58-1.93.44-1.6,0,0-.12.1-.07.04.07-.08.11-.21.12-.32.01-.16-.03-.26-.16-.38-.7-.61.22-1.83,1-1.3.5.33.66.79.57,1.38-.08.52-.81.77-1.22.49l-.07-.05.42.11h-.09c.14-.03.28-.07.42-.1l-.07.06.3-.3-.04.08.11-.42c-.04.36.03.72-.04,1.08-.06.33-.2.66-.45.9-.51.51-1.4.62-1.94.09-1.14-1.14.6-3.6,2.02-2.75.73.43.74,1.48.33,2.13-.43.69-1.39.99-2.12.58-.69-.39-.82-1.24-.58-1.95s.78-1.22,1.49-1.46c1.01-.34,1.45,1.26.44,1.6h0Z"/>
      <path class="g" d="M251.87,162.33s-.01.01-.02.02l.13-.17s0,.01-.01.02l.08-.2h0c0-.06.02-.14.03-.21,0,0,0,.02,0,.02l-.03-.22s0,.02.01.04l-.08-.2s.01.02.02.04l-.13-.17s.02.02.03.03l-.17-.13s.02.02.04.02l-.2-.08s.03,0,.04.01l-.22-.03s.02,0,.03,0l-.22.03s.03,0,.04-.01l-.2.08s.02-.01.03-.02l-.17.13s.04-.03.05-.05l-.13.17s.03-.04.04-.06l-.08.2c.03-.07.04-.14.05-.21l-.03.22v-.02c.35.27.7.53,1.05.8-.09.02-.17.04-.26.06-.22.05-.44.03-.64-.08-.17-.1-.34-.3-.38-.49-.05-.21-.04-.45.08-.64.11-.18.28-.33.49-.38.09-.02.17-.04.26-.06.26-.06.51-.02.72.15.09.06.16.14.21.23.07.13.11.27.11.42-.03.25-.05.45-.18.68-.18.31-.51.52-.87.52s-.67-.21-.86-.5c-.09-.14-.13-.33-.13-.49,0-.22.1-.49.28-.64.08-.08.16-.14.27-.17.1-.05.21-.08.32-.07.2,0,.45.09.59.24s.25.37.24.59c0,.2-.07.45-.24.59h0Z"/>
    </g>
  </g>
  <g>
    <path class="c" d="M119.2,327.28c0,4.18.12,8.66.33,13.45.21,4.79.49,9.27.85,13.43l-8.7.38-.44-10.07-13.63.59.44,10.07-8.7.38c-.01-4.8-.11-9.28-.29-13.45-.18-4.17-.48-8.65-.88-13.43l8.7-.38.44,10.07,13.63-.59-.44-10.07,8.7-.38Z"/>
    <path class="c" d="M131.77,346.87c9.38-.46,16.17-.89,20.38-1.3-.13,1.02-.19,2.07-.18,3.14s.05,2.43.12,4.06l-28.77,1.26c-.01-4.8-.11-9.28-.29-13.45-.18-4.17-.48-8.65-.88-13.43l28.77-1.26.29,6.7-20.03.88.16,3.55c1.19-.03,2.94-.09,5.26-.19,3.92-.17,7.98-.42,12.17-.75l.28,6.37c-4.2.04-8.27.14-12.19.31-2.32.1-4.07.19-5.26.27l.17,3.85Z"/>
    <path class="c" d="M170.02,336.63l15.81-.69.67,15.33-6.52.29-1.06-6.52c-.64,2.38-1.88,4.18-3.73,5.39-1.85,1.22-4.15,1.89-6.89,2.01-2.49.11-4.73-.35-6.72-1.38s-3.57-2.55-4.76-4.58c-1.19-2.02-1.84-4.42-1.96-7.19-.19-4.42.98-7.97,3.5-10.65,2.53-2.68,6.58-4.15,12.16-4.39,3.18-.14,6.01.26,8.49,1.19,2.48.93,4.61,2.45,6.41,4.54-1.09.62-3.21,1.85-6.37,3.69l-.9.56c-1.01-.92-2.16-1.59-3.46-2.02-1.31-.42-2.67-.61-4.1-.54-2.37.1-4.11.8-5.21,2.1-1.11,1.3-1.62,2.86-1.54,4.69.09,1.97.78,3.54,2.08,4.69,1.3,1.16,3.23,1.68,5.8,1.56,1.11-.05,2.18-.26,3.22-.62,1.03-.37,1.89-.96,2.57-1.78l-7.22.32-.26-6Z"/>
    <path class="c" d="M197.9,343.98c9.38-.46,16.17-.89,20.38-1.3-.13,1.02-.19,2.07-.18,3.14,0,1.08.05,2.43.12,4.06l-28.77,1.26c-.01-4.8-.11-9.28-.29-13.45-.18-4.17-.48-8.65-.88-13.43l28.77-1.26.29,6.7-20.03.87.16,3.55c1.19-.03,2.94-.09,5.26-.19,3.92-.17,7.98-.42,12.17-.75l.28,6.37c-4.2.04-8.27.14-12.19.31-2.32.1-4.07.19-5.26.27l.17,3.85Z"/>
  </g>
  <path class="c" d="M108.07,371.96c26.05-2.1,52.1-4.21,78.15-6.31,7.3-.59,14.6-1.18,21.9-1.77l-.3-2.21c-19.95,5.64-39.97,11.03-60.06,16.17-5.68,1.45-11.37,2.88-17.06,4.29-1.23.3-.97,2.24.3,2.21,12.17-.24,24.37.43,36.53.66,3.49.07,6.98.12,10.47.12,1.45,0,1.45-2.25,0-2.25-12.97,0-25.93-.57-38.9-.77-2.7-.04-5.4-.07-8.1-.02l.3,2.21c20.12-4.99,40.19-10.23,60.18-15.73,5.65-1.56,11.3-3.13,16.95-4.73,1.18-.33,1-2.31-.3-2.21-26.05,2.1-52.1,4.21-78.15,6.31-7.3.59-14.6,1.18-21.9,1.77-1.43.12-1.45,2.37,0,2.25h0Z"/>
</svg>