<?xml version="1.0" encoding="UTF-8"?>
<svg id="a" data-name="Layer 1" xmlns="http://www.w3.org/2000/svg" viewBox="0 0 279.45 142.54">
  <defs>
    <style>
      .b {
        fill: #fdc238;
      }

      .b, .c {
        stroke-width: 0px;
      }

      .c {
        fill: #1a1a1a;
      }
    </style>
  </defs>
  <g>
    <g>
      <path class="c" d="M277.59,8.97l-.74-.12s-4.43-.72-12.08-1.61l-.75-.09-.98,8.44.75.09c7.19.84,11.52,1.53,11.7,1.56l.74.12,1.36-8.39Z"/>
      <path class="c" d="M264.68,7.98l-.81,6.95c7.38.86,11.69,1.55,11.74,1.56l1.12-6.91c-.18-.03-4.49-.72-12.05-1.6M263.36,6.32l1.49.17c7.67.89,12.07,1.61,12.11,1.61l1.48.24-.24,1.48-1.12,6.91-.24,1.48-1.48-.23c-.19-.03-4.5-.72-11.68-1.55l-1.49-.17.17-1.49.81-6.95.17-1.49h0Z"/>
    </g>
    <g>
      <path class="c" d="M12.3,111.72c1.74-7.84,4.26-15.33,7.49-22.26l.32-.68-7.7-3.59-.32.68c-3.5,7.49-6.22,15.57-8.09,24.02l-.16.73,8.3,1.84.16-.73ZM28.59,74.24c4.42-6.28,9.67-12.18,15.61-17.54l.56-.5-5.69-6.31-.56.5c-6.41,5.77-12.08,12.15-16.87,18.96l-.43.61,6.95,4.89.43-.61ZM58.22,45.86c6.31-4.2,13.32-8.07,20.84-11.5l.68-.31-3.53-7.73-.68.31c-7.92,3.62-15.33,7.71-22.02,12.16l-.62.42,4.71,7.08.62-.42ZM95.76,27.7c7.25-2.51,15.04-4.74,23.14-6.65l.73-.17-1.94-8.27-.73.17c-8.38,1.97-16.45,4.29-23.97,6.89l-.71.25,2.78,8.03.71-.25ZM136.68,17.48c7.67-1.3,15.74-2.37,24.01-3.19l.75-.07-.83-8.46-.75.07c-8.45.83-16.72,1.93-24.59,3.27l-.74.12,1.42,8.38.74-.13ZM247.06,5.5l-.75-.06c-8.18-.65-16.48-1.12-24.66-1.39l-.75-.02-.29,8.5.75.03c8.05.27,16.22.73,24.28,1.37l.75.06.67-8.47ZM178.84,12.92c7.86-.43,16.03-.65,24.3-.66h.75s-.01-8.5-.01-8.5h-.75c-8.41.02-16.73.24-24.74.68l-.75.04.46,8.49.75-.04Z"/>
      <path class="c" d="M203.12,4.5c-8.39.01-16.7.24-24.71.67l.38,6.99c7.88-.43,16.07-.65,24.34-.66v-7M221.63,4.8l-.24,7c8.06.27,16.24.73,24.31,1.37l.55-6.98c-8.17-.65-16.46-1.12-24.63-1.39M159.92,6.58c-8.44.83-16.7,1.93-24.54,3.26l1.17,6.9c7.69-1.3,15.78-2.38,24.06-3.2l-.69-6.97M117.13,13.51c-8.36,1.96-16.4,4.27-23.9,6.87l2.29,6.62c7.27-2.51,15.08-4.76,23.21-6.67l-1.6-6.81M75.84,27.3c-7.89,3.6-15.26,7.67-21.91,12.1l3.88,5.83c6.35-4.23,13.39-8.12,20.94-11.56l-2.91-6.37M39.01,50.95c-6.37,5.74-12.01,12.07-16.76,18.83l5.73,4.03c4.45-6.33,9.74-12.27,15.72-17.66l-4.69-5.2M12.76,86.18c-3.47,7.44-6.17,15.47-8.03,23.86l6.83,1.51c1.75-7.89,4.29-15.43,7.54-22.42l-6.34-2.96M204.62,3v1.5s.01,7,.01,7v1.5s-1.5,0-1.5,0c-8.26.01-16.42.24-24.26.66l-1.5.08-.08-1.5-.38-6.99-.08-1.5,1.5-.08c8.03-.43,16.37-.66,24.78-.68h1.5ZM220.18,3.25l1.5.05c8.19.28,16.5.75,24.7,1.39l1.5.12-.12,1.5-.55,6.98-.12,1.5-1.5-.12c-8.05-.64-16.2-1.1-24.24-1.37l-1.5-.05.05-1.5.24-7,.05-1.5h0ZM161.27,4.94l.15,1.49.69,6.97.15,1.49-1.49.15c-8.25.81-16.31,1.88-23.96,3.18l-1.48.25-.25-1.48-1.17-6.9-.25-1.48,1.48-.25c7.89-1.34,16.18-2.44,24.64-3.27l1.49-.15h0ZM118.25,11.71l.34,1.46,1.6,6.81.34,1.46-1.46.34c-8.08,1.9-15.84,4.13-23.07,6.62l-1.42.49-.49-1.42-2.29-6.62-.49-1.42,1.42-.49c7.55-2.61,15.64-4.94,24.05-6.91l1.46-.34h0ZM76.58,25.31l.62,1.36,2.91,6.37.62,1.36-1.36.62c-7.48,3.42-14.46,7.27-20.73,11.45l-1.25.83-.83-1.25-3.88-5.83-.83-1.25,1.25-.83c6.72-4.48,14.17-8.59,22.12-12.22l1.36-.62h0ZM39.12,48.83l1,1.11,4.69,5.2,1,1.11-1.11,1c-5.9,5.32-11.11,11.17-15.5,17.41l-.86,1.23-1.23-.86-5.73-4.03-1.23-.86.86-1.23c4.82-6.85,10.53-13.27,16.98-19.08l1.11-1h0ZM12.04,84.19l1.36.63,6.34,2.96,1.36.63-.63,1.36c-3.21,6.88-5.71,14.32-7.44,22.11l-.32,1.46-1.46-.32-6.83-1.51-1.46-.32.32-1.46c1.88-8.5,4.62-16.63,8.14-24.17l.63-1.36h0Z"/>
    </g>
    <g>
      <path class="c" d="M9.25,141.79v-.75c0-3.96.15-7.88.45-11.66l.06-.75-8.47-.67-.06.75c-.31,3.99-.47,8.14-.47,12.33v.75h8.5Z"/>
      <path class="c" d="M1.97,128.77c-.31,3.97-.47,8.1-.47,12.27h7c0-3.98.15-7.93.45-11.72l-6.98-.55M.59,127.16l1.5.12,6.98.55,1.5.12-.12,1.5c-.3,3.76-.44,7.66-.44,11.6v1.5H0v-1.5c0-4.21.16-8.37.48-12.39l.12-1.5h0Z"/>
    </g>
  </g>
  <g>
    <g>
      <path class="b" d="M278.59,5.97l-.74-.12s-4.43-.72-12.08-1.61l-.75-.09-.98,8.44.75.09c7.19.84,11.52,1.53,11.7,1.56l.74.12,1.36-8.39Z"/>
      <path class="c" d="M265.68,4.98l-.81,6.95c7.38.86,11.69,1.55,11.74,1.56l1.12-6.91c-.18-.03-4.49-.72-12.05-1.6M264.36,3.32l1.49.17c7.67.89,12.07,1.61,12.11,1.61l1.48.24-.24,1.48-1.12,6.91-.24,1.48-1.48-.23c-.19-.03-4.5-.72-11.68-1.55l-1.49-.17.17-1.49.81-6.95.17-1.49h0Z"/>
    </g>
    <g>
      <path class="b" d="M13.3,108.72c1.74-7.84,4.26-15.33,7.49-22.26l.32-.68-7.7-3.59-.32.68c-3.5,7.49-6.22,15.57-8.09,24.02l-.16.73,8.3,1.84.16-.73ZM29.59,71.24c4.42-6.28,9.67-12.18,15.61-17.54l.56-.5-5.69-6.31-.56.5c-6.41,5.77-12.08,12.15-16.87,18.96l-.43.61,6.95,4.89.43-.61ZM59.22,42.86c6.31-4.2,13.32-8.07,20.84-11.5l.68-.31-3.53-7.73-.68.31c-7.92,3.62-15.33,7.71-22.02,12.16l-.62.42,4.71,7.08.62-.42ZM96.76,24.7c7.25-2.51,15.04-4.74,23.14-6.65l.73-.17-1.94-8.27-.73.17c-8.38,1.97-16.45,4.29-23.97,6.89l-.71.25,2.78,8.03.71-.25ZM137.68,14.48c7.67-1.3,15.74-2.37,24.01-3.19l.75-.07-.83-8.46-.75.07c-8.45.83-16.72,1.93-24.59,3.27l-.74.12,1.42,8.38.74-.13ZM248.06,2.5l-.75-.06c-8.18-.65-16.48-1.12-24.66-1.39l-.75-.02-.29,8.5.75.03c8.05.27,16.22.73,24.28,1.37l.75.06.67-8.47ZM179.84,9.92c7.86-.43,16.03-.65,24.3-.66h.75s-.01-8.5-.01-8.5h-.75c-8.41.02-16.73.24-24.74.68l-.75.04.46,8.49.75-.04Z"/>
      <path class="c" d="M204.12,1.5c-8.39.01-16.7.24-24.71.67l.38,6.99c7.88-.43,16.07-.65,24.34-.66V1.5M222.63,1.8l-.24,7c8.06.27,16.24.73,24.31,1.37l.55-6.98c-8.17-.65-16.46-1.12-24.63-1.39M160.92,3.58c-8.44.83-16.7,1.93-24.54,3.26l1.17,6.9c7.69-1.3,15.78-2.38,24.06-3.2l-.69-6.97M118.13,10.51c-8.36,1.96-16.4,4.27-23.9,6.87l2.29,6.62c7.27-2.51,15.08-4.76,23.21-6.67l-1.6-6.81M76.84,24.3c-7.89,3.6-15.26,7.67-21.91,12.1l3.88,5.83c6.35-4.23,13.39-8.12,20.94-11.56l-2.91-6.37M40.01,47.95c-6.37,5.74-12.01,12.07-16.76,18.83l5.73,4.03c4.45-6.33,9.74-12.27,15.72-17.66l-4.69-5.2M13.76,83.18c-3.47,7.44-6.17,15.47-8.03,23.86l6.83,1.51c1.75-7.89,4.29-15.43,7.54-22.42l-6.34-2.96M205.62,0v1.5s.01,7,.01,7v1.5s-1.5,0-1.5,0c-8.26.01-16.42.24-24.26.66l-1.5.08-.08-1.5-.38-6.99-.08-1.5,1.5-.08C187.37.24,195.7.02,204.12,0h1.5ZM221.18.25l1.5.05c8.19.28,16.5.75,24.7,1.39l1.5.12-.12,1.5-.55,6.98-.12,1.5-1.5-.12c-8.05-.64-16.2-1.1-24.24-1.37l-1.5-.05.05-1.5.24-7,.05-1.5h0ZM162.27,1.94l.15,1.49.69,6.97.15,1.49-1.49.15c-8.25.81-16.31,1.88-23.96,3.18l-1.48.25-.25-1.48-1.17-6.9-.25-1.48,1.48-.25c7.89-1.34,16.18-2.44,24.64-3.27l1.49-.15h0ZM119.25,8.71l.34,1.46,1.6,6.81.34,1.46-1.46.34c-8.08,1.9-15.84,4.13-23.07,6.62l-1.42.49-.49-1.42-2.29-6.62-.49-1.42,1.42-.49c7.55-2.61,15.64-4.94,24.05-6.91l1.46-.34h0ZM77.58,22.31l.62,1.36,2.91,6.37.62,1.36-1.36.62c-7.48,3.42-14.46,7.27-20.73,11.45l-1.25.83-.83-1.25-3.88-5.83-.83-1.25,1.25-.83c6.72-4.48,14.17-8.59,22.12-12.22l1.36-.62h0ZM40.12,45.83l1,1.11,4.69,5.2,1,1.11-1.11,1c-5.9,5.32-11.11,11.17-15.5,17.41l-.86,1.23-1.23-.86-5.73-4.03-1.23-.86.86-1.23c4.82-6.85,10.53-13.27,16.98-19.08l1.11-1h0ZM13.04,81.19l1.36.63,6.34,2.96,1.36.63-.63,1.36c-3.21,6.88-5.71,14.32-7.44,22.11l-.32,1.46-1.46-.32-6.83-1.51-1.46-.32.32-1.46c1.88-8.5,4.62-16.63,8.14-24.17l.63-1.36h0Z"/>
    </g>
    <g>
      <path class="b" d="M10.25,138.79v-.75c0-3.96.15-7.88.45-11.66l.06-.75-8.47-.67-.06.75c-.31,3.99-.47,8.14-.47,12.33v.75h8.5Z"/>
      <path class="c" d="M2.97,125.77c-.31,3.97-.47,8.1-.47,12.27h7c0-3.98.15-7.93.45-11.72l-6.98-.55M1.59,124.16l1.5.12,6.98.55,1.5.12-.12,1.5c-.3,3.76-.44,7.66-.44,11.6v1.5H1v-1.5c0-4.21.16-8.37.48-12.39l.12-1.5h0Z"/>
    </g>
  </g>
</svg>