<?xml version="1.0" encoding="UTF-8"?>
<svg xmlns="http://www.w3.org/2000/svg" viewBox="0 0 387.17 364.04">
  <defs>
    <style>
      .cls-1 {
        opacity: .08;
      }

      .cls-2 {
        opacity: .09;
      }

      .cls-3 {
        mix-blend-mode: overlay;
        opacity: .34;
      }

      .cls-4 {
        fill: #00a650;
      }

      .cls-4, .cls-5, .cls-6, .cls-7, .cls-8 {
        stroke-width: 0px;
      }

      .cls-5 {
        fill: #1a1a1a;
      }

      .cls-6 {
        fill: #000;
      }

      .cls-7 {
        fill: #f0f0f0;
      }

      .cls-9 {
        opacity: .14;
      }

      .cls-10 {
        isolation: isolate;
      }

      .cls-8 {
        fill: #fff;
      }
    </style>
  </defs>
  <g class="cls-10">
    <g id="Layer_1" data-name="Layer 1">
      <g>
        <g class="cls-1">
          <path class="cls-5" d="M369.36,288.47c-9.68-10.94-9.35-28.46,6.16-33.27,4.17-1.29,8.43-3.31,8.77-8.27.44-6.3-5.93-12.79-9.06-17.72-16.3-25.67-30.45-52.65-43.58-80.06-13.3-27.76-25.61-55.98-38.08-84.11-3.18-7.17-6.36-14.34-9.54-21.52-2.97-6.69-5.55-13.89-10.05-19.74-7.42-9.65-19.31-12.65-30.97-13.03-16.19-.53-32.74,1.79-48.84,3.25-18.29,1.66-36.55,3.59-54.78,5.79-35.96,4.35-71.79,9.76-107.44,16.2-1.01,0-1.99.53-2.69,1.45C16.86,53.85,11.05,73.69,1.81,91.82c0,.02-.01.03-.02.05-.38.6-.53,1.37-.28,2.26,10.41,37.95,19.16,76.32,28.22,114.61,7.95,33.61,14.96,68.03,28.38,99.99,7.21,17.17,16.48,33.3,28.63,47.46,0,0,0,0,0,0,.07.08.14.17.21.26.53.62,1.18.89,1.83.92,14,4.1,28.34,6.7,42.97,6.66,16.19-.03,32.49-1.38,48.63-2.54,31.47-2.25,63.01-5.29,94.23-9.93,3.11-.46,6.18-1.08,9.21-1.8h1.25l1.31-.63c10.76-2.74,21.17-6.61,31.99-9.43,7.02-1.83,14.09-3.58,21.06-5.61,6.67-1.94,12.6-5.37,18.79-8.43,6.01-2.98,11.79-3.91,18.18-5.46,4.23-1.03,8.46-3.07,10.07-7.4,4.18-11.26-11.24-17.73-17.1-24.35Z"/>
        </g>
        <g>
          <g>
            <polygon class="cls-8" points="105.35 286.09 97.12 296.75 92.35 312.2 89.72 326.53 94.84 329.47 166 326.06 233.96 317.95 282.46 311.69 303.82 307.78 343.9 295.06 365.18 289.14 370.35 282.81 361.25 273.35 359.51 253.92 360.68 246.81 358.94 245.48 287.4 262.12 246.54 269.15 213.18 274.65 171.85 279.98 139.88 284.79 105.35 286.09"/>
            <path class="cls-5" d="M94.75,329.85l-5.45-3.13,2.68-14.59,4.85-15.61,8.33-10.81,34.71-1.3,31.92-4.81,41.34-5.32,33.35-5.5,40.86-7.02,71.69-16.68,2.05,1.57-1.2,7.29,1.72,19.25,9.23,9.61-5.45,6.68-21.4,5.95-40.06,12.72-21.41,3.92-48.52,6.26-67.96,8.11-71.3,3.42ZM90.13,326.34l4.8,2.75,71.05-3.41,67.93-8.1,48.5-6.26,21.34-3.91,40.03-12.71,21.18-5.89,4.88-5.98-8.95-9.32-1.76-19.6,1.14-6.94-1.42-1.09-71.37,16.6-40.88,7.03-33.36,5.51-41.35,5.32-31.96,4.82-34.4,1.29-8.07,10.47-4.76,15.38-2.57,14.03Z"/>
          </g>
          <g>
            <polygon class="cls-4" points="3.43 88.53 3.43 78.36 25.13 37.92 31.45 31.36 35.14 34.49 41.71 56.61 46.89 95.81 52.93 117.86 63.77 146.46 72.92 168.75 85.63 218.41 93.62 253.24 99.59 280 98.98 298.66 91.96 317.79 88.83 336.79 86.43 343.36 72.81 323.8 51.93 280.53 38.62 227.6 23.53 163.93 3.43 88.53"/>
            <path class="cls-6" d="M86.71,345.51l-14.8-21.28-20.93-43.36-.02-.1-13.31-52.93-15.1-63.69L2.43,88.66v-10.55l.12-.22,21.76-40.57,7.08-7.33,4.62,3.93,6.69,22.55,5.17,39.14,6.03,21.98,10.8,28.51,9.19,22.4,12.7,49.66,8,34.86,6,26.89v.13s-.62,18.82-.62,18.82l-7.04,19.19-3.16,19.08-3.06,8.38ZM73.68,323.29l12.47,17.92,1.71-4.68,3.17-19.09,6.96-18.97.6-18.37-5.94-26.63-7.99-34.83-12.68-49.57-9.13-22.23-10.84-28.62-6.1-22.27-5.16-39.13-6.47-21.75-2.74-2.33-5.58,5.78L4.43,78.61v9.79l20.06,75.27,15.1,63.7,13.28,52.81,20.8,43.11Z"/>
          </g>
          <g>
            <polygon class="cls-4" points="87.68 330.71 94.84 329.47 111.77 330.49 163.01 326.2 233.96 317.95 273.6 312.87 310.52 306.02 336.35 296.42 362.18 288.81 374.57 285.31 383.9 294.42 382.64 299.81 377.17 305.75 359.64 310.39 341.46 320.64 303.76 329.47 283.68 339.09 265.9 339.09 212.52 345.02 155.91 349.27 115.68 350.35 89.72 344.25 87.68 330.71"/>
            <path class="cls-6" d="M115.58,351.36l-.13-.03-26.62-6.26-2.28-15.18,8.24-1.42h.12s16.85,1.02,16.85,1.02l51.18-4.28,70.91-8.24,39.63-5.08,36.77-6.83,25.75-9.57,25.9-7.63,12.96-3.66,10.15,9.91-1.44,6.2-5.85,6.35-17.69,4.67-18.33,10.3-37.59,8.81-20.19,9.67h-17.95l-53.33,5.93-56.64,4.26-40.41,1.09ZM90.6,343.43l25.18,5.92,40.1-1.08,56.56-4.25,53.46-5.94h17.55l20.08-9.59,37.55-8.8,18.29-10.28,17.25-4.56,5.1-5.54,1.07-4.58-8.52-8.31-11.84,3.34-25.82,7.61-25.93,9.62-36.92,6.85-39.7,5.09-70.95,8.25-51.35,4.3-16.88-1.01-6.08,1.05,1.79,11.9Z"/>
          </g>
          <g>
            <polygon class="cls-4" points="243.01 3.14 36.35 25.53 33.9 31.98 41.72 58.64 44.35 86.87 51.51 121.09 66.79 147.98 77.27 186.14 87.68 229.31 101.06 280.64 99.81 291.23 109.9 286.2 180.78 279.65 276.15 264.06 332.64 252.48 367.85 242.83 381.01 234.87 366.03 211.64 331.16 147.18 302.57 85.12 279.68 33.53 270.49 15.25 259.17 6.42 243.01 3.14"/>
            <path class="cls-6" d="M98.6,292.95l1.44-12.23-13.33-51.15-10.42-43.18-10.43-38.02-15.29-26.92-.03-.15-7.18-34.33-2.62-28.13-7.89-26.89,2.78-7.33.61-.07L243.06,2.13l16.54,3.36,11.68,9.11,9.3,18.48,22.91,51.63,28.58,62.05,34.84,64.4,15.5,24.03-14.3,8.6-35.21,9.66-56.55,11.59-95.42,15.6-70.76,6.54-11.58,5.77ZM52.46,120.73l15.3,26.98,10.48,38.17,10.42,43.2,13.42,51.5-1.05,8.93,8.6-4.29.19-.02,70.87-6.55,95.31-15.58,56.44-11.57,35.01-9.6,12.17-7.36-14.42-22.36-34.91-64.52-28.62-62.12-22.89-51.6-9.08-18.04-10.95-8.54-15.78-3.21L37.06,26.46l-2.11,5.56,7.76,26.53,2.62,28.17,7.12,34.01Z"/>
          </g>
          <path class="cls-5" d="M.12,83.44c10.41,37.95,19.16,76.32,28.22,114.61,7.95,33.61,14.96,68.03,28.37,99.99,7.26,17.28,16.59,33.5,28.85,47.73,1.82,2.11,4.97.27,5.12-2.12.7-11.25,1.87-22.02,6.02-32.59,3.83-9.75,7.18-18.64,5.92-29.3s-4.49-21.63-6.93-32.27c-2.65-11.56-5.3-23.11-7.95-34.67-4.92-21.44-9.47-42.84-18.24-63.11-4.42-10.21-9.42-20.19-13.23-30.66-3.66-10.08-5.91-20.55-7.52-31.13-1.86-12.18-2.93-24.47-4.75-36.66-1.49-9.91-3.83-19.98-11.4-27.09-1.54-1.45-3.54-.95-4.71.61C15.48,43.17,9.67,63.01.42,81.13c-1.75,3.43,3.42,6.47,5.18,3.03,9.24-18.12,15.05-37.96,27.46-54.36l-4.71.61c7.23,6.8,8.77,16.88,10.12,26.27,1.49,10.37,2.49,20.8,3.95,31.18,1.49,10.62,3.48,21.2,6.87,31.39,3.11,9.35,7.29,18.3,11.35,27.27,9.12,20.13,14.61,40.71,19.54,62.19,5.07,22.1,10.44,44.16,15.2,66.33,1.38,6.45,2.31,12.97.82,19.49-1.18,5.17-3.36,10.03-5.29,14.95-4.34,11.07-5.51,22.41-6.23,34.18l5.12-2.12c-22.17-25.73-33.68-58.14-42.33-90.5-9.36-35.03-17-70.53-25.44-105.79-5.08-21.21-10.37-42.36-16.14-63.4-1.02-3.72-6.81-2.14-5.79,1.6H.12Z"/>
          <path class="cls-5" d="M31.83,31.16c61.05-11.04,122.63-19.02,184.48-23.81,12.32-.96,25.61-2.96,37.72.45,14.74,4.15,19,18.09,24.62,30.77,11.99,27.02,23.81,54.12,36.15,80.98,12.18,26.51,24.98,52.77,39.47,78.11,3.39,5.92,6.86,11.79,10.44,17.59,1.95,3.17,3.94,6.32,5.95,9.44,1.57,2.44,5,6.03,5.64,8.86,1.23,5.37-4.37,5.09-7.63,6.42-1.76.72-3.36,1.66-4.84,2.84-4.37,3.5-7.26,8.7-8.29,14.18-2.01,10.74,3.53,21.4,11.51,28.33,3.73,3.24,9.63,6.05,11.87,10.67,3.64,7.51-7.47,8-12.14,8.97-5.67,1.17-10.85,3.73-15.96,6.37-7.04,3.63-13.81,6.15-21.45,8.2-6.45,1.73-12.9,3.41-19.36,5.11-7.12,1.87-13.86,4.56-20.87,6.75-15.79,4.94-33.05,5.89-49.42,7.77s-33.93,3.59-50.94,4.93c-17.01,1.33-34.04,2.38-51.08,3.07-16.89.69-33.04-1.61-49.24-6.4-3.71-1.1-5.3,4.69-1.6,5.79,14.16,4.18,28.67,6.84,43.48,6.81,16.19-.03,32.49-1.38,48.63-2.54,31.47-2.25,63.01-5.29,94.23-9.93,15.08-2.24,29.05-8.03,43.75-11.85,7.02-1.83,14.09-3.58,21.06-5.61s12.6-5.37,18.79-8.43,11.79-3.91,18.18-5.46c4.23-1.03,8.46-3.07,10.07-7.4,4.18-11.26-11.24-17.73-17.1-24.35-9.68-10.94-9.35-28.46,6.16-33.27,4.17-1.29,8.43-3.31,8.77-8.27.44-6.3-5.93-12.79-9.06-17.72-16.3-25.67-30.45-52.65-43.58-80.06s-25.61-55.98-38.08-84.11c-3.18-7.17-6.36-14.34-9.54-21.52-2.97-6.69-5.55-13.89-10.05-19.74C265.17,3.45,253.29.46,241.63.08c-16.19-.53-32.74,1.79-48.84,3.25-18.29,1.66-36.55,3.59-54.78,5.79-36.07,4.36-72.01,9.8-107.77,16.26-3.79.69-2.19,6.47,1.6,5.79h0Z"/>
          <path class="cls-5" d="M88.2,329.91c6.86,3.65,14.32,4.01,21.94,3.66,9.35-.43,18.7-1.15,28.03-1.92,19.22-1.58,38.4-3.65,57.55-5.94s38.7-4.83,58.04-7.31c18.07-2.32,36.45-3.91,54.11-8.56,20.58-5.42,40.64-13.2,60.77-20.08,3.63-1.24,2.07-7.04-1.6-5.79-17.2,5.88-34.31,12.13-51.69,17.47s-35.74,7.64-54.01,9.98c-36.46,4.68-72.9,9.59-109.5,13.02-10.41.97-20.84,1.82-31.28,2.5-9.55.62-20.54,2.46-29.35-2.23-3.41-1.81-6.44,3.37-3.03,5.18h0Z"/>
          <path class="cls-5" d="M101.06,290.89c36.63-2.07,72.95-6.93,109.15-12.73s71.71-11.23,107.12-19.04c20.09-4.43,39.99-9.7,59.57-16,3.66-1.18,2.1-6.97-1.6-5.79-33.77,10.86-68.42,18.47-103.35,24.53-36.2,6.28-72.49,12.5-108.93,17.22-20.58,2.66-41.24,4.64-61.96,5.81-3.84.22-3.86,6.22,0,6h0Z"/>
          <path class="cls-5" d="M357.55,272.22c-4.26,2.84-10.39,4.09-15.22,5.73-5.69,1.93-11.42,3.66-17.34,4.74-5.37.98-10.81,1.59-15.91,3.65-2.91,1.18-5.55,2.57-8.65,3.19-2.77.56-5.17,1.11-7.71,2.38-3.45,1.73-.42,6.91,3.03,5.18,2.79-1.4,5.75-1.45,8.7-2.3s5.42-2.46,8.25-3.43c5.61-1.93,11.64-2.32,17.41-3.59s11-3.05,16.39-4.93c4.57-1.59,10.03-2.75,14.09-5.45,3.2-2.13.2-7.33-3.03-5.18h0Z"/>
          <path class="cls-5" d="M355.5,256.63c-10.82,3.81-21.74,7.21-32.87,10.01-3.74.94-2.16,6.73,1.6,5.79,11.13-2.8,22.05-6.2,32.87-10.01,3.62-1.27,2.06-7.07-1.6-5.79h0Z"/>
        </g>
        <path class="cls-5" d="M246.74,137.83l5.94,23.69-16.48,2.62,4.01,16-28.97,4.6c-.56-3.58-1.66-8.95-3.28-16.12l-57.56,9.14-6.38-25.46c15.06-18.03,27.68-37.37,37.88-58.03l35.39-5.62,12.98,51.79,16.48-2.62ZM195.9,118c-4.08,6.85-7.64,12.59-10.68,17.22-3.04,4.63-6.61,9.33-10.71,14.08l27.75-4.41-6.36-26.9Z"/>
        <g class="cls-9">
          <polygon class="cls-6" points="86.06 328.39 93.23 327.16 110.15 328.17 161.4 323.88 232.34 315.64 271.99 310.55 308.9 303.7 334.73 294.11 360.56 286.5 372.95 283 382.29 292.11 381.03 297.5 375.55 303.44 358.02 308.07 339.84 318.33 302.15 327.16 282.06 336.77 264.29 336.77 210.9 342.71 154.3 346.96 114.06 348.04 88.1 341.93 86.06 328.39"/>
        </g>
        <g class="cls-3">
          <path class="cls-7" d="M43.97,36.9c4.93,14.16,7.18,28.97,10.45,43.56,3.45,15.36,8.8,30.12,14.18,44.88,5.44,14.92,10.91,29.83,16.32,44.75,5.41,14.91,6.94,30.78,9.4,46.38.8,5.07,8.51,2.92,7.71-2.13-2.4-15.26-3.81-30.95-9.09-45.54-5.5-15.21-11.08-30.4-16.62-45.59-5.28-14.47-10.55-28.95-13.98-43.99-3.4-14.87-5.62-30-10.65-44.45-1.68-4.83-9.41-2.75-7.71,2.13h0Z"/>
        </g>
        <g class="cls-3">
          <path class="cls-7" d="M100.81,242.89c1.35,10.29,4.1,19.99,8.41,29.43,2.14,4.68,9.03.62,6.91-4.04-3.68-8.05-6.17-16.61-7.32-25.4-.66-5.03-8.67-5.1-8,0h0Z"/>
        </g>
        <g class="cls-3">
          <path class="cls-7" d="M23.22,55.04c3.16,15.69,4.89,31.61,7.58,47.39s7.13,31.03,12.5,46.19c1.71,4.82,9.44,2.74,7.71-2.13-5.37-15.16-9.8-30.32-12.5-46.19-2.68-15.77-4.42-31.69-7.58-47.39-1.01-5.04-8.73-2.91-7.71,2.13h0Z"/>
        </g>
        <g class="cls-2">
          <path class="cls-6" d="M331.22,188.87c2.87,6.69,5.94,13.28,9.26,19.75,1.66,3.24,3.38,6.44,5.16,9.61,1.45,2.6,4.42,6.07,4.83,8.98l.4-3.08c-.48.89-5.14,1.43-6.14,1.69-2.54.65-5.08,1.29-7.61,1.94-5.08,1.29-10.15,2.58-15.23,3.87s-2.87,8.99,2.13,7.71c7.93-2.02,15.86-4.03,23.79-6.05,4.58-1.17,12.19-2.65,10.23-9.28-.86-2.91-3.1-5.61-4.59-8.24-1.8-3.16-3.54-6.36-5.22-9.58-3.64-6.99-6.99-14.13-10.1-21.37-2.02-4.72-8.92-.65-6.91,4.04h0Z"/>
        </g>
        <g class="cls-2">
          <path class="cls-6" d="M313.94,152.85c1.89,4.04,3.44,8.19,4.73,12.46,1.48,4.92,9.2,2.82,7.71-2.13-1.48-4.93-3.35-9.71-5.53-14.37s-9.08-.6-6.91,4.04h0Z"/>
        </g>
      </g>
    </g>
  </g>
</svg>