<?xml version="1.0" encoding="UTF-8"?>
<svg id="Layer_1" data-name="Layer 1" xmlns="http://www.w3.org/2000/svg" viewBox="0 0 600.94 327.31">
  <defs>
    <style>
      .cls-1 {
        fill: #8f6a38;
      }

      .cls-1, .cls-2, .cls-3, .cls-4, .cls-5, .cls-6, .cls-7, .cls-8, .cls-9 {
        stroke-width: 0px;
      }

      .cls-2 {
        fill: #00b4ff;
      }

      .cls-3 {
        fill: #1a1a1a;
      }

      .cls-4 {
        fill: #a0ff83;
      }

      .cls-5 {
        fill: #000;
      }

      .cls-6 {
        fill: #b73144;
      }

      .cls-7 {
        fill: #c59272;
      }

      .cls-8 {
        fill: #97807e;
      }

      .cls-9 {
        fill: #fff;
      }
    </style>
  </defs>
  <g>
    <path class="cls-4" d="M285.08,178.4c5.56-.56,16.67-2.51,22.22-3.07.21-8.14,54.05,4.1,60.11-1.33,12.28-11.01,22.21-19.24,35.67-28.77,3.74-2.65,7.6-5.28,11.97-6.65,4.8-1.51,9.95-1.43,14.98-1.34,10.96.21,21.92.41,32.88.62,7.72.15,15.44.29,23.15.55,54.79,1.84,109.39,9.4,162.62,22.52,4.53,1.12,9.22,2.36,12.76,5.4,6,5.15,7.09,13.87,7.76,21.75,3.89,45.56,7.27,93.91-13.56,134.61-13.37,7.67-30.05,1.59-44.5-3.78-68-25.28-146.08-26.6-213-54.61-5.63-2.36-11.25-4.88-16.22-8.44-3.46-2.47-14.8-8.55-18.21-11.09-13.28-9.89-15.87-15.87-36.87-19.25-1.55-.25-95.65-15.2-96.88-16.18-1.13-.9,16.15-12.28,16.18-13.72.21-10.11-.21,4.79,0-5.33l38.92-11.88Z"/>
    <path class="cls-3" d="M285.08,179.42c7.44-.78,14.78-2.29,22.22-3.07.58-.06.99-.42,1.02-1.02.12-1.95,6.22-1.83,7.52-1.85,5.39-.1,10.8.41,16.17.9,6,.55,12,1.2,18.01,1.66,4.62.35,9.4.78,14.01.15,1.28-.17,2.59-.43,3.69-1.15,1.67-1.09,3.13-2.76,4.63-4.07,1.92-1.69,3.85-3.37,5.79-5.04,7.97-6.82,16.24-13.27,24.79-19.35,4.3-3.06,8.72-6.17,13.92-7.45,5.54-1.37,11.42-.91,17.08-.8,11.66.22,23.33.43,34.99.66,46.44.92,92.64,5.23,138.29,13.92,11.3,2.15,22.56,4.55,33.75,7.19,5.17,1.22,10.71,2.14,15.57,4.35,4.58,2.08,7.68,5.74,9.32,10.46,1.48,4.23,1.95,8.72,2.33,13.15.44,5.09.86,10.18,1.25,15.28.8,10.52,1.42,21.05,1.61,31.6.37,20.64-.93,41.5-6.4,61.48-1.35,4.95-2.96,9.83-4.85,14.6-.94,2.38-1.95,4.72-3.03,7.04-.51,1.09-.96,2.43-1.66,3.42-.88,1.24-2.95,1.81-4.31,2.28-9.76,3.32-20.39.68-29.84-2.44-9.77-3.23-19.33-7.02-29.19-10.01-10.11-3.07-20.35-5.73-30.64-8.13-20.54-4.79-41.3-8.58-62-12.59-20.63-3.99-41.24-8.2-61.48-13.86-10.12-2.83-20.15-6.03-29.98-9.75-5.01-1.89-10-3.87-14.86-6.14-4.19-1.95-7.95-4.38-11.83-6.85-5.83-3.72-12.21-6.66-17.72-10.85-5.17-3.93-9.92-8.55-15.5-11.92-7.8-4.7-16.8-6.09-25.65-7.51-20.54-3.28-41.07-6.58-61.59-9.98-8.66-1.44-17.33-2.84-25.97-4.46-1.06-.2-2.13-.39-3.18-.63-.19-.04-.56-.21-.75-.18-.06,0-.2-.1-.25-.07.24-.12.34,1.01.6.98.36-.03,1.53-1.44,1.84-1.7,1.01-.84,2.04-1.63,3.08-2.42,2.31-1.76,4.65-3.47,6.95-5.25,1.28-.99,3.2-2.11,4.04-3.55.67-1.16.48-3.23.36-4.56-.1-1.03-1.31-1.37-1.91-.52-.23.33-.17.97-.19,1.35-.01.26-.06.55-.04.81.04.47-.27.46.11-.07l1.91.52c-.11-1.21.03-2.5.06-3.71l-.75.99c11.32-3.46,22.65-6.91,33.97-10.37,1.65-.5,3.3-1.01,4.94-1.51,1.26-.38.72-2.36-.54-1.97-11.32,3.46-22.65,6.91-33.97,10.37-1.65.5-3.3,1.01-4.94,1.51-.44.13-.74.53-.75.99-.02,1.21-.17,2.5-.06,3.71.1,1.03,1.31,1.37,1.91.52.23-.33.17-.97.19-1.35.01-.26.06-.55.04-.81-.04-.47.27-.46-.11.07l-1.91-.52c.14,1.55.35,3.15-.7,4.13-1.89,1.78-4.07,3.28-6.14,4.83-2.26,1.7-4.55,3.37-6.73,5.16-.85.7-3.04,2.1-2.68,3.48s3.21,1.4,4.23,1.59c3.49.67,7,1.27,10.5,1.87,22.34,3.84,44.74,7.41,67.12,11,5.77.93,11.57,1.77,17.33,2.78,7.48,1.31,14.7,3.43,20.99,7.79,5.51,3.82,10.23,8.7,15.89,12.32,3.19,2.05,6.51,3.89,9.78,5.8s6.17,3.9,9.27,5.83c8.94,5.56,19.31,9.2,29.2,12.7,20.31,7.19,41.28,12.33,62.35,16.76,42.33,8.9,85.51,14.9,126.6,28.85,10,3.39,19.79,7.79,30.23,9.67,4.55.82,9.2,1.15,13.79.47,2.33-.34,4.6-.95,6.78-1.85.95-.39,1.98-.79,2.84-1.36.92-.61,1.23-1.61,1.71-2.59,9.17-18.76,13.46-39.43,14.93-60.15,1.51-21.25.23-42.59-1.48-63.79-.72-8.84-.46-19.19-5.09-27.08-5.14-8.77-16.22-10.07-25.23-12.19-45.99-10.81-92.96-17.49-140.14-19.94-23.74-1.23-47.54-1.41-71.31-1.81-5.35-.09-10.83-.05-15.9,1.89s-9.19,5.09-13.42,8.14c-8.3,5.98-16.32,12.33-24.08,18.99-1.96,1.68-3.9,3.38-5.82,5.09-1.2,1.07-2.38,2.53-3.83,3.27-1.33.68-3.11.71-4.56.79-5.28.27-10.63-.26-15.89-.73-6.25-.56-12.5-1.25-18.76-1.73-4.89-.38-9.93-.82-14.82-.25-2.23.26-5.71.84-5.88,3.67l1.02-1.02c-7.44.78-14.78,2.29-22.22,3.07-1.3.14-1.31,2.19,0,2.05Z"/>
  </g>
  <g>
    <path class="cls-1" d="M363.73,244.76c-13.28-9.89-15.87-15.87-36.87-19.25-1.55-.25-95.65-15.2-96.88-16.18-1.13-.9,16.15-12.28,16.18-13.72.21-10.11-.21,4.79,0-5.33l38.92-11.88c5.56-.56,16.67-2.51,22.22-3.07.21-8.14,54.05,4.1,60.11-1.33l2.73-1.55s2.39,60.23-15.94,64.64"/>
    <path class="cls-3" d="M364.25,243.87c-6.21-4.63-11.8-10.33-18.73-13.91-6-3.1-12.64-4.53-19.26-5.59-3.09-.49-6.18-.99-9.27-1.48-5.51-.88-11.02-1.77-16.52-2.65-6.78-1.09-13.57-2.19-20.35-3.29-6.86-1.12-13.73-2.24-20.59-3.38-5.73-.95-11.46-1.91-17.19-2.9-3.51-.61-7.02-1.19-10.51-1.92-.38-.08-.77-.16-1.15-.26-.1-.03-.21-.08-.31-.09-.18-.03.15.06.15.07.24.15.47.57.39.98.04-.19-.06.15-.05.1,0-.04.09-.11.09-.14,0,0,.04-.06.05-.07-.22.21-.11.13-.05.07.07-.08.14-.16.21-.23.33-.35.7-.67,1.06-.99,1.06-.92,2.17-1.78,3.28-2.62,2.72-2.08,5.5-4.09,8.19-6.21.9-.71,1.82-1.41,2.62-2.23.25-.26.52-.54.69-.86.35-.67.2-1.6.21-2.34.01-.54.02-1.08.03-1.62,0-.31.03-.65-.14-.92-.42-.68-1.34-.64-1.77,0-.24.36-.17,1.06-.19,1.47-.01.24-.02.48-.03.72,0,.09-.01.18-.01.28,0,.32.07-.3.13-.38h1.77c.29.47.11.66.14.27.01-.21,0-.42,0-.62.01-.95.03-1.9.05-2.84l-.75.99c2.01-.61,4.02-1.23,6.03-1.84,4.43-1.35,8.86-2.71,13.29-4.06s8.91-2.72,13.36-4.08c2.07-.63,4.13-1.37,6.23-1.9-.14.04-.14.02.01,0,.17-.01.34-.04.51-.06.37-.04.73-.09,1.1-.13.81-.1,1.63-.21,2.44-.32,1.77-.24,3.54-.51,5.3-.77,3.51-.53,7.02-1.08,10.54-1.53.68-.09,1.37-.17,2.05-.24.57-.06,1-.42,1.02-1.02,0-.05,0-.11.01-.16-.03.18-.09.18,0,.1.05-.06.2-.4,0-.07.05-.08.11-.17.15-.26.08-.17-.15.16-.05.06.05-.04.08-.1.13-.14s.3-.26.15-.14c-.14.11.16-.1.23-.15.11-.07.23-.12.34-.18.04-.02.25-.11.08-.04s.07-.03.12-.04c.65-.23,1.32-.39,2-.51.18-.03.36-.06.55-.08-.27.04.08-.01.14-.02.11-.01.23-.03.34-.04.45-.05.9-.08,1.35-.11,4.86-.3,9.77.11,14.61.52,5.78.48,11.55,1.1,17.33,1.62,4.95.44,9.95.9,14.92.76,1.69-.05,3.43-.15,5.07-.58.59-.16,1.2-.37,1.72-.69.1-.06.19-.12.28-.19.1-.07.19-.16.29-.23-.05.03-.26.14-.06.06.52-.22,1.01-.58,1.5-.85l1.12-.64-1.54-.88c.08,1.99.1,3.98.1,5.97.01,4.8-.1,9.59-.37,14.38-.33,5.95-.87,11.91-1.84,17.8-.89,5.41-2.13,11.07-4.28,16.01-.48,1.1-1.01,2.18-1.62,3.22-.53.9-1.19,1.89-1.73,2.54-.63.76-1.32,1.46-2.09,2.08-.15.12-.03.02,0,0-.05.03-.09.07-.14.1-.09.07-.19.13-.28.2-.2.14-.4.27-.61.39-.19.11-.39.22-.59.32-.09.04-.18.09-.26.13-.05.02-.1.05-.15.07-.25.12.2-.08-.06.03-.41.16-.84.3-1.27.41-1.28.31-.74,2.29.54,1.97,4.23-1.04,7.13-4.68,9.05-8.37,2.56-4.92,3.95-10.42,4.98-15.84,1.15-6.06,1.81-12.21,2.23-18.35.35-5.15.52-10.32.53-15.49,0-2.48.06-4.99-.1-7.47,0-.04,0-.07,0-.11-.03-.77-.85-1.28-1.54-.88-.89.5-1.81.97-2.67,1.52-.13.08-.24.18-.36.28.31-.24-.03.01-.12.07-.11.06-.22.11-.32.17-.15.08-.11.05.03,0-.08.03-.15.06-.23.09-.63.22-1.28.37-1.94.47-.1.02-.2.03-.3.04.21-.03.02,0-.08,0-.22.03-.44.05-.66.07-.46.04-.92.07-1.38.1-4.88.24-9.81-.21-14.67-.63-5.87-.51-11.74-1.15-17.61-1.65-4.96-.42-9.99-.86-14.97-.61-1.69.08-3.44.22-5.06.74-1.18.38-2.44,1.04-2.86,2.3-.09.26-.13.54-.14.82l1.02-1.02c-6.84.7-13.6,2.02-20.42,2.87-1.08.13-2.04.23-3.07.54-1.28.39-2.56.78-3.84,1.17-4.27,1.3-8.55,2.61-12.82,3.91-4.59,1.4-9.18,2.8-13.77,4.2-2.46.75-4.95,1.43-7.38,2.25-.04.01-.07.02-.11.03-.44.13-.74.53-.75.99-.02,1-.04,2-.06,3,0,.38-.07.89.14,1.23.42.68,1.34.64,1.77,0,.24-.36.17-1.06.19-1.47.01-.24.02-.48.03-.72,0-.09.01-.18.01-.28,0-.32-.07.3-.13.38h-1.77c-.33-.53-.1-.66-.13-.35-.02.17,0,.34,0,.51,0,.72-.02,1.44-.04,2.15,0,.23-.02.46-.01.69.02.42.09-.14.1-.19,0,.04-.05.08-.07.12-.08.17.18-.18-.01.02-.29.3-.57.59-.88.87-2.26,2.01-4.73,3.74-7.16,5.56-2.39,1.8-4.92,3.54-7.09,5.62-.61.58-1.49,1.47-.98,2.38.22.4.6.54,1.01.65,2.6.73,5.34,1.08,8,1.55,5.28.94,10.56,1.83,15.85,2.71,6.68,1.12,13.37,2.22,20.05,3.31,6.92,1.13,13.84,2.25,20.76,3.37,5.97.96,11.95,1.93,17.92,2.88,3.85.62,7.7,1.23,11.55,1.85,5.05.8,10.09,1.68,14.94,3.35,3.58,1.24,6.95,2.96,10.05,5.12s5.83,4.56,8.7,6.9c1.75,1.42,3.52,2.81,5.32,4.16.45.33,1.14.07,1.4-.37.31-.52.07-1.07-.37-1.4h0Z"/>
  </g>
  <g>
    <path class="cls-1" d="M501.66,181.81c8.6-.59,17.22-.91,25.85-.96,8.59-.05,17.18.16,25.76-.24,7.8-.36,15.56-1.23,23.32-2.09,9.02-1.01,18.05-2.01,27.07-3.02.62-.07,1.28-.14,1.86.1.58.24,1.01.74,1.4,1.23,7.94,10.13,10.08,23.66,9.95,36.53-.07,7.15-.85,14.59-4.61,20.67-.38.62-.81,1.24-1.43,1.62-1.19.74-2.73.44-4.09.11-8.97-2.21-17.83-4.89-26.91-6.59-4.51-.84-9.08-1.45-13.67-1.43-7.72.03-15.35,1.81-23.07,2.03-15.79.46-31.34-5.58-47.08-4.27-1.02.08-2.2.14-2.89-.61-.39-.43-.53-1.02-.66-1.59-2.52-11.51-5.03-23.01-7.55-34.52"/>
    <path class="cls-3" d="M501.66,182.83c11.06-.75,22.13-1,33.21-.97,5.56.02,11.13.04,16.69-.17,5.51-.21,11.01-.67,16.49-1.24,11.01-1.13,22.01-2.43,33.01-3.65l1.95-.22c.61-.07,1.32-.24,1.93-.1.95.2,1.67,1.59,2.19,2.33,1.29,1.83,2.43,3.77,3.4,5.79,1.98,4.11,3.27,8.54,4.1,13.02.83,4.47,1.17,9.03,1.22,13.58s-.12,9.54-1.21,14.17c-.53,2.28-1.29,4.5-2.37,6.58-.48.93-1.04,2.23-1.95,2.82s-2.13.28-3.09.05c-5.27-1.25-10.48-2.75-15.73-4.08-5.25-1.33-10.54-2.56-15.91-3.31-5.39-.76-10.73-.87-16.14-.33-5.36.54-10.69,1.45-16.09,1.63-5.15.17-10.29-.35-15.38-1.1-10.25-1.51-20.54-3.9-30.97-3.24-.82.05-2.29.43-3.01-.11-.35-.25-.42-.78-.51-1.17-.16-.72-.31-1.44-.47-2.16-.59-2.7-1.18-5.41-1.77-8.11-1.19-5.45-2.38-10.91-3.58-16.36-.58-2.66-1.16-5.32-1.75-7.99-.28-1.29-2.26-.74-1.97.54,2.45,11.21,4.9,22.41,7.35,33.62.24,1.11.41,2.35,1.32,3.13s2.09.82,3.22.74c2.63-.19,5.25-.25,7.89-.13,5.31.24,10.56,1.07,15.8,1.94,5.31.88,10.63,1.79,15.99,2.23,5.44.44,10.8.15,16.21-.51,5.48-.66,10.95-1.46,16.48-1.27,5.53.19,11,1.19,16.38,2.4s10.79,2.68,16.17,4.09c1.37.36,2.73.71,4.1,1.06,1.21.31,2.43.66,3.68.77s2.43-.18,3.37-1c.89-.77,1.48-1.92,2.02-2.94,2.32-4.36,3.31-9.26,3.72-14.15s.34-9.67-.06-14.46c-.77-9.28-3.1-18.69-8.45-26.44-.66-.95-1.34-2.03-2.2-2.81-1.03-.93-2.23-.97-3.54-.82-2.86.32-5.73.64-8.59.96-5.64.63-11.28,1.26-16.92,1.89-5.61.63-11.21,1.26-16.84,1.73-5.65.47-11.31.7-16.98.74-5.7.05-11.39-.03-17.09,0s-11.32.2-16.98.47c-2.78.13-5.57.3-8.35.49-1.31.09-1.32,2.14,0,2.05h0Z"/>
  </g>
  <g>
    <path class="cls-4" d="M381.96,230.72c6.54,3.29,13.12,6.58,20.04,8.97,26.98,9.29,56.56,4.06,84.53-1.58,4.54-.92,9.6-2.2,11.96-6.18,1.59-2.68,1.56-5.98,1.82-9.09.72-8.68,4.07-17.15,3.46-25.84-.38-5.38-2.28-10.66-1.77-16.03.35-3.72,1.79-7.77-.12-10.97-11.22.51-22.4,1.96-33.38,4.34-4.58.99-9.15,2.15-13.81,2.64-5.93.63-11.95.17-17.86.98-10.6,1.45-20.57,6.92-31.26,6.77"/>
    <path class="cls-3" d="M381.45,231.6c5.79,2.91,11.61,5.82,17.68,8.12,5.78,2.2,11.79,3.75,17.9,4.71,12.31,1.94,24.85,1.59,37.2.16,6.24-.72,12.45-1.7,18.64-2.82,3.11-.56,6.22-1.16,9.32-1.77,2.75-.54,5.54-1.01,8.25-1.76,2.37-.66,4.69-1.58,6.63-3.14,2.09-1.68,3.28-4.08,3.74-6.69.52-2.94.49-5.96.94-8.92.49-3.16,1.2-6.28,1.82-9.41s1.13-6.13,1.28-9.24-.26-6.38-.82-9.54-1.19-6.24-1.04-9.42c.13-2.84,1.04-5.61.9-8.47-.07-1.39-.4-2.72-1.1-3.93-.17-.3-.53-.52-.88-.51-6.57.3-13.13.93-19.64,1.86-6.49.93-12.88,2.29-19.28,3.69-3.16.69-6.34,1.3-9.58,1.56s-6.6.25-9.9.36c-3.19.1-6.36.36-9.49.96s-5.93,1.42-8.85,2.3c-6.38,1.92-12.83,4.08-19.58,4.01-1.32-.01-1.32,2.03,0,2.05,6.04.06,11.88-1.59,17.61-3.33,2.92-.88,5.84-1.79,8.81-2.5,3-.72,6.03-1.17,9.11-1.34,3.3-.19,6.6-.16,9.9-.32,3.28-.15,6.52-.58,9.74-1.21,3.15-.62,6.27-1.38,9.42-2.04,3.25-.68,6.52-1.28,9.8-1.8,7.26-1.15,14.58-1.87,21.91-2.21l-.88-.51c1.36,2.36.76,5.22.35,7.76-.23,1.46-.44,2.92-.45,4.39-.01,1.57.15,3.12.37,4.67.43,3.04,1.16,6.03,1.44,9.09s.06,6.08-.4,9.08c-.94,6.14-2.65,12.13-3.09,18.35-.18,2.64-.28,5.47-1.74,7.77-1.19,1.88-3.19,3.09-5.23,3.88-2.35.91-4.84,1.38-7.31,1.87-3.02.61-6.04,1.2-9.07,1.77-6,1.13-12.01,2.16-18.06,2.96-12.03,1.58-24.27,2.28-36.36.88-5.96-.69-11.87-1.92-17.58-3.76-5.96-1.92-11.65-4.55-17.25-7.32-1.38-.68-2.76-1.38-4.14-2.07-1.17-.59-2.21,1.18-1.03,1.77h0Z"/>
  </g>
  <g>
    <path class="cls-1" d="M428.7,173.91c-4.89,3.71-10.01,7.1-15.34,10.15"/>
    <path class="cls-3" d="M428.19,173.02c-4.89,3.71-10.02,7.1-15.34,10.15-1.14.66-.11,2.43,1.03,1.77,5.32-3.05,10.45-6.45,15.34-10.15.44-.33.67-.88.37-1.4-.25-.43-.96-.7-1.4-.37h0Z"/>
  </g>
  <g>
    <g>
      <path class="cls-1" d="M301.93,114.46c10.51,3.8,21.06,7.61,32.97,10.4,7.15,1.67,14.81,2.98,21.04,5.31,13.03,4.89,18.56,13.76,23.09,22.49-23.6-3.8-56,1.11-81.46,12.35"/>
      <path class="cls-3" d="M301.65,115.45c5.97,2.16,11.95,4.32,18.01,6.24s12.71,3.7,19.19,5.11c6.13,1.33,12.41,2.5,18.22,4.92,4.8,2,9.15,4.96,12.69,8.78,3.09,3.33,5.48,7.21,7.61,11.21.26.49.52.98.78,1.47l1.16-1.5c-10.27-1.64-20.77-1.61-31.1-.64-11.3,1.07-22.5,3.27-33.37,6.54-6.05,1.82-12,3.99-17.78,6.54-.51.22-.62.96-.37,1.4.31.52.89.59,1.4.37,10.17-4.48,20.88-7.74,31.75-10.01,10.66-2.22,21.56-3.5,32.46-3.47,5.51.01,11.03.36,16.47,1.23.88.14,1.59-.66,1.16-1.5-2.13-4.1-4.46-8.11-7.43-11.66-3.35-4-7.52-7.25-12.19-9.55-5.7-2.8-11.94-4.18-18.11-5.52-6.55-1.42-13.04-2.96-19.45-4.92-6.16-1.88-12.24-4.03-18.3-6.22-.74-.27-1.49-.54-2.23-.81-.52-.19-1.12.21-1.26.72-.16.57.19,1.07.72,1.26h0Z"/>
    </g>
    <g>
      <path class="cls-6" d="M137.41,163.45c9.2,3.82,14.15,11.41,17.2,20.89,4.58,14.2-4.31,33.38-11.26,37.58-11.16,6.76,36.05-26.22,36.05-26.22l-5.22-31.13-52.54-1.64,15.77.51Z"/>
      <path class="cls-3" d="M141.66,223.86c-.41,0-.72-.23-.88-.47-.08-.12-.43-.73.19-1.39.09-.09.2-.2.37-.34.27-.23.66-.55,1.2-.96.83-.64,2.02-1.53,3.53-2.63,2.35-2.82,4.65-6.99,6.27-11.54,3.81-10.73,2.45-18.31,1.3-21.88-3.37-10.45-8.6-16.87-16.45-20.19l-15.58-.51.07-2.05h0s53.37,1.66,53.37,1.66l5.47,32.6-.53.37c-10.49,7.33-24.94,17.52-32.5,23.03-1.19,1.4-2.41,2.5-3.6,3.22-.58.35-1.01.6-1.32.76-.18.09-.31.16-.42.2-.17.07-.33.1-.48.1ZM141.9,164.59c2.76,1.71,5.15,3.87,7.23,6.55,2.65,3.41,4.77,7.63,6.47,12.88,2.87,8.89.41,18.35-1.32,23.2-.93,2.63-2.07,5.12-3.33,7.33,2.5-1.8,5.47-3.91,8.86-6.31,8.11-5.75,16.34-11.51,18.48-13l-4.98-29.67-31.41-.98Z"/>
    </g>
    <g>
      <path class="cls-1" d="M285.9,118.16c11.37-66.57,24.72-93.19,55.98-108.39-7.61-1.25-24.49-4.3-43.48-3.57-34.96,1.35-52.18,4.71-79.58,26.46-13.53,10.74-24.21,24.56-34.75,38.24l-21.16,37.3,47.76,32.24s77.81-24.01,78.34-27.03c.53-3.02-3.11,4.74-3.11,4.74Z"/>
      <path class="cls-3" d="M286.89,118.44c1.98-11.57,4.19-23.11,6.97-34.52,2.21-9.04,4.78-18.02,8.13-26.71,2.67-6.95,5.88-13.72,9.93-19.99,3.51-5.44,7.68-10.43,12.51-14.75s10.08-7.75,15.72-10.68c.74-.39,1.49-.76,2.25-1.13s.62-1.73-.24-1.87c-7.73-1.27-15.47-2.45-23.28-3.09-10.56-.87-21.1-.63-31.66.05-8.23.53-16.49,1.36-24.55,3.17-7.33,1.64-14.43,4.16-21.14,7.54-7.8,3.93-15.02,8.93-21.9,14.29-8.43,6.57-15.85,14.2-22.72,22.36-3.49,4.14-6.84,8.4-10.16,12.68-1.38,1.78-2.92,3.48-4.04,5.45-2.02,3.56-4.04,7.12-6.06,10.68-2.89,5.09-5.78,10.19-8.67,15.28-1.89,3.33-3.78,6.66-5.67,10l-.29.51c-.29.5-.1,1.09.37,1.4,2.57,1.74,5.14,3.47,7.71,5.21,5.56,3.75,11.12,7.51,16.68,11.26,5.51,3.72,11.02,7.44,16.53,11.16,1.73,1.16,3.45,2.33,5.18,3.49.66.44,1.6,1.38,2.46,1.22.68-.13,1.37-.42,2.03-.63,1.68-.52,3.36-1.04,5.03-1.57,5.51-1.72,11.02-3.46,16.52-5.22,6.88-2.19,13.75-4.41,20.6-6.68,6.48-2.14,12.95-4.32,19.38-6.61,4.3-1.53,8.67-3.03,12.8-4.99.83-.39,2.05-.86,2.54-1.71.58-1-.03-2.95-1.45-2.18-.98.53-1.58,2.16-2.05,3.09s-.9,1.79-1.33,2.7c-.56,1.19,1.21,2.23,1.77,1.03s1.15-2.4,1.79-3.57c.18-.34.37-.67.57-1,.09-.14.17-.28.26-.41.04-.05.14-.08.13-.15.07.35-1.35-.58-.81-.29l-.69-.37s0,.09,0,.13c.09.09-.14.01-.02.15-.04-.05.15-.26.16-.28-.02.04-.12.14-.16.15-.17.04.21-.15.07-.05-.05.03-.1.07-.15.1-.25.15-.49.3-.75.44-.74.39-1.5.73-2.27,1.07-.1.05-.21.09-.31.14-.26.11.01,0-.21.09-.28.12-.55.23-.83.34-.58.24-1.16.47-1.74.69-1.35.53-2.71,1.04-4.08,1.54-3.37,1.24-6.76,2.43-10.16,3.6-8.01,2.76-16.06,5.4-24.13,8.01-7.31,2.36-14.63,4.69-21.95,7-2.47.78-4.95,1.55-7.43,2.32-1.14.35-2.46.59-3.54,1.1-.05.02-.11.03-.16.05l.79.1c-5.41-3.65-10.81-7.3-16.22-10.95-8.55-5.77-17.1-11.54-25.65-17.32-1.96-1.33-3.93-2.65-5.89-3.98l.37,1.4c1.33-2.35,2.66-4.69,3.99-7.04,2.8-4.93,5.59-9.86,8.39-14.79,2.41-4.25,4.82-8.51,7.24-12.76.5-.88.96-1.79,1.5-2.64.9-1.41,2.07-2.7,3.09-4.02,1.63-2.1,3.26-4.19,4.91-6.27,6.59-8.28,13.52-16.34,21.42-23.42,6.96-6.24,14.65-11.87,22.72-16.58,6.51-3.8,13.42-6.86,20.68-8.94,7.47-2.14,15.18-3.29,22.91-3.98,10.01-.91,20.14-1.43,30.19-1.04,8.96.35,17.87,1.4,26.71,2.84,1.36.22,2.71.45,4.06.67l-.24-1.87c-5.89,2.87-11.49,6.34-16.53,10.54-5.02,4.18-9.4,9.07-13.12,14.43-4.23,6.09-7.58,12.74-10.41,19.58-3.47,8.41-6.14,17.15-8.41,25.95-2.88,11.13-5.14,22.41-7.14,33.72-.28,1.59-.56,3.19-.83,4.78-.22,1.29,1.75,1.84,1.97.54Z"/>
    </g>
    <g>
      <path class="cls-1" d="M250.53,100.97c-18.93-52.03-20.23-76.41-4.14-99.93-5.93,2.2-19.19,6.88-32.42,15.12-24.35,15.15-35.25,24.54-45.93,51.16-5.27,13.14-7.27,27.32-9.22,41.35l.08,35.16,47.1,3.57s45.67-48.69,44.82-51.06c-.85-2.37-.29,4.64-.29,4.64Z"/>
      <path class="cls-3" d="M251.51,100.7c-3.29-9.05-6.4-18.17-9.05-27.42-2.09-7.31-3.89-14.72-5.04-22.24-.92-6.05-1.39-12.2-1.05-18.31.29-5.26,1.23-10.47,2.9-15.47s4.01-9.59,6.83-13.95c.38-.59.76-1.17,1.16-1.74.49-.71-.33-1.81-1.16-1.5-6.25,2.32-12.46,4.72-18.5,7.56-7.82,3.68-15.19,8.15-22.39,12.92-5.34,3.53-10.57,7.28-15.34,11.56-4.37,3.93-8.28,8.34-11.62,13.17-3.77,5.46-6.79,11.39-9.42,17.47-1.73,4.01-3.31,8.08-4.58,12.26-1.34,4.42-2.4,8.93-3.29,13.46s-1.62,9.23-2.3,13.86c-.17,1.17-.34,2.34-.5,3.51-.13.94-.34,1.9-.39,2.84-.01.2,0,.4,0,.6l.02,9.86.03,14.57.02,9.64v.48c0,.58.47.98,1.03,1.02,2.52.19,5.03.38,7.55.57,5.5.42,11.01.83,16.51,1.25s10.87.82,16.3,1.24c1.71.13,3.41.26,5.12.39.72.05,1.75.33,2.35-.18.43-.37.8-.85,1.18-1.26.99-1.06,1.98-2.12,2.96-3.18,3.23-3.47,6.45-6.95,9.66-10.44,4.03-4.38,8.04-8.77,12.02-13.19,3.73-4.14,7.44-8.3,11.07-12.53,2.44-2.84,4.95-5.69,7.1-8.77.45-.65,1.12-1.49,1.12-2.33,0-1.12-1.49-2.35-2.27-1.04-.5.84-.27,2.27-.23,3.19.03.81.08,1.61.15,2.41.1,1.31,2.15,1.32,2.05,0-.09-1.07-.15-2.14-.17-3.21,0-.31-.01-.63,0-.94,0-.14.01-.27.02-.41,0-.06,0-.13.02-.19-.03.23-.03.05,0,.04.22-.05-.92-.18-.06.14-.13-.05-1.57.07-1.58.08-.05.08.06.04.05.12.02-.13,0-.24,0-.38,0,.05-.03.12-.05.17-.02.08.14-.25-.01.02-.11.2-.22.4-.34.59-.36.58-.77,1.14-1.18,1.68-.12.16-.24.32-.36.48-.03.04-.06.08-.09.12-.15.2.1-.12,0,0-.08.1-.16.21-.24.31-.32.41-.65.82-.98,1.23-.75.92-1.5,1.83-2.27,2.74-1.89,2.24-3.81,4.46-5.74,6.66-4.6,5.24-9.28,10.41-13.98,15.56-4.25,4.65-8.52,9.29-12.8,13.9-1.44,1.56-2.89,3.11-4.34,4.66-.68.73-1.49,1.43-2.09,2.23-.03.04-.06.07-.09.1l.72-.3c-5.34-.4-10.68-.81-16.02-1.21-8.44-.64-16.88-1.28-25.31-1.92-1.92-.15-3.84-.29-5.77-.44l1.02,1.02c0-2.26,0-4.52-.01-6.78l-.03-14.15c0-3.99-.02-7.97-.03-11.96,0-.75-.05-1.51,0-2.26.12-1.84.52-3.72.78-5.55.33-2.3.68-4.59,1.05-6.88,1.47-9.08,3.38-18.13,6.62-26.76,2.49-6.63,5.5-13.16,9.18-19.22,3.01-4.97,6.56-9.57,10.66-13.68,4.26-4.28,9.03-8.01,13.97-11.46,6.55-4.57,13.33-8.94,20.39-12.67,6.74-3.56,13.75-6.54,20.88-9.21,1.09-.41,2.19-.81,3.29-1.22l-1.16-1.5c-3.04,4.45-5.62,9.21-7.52,14.27-1.89,5.04-3.01,10.32-3.49,15.67-.54,6.04-.24,12.13.54,18.14.96,7.41,2.59,14.71,4.54,21.91,2.47,9.1,5.44,18.05,8.6,26.93.45,1.27.91,2.53,1.37,3.8s2.43.7,1.97-.54Z"/>
    </g>
    <g>
      <path class="cls-1" d="M322.16,127.58c-.5-37.58,5.81-53.49,26.88-64.98-5.79.09-18.68.13-32.62,2.45-25.66,4.28-37.93,7.86-55.28,22.54-8.56,7.24-14.61,15.89-20.57,24.44l-10.65,22.55,39.61,12.81s54.3-21.01,54.29-22.72-1.66,2.91-1.66,2.91Z"/>
      <path class="cls-3" d="M323.19,127.58c-.08-6.5,0-13.01.53-19.49.42-5.15,1.13-10.29,2.42-15.3,1.07-4.16,2.52-8.1,4.61-11.83,1.95-3.48,4.29-6.46,7.17-9.22,3.06-2.92,6.47-5.3,10.16-7.42.49-.28.99-.56,1.49-.83.89-.49.49-1.92-.52-1.91-5.14.08-10.28.18-15.41.52-7.29.47-14.5,1.43-21.69,2.69-10.66,1.86-21.38,4.07-31.25,8.65-4.55,2.11-8.85,4.72-12.92,7.66-5.18,3.74-10.09,7.89-14.41,12.6-4.65,5.08-8.68,10.68-12.62,16.32-.61.87-1.1,1.61-1.54,2.55-.55,1.17-1.11,2.34-1.66,3.51-2.77,5.87-5.55,11.75-8.32,17.62l-.18.37c-.29.61-.06,1.29.61,1.5,2.06.66,4.11,1.33,6.17,1.99,4.51,1.46,9.02,2.92,13.52,4.37,4.53,1.46,9.05,2.93,13.58,4.39,1.51.49,3.03.98,4.54,1.47.59.19,1.19.44,1.79.58.54.13,1.12-.22,1.61-.41,1.07-.42,2.15-.84,3.22-1.25,3.7-1.44,7.39-2.89,11.08-4.35,4.71-1.86,9.42-3.74,14.12-5.64,4.59-1.86,9.17-3.73,13.72-5.67,3.12-1.33,6.27-2.64,9.3-4.18.7-.36,1.54-.72,2.11-1.29.47-.46.58-1.19.24-1.77-.42-.71-1.32-.67-1.83-.11-.33.35-.52.83-.72,1.27-.34.77-.65,1.55-.93,2.34-.45,1.24,1.53,1.78,1.97.54.17-.48.36-.96.55-1.44.1-.25.08-.21.17-.41.08-.17.15-.34.24-.51.06-.13.14-.25.2-.38s.12-.08.03-.07c-.06.07-.07.08-.02.03-.16.15-.37.23-.6.24l-.52-.14-.41-.53c.02.07.02.05,0-.04-.05-.16,0-.04,0,.03,0,.19.07-.33.03-.2,0,.02.15-.32.08-.2s.2-.26.11-.15c-.03.04-.07.07-.11.1-.14.13.27-.18.03-.03-.35.22-.7.43-1.07.63-1.28.68-2.6,1.29-3.92,1.88-4.35,1.97-8.43,3.66-12.82,5.46-5.21,2.14-10.43,4.24-15.66,6.32-4.51,1.79-9.02,3.57-13.54,5.34-1.5.59-2.99,1.17-4.49,1.75-.69.27-1.45.48-2.1.82-.03.02-.06.03-.1.04h.54c-1.31-.42-2.63-.85-3.94-1.27-3.15-1.02-6.31-2.04-9.46-3.06-3.82-1.23-7.63-2.47-11.45-3.7-3.3-1.07-6.6-2.13-9.89-3.2-1.08-.35-2.16-.7-3.25-1.05-.51-.16-1.03-.39-1.55-.5-.02,0-.05-.02-.07-.02l.61,1.5c2.46-5.21,4.92-10.42,7.38-15.63,1.06-2.24,2.06-4.52,3.18-6.73.27-.54.67-1.02,1.02-1.52.93-1.34,1.87-2.67,2.82-4,1.98-2.77,4.02-5.51,6.18-8.14,4.26-5.17,9.03-9.76,14.3-13.89,4.01-3.14,8.26-6.01,12.78-8.38,9.14-4.82,19.21-7.28,29.31-9.19,6.99-1.32,14-2.47,21.09-3.1,5.81-.52,11.63-.75,17.46-.84.9-.01,1.81-.02,2.71-.04l-.52-1.91c-3.88,2.12-7.6,4.58-10.92,7.52-3.04,2.7-5.69,5.84-7.82,9.3-2.26,3.68-3.92,7.72-5.12,11.86-1.44,4.97-2.26,10.11-2.77,15.25-.64,6.36-.8,12.77-.78,19.16,0,.92.01,1.84.02,2.76.02,1.32,2.07,1.32,2.05,0Z"/>
    </g>
    <g>
      <path class="cls-1" d="M216.79,65.34c81.14,23.02,118.32,22.31,152.28-4.74-2.69,9.25-8.34,29.91-19.39,50.92-20.33,38.67-33.4,56.26-72.66,75.43-19.38,9.46-40.71,14.06-61.8,18.57l-44.4,2.09-10.62-71.17s59.91-73.09,63.6-72.06-7.02.95-7.02.95Z"/>
      <path class="cls-3" d="M216.51,66.33c14.25,4.04,28.59,7.8,43.1,10.81,11.43,2.37,22.99,4.3,34.63,5.19,9.43.72,18.94.74,28.33-.5,8.13-1.08,16.11-3.11,23.68-6.29,7.51-3.15,14.51-7.34,21-12.25.85-.65,1.7-1.3,2.53-1.97l-1.71-1c-2.6,8.94-5.28,17.83-8.55,26.55-4.41,11.75-9.94,22.92-15.98,33.9-4.5,8.18-9.24,16.25-14.71,23.83-4.84,6.71-10.31,12.95-16.48,18.48-6.66,5.97-14.07,11.05-21.8,15.53-10.28,5.96-21.04,11.06-32.31,14.88-12.48,4.23-25.35,7.17-38.22,9.95-2.23.48-4.33,1.03-6.59,1.14-2.26.11-4.52.21-6.79.32-6.77.32-13.54.64-20.31.96-4.92.23-9.84.46-14.76.7l-.77.04.99.75c-.35-2.36-.71-4.73-1.06-7.09-.85-5.67-1.69-11.35-2.54-17.02-1.02-6.83-2.04-13.65-3.06-20.48l-2.66-17.8-.88-5.87c-.13-.89-.15-1.93-.42-2.79-.01-.04-.01-.08-.02-.12l-.26,1c2.35-2.86,4.7-5.71,7.07-8.57,5.53-6.68,11.08-13.33,16.67-19.96,6.44-7.64,12.91-15.24,19.49-22.76,5.04-5.76,10.09-11.56,15.53-16.95.81-.8,1.63-1.59,2.48-2.34.15-.13.31-.27.47-.4.08-.06.15-.13.23-.19.25-.2-.09.06.08-.06.24-.17.48-.33.72-.49.29-.19.05,0,.05-.04,0-.07.37-.02,0-.02-.45,0,.21.05.15.07.2-.08-.33-1.67.24-1.52-.08-.02-.32.08-.41.1-1.64.33-3.72.25-5.5.26-.47,0-.94,0-1.4,0-1.32,0-1.32,2.04,0,2.05,1.2,0,2.39,0,3.59-.04,1.35-.04,3.34.15,4.57-.52,1.59-.88.02-2.44-1.23-2.45-.51,0-1,.27-1.41.55-1.42.94-2.66,2.2-3.87,3.39-1.98,1.95-3.88,3.97-5.76,6.01-5.29,5.73-10.41,11.61-15.51,17.51-5.7,6.61-11.35,13.27-16.96,19.96-4.69,5.59-9.37,11.19-14.02,16.82-2.2,2.66-4.57,5.26-6.63,8.04-.57.76-.25,1.7-.12,2.59l.96,6.46c1.12,7.53,2.25,15.06,3.37,22.59,1.24,8.31,2.48,16.62,3.72,24.93.74,4.99,1.49,9.98,2.23,14.97l.11.74c.06.42.58.77.99.75,3.64-.17,7.29-.34,10.93-.51l20.77-.98c4.18-.2,8.41-.23,12.58-.59,2.07-.18,4.2-.86,6.23-1.3,3.21-.69,6.41-1.4,9.61-2.13,6.52-1.5,13.01-3.11,19.42-4.99,12.16-3.57,23.79-8.31,34.98-14.27,8.34-4.44,16.4-9.44,23.77-15.35,6.52-5.23,12.41-11.19,17.61-17.74,5.59-7.03,10.42-14.63,14.9-22.4,5.97-10.35,11.63-20.92,16.28-31.93,4.22-10,7.69-20.28,10.73-30.7.47-1.62.94-3.24,1.41-4.86.31-1.07-.97-1.59-1.71-1-6.3,5-13.11,9.37-20.43,12.72-7.26,3.32-14.99,5.55-22.87,6.82-9.03,1.45-18.23,1.62-27.34,1.09-11.24-.65-22.4-2.35-33.44-4.52-13.91-2.73-27.68-6.22-41.34-10-1.95-.54-3.91-1.09-5.86-1.64-1.27-.36-1.81,1.62-.54,1.97Z"/>
    </g>
    <g>
      <path class="cls-7" d="M283.69,102.23c12.65-21.92,33.81-38.09,57.05-48.09,23.25-10,48.58-14.23,73.81-16.26-60.34-21.16-130.5-12.01-183.39,23.94l-31.07,39.39,86.61,20.15-3.02-19.13Z"/>
      <path class="cls-3" d="M284.58,102.75c9.14-15.78,22.7-28.56,38.14-38.1,17.16-10.6,36.5-17.08,56.21-20.99,11.76-2.34,23.67-3.78,35.62-4.74,1.15-.09,1.39-1.62.27-2.01-19.32-6.76-39.66-10.45-60.11-11.15-20.45-.7-41.02,1.59-60.82,6.73-19.79,5.14-38.86,13.16-56.25,23.92-2.17,1.34-4.31,2.72-6.42,4.15-.46.31-.74.5-1.06.9l-2.45,3.1c-3.24,4.1-6.47,8.21-9.71,12.31-6.1,7.73-12.19,15.45-18.29,23.18l-.35.44c-.45.56-.37,1.52.45,1.71,2.87.67,5.75,1.34,8.62,2.01,6.9,1.61,13.8,3.21,20.71,4.82,8.31,1.93,16.63,3.87,24.94,5.8l21.66,5.04c2.37.55,4.75,1.1,7.12,1.66,1.13.26,2.27.61,3.41.79.05,0,.1.02.15.03.82.19,1.38-.49,1.26-1.26-.88-5.58-1.76-11.16-2.64-16.75-.13-.79-.25-1.59-.38-2.38-.2-1.3-2.18-.75-1.97.54.88,5.58,1.76,11.16,2.64,16.75.13.79.25,1.59.38,2.38.42-.42.84-.84,1.26-1.26-2.87-.67-5.75-1.34-8.62-2.01-6.9-1.61-13.8-3.21-20.71-4.82l-24.94-5.8c-7.22-1.68-14.44-3.36-21.66-5.04-2.37-.55-4.75-1.1-7.12-1.66-1.08-.25-2.31-.74-3.41-.79-.05,0-.1-.02-.15-.03l.45,1.71c5.2-6.59,10.4-13.19,15.6-19.78,3.55-4.5,7.09-8.99,10.64-13.49l3.49-4.42c.45-.57.89-1.25,1.42-1.74.9-.82,2.17-1.45,3.19-2.11s2.14-1.38,3.23-2.05c2.16-1.34,4.35-2.64,6.57-3.9,4.42-2.51,8.95-4.86,13.55-7.03,9.23-4.35,18.8-7.99,28.58-10.91,19.44-5.81,39.71-8.79,60-8.84,20.33-.04,40.67,2.88,60.11,8.86,2.38.73,4.74,1.51,7.09,2.34l.27-2.01c-21.59,1.74-43.23,5.04-63.73,12.26-17.85,6.29-34.74,15.63-48.66,28.55-7.57,7.03-14.18,15.1-19.36,24.05-.66,1.14,1.11,2.18,1.77,1.03Z"/>
    </g>
    <g>
      <path class="cls-7" d="M240.25,92.68c56.92,39.52,86,48.87,119.6,36.91-4.56,6.47-14.45,21.02-28.64,34.4-26.11,24.63-40.95,34.82-76.57,39.25-17.58,2.19-35.38.07-52.97-2.04l-42.52-11.32,10.72-58.14s73.5-39.72,76.1-37.93c2.6,1.78-5.71-1.13-5.71-1.13Z"/>
      <path class="cls-3" d="M239.74,93.57c9.96,6.91,20.07,13.63,30.49,19.82,8.29,4.92,16.8,9.52,25.66,13.32,7.12,3.05,14.47,5.62,22.08,7.16,6.61,1.34,13.37,1.89,20.11,1.45,6.68-.44,13.27-1.83,19.62-3.91.81-.27,1.62-.54,2.42-.83l-1.16-1.5c-4.47,6.35-9,12.64-13.96,18.63-6.71,8.09-14.16,15.41-21.96,22.45-11.58,10.46-24,20.03-38.8,25.43-7.94,2.9-16.24,4.7-24.59,5.95-11.58,1.74-23.17,1.91-34.84,1.06-5.9-.43-11.79-1.07-17.67-1.76-2.15-.25-4.31-.38-6.4-.93-4.12-1.1-8.25-2.19-12.37-3.29-9.47-2.52-18.94-5.04-28.41-7.56l-.54-.15.72,1.26c1.21-6.58,2.43-13.17,3.64-19.75,1.92-10.41,3.84-20.81,5.75-31.22.44-2.39.88-4.78,1.32-7.17l-.47.61c2.84-1.53,5.69-3.06,8.53-4.58,6.69-3.57,13.38-7.13,20.1-10.65,7.75-4.06,15.51-8.09,23.32-12.03,6.1-3.07,12.22-6.17,18.5-8.87,1.35-.58,3.02-1.27,4.61-1.69.29-.08.08-.03.07-.02.05-.02.19-.02.24,0-.14-.04-.18-.07-.33-.09.03,0,.16.12.16.12-.07.06.14-.2-.04-.06.1-.08.51-1.61.68-1.38-.03-.05-.4-.06-.63-.11-.42-.1-.83-.21-1.25-.33-.86-.25-1.72-.52-2.57-.81-.42-.14-.84-.28-1.26-.43-1.25-.44-1.78,1.54-.54,1.97,1,.35,2.01.68,3.02.99s2.62,1.04,3.69.69c1.53-.5.55-2.26-.55-2.57-.45-.13-.96-.01-1.4.09-1.37.32-2.7.92-4,1.46-2.23.94-4.42,1.95-6.61,2.98-5.93,2.8-11.79,5.75-17.63,8.73-6.69,3.41-13.34,6.87-19.99,10.36-5.75,3.02-11.49,6.06-17.22,9.12-3.13,1.67-6.26,3.35-9.38,5.03-.59.32-.97.62-1.1,1.31l-.8,4.34c-1.12,6.09-2.24,12.17-3.37,18.26-1.31,7.11-2.62,14.23-3.93,21.34-.81,4.39-1.62,8.77-2.43,13.16l-.12.65c-.1.54.14,1.11.72,1.26,8.4,2.24,16.81,4.47,25.21,6.71,4.82,1.28,9.64,2.56,14.46,3.85.93.25,1.87.55,2.81.75,2.14.44,4.41.54,6.58.79,3.01.35,6.01.68,9.03.98,11.99,1.19,24.11,1.82,36.12.49,9.07-1,18.17-2.6,26.9-5.28,7.2-2.21,14.13-5.25,20.59-9.13,6.81-4.08,13.09-9,19.1-14.18,7.73-6.67,15.27-13.65,22.08-21.26,5.96-6.66,11.4-13.75,16.55-21.04.81-1.15,1.62-2.31,2.43-3.46.5-.72-.34-1.8-1.16-1.5-6.21,2.2-12.64,3.82-19.2,4.47-6.54.65-13.15.36-19.62-.76-7.4-1.29-14.6-3.59-21.55-6.42-8.58-3.49-16.82-7.82-24.83-12.45-10.11-5.85-19.9-12.24-29.54-18.84-1.36-.93-2.72-1.87-4.07-2.81-1.09-.75-2.11,1.02-1.03,1.77Z"/>
    </g>
    <g>
      <path class="cls-1" d="M141.66,101.75c8.04-7.9-.04-28.57,15.77-41.27,9.43-7.57,38.72-14.08,56.38-13.26,19.41.9,59.91,12.26,70.46,29.49,14.39,23.5,56.38,57.77-10.19,131.13-41.76,46.02-141.99,31.39-147.58,26.98-5.59-4.4,3.44-6.55,0-9.83-3.44-3.28-5.26-5.43-2.27-12.02,3-6.59,13.75,1.16,18.94,0,23.74-5.29,16.88-46.46,8.54-43.15-6.03,2.39-20.08,2.47-27.39,2.33-2.58-.05-5.16,0-7.74.16-12.02.74-56.79-.43-99.59-52.42l5.28-8.63s71.07,37.99,119.41-9.52Z"/>
      <path class="cls-3" d="M174.52,241.56c-9.71,0-19.55-.55-28.6-1.61-10.24-1.2-18.3-2.94-20.06-4.33-1.68-1.32-2.42-2.67-2.24-4.12.15-1.22.92-2.22,1.61-3.1,1.24-1.6,1.32-1.94.56-2.67-1.81-1.72-3.24-3.2-3.83-5.22-.61-2.13-.2-4.58,1.33-7.96,1.01-2.22,2.9-3.33,5.61-3.29,2.18.03,4.66.78,7.05,1.49,2.6.78,5.3,1.59,6.99,1.22,5.05-1.13,11.65-4.71,14.39-15.4,1.23-4.78,1.45-10.26.64-15.44-.72-4.57-2.22-8.34-3.92-9.83-.91-.8-1.56-.68-1.97-.52-6.14,2.44-20.05,2.55-27.79,2.4-2.54-.05-5.11,0-7.65.16-3.12.19-8.22.25-14.8-.57-7.9-.99-15.93-2.98-23.87-5.93-10.18-3.78-20.16-9.12-29.65-15.88-11.37-8.1-22.18-18.33-32.13-30.41l-.46-.56,6.16-10.08.85.46s4.5,2.39,11.8,5.16c6.72,2.55,17.3,5.98,29.51,7.8,13.69,2.04,26.6,1.69,38.37-1.05,14.69-3.41,27.65-10.56,38.53-21.26l.72.73-.72-.73c3.06-3.01,3.61-8.23,4.23-14.27.45-4.32.96-9.22,2.53-13.89,1.82-5.42,4.79-9.73,9.08-13.17,4.54-3.65,13.84-7.28,25.51-9.98,11.24-2.59,23.03-3.91,31.55-3.51,10.62.49,25.87,3.9,38.86,8.69,7.52,2.77,14.03,5.87,19.37,9.21,6.1,3.82,10.49,7.89,13.06,12.08,1.81,2.95,4.08,6.11,6.49,9.46,8.42,11.71,18.91,26.28,19.91,46.07.26,5.16-.14,10.49-1.21,15.86-1.15,5.81-3.11,11.85-5.83,17.95-2.91,6.53-6.77,13.34-11.49,20.25-5,7.33-11.12,14.99-18.18,22.77-9.7,10.69-23.27,18.95-40.33,24.54-13.91,4.56-29.96,7.31-47.73,8.2-4.01.2-8.12.3-12.25.3ZM128.74,211.32c-1.68,0-2.89.57-3.58,2.08-1.32,2.9-1.7,4.92-1.23,6.54.44,1.53,1.63,2.75,3.27,4.31.98.93,1.32,1.97,1.02,3.08-.23.86-.81,1.61-1.38,2.33-1.29,1.65-2,2.56.28,4.36,1.03.81,7.62,2.56,19.03,3.9,12.79,1.5,27.18,1.96,40.51,1.3,49.82-2.48,74.62-18.81,86.64-32.07,7-7.71,13.05-15.3,18.01-22.55,4.65-6.8,8.45-13.51,11.31-19.93,2.66-5.96,4.57-11.86,5.69-17.52,1.03-5.2,1.43-10.36,1.17-15.35-.97-19.18-11.26-33.48-19.53-44.98-2.43-3.38-4.73-6.57-6.57-9.59-2.4-3.92-6.57-7.76-12.4-11.42-5.21-3.27-11.6-6.31-18.99-9.03-12.81-4.72-27.82-8.08-38.25-8.56-8.34-.39-19.93.9-30.99,3.46-11.39,2.63-20.39,6.12-24.69,9.58-8.93,7.18-9.96,17.01-10.86,25.68-.67,6.44-1.25,11.99-4.84,15.52h0c-11.16,10.97-24.46,18.31-39.54,21.8-6.89,1.6-14.16,2.4-21.73,2.4-5.65,0-11.47-.44-17.43-1.34-6.84-1.02-17.58-3.23-29.93-7.92-5.6-2.13-9.48-3.99-11.12-4.81l-4.4,7.2c9.71,11.7,20.22,21.62,31.27,29.48,9.34,6.65,19.16,11.91,29.17,15.63,7.79,2.89,15.66,4.85,23.41,5.81,6.43.8,11.39.75,14.42.56,2.6-.16,5.23-.22,7.82-.17,6.11.12,20.97.14,27-2.25,1.37-.54,2.81-.23,4.08.89,2.1,1.85,3.78,5.88,4.59,11.05.86,5.45.62,11.23-.68,16.27-1.09,4.24-2.87,7.8-5.29,10.6-2.79,3.22-6.37,5.34-10.64,6.29-2.21.49-5.04-.36-8.02-1.25-2.67-.8-4.89-1.4-6.62-1.4Z"/>
    </g>
    <path class="cls-3" d="M117.14,118.32c.24,3.15,2.29,5.87,5.28,6.91,1.64.58,3.47.69,5.19.82,1.82.13,3.64.17,5.46.11,7.33-.22,14.54-1.86,21.5-4.09,3.95-1.27,7.83-2.73,11.67-4.27.51-.21.87-.68.72-1.26-.13-.49-.74-.92-1.26-.72-6.48,2.59-13.08,4.98-19.89,6.55-6.68,1.54-13.64,2.27-20.47,1.4-1.56-.2-3.13-.6-4.3-1.71-1.04-.98-1.73-2.33-1.84-3.76-.04-.55-.44-1.02-1.02-1.02-.52,0-1.07.47-1.02,1.02h0Z"/>
    <path class="cls-2" d="M148,209.23c-.13.02-.26.04-.4.06.21-.03.2-.03-.05,0-.2.02-.4.04-.6.06-.46.04-.93.08-1.4.1-.87.04-1.73.04-2.6.01-1.84-.06-3.68-.24-5.51-.47-3.65-.45-7.29-.96-10.94-1.44l1.03,3.82c.47-.28-.37.21.08-.06l.15-.04c-.29.03-.31.03-.08.02.13,0,.27.01.4.01.24,0-.36-.08.03,0,.62.15,1.21.34,1.82.54,1.37.44,2.76.79,4.18,1.06,2.92.54,5.88.75,8.84.56l-.54-4.02c-.14.05-.29.09-.44.13-.18.04-.38.07-.08.03-.3.03-.61.04-.91.03-.34,0-.67-.05-1.01-.08s.48.08-.1-.02c-.15-.03-.31-.05-.46-.07-1.32-.22-2.64-.47-3.95-.75-2.62-.56-5.22-1.24-7.78-2.04-1.02-.32-2.28.38-2.52,1.43-.27,1.18.36,2.09,1.43,2.52,1.58.63,3.17,1.27,4.75,1.9.82.33,1.65.66,2.47.99.73.29,1.47.67,2.24.84,1.02.22,1.96.07,2.93-.26.35-.12.7-.23,1.06-.31.14-.03.56-.08.19-.04.22-.02.43-.04.65-.04.19,0,.37,0,.56.01.09,0,.18.01.28.02-.24-.04-.24-.04,0,0,.31.06.61.14.92.2,1.3.23,2.38-.09,3.17-1.21.91-1.29-.31-3.1-1.77-3.08s-3-.01-4.5-.1c-.75-.05-1.5-.11-2.24-.18-.36-.04-.71-.08-1.07-.12-.19-.02-.39-.05-.58-.07.43.06-.2-.03-.23-.03-2.97-.43-5.91-1.1-8.78-1.98-1.57-.48-2.84,1.06-2.52,2.52.28,1.27,1.22,2.1,2.38,2.54.36-1.32.73-2.63,1.09-3.95-.41-.12-.81-.24-1.22-.35-.93-.27-1.8.2-2.31.94.08-.15.2-.27.36-.35-.16.09-.16.09,0,.02.12-.07.25-.09.39-.08-.23,0-.18.01.14.04-.83-.16-1.62.05-2.15.73s-.5,1.49-.16,2.27c.37.84,1.26,1.43,2.13,1.64,1.1.26,2.16-.07,2.99-.8.48-.42.64-1.11.56-1.72-.09-.68-.44-1.1-.98-1.5-.83-.62-1.85-.89-2.87-.93-1.61-.07-2.48,1.77-1.77,3.08.46.84.93,1.68,1.37,2.53.04.07.33.76.19.35.06.17.12.35.16.53.03.12.05.24.07.35-.03-.25-.04-.25-.01,0,0,.21.03.43.04.64.12,2,.23,4,.35,6,.06,1.07.9,2.1,2.05,2.05s2.07-.9,2.05-2.05c0-.41-.01-.82-.02-1.23-.02-1.07-.93-2.1-2.05-2.05s-2.07.9-2.05,2.05c0,.41.01.82.02,1.23h4.1c-.12-2.12-.23-4.25-.37-6.37-.08-1.24-.34-2.29-.9-3.4-.46-.91-.97-1.8-1.46-2.69l-1.77,3.08c.39.02-.21-.09.03,0,.12.04.27.08.4.11-.16-.04-.23-.12-.04,0,.14.09.28.17.41.27l-.41-3.22c.15-.15.32-.24.52-.29l-.11.03c.36-.03.43-.05.21-.04.33.06.42.07.26.03-.15-.04-.08,0,.22.1-.14-.09-.13-.07.02.03.14.17.37.53.19.13-.77,1-1.54,2.01-2.31,3.01,1.52.3,2.86-.25,3.74-1.52-.77.31-1.54.63-2.31.94.41.12.81.24,1.22.35,1.03.3,2.28-.36,2.52-1.43.27-1.17-.36-2.11-1.43-2.52.17.04.31.12.42.25-.12-.13-.13-.13-.03,0,.1.14.1.13,0-.02.11.28.13.31.08.09-.84.84-1.68,1.68-2.52,2.52,5.97,1.84,12.25,2.74,18.5,2.65-.59-1.03-1.18-2.05-1.77-3.08.26-.43.59-.67,1.02-.71.19-.02.2-.03.02-.03.53.01.21.02.03-.02-.39-.09-.78-.15-1.18-.21-.9-.12-1.76-.09-2.66.04-.68.1-1.3.31-1.95.52-.17.06-.35.1-.52.14l.19-.03c-.25,0-.24,0,.02.04-.31-.05-.62-.18-.91-.29-2.88-1.14-5.75-2.3-8.63-3.45l-1.09,3.95c2.69.83,5.41,1.54,8.16,2.12,1.34.28,2.68.53,4.03.74,1.57.24,3.16.4,4.71-.1.98-.32,1.61-1.22,1.47-2.25-.13-.95-.99-1.84-2.01-1.78-1.47.09-2.94.1-4.4,0-.38-.03-.76-.06-1.15-.1-.19-.02-.38-.04-.57-.06-.04,0-.66-.09-.22-.03-.73-.11-1.45-.23-2.17-.38-1.42-.3-2.8-.71-4.18-1.16-1.58-.51-3.32-.72-4.81.18-.75.45-1.22,1.45-.94,2.31.3.94,1.03,1.38,1.97,1.5,3.71.49,7.42,1.02,11.14,1.47,3.82.46,7.62.65,11.44.06,1.06-.17,1.74-1.55,1.43-2.52-.37-1.15-1.38-1.61-2.52-1.43h0Z"/>
    <path class="cls-2" d="M125.6,208.83c-.73.01-1.46.03-2.19.04-1.04.02-2.14.92-2.05,2.05.07.88.42,1.56,1.16,2.06.11.08.23.13.35.2.03.02.16.1.19.1l-.25-.2c.47-1.94.43-2.63-.13-2.09-.17.2.33-.18.04-.04-.12.05-.23.14-.34.21-.22.14-.45.28-.67.42-.46.29-.94.56-1.39.87-1.23.85-2.16,2.12-1.74,3.69.19.72.73,1.29,1.35,1.68.13.08.26.14.4.21-.02-.01.22.13.22.13-.08.11-.5-.59-.3-.24-.04-.06-.14-.43-.08-.1-.01-.06-.02-.49-.02-.12,0,.19,0,.39,0,.58-.03.53-.1,1.06-.15,1.59-.11,1.1-.22,2.21-.33,3.31s-.21,2.14-.32,3.21c-.11,1.14-.32,2.36.09,3.47.12.32.26.64.45.93.06.09.13.18.19.27.05.07.09.14.14.21.08.14.07.09-.03-.14.06.05.02.22.07.27-.09-.07-.03-.47-.02-.06,0,.22-.01.43-.03.65-.11,1.15-.18,2.32.51,3.33.6.88,1.83,1.36,2.8.73.88-.57,1.38-1.86.73-2.8.01.02-.16-.22-.14-.23.06-.04.14.43.08.11.01.06.02.5.02.14,0-.09,0-.19,0-.28.01-.39.07-.77.1-1.16.09-1.08-.17-2.09-.79-2.98-.06-.09-.12-.18-.19-.28-.25-.37-.01.02,0,.02-.11-.08-.06-.25-.03.03-.01-.12-.02-.24-.02-.35,0-.5.07-1,.12-1.49.11-1.1.22-2.21.33-3.31s.21-2.14.32-3.21c.09-.91.28-1.87.18-2.78-.13-1.3-.71-2.38-1.89-3.02-.08-.04-.15-.08-.23-.12-.13-.06-.2-.22-.05-.01.34.45.72.96.39,1.58-.19.35-.13.14-.02.06.33-.21-.02-.05-.04.02.03-.11.62-.39.72-.45,1.1-.69,2.58-1.32,3.11-2.58.39-.92.25-2.01-.48-2.73-.2-.2-.45-.39-.7-.53-.06-.03-.13-.06-.19-.09-.7-.33.48-.3.61,1.32l-2.05,2.05,2.19-.04c1.07-.02,2.1-.93,2.05-2.05s-.9-2.07-2.05-2.05h0Z"/>
    <path class="cls-2" d="M121.21,241.01c.31.19-.33-.19-.26-.31,0,0,.13.22.13.22-.11-.27-.14-.34-.09-.19.02.06.04.13.05.19.11.35,0-.32,0-.07,0,.23,0,.47-.01.7,0,.27.08-.44.01-.07-.03.16-.05.31-.08.47-.1.64-.22,1.3-.16,1.96.09,1.01.42,1.75,1.03,2.54.66.85,2.21.74,2.9,0,.83-.9.7-1.99,0-2.9.38.49-.08-.35.18.25-.15-.34-.02.26-.02.03,0-.11-.08-.8.02-.86-.04.25-.04.3-.02.15.01-.08.02-.16.04-.24.02-.13.04-.25.06-.38.06-.39.12-.78.14-1.17.07-1.54-.51-3.03-1.85-3.87-.91-.57-2.3-.22-2.8.73-.53,1.01-.24,2.2.73,2.8h0Z"/>
    <path class="cls-2" d="M121.06,256.1c.51,2.6.28,5.31-.59,7.88-.26.76.3,1.71,1.07,1.89.85.19,1.61-.26,1.89-1.07,1.04-3.07,1.2-6.34.59-9.51-.16-.81-1.13-1.28-1.89-1.07-.85.23-1.23,1.07-1.07,1.89h0Z"/>
    <path class="cls-2" d="M121.66,212.68l-1.34,1.06c1.17.48,2.33.97,3.5,1.45,0-.08.05-.63-.02-.15.03-.17.08-.34.12-.51.09-.4-.17.23.05-.16.09-.15.17-.3.27-.45-1.25-.53-2.5-1.05-3.74-1.58-.34,1.78-.28,3.61.38,5.32l1.43-2.52-1.08.17c.84.84,1.68,1.68,2.52,2.52.38-1.42.72-2.87,1.16-4.27.03-.11.07-.22.11-.32.02-.07.05-.13.07-.19.06-.14.03-.09-.07.17-.05-.12.3-.53.36-.65.1-.21-.3.29-.04.06.04-.05.09-.09.13-.13.12-.1.06-.06-.18.13.05-.03.1-.06.15-.09.14-.07.07-.04-.22.09.36-.13-.48.01-.06,0l-2.05-2.05c-.14,1.22.89,2.43,2.04,2.72.6.15,1.22.13,1.81-.03.34-.09.66-.26,1.01-.36.17-.05.35-.08.52-.12-.42.12.04,0,.16,0,.36-.02.71,0,1.07.03.48.03-.26-.07.17.03.18.04.36.07.53.11.41.1.82.22,1.22.35l1.09-3.95c-2.26-.32-4.54-.55-6.82-.65-.71-.03-1.42.41-1.77,1.01-.4.69-.3,1.38,0,2.07.69,1.58,2.64,2.21,4.24,2.05.48-.05.96-.12,1.44-.21.44-.08-.32,0,.17-.02.13,0,.27-.02.4-.02.15,0,.29.02.44.02.16.02.1,0-.18-.03.07.01.15.02.22.04.29.06.58.13.86.22,1.13.36,2.2.9,3.32,1.28,1.34.45,2.8.59,4.17.19,1.62-.48,2.09-2.9.49-3.74-1.54-.81-3.22-1.03-4.91-.62-.84.2-1.54,1.1-1.5,1.97s.6,1.84,1.5,1.97c2.69.4,5.33.35,7.99-.23.99-.22,1.6-1.29,1.47-2.25-.14-1.05-.98-1.69-2.01-1.78-1.25-.1-2.51-.2-3.76-.3v4.1c1.04-.05,2.09-.06,3.13-.01.5.02,1.01.05,1.51.1.27.02.54.05.8.08.07,0,.86.11.46.05v-3.95l-1.52.43,1.09,3.95c1.73-.5,3.46-.99,5.18-1.52.91-.28,1.83-.68,2.47-1.4.78-.88,1.22-2.22.78-3.36-.47-1.23-1.77-1.93-3.01-1.22-.3.17-.59.33-.9.47-.14.07-.28.13-.42.19.39-.18-.16.06-.2.08-.64.24-1.29.43-1.95.59.77,1,1.54,2.01,2.31,3.01.19-.32-.2.21-.03.03s-.4.24-.02.04c-.11.06-.35.12-.1.07-.47.11-.19.03,0,.06l-1.45-3.5c-.2.21-.42.39-.64.58-.18.16.3-.2-.02.01-.13.09-.26.18-.39.26-.22.14-.46.25-.69.38-.46.24.4-.13-.09.04-.12.05-.25.09-.37.13-.25.08-.5.15-.76.21-.13.03-.26.05-.39.08-.51.1.44-.02-.08,0-.58.03-1.15.03-1.73-.04-1.07-.14-2.09,1.04-2.05,2.05.06,1.23.91,1.9,2.05,2.05,2.92.39,6-.77,8.05-2.86.58-.59.74-1.48.42-2.24-.34-.81-1.03-1.16-1.87-1.26-1.36-.15-2.74.68-3.4,1.84-.91,1.59.59,3.41,2.31,3.01,1.55-.36,3.06-.96,4.44-1.74l-3.01-1.22c.06.18.07.18.04,0-.03-.13-.02-.26.03-.39-.09.37.13-.23.01-.01-.11.2.26-.26-.01-.02.41-.36-.05.07-.12.03.08.05.34-.12-.03,0-.13.04-.26.08-.39.12-.34.1-.67.2-1.01.3-1.36.4-2.73.8-4.09,1.2-1.03.3-1.77,1.46-1.43,2.52s1.41,1.74,2.52,1.43c.51-.14,1.02-.29,1.52-.43.83-.24,1.54-1.08,1.5-1.97-.04-.82-.6-1.85-1.5-1.97-2.33-.32-4.65-.47-7-.36-1.07.05-2.1.91-2.05,2.05s.9,1.96,2.05,2.05c1.25.1,2.51.2,3.76.3l-.54-4.02c-.25.06-.5.11-.76.15-.16.03-.32.05-.48.08-.33.06.3-.03-.03,0-.54.06-1.09.11-1.64.13-.51.02-1.03.01-1.54-.01-.29-.01-.58-.04-.87-.06-.13-.01-.26-.03-.38-.04-.35-.03.48.07-.12-.02v3.95c.07-.02.27-.1.34-.07-.1-.04-.32.02-.03.01.11,0,.23,0,.34,0,.06,0,.54.03.24,0-.26-.02.1.02.15.03.11.02.22.05.33.09.04.01.39.12.16.04-.25-.09.21.11.22.11l.49-3.74c-.05.01-.39.07-.42.11.08-.08.46-.04.05-.01-.25.01-.52-.05-.77-.02.2-.02.37.06.05,0-.12-.02-.23-.05-.35-.08-.24-.06-.47-.14-.7-.22-1.03-.36-2.01-.84-3.04-1.19-1.31-.43-2.61-.51-3.97-.31-.15.02-.3.05-.45.07-.06.01-.65.08-.17.04-.24.02-.59-.05-.82.02.14-.04.42.02.06-.02-.15-.05-.09-.02.16.09l-.12-.06c-.15-.1-.16-.09-.02,0,.13.11.13.11,0-.01.19.23.15.22.03-.04l-1.77,3.08c1.02.04,2.03.11,3.05.2.49.04.98.09,1.47.15.26.03.52.06.78.09.25.03.26.03.04,0,.13.02.26.04.39.05.57.08,1.06.1,1.58-.21.42-.25.83-.74.94-1.22.26-1.13-.34-2.16-1.43-2.52-1.25-.41-2.59-.71-3.91-.67-.68.02-1.38.11-2.03.31-.28.09-.55.22-.84.31-.08.03-.17.05-.25.07h.61c.47.12.96.74.9,1.21.13-1.09-1.04-2.06-2.05-2.05-2.04.03-3.27,1.55-3.97,3.29-.63,1.56-.95,3.29-1.39,4.92-.19.71,0,1.47.53,1.99.56.56,1.25.64,1.99.53.36-.06.72-.11,1.08-.17,1.02-.16,1.8-1.57,1.43-2.52-.12-.31-.22-.62-.3-.94-.04-.15-.06-.29-.1-.44-.12-.56.01.4-.02-.17-.02-.3-.04-.6-.03-.9,0-.18.02-.36.04-.54-.03.37,0,0,.04-.16.19-1.01-.2-2-1.19-2.42s-1.99-.02-2.56.84c-.65.99-.97,2.16-.97,3.34,0,.82.52,1.56,1.26,1.87.82.35,1.57.1,2.24-.42l1.34-1.06c.84-.67.75-2.21,0-2.9-.9-.82-2-.71-2.9,0h0Z"/>
    <path class="cls-2" d="M133.61,213.96c.15.47.27.94.34,1.43-.07-.46,0,.19.01.28.01.21.02.43.01.64,0,.25-.02.49-.04.74-.03.24-.03.24,0,0-.02.12-.04.24-.07.36-.08.4-.22.79-.3,1.19-.29,1.48.39,2.65,1.66,3.38.3.17-.21-.2-.27-.32-.12-.33-.15-.39-.09-.18-.07-.21-.07-.43,0-.64-.06.21-.03.15.1-.17-.11.18-.06.14.13-.14-.15.15-.1.11.16-.12.33-.12.38-.15.17-.1-1.06.19-1.75,1.53-1.43,2.52.37,1.13,1.39,1.64,2.52,1.43,1.41-.26,2.31-1.65,2.4-2.99.04-.6-.14-1.27-.47-1.77-.27-.41-.56-.67-.96-.95-.07-.05-.15-.1-.23-.15-.14-.09-.29-.27.03.06-.33-.34.31.83.31.84,0,.16-.07.31.01.06.08-.25.15-.52.21-.78.14-.66.23-1.33.27-2,.06-1.25-.13-2.53-.51-3.72-.33-1.02-1.44-1.78-2.52-1.43-1.02.33-1.78,1.43-1.43,2.52h0Z"/>
    <path class="cls-2" d="M140.72,214.13c.12.2.22.41.32.62-.2-.43.07.24.1.33.07.22.11.45.16.68.04.24.04.23,0-.03.01.12.02.23.02.35.06,1.07.9,2.1,2.05,2.05,1.06-.05,2.11-.9,2.05-2.05-.08-1.43-.45-2.77-1.16-4.01-.53-.93-1.88-1.33-2.8-.73s-1.31,1.81-.73,2.8h0Z"/>
    <path class="cls-2" d="M144.78,212.58l-.07,5.21c-.02,1.56-.15,3.16-.01,4.71.08.9.25,1.73.65,2.55.2.39.47.76.77,1.07.04.04.38.31.37.35l-.14-.2c-.22-.46-.23-.89-.03-1.29.23-.4.04-.07-.06.04-.18.2-.36.42-.52.64-.27.37-.47.84-.56,1.29-.2,1.02-.07,2.1.52,2.97s1.83,1.36,2.8.73c.88-.57,1.38-1.85.73-2.8-.14-.21-.18-.33-.05-.03-.15-.38.02.42,0-.11,0-.16,0-.1-.02.18.06-.18.06-.19,0-.03-.07.15-.06.15.03-.01-.16.2-.19.24-.09.13.83-.75,1.37-1.9,1.09-3.02-.13-.52-.43-.99-.8-1.38-.1-.1-.21-.2-.32-.3-.32-.28.15.33-.05-.04-.05-.08-.1-.17-.14-.25l.09.22c-.08-.06-.1-.32-.13-.42-.03-.13-.09-.3-.09-.44-.03.55.01,0,0-.14-.08-1.53.01-3.08.03-4.6l.07-5.01c.01-1.07-.95-2.1-2.05-2.05s-2.03.9-2.05,2.05h0Z"/>
    <path class="cls-3" d="M109.09,122.82c.74,1.26,1.5,2.54,2.53,3.59.92.94,2.05,1.66,3.26,2.18,2.48,1.06,5.2,1.32,7.86,1.53.55.04,1.02-.5,1.02-1.02,0-.59-.47-.98-1.02-1.02-2.33-.18-4.74-.39-6.93-1.3-.99-.41-1.92-.99-2.68-1.76-.94-.94-1.6-2.1-2.27-3.24s-2.44-.11-1.77,1.03h0Z"/>
    <g>
      <path class="cls-8" d="M208.54,118.49c3.97-.26,7.95-.52,11.92-.78,5.44-.36,11.51-.51,15.58,3.11,3.39,3.01,4.42,7.8,5.26,12.25.68,3.59.28,8.51-.41,12.09-1.05,5.45-3.97,8.55-7.8,12.56-4.56,4.78-12.14,10.24-17.93,13.43-5.41,2.98-8.61,3.76-14.64,5.1-7.88,1.75-17.44,3.01-22.84-2.99-1.76-1.96-2.8-4.46-3.55-6.98-3.36-11.19-1.52-23.97,5.43-33.37,6.94-9.4,17.92-13.61,29.12-14.55"/>
      <path class="cls-3" d="M208.54,119.52c4.13-.27,8.26-.55,12.39-.81,3.25-.2,6.6-.34,9.78.49,1.48.39,2.89,1,4.11,1.93s2.2,2.2,2.94,3.57,1.26,2.95,1.66,4.49.78,3.21,1.01,4.83c.48,3.37.17,6.93-.41,10.27-.27,1.55-.67,3.09-1.34,4.53-.62,1.33-1.41,2.58-2.32,3.74-1.96,2.52-4.27,4.87-6.64,7.01-2.6,2.34-5.38,4.47-8.26,6.45-2.79,1.92-5.67,3.73-8.7,5.25-2.76,1.39-5.64,2.37-8.64,3.11-3.15.78-6.34,1.51-9.56,1.95-2.93.4-5.99.58-8.92.03s-5.44-1.75-7.36-3.94c-2.25-2.57-3.25-6.14-3.95-9.41-1.4-6.55-1.02-13.47,1.08-19.83s5.88-11.92,11.14-15.92c5.1-3.88,11.22-6.16,17.49-7.26,1.53-.27,3.07-.46,4.62-.6.55-.05,1.02-.44,1.02-1.02,0-.52-.47-1.07-1.02-1.02-6.73.58-13.44,2.27-19.34,5.63-6.04,3.44-10.91,8.62-13.95,14.88s-4.38,13.65-3.75,20.73c.32,3.57,1.04,7.18,2.39,10.51s3.41,6.06,6.57,7.71c5.76,3.01,12.82,1.99,18.91.73,3.22-.67,6.48-1.37,9.59-2.46,3.24-1.14,6.3-2.76,9.23-4.55,6.12-3.73,11.85-8.15,16.76-13.38,2.2-2.35,4.33-4.83,5.61-7.82,1.41-3.28,1.83-6.99,1.96-10.54s-.42-7.07-1.36-10.51c-.91-3.34-2.42-6.59-5.23-8.74-2.76-2.12-6.27-2.83-9.68-2.97-3.82-.16-7.67.26-11.48.51l-6.36.42c-.55.04-1.02.44-1.02,1.02,0,.53.47,1.06,1.02,1.02h0Z"/>
    </g>
    <g>
      <path class="cls-1" d="M265.64,83.58c16.09-3.79,32.25-7.59,48.73-8.86,23.31-1.8,47,1.56,68.89,9.78-17.02,6.91-32.29.72-48.72,12.17-14.34,9.98-23.46,30.78-33.75,44.9"/>
      <path class="cls-3" d="M265.91,84.57c7.75-1.83,15.51-3.65,23.32-5.2,7.82-1.55,15.71-2.82,23.66-3.51,7.59-.66,15.23-.77,22.84-.34s15.18,1.4,22.64,2.91c7.45,1.5,14.79,3.53,21.95,6.07.9.32,1.79.64,2.68.98v-1.97c-6.9,2.79-14.21,3.5-21.56,4.11s-14.47,1.5-21.16,4.57-11.72,7.57-16.25,12.89-8.29,11.1-11.94,16.97c-3.57,5.73-6.98,11.58-10.84,17.13-.44.63-.88,1.25-1.33,1.87-.33.45-.08,1.14.37,1.4.52.3,1.07.08,1.4-.37,3.87-5.33,7.24-11,10.69-16.6,3.57-5.79,7.19-11.6,11.44-16.93,4.2-5.27,9.04-10.07,15-13.34,6.4-3.51,13.51-4.75,20.71-5.39,7.18-.64,14.42-1.05,21.32-3.35.92-.3,1.82-.64,2.71-1,.95-.38.99-1.6,0-1.97-7.18-2.69-14.56-4.87-22.05-6.51-7.51-1.64-15.14-2.76-22.81-3.33-7.65-.57-15.34-.6-22.99-.07-8,.55-15.96,1.71-23.84,3.19-7.9,1.48-15.74,3.28-23.57,5.12-.97.23-1.94.46-2.91.68-1.28.3-.74,2.28.54,1.97h0Z"/>
    </g>
    <g>
      <path class="cls-1" d="M204.86,58.28c7.79-2.81,15.6-5.64,22.94-9.46,4.41-2.29,8.66-4.95,13.35-6.58,9.82-3.42,20.6-2.05,30.85-.33-12.87,8.28-20.7,23.82-19.68,39.1"/>
      <path class="cls-3" d="M205.14,59.27c8.83-3.19,17.59-6.48,25.85-10.99,3.95-2.15,7.88-4.37,12.23-5.62s8.82-1.61,13.3-1.49c5.11.13,10.18.88,15.22,1.72l-.24-1.87c-5.15,3.32-9.51,7.75-12.87,12.86-3.33,5.07-5.65,10.85-6.72,16.82-.61,3.39-.83,6.85-.6,10.29.04.55.45,1.02,1.02,1.02.53,0,1.06-.47,1.02-1.02-.38-5.85.53-11.71,2.56-17.21,2.01-5.45,5.13-10.51,9.11-14.74,2.24-2.38,4.76-4.49,7.5-6.26.67-.43.68-1.72-.24-1.87-9.05-1.52-18.45-2.8-27.54-.76-4.52,1.01-8.67,3.02-12.72,5.22-4.11,2.23-8.24,4.38-12.55,6.22-4.89,2.09-9.89,3.88-14.89,5.69-.52.19-.87.7-.72,1.26.14.5.74.9,1.26.72h0Z"/>
    </g>
    <g>
      <path class="cls-5" d="M24.79,107.89c-.44-2.11-1.18-4.16-2.18-6.07-.55-1.04-1.19-2.06-2.08-2.84-2.11-1.83-5.26-1.95-7.97-1.25-4.59,1.18-8.59,4.46-10.63,8.73-2.04,4.27-2.09,9.45-.13,13.76.57,1.25,1.32,2.46,2.39,3.33,1.66,1.35,3.88,1.75,6,2.11,2.77.46,5.98.82,8.08-1.06.77-.69,1.3-1.61,1.74-2.55,1.9-4.02.69-1.04,2.07-4.12.42-.94,1.91-6.34,2.59-7.1l.12-2.95Z"/>
      <path class="cls-5" d="M25.13,107.8c-.39-1.84-.99-3.63-1.8-5.33-.72-1.53-1.6-3.06-2.98-4.08-2.61-1.92-6.24-1.63-9.14-.62C4.91,99.96.44,105.81.03,112.47c-.21,3.39.57,7.17,2.61,9.95s5.55,3.36,8.78,3.79c1.56.21,3.19.31,4.72-.1s2.78-1.41,3.61-2.8c.63-1.06,1.03-2.26,1.68-3.31.16-.26.32-.51.46-.79.88-1.86,1.4-3.85,2.07-5.8.28-.82.63-1.63,1-2.36.12-.25.09-.56.1-.84l.06-1.49.04-.84c.02-.46-.7-.46-.72,0l-.12,2.95.1-.25c-.44.51-.65,1.24-.88,1.86-.35.96-.66,1.93-.97,2.9-.43,1.35-.79,2.79-1.55,3.99-.85,1.35-1.33,2.91-2.27,4.2-1.83,2.53-5.19,2.31-7.94,1.88-1.46-.23-2.94-.46-4.33-.98-1.49-.55-2.69-1.51-3.56-2.85-1.67-2.61-2.35-5.87-2.19-8.94.3-5.96,4.03-11.27,9.46-13.71,2.52-1.13,5.6-1.74,8.27-.75,1.47.54,2.54,1.62,3.34,2.94.84,1.39,1.5,2.91,2,4.46.26.79.47,1.6.64,2.41.1.45.79.26.69-.19Z"/>
    </g>
    <path class="cls-3" d="M154.3,65.58c4.99-2.48,10.49-3.9,16.04-4.23,5.6-.34,11.24.39,16.57,2.18,2.98,1,5.83,2.34,8.51,4,1.12.7,2.15-1.08,1.03-1.77-4.96-3.07-10.57-5.09-16.33-5.98-5.82-.89-11.78-.7-17.52.65-3.23.76-6.37,1.9-9.34,3.38-1.18.59-.14,2.35,1.03,1.77h0Z"/>
    <path class="cls-9" d="M11.98,102.93c.22,0,.35.08.55.11.16.02.03.1,0-.03-.05-.3-.05-.34.13-.6.02-.02.04-.03.07-.03.06,0,.03,0-.09,0,0-.04.12.03.09-.01-.15-.2-.24-.42-.33-.66l-1.26,1.26c1.13.16,2.18.02,3.2-.51.52-.27.6-.92.37-1.4-.41-.86-1.34-1.18-2.23-1.02-.54.1-.85.76-.72,1.26.16.57.71.81,1.26.72-.16.03-.18-.14-.08.08l.37-1.4c-.49.25-1.07.39-1.63.31-.69-.1-1.56.44-1.26,1.26.28.76.62,1.55,1.38,1.95.71.38,1.7.28,2.26-.31.61-.64.58-1.66-.04-2.28-.53-.53-1.32-.7-2.04-.73-1.32-.05-1.32,2,0,2.05h0Z"/>
    <path class="cls-9" d="M7.26,102.55l-.02.03.16-.21s-.08.09-.13.13l.21-.16s-.08.05-.12.07l.24-.1s-.04.01-.06.02l.27-.04s-.04,0-.06,0l.27.04h-.03c.08.03.16.06.24.09h-.03c.07.04.14.09.21.15-.02-.01-.03-.03-.05-.04l.16.21v-.03c.02.08.05.16.09.24,0-.02-.01-.04-.01-.06l.04.27v-.03c-.01.09-.02.18-.04.27,0-.03.01-.06.02-.09l-.1.24s.02-.04.03-.05l-.16.21s.03-.03.05-.05l-.21.16s.03-.02.05-.03l-.24.1s.05-.02.08-.03l-.27.04c.06,0,.12,0,.18,0l-.27-.04c.06,0,.12.02.18.04l-.45-1.71c-.14.16-.28.33-.36.52-.13.3-.19.52-.22.84l.04.27c.03.13.09.25.18.35.12.16.33.34.53.37.22.03.39.05.61,0,.12-.02.25-.07.36-.14s.2-.14.29-.23c.15-.16.22-.32.3-.53.09-.23.02-.59-.1-.79-.12-.21-.37-.42-.61-.47-.26-.06-.56-.05-.79.1l-.21.16c-.13.13-.21.28-.26.45v.03c.02-.08.06-.16.09-.24l-.02.03.16-.21s-.03.04-.05.05l.21-.16s-.04.03-.06.04l.24-.1s-.06.02-.1.03l.27-.04h-.03c.09.01.18.02.27.04h-.03c.25.32.5.65.75.98v-.04c0,.09-.02.18-.03.27.01-.1.04-.19.07-.28l-.1.24c.04-.09.09-.17.15-.25l-.16.21s.04-.04.05-.06c.25-.28.36-.63.26-1-.09-.33-.37-.63-.72-.72-.43-.1-.88-.12-1.28.13-.46.29-.71.87-.57,1.41.17.62.83.99,1.44.84.41-.1.7-.39.94-.72.15-.2.17-.56.1-.79s-.25-.49-.47-.61c-.24-.13-.53-.19-.79-.1s-.45.24-.61.47h0Z"/>
  </g>
  <g>
    <path class="cls-9" d="M178.06,96.07c-3.78,5.59-6.65,7.06-12.79,10.45-25.88,14.3-43.44,7.34-46.51-.22l-.25-.78c-1.97-6.27-2.13-13-.28-19.32.61-2.07,1.4-4,2.46-5.59,2.33-3.48,1.57-2.78,5.19-7.25,13.41-16.58,45.33-5.77,53.01,10.18,0,0,3.47,6.19-.82,12.53Z"/>
    <path class="cls-3" d="M177.17,95.55c-1.69,2.48-3.7,4.72-6.13,6.4-1.25.86-2.58,1.62-3.9,2.36-1.81,1.01-3.62,2.02-5.48,2.95-6.52,3.26-13.62,5.76-20.92,6.38-1.44.12-2.89.17-4.34.14-.66-.02-1.33-.05-1.99-.11-.32-.03-.64-.06-.95-.09-.39-.04-.5-.06-.82-.1-1.15-.17-2.3-.41-3.42-.72-.52-.14-1.04-.31-1.55-.49-.25-.09-.49-.18-.73-.27-.13-.05-.25-.1-.38-.15-.04-.01-.18-.08,0,0-.07-.03-.13-.06-.2-.09-.88-.38-1.73-.83-2.53-1.34-.37-.23-.72-.48-1.07-.74-.15-.11,0,0,.03.02-.04-.03-.08-.06-.12-.09-.08-.06-.15-.12-.23-.18-.16-.14-.32-.28-.48-.42-.29-.27-.57-.55-.84-.85-.12-.13-.23-.26-.34-.4-.03-.04-.07-.08-.1-.13.01.02.15.19.04.06-.06-.08-.11-.15-.17-.23-.2-.29-.39-.59-.56-.9-.07-.14-.14-.27-.21-.42-.03-.07-.06-.14-.09-.21.14.28.03.06,0-.02-.5-1.7-.99-3.38-1.29-5.13-.37-2.12-.51-4.29-.45-6.44.12-4.12.95-8.52,2.95-12.16.65-1.18,1.45-2.28,2.17-3.42.46-.73.95-1.45,1.48-2.14,1.63-2.16,3.6-4.58,5.82-6.19,4.3-3.11,9.49-4.35,14.72-4.36,5.54,0,11.15,1.32,16.21,3.54,4.95,2.17,9.53,5.15,13.12,9.17.85.96,1.47,1.74,2.17,2.8.53.81,1,1.65,1.43,2.52.04.08.08.16.12.24.03.06.06.12.08.18.11.24-.06-.18.04.1.18.46.34.93.47,1.41.38,1.41.51,2.78.37,4.26-.18,1.89-.91,3.66-1.95,5.23-.73,1.1,1.04,2.13,1.77,1.03,2.12-3.18,2.78-7.05,1.87-10.76-.44-1.8-1.3-3.49-2.29-5.04-2.98-4.64-7.43-8.26-12.2-10.95-5.2-2.93-10.97-4.85-16.9-5.54s-11.55-.09-16.72,2.4c-2.51,1.2-4.8,2.89-6.68,4.94-1.74,1.89-3.35,4-4.73,6.17-.75,1.19-1.59,2.34-2.25,3.58-1.03,1.94-1.73,4.07-2.23,6.21-1.04,4.45-1.14,9.06-.39,13.56.3,1.81.74,3.61,1.33,5.34.24.7.62,1.37,1.04,1.98,1.03,1.47,2.38,2.66,3.88,3.63,3.98,2.58,8.88,3.58,13.56,3.72,6.97.21,13.94-1.49,20.39-4.06,4.05-1.62,7.9-3.63,11.7-5.76,2.7-1.52,5.34-3.16,7.48-5.42,1.17-1.23,2.2-2.6,3.16-4.01.74-1.09-1.03-2.12-1.77-1.03Z"/>
  </g>
  <g>
    <path class="cls-5" d="M129.4,86.72c2.58-2.12,6.28-2.88,9.77-2.56s6.83,1.63,9.88,3.26c1.16.62,2.32,1.3,3.17,2.26,2.22,2.51,1.73,6.09,1.13,9.23-.82,4.3-1.82,8.91-5.28,11.88-3.52,3.04-8.79,3.65-13.68,3.65-3.76,0-7.95-.46-10.45-3.06-2.29-2.38-2.47-5.83-2.18-8.95.28-3.03.88-6.03,1.79-8.94.68-2.16,1.59-4.37,3.42-5.86s4.81-2.02,6.82-.65"/>
    <path class="cls-5" d="M129.65,86.98c2.69-2.16,6.35-2.78,9.7-2.44,3.69.37,7.32,1.86,10.5,3.74,1.51.89,2.76,2.07,3.29,3.78.48,1.54.41,3.21.2,4.79s-.54,3.17-.9,4.72-.79,3.08-1.43,4.53c-1.35,3.04-3.65,5.33-6.76,6.53-3.12,1.21-6.54,1.46-9.86,1.46-3.07,0-6.48-.22-9.09-2.01-2.84-1.95-3.43-5.41-3.26-8.62.2-3.74.97-7.58,2.27-11.09.59-1.61,1.42-3.17,2.72-4.3,1.19-1.04,2.83-1.6,4.41-1.49.78.05,1.52.3,2.17.73.39.26.75-.37.36-.62-1.37-.9-3.08-1.03-4.64-.61s-2.97,1.43-3.98,2.76c-1.1,1.46-1.74,3.21-2.26,4.95-.62,2.05-1.09,4.14-1.4,6.26-.5,3.39-.88,7.3,1.02,10.35,1.83,2.93,5.29,3.96,8.54,4.28,3.5.35,7.24.21,10.67-.58,3.37-.77,6.45-2.43,8.44-5.33s2.67-6.29,3.31-9.6,1.17-7.04-1.2-9.73c-1.24-1.4-3.05-2.27-4.71-3.06-1.79-.86-3.66-1.59-5.6-2.06-3.58-.87-7.49-.83-10.86.79-.78.37-1.49.84-2.16,1.38-.36.29.15.79.51.51h0Z"/>
  </g>
  <path class="cls-9" d="M144.26,91.12c-.15.05-.15.05.03,0-.18.02-.17.03,0,.02-.17-.03-.17-.02.01.02-.14-.07-.13-.07.03.01l.12.08c-.12-.1-.11-.08.02.04-.18-.29.21.42.09.13.06.15.1.31.12.47-.03-.22,0,.35,0,.41-.02.2-.02.22,0,.06-.02.1-.04.2-.06.29-.04.15-.08.29-.13.43.1-.25-.14.24-.18.29.15-.22-.09.09-.14.13.24-.22-.33.14-.1.06-.1.03-.21.06-.32.08.14-.02.11-.03-.08-.01-.17,0-.33,0-.5-.02.21.02-.34-.06-.39-.08-.15-.04-.31-.08-.46-.12-.17-.06-.2-.07-.07-.02-.09-.05-.18-.1-.27-.15.24.17-.24-.27-.11-.11.06.08.05.05-.04-.08-.05-.08-.09-.17-.13-.25.12.28-.05-.27-.07-.32-.11-.41,0,.24-.03-.19-.02-.38-.02-.76.01-1.14,0-.07.01-.15.02-.22-.03.18-.02.18.02,0-.1.27-.27.45-.52.55-.19.01-.18.01.04,0,.68-.02,1.33.03,1.87.45-.1-.08-.09-.05.05.07-.29-.35-.26-.74.1-1.17.13-.14.28-.22.45-.21.12,0,.11,0-.05,0,.1,0,.19,0,.28.04.12.08.11.06-.03-.06.08.11.07.09-.03-.06-.06-.09-.11-.17-.16-.26-.44-.72-1.36-.96-2.1-.55-.85.47-1.16,1.39-1.04,2.31.05.4.19.76.4,1.1.07.12.16.33.26.41.05.1.06.09.02-.01,0-.16,0-.15-.01.04l3.02-.41c-.12-.39-.24-.78-.36-1.17-.24-.79-1.07-1.3-1.89-1.07s-1.32,1.09-1.07,1.89c.12.39.24.78.36,1.17.23.73.92,1.2,1.69,1.1s1.27-.74,1.33-1.51c.05-.61-.19-1.21-.51-1.72-.05-.08-.11-.21-.18-.27-.13-.13,0,.16-.01.02-.03-.22-.04.26,0,.04,0-.14-.02-.08-.06.17-.03.24-.16.43-.37.56l-2.1-.55c.73,1.2,1.88,2.2,3.38,1.77,1.7-.49,2.03-2.54.89-3.76-.92-.98-2.44-1.4-3.74-1.43-.61-.01-1.29.06-1.83.38-.74.45-1.02,1.2-1.12,2.02-.13,1.08-.09,2.22.33,3.24.5,1.22,1.49,2.02,2.75,2.39,1.24.36,2.64.44,3.83-.13,1.09-.53,1.83-1.66,2.1-2.81.35-1.46.16-3.09-.85-4.25s-2.69-1.45-4.04-.75c-.74.38-.95,1.41-.55,2.1.44.75,1.36.93,2.1.55h0Z"/>
  <path class="cls-9" d="M132.85,91.23s.1,0,.14,0c-.14-.02-.17-.02-.09,0,.03.02.24.12.12.03-.08-.03-.08-.03,0,.01-.08-.05-.15-.11-.19-.19-.16-.31-.1-.73.22-.92.06-.04.12-.06.19-.06.09,0,.09-.01,0-.01.14,0,.22.05.34.11.07.1.07.1,0,0l-.04-.07c-.05-.11-.05-.1,0,0-.02-.05-.04-.11-.06-.16l-1.26,1.26c.8.12,1.53.03,2.25-.35.52-.27.6-.92.37-1.4-.33-.69-1.1-.93-1.81-.8-.53.1-.88.77-.72,1.26.18.57.69.82,1.26.72-.15.03-.31.02-.44-.09-.04-.03-.14-.21-.06-.05l.37-1.4c-.26.14.16-.03-.12.06-.1.03-.19.06-.29.08.17-.04-.08,0-.13,0-.04,0-.33-.02-.13,0-.37-.05-.71-.02-1,.26-.24.24-.39.66-.26,1,.21.57.47,1.11,1.02,1.42s1.39.23,1.86-.25c.52-.54.51-1.42-.03-1.95-.4-.4-.98-.54-1.52-.56s-1.05.49-1.02,1.02c.03.57.45,1,1.02,1.02h0Z"/>
</svg>