<?xml version="1.0" encoding="UTF-8"?>
<svg id="Layer_1" data-name="Layer 1" xmlns="http://www.w3.org/2000/svg" viewBox="0 0 1520.46 1054.4">
  <defs>
    <style>
      .cls-1 {
        fill: #fdc238;
      }

      .cls-1, .cls-2, .cls-3, .cls-4, .cls-5, .cls-6 {
        stroke-width: 0px;
      }

      .cls-7 {
        opacity: .1;
      }

      .cls-2 {
        fill: #6c6ce2;
      }

      .cls-3 {
        fill: #000;
      }

      .cls-4 {
        fill: #00a350;
      }

      .cls-5 {
        fill: #fff;
      }

      .cls-6 {
        fill: #202020;
      }
    </style>
  </defs>
  <g>
    <path class="cls-1" d="M708.59,834c-80.4,0-155.99-31.31-212.84-88.16-56.85-56.85-88.16-132.44-88.16-212.84s31.31-155.99,88.16-212.84,132.44-88.16,212.84-88.16,155.99,31.31,212.84,88.16c56.85,56.85,88.16,132.44,88.16,212.84s-31.31,155.99-88.16,212.84c-56.85,56.85-132.44,88.16-212.84,88.16Z"/>
    <path class="cls-6" d="M708.59,234.5c40.3,0,79.39,7.89,116.19,23.46,35.54,15.03,67.47,36.56,94.88,63.97s48.94,59.34,63.97,94.88c15.56,36.8,23.46,75.89,23.46,116.19s-7.89,79.39-23.46,116.19c-15.03,35.54-36.56,67.47-63.97,94.88s-59.34,48.94-94.88,63.97c-36.8,15.56-75.89,23.46-116.19,23.46s-79.39-7.89-116.19-23.46c-35.54-15.03-67.47-36.56-94.88-63.97-27.42-27.42-48.94-59.34-63.97-94.88-15.56-36.8-23.46-75.89-23.46-116.19s7.89-79.39,23.46-116.19c15.03-35.54,36.56-67.47,63.97-94.88,27.42-27.42,59.34-48.94,94.88-63.97,36.8-15.56,75.89-23.46,116.19-23.46M708.59,229.5c-167.62,0-303.5,135.88-303.5,303.5s135.88,303.5,303.5,303.5,303.5-135.88,303.5-303.5-135.88-303.5-303.5-303.5h0Z"/>
  </g>
  <g class="cls-7">
    <g>
      <path class="cls-3" d="M745.09,922.2c69.29-2.78,135.94-24.89,193.04-64.11,5.45-3.73,10.97-7.74,16.4-11.93,56.34-43.42,98.65-101.61,122.37-168.31,2.25-6.33,4.36-12.81,6.27-19.28,9.9-33.64,14.92-68.66,14.92-104.06s-5.02-70.42-14.92-104.06c-1.91-6.47-4.01-12.96-6.27-19.29-23.71-66.69-66.03-124.89-122.37-168.3-5.43-4.19-10.95-8.2-16.41-11.94-57.1-39.21-123.74-61.33-193.03-64.11V59.73c96.4,2.87,188.93,33.44,267.9,88.54l1.29.9h0c4.88,3.43,9.83,7.04,14.72,10.75,78.34,59.43,136.72,139.71,168.83,232.19,2.15,6.18,4.2,12.52,6.12,18.83,14.02,46.36,21.13,94.67,21.13,143.56s-7.11,97.19-21.14,143.56c-1.91,6.31-3.97,12.65-6.12,18.83-32.11,92.47-90.49,172.76-168.83,232.19-5.34,4.06-10.73,7.97-16.01,11.65-78.97,55.11-171.51,85.68-267.91,88.55v-127.08ZM715.09,1049.28c-96.4-2.87-188.93-33.44-267.9-88.55l-1.29-.9h0c-4.87-3.41-9.81-7.03-14.72-10.75-78.34-59.42-136.72-139.71-168.83-232.19-2.15-6.2-4.21-12.54-6.12-18.83-14.02-46.37-21.14-94.67-21.14-143.56s7.11-97.19,21.14-143.56c1.91-6.29,3.96-12.63,6.12-18.83,31.55-90.87,88.47-169.98,164.78-229.08l74.7,102.81c-54.43,43.08-95.37,100.14-118.54,165.31-2.25,6.3-4.35,12.79-6.27,19.28-9.9,33.65-14.92,68.66-14.92,104.06s5.02,70.42,14.92,104.06c1.91,6.49,4.02,12.97,6.27,19.29,23.71,66.69,66.03,124.89,122.37,168.3,5.43,4.19,10.95,8.2,16.41,11.94,57.1,39.21,123.74,61.33,193.03,64.11v127.08Z"/>
      <path class="cls-3" d="M750.09,64.9c93.58,3.76,183.28,33.9,260.04,87.47l1.56,1.08c4.73,3.33,9.54,6.84,14.3,10.45,38.2,28.98,71.9,63.31,100.17,102.04,28.59,39.17,51.11,82.17,66.96,127.8,2.13,6.13,4.17,12.4,6.06,18.64,13.88,45.9,20.92,93.71,20.92,142.11s-7.04,96.22-20.92,142.11c-1.89,6.24-3.93,12.51-6.06,18.64-15.84,45.64-38.37,88.64-66.96,127.8-28.27,38.73-61.97,73.06-100.17,102.04-5.28,4.01-10.61,7.89-15.85,11.54-76.76,53.57-166.47,83.71-260.05,87.47v-117.13c68.51-3.62,134.31-25.92,190.86-64.76,5.53-3.79,11.13-7.86,16.64-12.1,57.1-44,99.99-102.99,124.03-170.59,2.28-6.41,4.42-12.99,6.35-19.55,10.04-34.1,15.13-69.59,15.13-105.47s-5.09-71.37-15.13-105.47c-1.93-6.57-4.07-13.14-6.35-19.55-24.04-67.6-66.92-126.59-124.03-170.59-5.51-4.24-11.1-8.32-16.62-12.09-56.56-38.85-122.36-61.14-190.87-64.76v-117.13M426.12,170.16l68.85,94.76c-53.3,43.3-93.45,100-116.4,164.55-2.28,6.4-4.42,12.98-6.35,19.55-10.04,34.1-15.13,69.59-15.13,105.47s5.09,71.37,15.13,105.47c1.93,6.57,4.07,13.15,6.35,19.55,24.04,67.6,66.92,126.59,124.03,170.59,5.51,4.25,11.11,8.32,16.62,12.09,56.56,38.85,122.36,61.14,190.87,64.76v117.13c-93.58-3.76-183.28-33.9-260.04-87.47l-1.55-1.08c-4.73-3.32-9.53-6.84-14.31-10.46-38.2-28.98-71.9-63.31-100.17-102.04-28.59-39.17-51.11-82.17-66.96-127.8-2.13-6.13-4.17-12.4-6.06-18.64-13.88-45.9-20.92-93.71-20.92-142.11s7.04-96.22,20.92-142.11c1.89-6.24,3.93-12.51,6.06-18.64,15.84-45.64,38.37-88.64,66.96-127.8,26.26-35.98,57.21-68.16,92.1-95.78M740.09,54.6v137.04c72.34,1.95,139.4,25.07,195.21,63.4,5.51,3.77,10.9,7.7,16.18,11.77,54.75,42.19,97.11,99.65,120.71,166.02,2.23,6.26,4.29,12.6,6.18,19.02,9.58,32.55,14.72,67,14.72,102.65s-5.14,70.1-14.72,102.65c-1.89,6.42-3.95,12.76-6.18,19.02-23.6,66.37-65.96,123.83-120.71,166.02-5.28,4.07-10.67,8-16.18,11.77-55.81,38.33-122.87,61.45-195.21,63.4v137.04c102.43-2.01,197.32-34.82,275.77-89.57,5.47-3.81,10.86-7.74,16.17-11.77,77.85-59.05,137.85-140.4,170.53-234.53,2.18-6.28,4.24-12.62,6.18-19.02,13.88-45.89,21.35-94.58,21.35-145.01s-7.47-99.12-21.35-145.01c-1.94-6.4-4-12.74-6.18-19.02-32.68-94.13-92.68-175.48-170.53-234.53-5.31-4.03-10.7-7.96-16.17-11.77h-.01c-78.45-54.75-173.33-87.56-275.76-89.57h0ZM428.15,155.94c-77.85,59.05-137.85,140.4-170.53,234.53-2.18,6.28-4.24,12.62-6.18,19.02-13.88,45.89-21.35,94.58-21.35,145.01s7.47,99.12,21.35,145.01c1.94,6.4,4,12.74,6.18,19.02,32.68,94.13,92.68,175.48,170.53,234.53,5.31,4.03,10.7,7.96,16.17,11.77h0c78.45,54.75,173.33,87.56,275.76,89.57v-137.04c-72.34-1.95-139.4-25.07-195.21-63.4-5.51-3.77-10.9-7.7-16.18-11.77-54.75-42.19-97.11-99.65-120.71-166.02-2.23-6.26-4.29-12.6-6.18-19.02-9.58-32.55-14.72-67-14.72-102.65s5.14-70.1,14.72-102.65c1.89-6.42,3.95-12.76,6.18-19.02,23.6-66.37,65.96-123.83,120.71-166.02l-80.55-110.87h0Z"/>
    </g>
    <g>
      <path class="cls-3" d="M451.38,145.37c78.04-53.29,169.01-82.83,263.71-85.65v127.08c-67.67,2.71-132.81,23.87-189.01,61.38l-74.71-102.81Z"/>
      <path class="cls-3" d="M710.09,64.9v117.13c-65.27,3.45-128.06,23.84-182.77,59.35l-68.86-94.76c74.87-49.98,161.45-78.1,251.63-81.72M720.09,54.6c-102.43,2.01-197.32,34.82-275.77,89.57l80.56,110.87c55.81-38.33,122.87-61.45,195.21-63.4V54.6h0Z"/>
    </g>
  </g>
  <g>
    <g>
      <path class="cls-6" d="M628.94,505.03c-.3-3.35-.46-7-2.43-9.58-1.31-1.84-3.76-2.77-6.06-3.28-.37-.08-.73-.15-1.08-.22-.4-.07-.94-.14-1.6-.21-.76-.07-1.66-.14-2.67-.2.07.62.12,1.25.18,1.88l.07.83c.29,3.74-.15,24.81-.46,28.8v.14c-.31,9.43-.61,19.19-.61,28.81v.05c.04,2.53.11,5.1.18,7.59.17,6.15.34,12.52.13,18.74v.09c0,2.98,0,5.8-1.29,7.9l-.07.12c-.53.98-1.89,1.79-3.94,2.34-5.44,1.23-11.64,1.28-18.45.14.03.87.07,1.79.12,2.69.06.93.14,1.85.24,2.7.2,1.67.5,3.07.95,3.75,1.67,2.59,5.17,3.65,8.21,4.26,6.69,1.22,13.84,1.52,20.54,0,2.28-.61,4.56-1.67,5.63-3.65,1.67-2.74,1.67-6.08,1.67-9.28.3-8.82-.15-17.64-.3-26.46,0-9.58.3-19.17.61-28.74.31-3.96.76-25.25.46-29.2ZM579.98,549.36c-7.08-.1-14.29-.34-21.26-.57-3.55-.12-7.09-.24-10.64-.34l-2.71-.08v2.71c0,3.5.07,7.07.13,10.52.1,5.73.21,11.65.02,17.38v.09c0,2.84,0,5.77-1.14,7.9-.74,1.05-2.27,1.95-3.93,2.3l-.08.02c-5.39,1.35-11.63,1.44-18.56.29.02.9.04,1.79.07,2.68v.07c.05.83.09,1.73.18,2.62.15,1.54.47,3.07,1.34,4.22,1.83,2.28,5.02,3.19,7.91,3.8,6.69,1.22,13.99,1.52,20.68-.15,2.13-.46,4.41-1.67,5.63-3.5,1.52-2.74,1.52-6.08,1.52-9.28.3-9.28-.15-18.71-.15-27.99,6.05.18,12.09.4,18.14.58.88.03,1.76.05,2.63.08.88.03,1.76.05,2.63.07,0-3.56.04-7.15.19-10.69l.11-2.71-2.71-.04ZM559.89,505.48c-.15-3.19-.46-6.85-2.28-9.58-1.44-1.84-3.79-2.77-6.17-3.28-.38-.08-.76-.15-1.13-.22-.37-.06-.9-.11-1.54-.16-.75-.06-1.66-.11-2.66-.16.08.85.14,1.71.18,2.54v.18c.43,3.58-.12,23.89-.31,28.49l-.11,2.64,2.64.1c1.54.06,6.02.18,11.32.32.02-.85.04-1.73.06-2.63.02-.87.04-1.75.06-2.63.13-6.61.18-13.51-.06-15.61Z"/>
      <path class="cls-6" d="M704.63,540.47c0-1.22,0-2.44-.61-3.5-.46-.61-1.06-1.06-1.82-1.37-1.02-.24-3.18-.29-5.88-.24-.83.01-1.72.04-2.63.07-.85.03-1.74.06-2.64.1-.1,3.34-.37,6.62-.8,7.51-.51.64-2.9.93-7.09.86-.44,0-.85-.01-1.21-.01-.62,0-1.95,0-3.65-.02-7.28-.05-14.55-.09-16.43.02l-2.59.15.11,2.59c.05,1.23.08,2.47.12,3.72.07,2.49.14,5.05.34,7.63l.17,2.16,2.15.25c1.61.19,5.74-.09,10.91-.54-.02-.79-.05-1.58-.08-2.36,2.59-.15,17.34,0,19.92,0s7.45.33,9.71-1.23c.41-.29.73-.63.94-1.05.18-.34.34-.86.47-1.49.75-3.57.73-10.94.6-13.26ZM717.86,572.25c-.15-1.22-.15-2.74-.91-3.8-.76-1.06-2.43-1.22-3.8-1.22-.6,0-1.84,0-3.45.02-.8,0-1.69.01-2.63.02-.85,0-1.73.02-2.64.03.12,5.52.23,12.92.13,14.66v.15c0,1.85-.19,3.57-.42,4.48-.18.02-.37.05-.58.1-2.09.44-11.3.76-17.39.97-3.76.13-6.74.23-8.05.34-6.24.3-12.68.6-19.14.6h-.07c-4.41.13-9.43.18-14.13-.64.04.9.09,1.8.19,2.7.1.92.23,1.83.41,2.73.15.72.33,1.44.55,2.14.46,1.37,1.22,2.58,2.43,3.5,1.37,1.07,3.19,1.67,5.02,2.13,5.32,1.22,11.1,1.22,16.58,1.06,6.54,0,12.92-.3,19.31-.61,3.5-.3,22.36-.61,25.86-1.37.61-.15,1.37,0,1.82-.46,1.07-1.06,1.22-5.17,1.22-6.69.15-2.74-.15-17.95-.3-20.84ZM716.19,492.71c-.82-.44-2.72-.7-4.82-.85-.87-.07-1.77-.11-2.65-.14-.93-.04-1.84-.05-2.63-.06.04,1.01.04,2.13,0,3.36v.1c0,4.4-1.06,11.78-2.09,13.03l-.05.06c-.75.91-3.39,1.1-4.37,1.17-4.56.29-31.81.45-36.64.45h-2.37l-.25,2.35c-.52,4.87-.77,9.14-.77,13.06v2.45l2.44.18c1.74.13,5.45-.05,11.35-.35.07,0,.13,0,.2-.01.07-.88.15-1.77.24-2.65.04-.47.09-.94.14-1.41,2.53,0,11.61-.04,20.19-.13,7.4-.08,14.43-.19,16.61-.32,1.17-.08,2.53-.22,3.73-.59.99-.31,1.88-.78,2.5-1.54,1.61-1.86,2.42-8.36,2.66-12.43.06-.93.08-1.73.08-2.32.15-3.96,0-11.71-3.5-13.39Z"/>
      <path class="cls-6" d="M823.42,548.11c-.06-.27-.12-.54-.19-.8-.45-2.13-1.52-4.26-3.04-5.78-1.26-1.01-2.93-1.6-4.59-1.95-.35-.07-.69-.13-1.04-.18-.57-.11-1.14-.21-1.72-.29-.91-.13-1.82-.23-2.74-.3.8,4.04,1.03,8.53.73,13.96-.29,5.62-.76,11-3.07,15.16-.43.46-.72,1.03-.89,1.56-1.99,4.21-4.75,7.88-8.2,10.91-4.84,4.01-11.12,6.93-17.69,8.25-10.47,2.2-22.82,1.03-33.92-3.21-5.66-2.36-10.9-5.84-15.12-9.98,1.15,2.35,2.46,4.62,3.95,6.74.64.92,1.31,1.81,2.01,2.67,1.07,1.3,2.22,2.54,3.44,3.72,4.51,4.36,9.98,7.88,15.72,10.28,11.1,4.26,23.88,5.78,35.44,3.34,6.84-1.37,13.54-4.41,18.86-8.82,3.8-3.35,6.85-7.45,8.97-12.02,0-.15.31-.76.46-.76,1.33-2.24,2.15-4.74,2.66-7.35.62-3.06.83-6.27.99-9.38.29-5.21.16-10.56-1.03-15.78ZM776.36,548.04c-.15-.15-.76-.15-.91-.15-.1,0-.2,0-.3,0,0,.32.01.63.03.94,0,1.28.22,4.43.72,6.67,0,0,0,0,0,0,.31-.61.46-3.96.61-4.72,0-.61.15-2.28-.15-2.74ZM778.55,546.58l-.14-.22-.18-.18c-.82-.82-1.91-.93-2.78-.93h-.08c-.17.87-.23,1.77-.22,2.64,0,.32.01.63.03.94,0,1.28.22,4.43.72,6.67.22.95.48,1.74.79,2.15.16.22.34.42.55.59.36-.46.72-.97,1.02-1.57.38-.76.5-1.76.7-4.04.04-.49.1-1.16.13-1.34l.05-.25v-.26c0-.1,0-.25.01-.41.06-1.59.05-2.8-.61-3.79ZM778.55,546.58l-.14-.22-.18-.18c-.82-.82-1.91-.93-2.78-.93h-.08c-.17.87-.23,1.77-.22,2.64,0,.32.01.63.03.94,0,1.28.22,4.43.72,6.67.22.95.48,1.74.79,2.15.16.22.34.42.55.59.36-.46.72-.97,1.02-1.57.38-.76.5-1.76.7-4.04.04-.49.1-1.16.13-1.34l.05-.25v-.26c0-.1,0-.25.01-.41.06-1.59.05-2.8-.61-3.79ZM820.19,509.89c-.46-3.35-1.67-6.39-3.8-8.97-1.37-1.67-3.07-3.09-4.91-4.29-1.01-.66-2.07-1.26-3.14-1.8-.05-.02-.1-.05-.14-.07-1.2-.6-2.43-1.12-3.68-1.58,1.08,1.77,1.78,3.79,2.09,6.05.37,3.41-.51,7.27-2.37,10.32l-.05.08c-3.18,5.67-9.76,10.42-14.48,8.44l-.06-.03c-2.32-.91-4.3-2.97-6.4-5.15-.5-.53-1.01-1.05-1.52-1.56l-.05-.05c-2.62-2.48-6.76-5.71-11.62-7.02l-.08-.02c-3.65-.86-7.35-.5-10.17.98-2.75,1.38-5.05,3.9-6.64,7.28-2.05,4.12-2.38,8.87-2.54,13.38v.09c0,7.94.12,17.17,1.55,26.08.31,2.45,1.51,8.39,5.92,11.63l.04.03c2.21,1.56,5.28,2.24,8.25,1.96-.25-.87-.43-1.74-.56-2.6-.02-.14-.04-.28-.06-.42-.12-.73-.22-1.46-.32-2.19-.52-3.75-.81-7.53-.98-11.31-.15-3.43-.21-6.87-.22-10.29,0-.64,0-1.28,0-1.92.03-.79.06-1.58.11-2.37.13-2.15.36-4.3.87-6.33h0c.31-1.26.73-2.48,1.3-3.62,1.22-2.59,3.04-4.87,5.48-6.09,2.59-1.37,5.78-1.37,8.37-.76.14.04.29.08.43.13,3.54,1.05,6.83,3.3,9.52,5.75h0c.18.18.36.34.54.51.3.29.59.6.89.9.83.87,1.67,1.75,2.53,2.59,1.03,1,2.09,1.93,3.25,2.69.68.44,1.4.83,2.15,1.12,2.05.86,4.21.85,6.33.25,1.05-.3,2.08-.74,3.08-1.3.78-.43,1.54-.94,2.27-1.49,2.51-1.91,4.68-4.46,6.12-7.04,2.13-3.5,3.2-7.91,2.74-12.02ZM778.4,546.36l-.18-.18c-.82-.82-1.91-.93-2.78-.93h-.08c-.17.87-.23,1.77-.22,2.64,0,.32.01.63.03.94,0,1.28.22,4.43.72,6.67.22.95.48,1.74.79,2.15.16.22.34.42.55.59.36-.46.72-.97,1.02-1.57.38-.76.5-1.76.7-4.04.04-.49.1-1.16.13-1.34l.05-.25v-.26c0-.1,0-.25.01-.41.06-1.59.05-2.8-.61-3.79l-.14-.22ZM778.55,546.58l-.14-.22-.18-.18c-.82-.82-1.91-.93-2.78-.93h-.08c-.17.87-.23,1.77-.22,2.64,0,.32.01.63.03.94,0,1.28.22,4.43.72,6.67.22.95.48,1.74.79,2.15.16.22.34.42.55.59.36-.46.72-.97,1.02-1.57.38-.76.5-1.76.7-4.04.04-.49.1-1.16.13-1.34l.05-.25v-.26c0-.1,0-.25.01-.41.06-1.59.05-2.8-.61-3.79ZM778.55,546.58l-.14-.22-.18-.18c-.82-.82-1.91-.93-2.78-.93h-.08c-.17.87-.23,1.77-.22,2.64,0,.32.01.63.03.94,0,1.28.22,4.43.72,6.67.22.95.48,1.74.79,2.15.16.22.34.42.55.59.36-.46.72-.97,1.02-1.57.38-.76.5-1.76.7-4.04.04-.49.1-1.16.13-1.34l.05-.25v-.26c0-.1,0-.25.01-.41.06-1.59.05-2.8-.61-3.79ZM778.55,546.58l-.14-.22-.18-.18c-.82-.82-1.91-.93-2.78-.93h-.08c-.17.87-.23,1.77-.22,2.64,0,.32.01.63.03.94,0,1.28.22,4.43.72,6.67.22.95.48,1.74.79,2.15.16.22.34.42.55.59.36-.46.72-.97,1.02-1.57.38-.76.5-1.76.7-4.04.04-.49.1-1.16.13-1.34l.05-.25v-.26c0-.1,0-.25.01-.41.06-1.59.05-2.8-.61-3.79Z"/>
      <path class="cls-6" d="M897,540.47c0-1.22,0-2.44-.61-3.5-.46-.61-1.06-1.06-1.83-1.37-1.02-.24-3.17-.29-5.87-.24-.83.01-1.72.04-2.64.07-.85.03-1.73.06-2.63.1-.1,3.33-.37,6.62-.8,7.51-.51.64-2.9.93-7.1.86-.44,0-.84-.01-1.21-.01-.62,0-1.95,0-3.65-.02-7.28-.05-14.54-.09-16.43.02l-2.59.15.11,2.59c.05,1.23.09,2.47.12,3.72.07,2.49.14,5.05.35,7.63l.17,2.16,2.15.25c1.61.19,5.74-.09,10.91-.54-.02-.79-.05-1.58-.08-2.36,2.59-.15,17.34,0,19.92,0s7.44.33,9.7-1.23c.41-.28.73-.63.94-1.05.18-.34.34-.86.47-1.49.74-3.57.72-10.94.6-13.26ZM910.23,572.25c-.15-1.22-.15-2.74-.91-3.8-.76-1.06-2.43-1.22-3.8-1.22-.6,0-1.84,0-3.45.02-.8,0-1.7.01-2.64.02-.84,0-1.73.02-2.63.03.12,5.52.23,12.92.13,14.66v.15c0,1.85-.2,3.57-.42,4.48-.18.02-.38.05-.58.1-2.1.44-11.3.76-17.4.97-3.75.13-6.73.23-8.05.34-6.24.3-12.68.6-19.14.6h-.07c-4.42.13-9.44.18-14.14-.64.04.9.09,1.8.19,2.7.09.92.22,1.83.41,2.73.15.72.33,1.44.56,2.14.46,1.37,1.22,2.58,2.43,3.5,1.37,1.07,3.2,1.67,5.02,2.13,5.32,1.22,11.1,1.22,16.58,1.06,6.54,0,12.93-.3,19.32-.61,3.5-.3,22.36-.61,25.85-1.37.61-.15,1.37,0,1.83-.46,1.06-1.06,1.22-5.17,1.22-6.69.15-2.74-.15-17.95-.3-20.84ZM908.56,492.71c-.83-.44-2.72-.7-4.82-.85-.87-.07-1.77-.11-2.65-.14-.94-.04-1.84-.05-2.63-.06.04,1.01.04,2.13,0,3.36v.1c0,4.4-1.06,11.78-2.1,13.03l-.05.06c-.74.91-3.39,1.1-4.37,1.17-4.56.29-31.81.45-36.64.45h-2.37l-.25,2.35c-.52,4.87-.78,9.14-.78,13.06v2.45l2.44.18c1.74.13,5.45-.05,11.35-.35.07,0,.13,0,.2,0,.07-.88.15-1.77.24-2.65.04-.47.09-.94.14-1.41,2.53,0,11.6-.04,20.19-.13,7.4-.08,14.44-.19,16.62-.32,2.13-.15,4.87-.46,6.24-2.13,1.98-2.28,2.74-11.56,2.74-14.75.15-3.96,0-11.71-3.5-13.39Z"/>
    </g>
    <g>
      <g>
        <path class="cls-6" d="M617.96,494.05c-.07-.76-.13-1.54-.21-2.31-.26-2.64-.7-5.27-2.23-7.27-1.52-2.13-4.56-3.04-7.15-3.5-3.19-.61-16.42-.91-19.62-.31-1.52.31-3.19.61-4.26,1.83-1.06,1.06-1.67,2.59-1.98,4.11-.46,2.59-1.22,14.45-.91,17.04.15,2.74-.61,17.79-.76,20.68-2.35-.1-12.56-.36-20.97-.59-5.23-.14-9.76-.27-11.28-.32.15-3.8.76-24.94.3-28.9-.04-.73-.08-1.49-.14-2.26-.23-2.56-.73-5.22-2.13-7.33-1.67-2.13-4.56-3.04-7.3-3.5-3.04-.46-16.42-.76-19.62-.15-1.52.15-3.2.61-4.26,1.67-2.74,2.89-2.89,13.99-2.89,17.95,0,.61.15,4.11.15,4.71-.3,5.17-1.52,36.81-1.67,42.13-.3,11.26-.45,22.51-.15,33.61.15,2.28.15,5.02,1.52,6.85,1.83,2.28,5.02,3.19,7.91,3.8.51.09,1.03.18,1.55.26,6.26.99,12.96,1.13,19.13-.42,2.13-.46,4.41-1.67,5.63-3.5,1.52-2.74,1.52-6.08,1.52-9.28.3-9.28-.15-18.71-.15-27.99,10.65.31,21.29.76,31.94.91-.15,3.57-.19,7.15-.19,10.73s.04,7.15.04,10.72c0,2.74,0,11.56,1.37,13.69,1.67,2.59,5.17,3.65,8.21,4.26.52.1,1.05.18,1.58.27,6.23.98,12.79,1.13,18.96-.27,2.28-.61,4.56-1.67,5.63-3.65,1.67-2.74,1.67-6.08,1.67-9.28.3-8.82-.15-17.64-.3-26.46,0-9.58.3-19.17.61-28.74.31-3.96.76-25.25.46-29.2ZM614.88,523.05v.14c-.31,9.43-.61,19.19-.61,28.81v.05c.04,2.53.11,5.1.18,7.59.17,6.15.34,12.52.13,18.74v.09c0,2.98,0,5.8-1.29,7.9l-.07.12c-.53.98-1.89,1.79-3.94,2.34-5.44,1.23-11.64,1.28-18.45.14-.32-.05-.64-.11-.96-.17-1.3-.26-5.16-1.05-6.48-3.08-.23-.41-.97-2.52-.97-12.28,0-1.79,0-3.58-.02-5.37,0-1.74-.02-3.5-.02-5.27,0-3.56.04-7.15.19-10.69l.11-2.71-2.71-.04c-7.08-.1-14.29-.34-21.26-.57-3.55-.12-7.09-.24-10.64-.34l-2.71-.08v2.71c0,3.5.07,7.07.13,10.52.1,5.73.21,11.65.02,17.38v.09c0,2.84,0,5.77-1.14,7.9-.74,1.05-2.27,1.95-3.93,2.3l-.08.02c-5.39,1.35-11.63,1.44-18.56.29-.32-.05-.65-.11-.97-.17-2.41-.51-5.04-1.25-6.33-2.83-.72-1-.83-2.91-.93-4.61-.02-.25-.03-.51-.05-.75-.26-9.54-.21-19.85.15-33.41.14-4.98,1.36-36.74,1.67-42.05v-.15c0-.33-.02-1.15-.07-2.45-.04-.89-.07-2-.07-2.26,0-10.83,1.34-15.2,2.14-16.11.47-.44,1.44-.77,2.63-.89l.23-.04c2.86-.54,15.85-.26,18.7.16,2.78.47,4.62,1.27,5.6,2.45.98,1.53,1.4,3.56,1.61,5.62.08.85.14,1.71.18,2.54v.18c.43,3.58-.12,23.89-.31,28.49l-.11,2.64,2.64.1c1.54.06,6.02.18,11.32.32,1.42.04,2.89.08,4.39.12,7.18.19,14.6.39,16.53.47l2.6.1.14-2.6c.04-.73.94-17.83.76-20.97v-.16c-.27-2.18.42-13.6.87-16.24.24-1.2.69-2.17,1.25-2.73l.12-.13c.44-.51,1.57-.73,2.66-.95l.11-.02c2.84-.54,15.78-.24,18.67.31,3.52.62,4.91,1.66,5.46,2.43l.05.07c1.04,1.35,1.42,3.36,1.65,5.47.07.62.12,1.25.18,1.88l.07.83c.29,3.74-.15,24.81-.46,28.8Z"/>
        <path class="cls-6" d="M620.59,493.81l-.07-.85c-.02-.26-.04-.53-.07-.79-.28-3.12-.72-6.53-2.79-9.27-1.66-2.29-4.54-3.77-8.77-4.52-3.54-.67-17.07-.97-20.63-.3l-.13.03c-1.66.33-3.92.78-5.54,2.58-1.28,1.31-2.19,3.17-2.63,5.39v.06c-.5,2.74-1.26,14.68-.96,17.7.09,1.99-.3,11.04-.63,17.76-3.28-.1-8.7-.24-14-.39-1.48-.04-2.97-.08-4.41-.12-3.34-.09-6.44-.17-8.62-.24.2-6.61.62-22.67.21-26.56-.03-.55-.06-1.11-.1-1.68-.23-3.1-.78-6.41-2.61-9.16l-.12-.17c-1.81-2.31-4.73-3.77-8.98-4.48-3.06-.46-16.57-.82-20.38-.16-2.44.26-4.43,1.1-5.75,2.42l-.05.05c-.89.94-3.61,3.81-3.61,19.76,0,.33.03,1.15.08,2.45.03.83.07,1.85.07,2.19-.32,5.59-1.53,37.15-1.67,42.12-.37,13.69-.42,24.1-.15,33.76v.1c.02.25.04.5.05.76.13,2.34.3,5.24,1.99,7.5l.05.07c2.33,2.91,6.07,4.03,9.42,4.73h.07c.74.15,1.48.27,2.2.37,3.08.47,6.05.7,8.88.7,3.79,0,7.36-.41,10.67-1.24,3.04-.66,5.74-2.38,7.22-4.6l.11-.18c1.84-3.32,1.85-7.14,1.85-10.51.19-5.86.08-11.83-.03-17.61-.04-2.53-.09-5.13-.11-7.7,2.63.08,5.26.17,7.89.25,6.12.2,12.42.41,18.67.53-.07,2.69-.1,5.39-.1,8.06,0,1.83,0,3.65.02,5.45,0,1.78.02,3.57.02,5.34,0,8.76.52,13.14,1.79,15.12,2.29,3.53,6.75,4.78,9.91,5.41h.04c.77.15,1.53.27,2.29.38,7.04,1.05,13.52.92,19.3-.4l.09-.02c3.54-.94,5.97-2.59,7.23-4.88,2.02-3.34,2.02-7.16,2.02-10.54.22-6.37.04-12.8-.12-19.02-.07-2.46-.14-5.02-.18-7.51,0-9.51.31-19.19.61-28.58.32-4.34.76-25.55.45-29.58ZM615.26,493.41l.07.83c.29,3.74-.15,24.81-.46,28.8v.14c-.31,9.43-.61,19.19-.61,28.81v.05c.04,2.53.11,5.1.18,7.59.17,6.15.34,12.52.13,18.74v.09c0,2.98,0,5.8-1.29,7.9l-.07.12c-.53.98-1.89,1.79-3.94,2.34-5.44,1.23-11.64,1.28-18.45.14-.32-.05-.64-.11-.96-.17-1.3-.26-5.16-1.05-6.48-3.08-.23-.41-.97-2.52-.97-12.28,0-1.79,0-3.58-.02-5.37,0-1.74-.02-3.5-.02-5.27,0-3.56.04-7.15.19-10.69l.11-2.71-2.71-.04c-7.08-.1-14.29-.34-21.26-.57-3.55-.12-7.09-.24-10.64-.34l-2.71-.08v2.71c0,3.5.07,7.07.13,10.52.1,5.73.21,11.65.02,17.38v.09c0,2.84,0,5.77-1.14,7.9-.74,1.05-2.27,1.95-3.93,2.3l-.08.02c-5.39,1.35-11.63,1.44-18.56.29-.32-.05-.65-.11-.97-.17-2.41-.51-5.04-1.25-6.33-2.83-.72-1-.83-2.91-.93-4.61-.02-.25-.03-.51-.05-.75-.26-9.54-.21-19.85.15-33.41.14-4.98,1.36-36.74,1.67-42.05v-.15c0-.33-.02-1.15-.07-2.45-.04-.89-.07-2-.07-2.26,0-10.83,1.34-15.2,2.14-16.11.47-.44,1.44-.77,2.63-.89l.23-.04c2.86-.54,15.85-.26,18.7.16,2.78.47,4.62,1.27,5.6,2.45.98,1.53,1.4,3.56,1.61,5.62.08.85.14,1.71.18,2.54v.18c.43,3.58-.12,23.89-.31,28.49l-.11,2.64,2.64.1c1.54.06,6.02.18,11.32.32,1.42.04,2.89.08,4.39.12,7.18.19,14.6.39,16.53.47l2.6.1.14-2.6c.04-.73.94-17.83.76-20.97v-.16c-.27-2.18.42-13.6.87-16.24.24-1.2.69-2.17,1.25-2.73l.12-.13c.44-.51,1.57-.73,2.66-.95l.11-.02c2.84-.54,15.78-.24,18.67.31,3.52.62,4.91,1.66,5.46,2.43l.05.07c1.04,1.35,1.42,3.36,1.65,5.47.07.62.12,1.25.18,1.88Z"/>
      </g>
      <g>
        <path class="cls-6" d="M699.73,512c2.13-.15,4.87-.46,6.24-2.13,1.98-2.28,2.74-11.56,2.74-14.75.04-.96.05-2.14,0-3.4-.13-3.96-.86-8.72-3.51-9.99-1.98-1.07-10.19-1.07-12.47-1.07-7.45.15-14.91.31-22.36.15-5.78-.15-11.56-.46-17.49-.46-4.41.15-9.13,0-13.08,2.13-2.43,1.22-4.11,4.26-4.87,7-1.22,4.56-1.37,9.43-1.37,14.3,0,2.43.3,17.34.3,19.77,0,16.28-.46,32.7-.15,48.98,0,3.95,0,8.21,1.22,12.02.46,1.37,1.22,2.58,2.43,3.5,1.37,1.07,3.19,1.67,5.02,2.13.84.19,1.7.36,2.56.49,4.58.72,9.41.7,14.02.58,6.54,0,12.92-.3,19.31-.61,3.5-.3,22.36-.61,25.86-1.37.61-.15,1.37,0,1.82-.46,1.07-1.06,1.22-5.17,1.22-6.69.1-1.84,0-9.26-.12-14.83-.06-2.75-.13-5.05-.18-6-.15-1.22-.15-2.74-.91-3.8-.68-.95-2.08-1.17-3.35-1.21-.15,0-.31,0-.46,0-2.74,0-18.86.15-21.6.3-2.43.15-15.51,1.52-18.1,1.22-.3-3.8-.3-7.6-.46-11.26,2.59-.15,17.34,0,19.92,0,3.04,0,9.28.46,10.65-2.28.72-1.34,1.01-5.26,1.1-8.82.07-2.49.03-4.8-.04-5.93,0-1.22,0-2.44-.61-3.5-.46-.61-1.06-1.06-1.82-1.37-2.3-.53-10.32-.14-17.46.23-5.17.26-9.87.51-11.59.38,0-4.26.3-8.52.76-12.78,4.72,0,32.09-.15,36.81-.46ZM661.97,527.85c1.74.13,5.45-.05,11.35-.35.07,0,.13,0,.2-.01,5.9-.3,14.56-.73,16.89-.35.19.1.32.2.4.29.19.48.19,1.24.19,2.05v.14c.09,1.56.1,3.74.03,5.89-.1,3.34-.37,6.62-.8,7.51-.51.64-2.9.93-7.09.86-.44,0-.85-.01-1.21-.01-.62,0-1.95,0-3.65-.02-7.28-.05-14.55-.09-16.43.02l-2.59.15.11,2.59c.05,1.23.08,2.47.12,3.72.07,2.49.14,5.05.34,7.63l.17,2.16,2.15.25c1.61.19,5.74-.09,10.91-.54,1.28-.11,2.63-.23,4.03-.36,1.63-.15,3.03-.28,3.62-.31,2.63-.14,18.73-.3,21.45-.3,1.11,0,1.56.14,1.71.2.18.36.25,1.15.31,1.74.02.23.04.45.07.67.05.97.11,3.18.17,5.81.12,5.52.23,12.92.13,14.66v.15c0,1.85-.19,3.57-.42,4.48-.18.02-.37.05-.58.1-2.09.44-11.3.76-17.39.97-3.76.13-6.74.23-8.05.34-6.24.3-12.68.6-19.14.6h-.07c-4.41.13-9.43.18-14.13-.64-.59-.1-1.18-.22-1.76-.35-1.31-.32-2.94-.81-4.01-1.64l-.04-.03c-.69-.52-1.19-1.25-1.51-2.19-1.09-3.41-1.09-7.38-1.09-11.21v-.05c-.19-10.14-.08-20.52.02-30.56.06-6.03.13-12.26.13-18.37,0-1.24-.07-5.46-.15-9.93-.07-4.25-.15-8.65-.15-9.84,0-4.27.1-9.19,1.27-13.59.7-2.53,2.08-4.63,3.5-5.34l.07-.04c2.93-1.58,6.51-1.67,10.31-1.77.53-.01,1.05-.03,1.57-.04,3.91,0,7.83.14,11.62.27,1.92.07,3.84.13,5.77.18,7.49.15,15.07,0,22.44-.15,9.1,0,10.94.64,11.2.75l.11.06c.79.38,1.84,2.69,2.01,7.55.04,1.01.04,2.13,0,3.36v.1c0,4.4-1.06,11.78-2.09,13.03l-.05.06c-.75.91-3.39,1.1-4.37,1.17-4.56.29-31.81.45-36.64.45h-2.37l-.25,2.35c-.52,4.87-.77,9.14-.77,13.06v2.45l2.44.18Z"/>
        <path class="cls-6" d="M699.92,514.62c2.06-.14,5.88-.42,8.07-3.06,3.02-3.55,3.33-15.24,3.35-16.36.04-1.18.05-2.29.03-3.34-.18-6.75-1.84-10.95-4.97-12.48-1.29-.68-3.97-1.35-13.66-1.35h-.08c-7.29.15-14.83.3-22.2.15-1.9-.05-3.8-.11-5.71-.18-3.85-.13-7.83-.27-11.85-.27h-.09c-.52.02-1.05.04-1.57.05-4.04.11-8.61.22-12.63,2.38-2.77,1.4-5.08,4.62-6.2,8.66-1.34,5.04-1.46,10.37-1.46,14.98,0,1.24.07,5.46.15,9.93.07,4.25.15,8.65.15,9.84,0,6.08-.07,12.3-.13,18.31-.11,10.07-.22,20.48-.02,30.68,0,4.04,0,8.61,1.35,12.82.66,1.99,1.79,3.59,3.33,4.76,1.86,1.44,4.17,2.14,5.98,2.59h.05c1.18.28,2.37.49,3.56.66,3.1.43,6.23.56,9.21.56,1.52,0,3-.04,4.43-.07,6.59,0,13.1-.31,19.4-.61h.11c1.15-.11,4.25-.21,7.83-.33,8.98-.31,16.03-.58,18.4-1.1.08-.01.16-.01.25-.02.65-.05,1.85-.14,2.84-1.13,1.31-1.31,1.99-4.17,1.99-8.49.11-2.09,0-9.41-.12-14.92-.07-2.84-.14-5.2-.18-6.12l-.02-.19c-.02-.2-.04-.41-.07-.62-.12-1.24-.29-2.94-1.32-4.38-1.06-1.48-2.71-2.02-4.08-2.21-.77-.11-1.44-.11-1.87-.11-2.81,0-18.96.15-21.76.31-.67.04-2.04.17-3.78.32-3.01.27-8.51.76-11.68.9-.08-1.66-.13-3.32-.18-4.94,0-.37-.02-.74-.03-1.11,3.62-.03,9.78.01,13.52.04,1.71,0,3.05.02,3.68.02.34,0,.72,0,1.13.01,3.94.06,9.9.15,11.86-3.72.99-1.9,1.31-6.35,1.39-10.09.06-2.91-.02-5.38-.04-5.91,0-1.39,0-3.11-.96-4.76l-.18-.27c-.31-.41-.66-.78-1.05-1.11-.55-.47-1.19-.84-1.91-1.13l-.18-.07-.2-.04c-2.53-.58-9.06-.3-18.76.19-2.99.15-6.05.31-8.21.36.07-2.34.22-4.84.47-7.53,8.32-.03,30.36-.18,34.61-.46ZM690.42,527.15c.19.1.32.2.4.29.19.48.19,1.24.19,2.05v.14c.09,1.56.1,3.74.03,5.89-.1,3.34-.37,6.62-.8,7.51-.51.64-2.9.93-7.09.86-.44,0-.85-.01-1.21-.01-.62,0-1.95,0-3.65-.02-7.28-.05-14.55-.09-16.43.02l-2.59.15.11,2.59c.05,1.23.08,2.47.12,3.72.07,2.49.14,5.05.34,7.63l.17,2.16,2.15.25c1.61.19,5.74-.09,10.91-.54,1.28-.11,2.63-.23,4.03-.36,1.63-.15,3.03-.28,3.62-.31,2.63-.14,18.73-.3,21.45-.3,1.11,0,1.56.14,1.71.2.18.36.25,1.15.31,1.74.02.23.04.45.07.67.05.97.11,3.18.17,5.81.12,5.52.23,12.92.13,14.66v.15c0,1.85-.19,3.57-.42,4.48-.18.02-.37.05-.58.1-2.09.44-11.3.76-17.39.97-3.76.13-6.74.23-8.05.34-6.24.3-12.68.6-19.14.6h-.07c-4.41.13-9.43.18-14.13-.64-.59-.1-1.18-.22-1.76-.35-1.31-.32-2.94-.81-4.01-1.64l-.04-.03c-.69-.52-1.19-1.25-1.51-2.19-1.09-3.41-1.09-7.38-1.09-11.21v-.05c-.19-10.14-.08-20.52.02-30.56.06-6.03.13-12.26.13-18.37,0-1.24-.07-5.46-.15-9.93-.07-4.25-.15-8.65-.15-9.84,0-4.27.1-9.19,1.27-13.59.7-2.53,2.08-4.63,3.5-5.34l.07-.04c2.93-1.58,6.51-1.67,10.31-1.77.53-.01,1.05-.03,1.57-.04,3.91,0,7.83.14,11.62.27,1.92.07,3.84.13,5.77.18,7.49.15,15.07,0,22.44-.15,9.1,0,10.94.64,11.2.75l.11.06c.79.38,1.84,2.69,2.01,7.55.04,1.01.04,2.13,0,3.36v.1c0,4.4-1.06,11.78-2.09,13.03l-.05.06c-.75.91-3.39,1.1-4.37,1.17-4.56.29-31.81.45-36.64.45h-2.37l-.25,2.35c-.52,4.87-.77,9.14-.77,13.06v2.45l2.44.18c1.74.13,5.45-.05,11.35-.35.07,0,.13,0,.2-.01,5.9-.3,14.56-.73,16.89-.35Z"/>
      </g>
      <g>
        <path class="cls-6" d="M812.84,539.11c-.17-.93-.36-1.86-.59-2.78-.45-2.13-1.52-4.26-3.04-5.78-.05-.04-.1-.08-.15-.11-1.51-1.14-3.57-1.72-5.48-2.02-3.11-.61-6.22-.76-9.33-.74-3.13.02-6.25.21-9.38.28-4.72.15-9.43,0-14,.76-1.67.31-3.35.91-4.71,2.13-1.05.88-1.6,2.26-1.84,3.74-.18,1.08-.2,2.22-.14,3.25,0,.27,0,.62.03,1.04.12,2.36.58,6.62,1.49,7.79.76,1.06,2.13,1.52,3.35,1.67,2.03.14,4.05-.4,6.08-.45.1,0,.2,0,.3,0,.15,0,.76,0,.91.15.3.46.15,2.13.15,2.74-.15.76-.3,4.11-.61,4.72,0,0,0,0,0,0-.46.91-1.21,1.67-1.82,2.43-1.37,1.67-2.89,3.5-5.02,4.41-.99.42-2.11.68-3.26.76-2.19.16-4.47-.32-6.17-1.52-2.89-2.13-4.41-6.24-4.87-9.89-1.37-8.52-1.52-17.19-1.52-25.7.15-4.26.46-8.67,2.28-12.32,1.22-2.59,3.04-4.87,5.48-6.09,2.59-1.37,5.78-1.37,8.37-.76,3.95,1.07,7.61,3.65,10.5,6.39,2.74,2.74,5.32,5.93,8.82,7.3,6.54,2.74,14.3-3.35,17.79-9.58,2.13-3.5,3.2-7.91,2.74-12.02-.2-1.44-.54-2.83-1.03-4.15-.65-1.74-1.56-3.36-2.78-4.83-2.13-2.59-5.02-4.56-8.06-6.08-4.87-2.43-10.19-3.65-15.52-4.56-9.43-1.52-19.47-1.07-28.75,1.52-7.45,1.83-14.6,6.24-19.62,11.86-9.28,10.19-15.82,23.43-17.79,36.96-1.37,8.98-.46,18.41,2.13,26.92,1.98,6.24,5.02,12.32,9.12,17.34,2.57,3.12,5.62,5.92,8.97,8.31,3.19,2.28,6.64,4.2,10.2,5.69,11.1,4.26,23.88,5.78,35.44,3.34,6.84-1.37,13.54-4.41,18.86-8.82,3.8-3.35,6.85-7.45,8.97-12.02,0-.15.31-.76.46-.76,2.89-4.87,3.35-10.95,3.65-16.73.25-4.55.19-9.21-.63-13.8ZM810.84,552.77c-.29,5.62-.76,11-3.07,15.16-.43.46-.72,1.03-.89,1.56-1.99,4.21-4.75,7.88-8.2,10.91-4.84,4.01-11.12,6.93-17.69,8.25-10.47,2.2-22.82,1.03-33.92-3.21-5.66-2.36-10.9-5.84-15.12-9.98-1.06-1.04-2.06-2.12-2.98-3.24-3.67-4.48-6.66-10.18-8.64-16.43-2.6-8.57-3.31-17.48-2.05-25.77,1.85-12.67,8.1-25.64,17.15-35.59,4.77-5.35,11.44-9.38,18.28-11.06l.08-.02c8.79-2.45,18.34-2.96,27.6-1.46,4.62.79,9.98,1.92,14.78,4.32,3.11,1.55,5.53,3.37,7.21,5.4.41.5.79,1.03,1.12,1.58,1.08,1.77,1.78,3.79,2.09,6.05.37,3.41-.51,7.27-2.37,10.32l-.05.08c-3.18,5.67-9.76,10.42-14.48,8.44l-.06-.03c-2.32-.91-4.3-2.97-6.4-5.15-.5-.53-1.01-1.05-1.52-1.56l-.05-.05c-2.62-2.48-6.76-5.71-11.62-7.02l-.08-.02c-3.65-.86-7.35-.5-10.17.98-2.75,1.38-5.05,3.9-6.64,7.28-2.05,4.12-2.38,8.87-2.54,13.38v.09c0,7.94.12,17.17,1.55,26.08.31,2.45,1.51,8.39,5.92,11.63l.04.03c2.21,1.56,5.28,2.24,8.25,1.96,1.29-.12,2.56-.43,3.74-.93,2.77-1.19,4.65-3.49,6.04-5.19.14-.18.29-.36.44-.53.22-.25.44-.52.66-.8.36-.46.72-.97,1.02-1.57.38-.76.5-1.76.7-4.04.04-.49.1-1.16.13-1.34l.05-.25v-.26c0-.1,0-.25.01-.41.06-1.59.05-2.8-.61-3.79l-.14-.22-.18-.18c-.82-.82-1.91-.93-2.78-.93h-.08c-1.08,0-2.1.14-3.09.26-1.05.13-2.05.26-2.96.21-.8-.11-1.31-.37-1.46-.58l-.02-.03c-.49-.94-1.01-5.03-1.01-7.26v-.16c-.15-2.31.25-4.15,1.03-4.81l.06-.05c.84-.75,1.96-1.24,3.4-1.5,3.23-.54,6.55-.59,10.07-.65,1.19-.02,2.38-.04,3.55-.07,1.26-.03,2.52-.08,3.78-.13,3.01-.12,5.92-.23,8.79-.1.68.44,1.4.83,2.15,1.12,2.05.86,4.21.85,6.33.25.58.23,1.08.49,1.47.79,1.05,1.11,1.86,2.68,2.22,4.36l.02.09c.15.6.29,1.21.41,1.84.8,4.04,1.03,8.53.73,13.96Z"/>
        <path class="cls-6" d="M794.25,527.68c-3.13.02-6.25.21-9.38.28-4.72.15-9.43,0-14,.76-1.67.31-3.35.91-4.71,2.13-1.05.88-1.6,2.26-1.84,3.74-.18,1.08-.2,2.22-.14,3.25,0,.27,0,.62.03,1.04.12,2.36.58,6.62,1.49,7.79.76,1.06,2.13,1.52,3.35,1.67,2.03.14,4.05-.4,6.08-.45.1,0,.2,0,.3,0,.15,0,.76,0,.91.15.3.46.15,2.13.15,2.74-.15.76-.3,4.11-.61,4.72,0,0,0,0,0,0,.22.95.48,1.74.79,2.15.16.22.34.42.55.59.36-.46.72-.97,1.02-1.57.38-.76.5-1.76.7-4.04.04-.49.1-1.16.13-1.34l.05-.25v-.26c0-.1,0-.25.01-.41.06-1.59.05-2.8-.61-3.79l-.14-.22-.18-.18c-.82-.82-1.91-.93-2.78-.93h-.08c-1.08,0-2.1.14-3.09.26-1.05.13-2.05.26-2.96.21-.8-.11-1.31-.37-1.46-.58l-.02-.03c-.49-.94-1.01-5.03-1.01-7.26v-.16c-.15-2.31.25-4.15,1.03-4.81l.06-.05c.84-.75,1.96-1.24,3.4-1.5,3.23-.54,6.55-.59,10.07-.65,1.19-.02,2.38-.04,3.55-.07,1.26-.03,2.52-.08,3.78-.13,3.01-.12,5.92-.23,8.79-.1-1.16-.76-2.22-1.69-3.25-2.69ZM794.25,527.68c-3.13.02-6.25.21-9.38.28-4.72.15-9.43,0-14,.76-1.67.31-3.35.91-4.71,2.13-1.05.88-1.6,2.26-1.84,3.74-.18,1.08-.2,2.22-.14,3.25,0,.27,0,.62.03,1.04.12,2.36.58,6.62,1.49,7.79.76,1.06,2.13,1.52,3.35,1.67,2.03.14,4.05-.4,6.08-.45.1,0,.2,0,.3,0,.15,0,.76,0,.91.15.3.46.15,2.13.15,2.74-.15.76-.3,4.11-.61,4.72,0,0,0,0,0,0,.22.95.48,1.74.79,2.15.16.22.34.42.55.59.36-.46.72-.97,1.02-1.57.38-.76.5-1.76.7-4.04.04-.49.1-1.16.13-1.34l.05-.25v-.26c0-.1,0-.25.01-.41.06-1.59.05-2.8-.61-3.79l-.14-.22-.18-.18c-.82-.82-1.91-.93-2.78-.93h-.08c-1.08,0-2.1.14-3.09.26-1.05.13-2.05.26-2.96.21-.8-.11-1.31-.37-1.46-.58l-.02-.03c-.49-.94-1.01-5.03-1.01-7.26v-.16c-.15-2.31.25-4.15,1.03-4.81l.06-.05c.84-.75,1.96-1.24,3.4-1.5,3.23-.54,6.55-.59,10.07-.65,1.19-.02,2.38-.04,3.55-.07,1.26-.03,2.52-.08,3.78-.13,3.01-.12,5.92-.23,8.79-.1-1.16-.76-2.22-1.69-3.25-2.69ZM794.25,527.68c-3.13.02-6.25.21-9.38.28-4.72.15-9.43,0-14,.76-1.67.31-3.35.91-4.71,2.13-1.05.88-1.6,2.26-1.84,3.74-.18,1.08-.2,2.22-.14,3.25,0,.27,0,.62.03,1.04.12,2.36.58,6.62,1.49,7.79.76,1.06,2.13,1.52,3.35,1.67,2.03.14,4.05-.4,6.08-.45.1,0,.2,0,.3,0,.15,0,.76,0,.91.15.3.46.15,2.13.15,2.74-.15.76-.3,4.11-.61,4.72,0,0,0,0,0,0,.22.95.48,1.74.79,2.15.16.22.34.42.55.59.36-.46.72-.97,1.02-1.57.38-.76.5-1.76.7-4.04.04-.49.1-1.16.13-1.34l.05-.25v-.26c0-.1,0-.25.01-.41.06-1.59.05-2.8-.61-3.79l-.14-.22-.18-.18c-.82-.82-1.91-.93-2.78-.93h-.08c-1.08,0-2.1.14-3.09.26-1.05.13-2.05.26-2.96.21-.8-.11-1.31-.37-1.46-.58l-.02-.03c-.49-.94-1.01-5.03-1.01-7.26v-.16c-.15-2.31.25-4.15,1.03-4.81l.06-.05c.84-.75,1.96-1.24,3.4-1.5,3.23-.54,6.55-.59,10.07-.65,1.19-.02,2.38-.04,3.55-.07,1.26-.03,2.52-.08,3.78-.13,3.01-.12,5.92-.23,8.79-.1-1.16-.76-2.22-1.69-3.25-2.69ZM815.6,539.58c-.21-1.32-.47-2.6-.78-3.85-.57-2.59-1.8-4.99-3.49-6.79-.08-.09-.17-.18-.25-.26l-.22-.2c-1.66-1.32-3.95-2.22-6.82-2.67-4.16-.81-8.28-.85-12.31-.73-1.08.03-2.15.07-3.21.11-1.23.05-2.47.1-3.72.13-1.16.04-2.32.05-3.49.07-3.56.06-7.24.11-10.89.72-2.03.37-3.79,1.08-5.22,2.13h0c-.26.19-.51.39-.75.6-2.7,2.27-3.07,6.19-2.89,9.1.02.94.21,7.84,2.03,10.28.25.34.53.65.85.93,1.07.96,2.53,1.57,4.29,1.79h.14c1.44.12,2.78-.05,4.07-.22.32-.04.63-.08.93-.11-.05.37-.1.85-.16,1.54-.06.65-.16,1.82-.25,2.31-.21.35-.54.74-.89,1.15-.19.22-.37.44-.53.64-1.14,1.4-2.44,2.98-4,3.65-.8.34-1.71.53-2.62.58-1.58.07-3.16-.29-4.25-1.05-2.26-1.68-3.44-5.27-3.79-8.07v-.09c-1.38-8.53-1.5-17.15-1.5-25.24.14-3.93.42-8.01,2-11.19l.03-.06c.76-1.62,2.12-3.77,4.27-4.85l.05-.03c1.68-.89,4.1-1.09,6.49-.54,3.77,1.03,7.13,3.67,9.3,5.72.48.47.95.97,1.42,1.46.44.46.88.91,1.33,1.37,2,2.02,4.15,3.94,6.92,5.02.85.36,1.72.59,2.6.72h0c7,1.06,14.57-4.53,18.46-11.42,2.47-4.08,3.59-9.04,3.08-13.64v-.07c-.1-.65-.21-1.3-.36-1.92-.7-3.16-2.06-5.97-4.03-8.37-2.14-2.6-5.14-4.88-8.91-6.77-5.41-2.71-11.25-3.95-16.28-4.81-10.01-1.61-20.32-1.07-29.83,1.58-7.84,1.93-15.46,6.54-20.9,12.63-4.8,5.28-8.82,11.21-11.91,17.51-2.21,4.51-3.95,9.2-5.16,13.97-.58,2.27-1.04,4.56-1.37,6.86-1.38,9.05-.62,18.77,2.22,28.12,2.19,6.92,5.51,13.21,9.6,18.22,4.31,5.23,10.06,9.76,16.45,13.02,1.22.62,2.46,1.2,3.73,1.73l.07.03c8.1,3.1,16.61,4.69,24.8,4.69,4.14,0,8.21-.41,12.09-1.23,7.4-1.48,14.51-4.81,20.03-9.38l.06-.05c4.02-3.54,7.23-7.82,9.54-12.72l.41-.69c3.11-5.24,3.68-11.48,4.02-17.93.29-5.1.12-9.48-.51-13.47ZM806.87,569.5c-1.99,4.21-4.75,7.88-8.2,10.91-4.84,4.01-11.12,6.93-17.69,8.25-10.47,2.2-22.82,1.03-33.92-3.21-5.66-2.36-10.9-5.84-15.12-9.98-1.06-1.04-2.06-2.12-2.98-3.24-3.67-4.48-6.66-10.18-8.64-16.43-2.6-8.57-3.31-17.48-2.05-25.77,1.85-12.67,8.1-25.64,17.15-35.59,4.77-5.35,11.44-9.38,18.28-11.06l.08-.02c8.79-2.45,18.34-2.96,27.6-1.46,4.62.79,9.98,1.92,14.78,4.32,3.11,1.55,5.53,3.37,7.21,5.4.41.5.79,1.03,1.12,1.58,1.08,1.77,1.78,3.79,2.09,6.05.37,3.41-.51,7.27-2.37,10.32l-.05.08c-3.18,5.67-9.76,10.42-14.48,8.44l-.06-.03c-2.32-.91-4.3-2.97-6.4-5.15-.5-.53-1.01-1.05-1.52-1.56l-.05-.05c-2.62-2.48-6.76-5.71-11.62-7.02l-.08-.02c-3.65-.86-7.35-.5-10.17.98-2.75,1.38-5.05,3.9-6.64,7.28-2.05,4.12-2.38,8.87-2.54,13.38v.09c0,7.94.12,17.17,1.55,26.08.31,2.45,1.51,8.39,5.92,11.63l.04.03c2.21,1.56,5.28,2.24,8.25,1.96,1.29-.12,2.56-.43,3.74-.93,2.77-1.19,4.65-3.49,6.04-5.19.14-.18.29-.36.44-.53.22-.25.44-.52.66-.8.36-.46.72-.97,1.02-1.57.38-.76.5-1.76.7-4.04.04-.49.1-1.16.13-1.34l.05-.25v-.26c0-.1,0-.25.01-.41.06-1.59.05-2.8-.61-3.79l-.14-.22-.18-.18c-.82-.82-1.91-.93-2.78-.93h-.08c-1.08,0-2.1.14-3.09.26-1.05.13-2.05.26-2.96.21-.8-.11-1.31-.37-1.46-.58l-.02-.03c-.49-.94-1.01-5.03-1.01-7.26v-.16c-.15-2.31.25-4.15,1.03-4.81l.06-.05c.84-.75,1.96-1.24,3.4-1.5,3.23-.54,6.55-.59,10.07-.65,1.19-.02,2.38-.04,3.55-.07,1.26-.03,2.52-.08,3.78-.13,3.01-.12,5.92-.23,8.79-.1,1.87.09,3.72.28,5.58.64l.1.02c1.08.17,2.02.41,2.8.71.58.23,1.08.49,1.47.79,1.05,1.11,1.86,2.68,2.22,4.36l.02.09c.15.6.29,1.21.41,1.84.8,4.04,1.03,8.53.73,13.96-.29,5.62-.76,11-3.07,15.16-.43.46-.72,1.03-.89,1.56ZM794.25,527.68c-3.13.02-6.25.21-9.38.28-4.72.15-9.43,0-14,.76-1.67.31-3.35.91-4.71,2.13-1.05.88-1.6,2.26-1.84,3.74-.18,1.08-.2,2.22-.14,3.25,0,.27,0,.62.03,1.04.12,2.36.58,6.62,1.49,7.79.76,1.06,2.13,1.52,3.35,1.67,2.03.14,4.05-.4,6.08-.45.1,0,.2,0,.3,0,.15,0,.76,0,.91.15.3.46.15,2.13.15,2.74-.15.76-.3,4.11-.61,4.72,0,0,0,0,0,0,.22.95.48,1.74.79,2.15.16.22.34.42.55.59.36-.46.72-.97,1.02-1.57.38-.76.5-1.76.7-4.04.04-.49.1-1.16.13-1.34l.05-.25v-.26c0-.1,0-.25.01-.41.06-1.59.05-2.8-.61-3.79l-.14-.22-.18-.18c-.82-.82-1.91-.93-2.78-.93h-.08c-1.08,0-2.1.14-3.09.26-1.05.13-2.05.26-2.96.21-.8-.11-1.31-.37-1.46-.58l-.02-.03c-.49-.94-1.01-5.03-1.01-7.26v-.16c-.15-2.31.25-4.15,1.03-4.81l.06-.05c.84-.75,1.96-1.24,3.4-1.5,3.23-.54,6.55-.59,10.07-.65,1.19-.02,2.38-.04,3.55-.07,1.26-.03,2.52-.08,3.78-.13,3.01-.12,5.92-.23,8.79-.1-1.16-.76-2.22-1.69-3.25-2.69ZM794.25,527.68c-3.13.02-6.25.21-9.38.28-4.72.15-9.43,0-14,.76-1.67.31-3.35.91-4.71,2.13-1.05.88-1.6,2.26-1.84,3.74-.18,1.08-.2,2.22-.14,3.25,0,.27,0,.62.03,1.04.12,2.36.58,6.62,1.49,7.79.76,1.06,2.13,1.52,3.35,1.67,2.03.14,4.05-.4,6.08-.45.1,0,.2,0,.3,0,.15,0,.76,0,.91.15.3.46.15,2.13.15,2.74-.15.76-.3,4.11-.61,4.72,0,0,0,0,0,0,.22.95.48,1.74.79,2.15.16.22.34.42.55.59.36-.46.72-.97,1.02-1.57.38-.76.5-1.76.7-4.04.04-.49.1-1.16.13-1.34l.05-.25v-.26c0-.1,0-.25.01-.41.06-1.59.05-2.8-.61-3.79l-.14-.22-.18-.18c-.82-.82-1.91-.93-2.78-.93h-.08c-1.08,0-2.1.14-3.09.26-1.05.13-2.05.26-2.96.21-.8-.11-1.31-.37-1.46-.58l-.02-.03c-.49-.94-1.01-5.03-1.01-7.26v-.16c-.15-2.31.25-4.15,1.03-4.81l.06-.05c.84-.75,1.96-1.24,3.4-1.5,3.23-.54,6.55-.59,10.07-.65,1.19-.02,2.38-.04,3.55-.07,1.26-.03,2.52-.08,3.78-.13,3.01-.12,5.92-.23,8.79-.1-1.16-.76-2.22-1.69-3.25-2.69ZM794.25,527.68c-3.13.02-6.25.21-9.38.28-4.72.15-9.43,0-14,.76-1.67.31-3.35.91-4.71,2.13-1.05.88-1.6,2.26-1.84,3.74-.18,1.08-.2,2.22-.14,3.25,0,.27,0,.62.03,1.04.12,2.36.58,6.62,1.49,7.79.76,1.06,2.13,1.52,3.35,1.67,2.03.14,4.05-.4,6.08-.45.1,0,.2,0,.3,0,.15,0,.76,0,.91.15.3.46.15,2.13.15,2.74-.15.76-.3,4.11-.61,4.72,0,0,0,0,0,0,.22.95.48,1.74.79,2.15.16.22.34.42.55.59.36-.46.72-.97,1.02-1.57.38-.76.5-1.76.7-4.04.04-.49.1-1.16.13-1.34l.05-.25v-.26c0-.1,0-.25.01-.41.06-1.59.05-2.8-.61-3.79l-.14-.22-.18-.18c-.82-.82-1.91-.93-2.78-.93h-.08c-1.08,0-2.1.14-3.09.26-1.05.13-2.05.26-2.96.21-.8-.11-1.31-.37-1.46-.58l-.02-.03c-.49-.94-1.01-5.03-1.01-7.26v-.16c-.15-2.31.25-4.15,1.03-4.81l.06-.05c.84-.75,1.96-1.24,3.4-1.5,3.23-.54,6.55-.59,10.07-.65,1.19-.02,2.38-.04,3.55-.07,1.26-.03,2.52-.08,3.78-.13,3.01-.12,5.92-.23,8.79-.1-1.16-.76-2.22-1.69-3.25-2.69Z"/>
      </g>
      <g>
        <path class="cls-6" d="M892.1,512c2.13-.15,4.87-.46,6.24-2.13,1.98-2.28,2.74-11.56,2.74-14.75.04-.96.06-2.14.01-3.4-.13-3.96-.86-8.72-3.51-9.99-1.98-1.07-10.19-1.07-12.47-1.07-7.45.15-14.91.31-22.36.15-5.78-.15-11.56-.46-17.49-.46-4.41.15-9.13,0-13.08,2.13-2.43,1.22-4.11,4.26-4.87,7-1.22,4.56-1.37,9.43-1.37,14.3,0,2.43.3,17.34.3,19.77,0,16.28-.46,32.7-.15,48.98,0,3.95,0,8.21,1.22,12.02.46,1.37,1.22,2.58,2.43,3.5,1.37,1.07,3.2,1.67,5.02,2.13.84.19,1.7.36,2.56.49,4.58.72,9.41.7,14.02.58,6.54,0,12.93-.3,19.32-.61,3.5-.3,22.36-.61,25.85-1.37.61-.15,1.37,0,1.83-.46,1.06-1.06,1.22-5.17,1.22-6.69.1-1.84,0-9.26-.13-14.83-.06-2.75-.13-5.05-.18-6-.15-1.22-.15-2.74-.91-3.8-.68-.95-2.08-1.17-3.35-1.21-.15,0-.3,0-.45,0-2.74,0-18.86.15-21.6.3-2.43.15-15.51,1.52-18.1,1.22-.31-3.8-.31-7.6-.46-11.26,2.59-.15,17.34,0,19.92,0,3.04,0,9.28.46,10.65-2.28.72-1.34,1.01-5.26,1.1-8.82.07-2.49.03-4.8-.03-5.93,0-1.22,0-2.44-.61-3.5-.46-.61-1.06-1.06-1.83-1.37-2.29-.53-10.32-.14-17.45.23-5.17.26-9.87.51-11.6.38,0-4.26.31-8.52.76-12.78,4.71,0,32.09-.15,36.81-.46ZM854.34,527.85c1.74.13,5.45-.05,11.35-.35.07,0,.13,0,.2,0,5.9-.3,14.56-.74,16.89-.35.19.1.32.2.41.29.19.48.19,1.24.19,2.05v.14c.09,1.56.1,3.73.03,5.89-.1,3.33-.37,6.62-.8,7.51-.51.64-2.9.93-7.1.86-.44,0-.84-.01-1.21-.01-.62,0-1.95,0-3.65-.02-7.28-.05-14.54-.09-16.43.02l-2.59.15.11,2.59c.05,1.23.09,2.47.12,3.72.07,2.49.14,5.05.35,7.63l.17,2.16,2.15.25c1.61.19,5.74-.09,10.91-.54,1.28-.11,2.63-.23,4.03-.36,1.63-.15,3.03-.28,3.61-.31,2.64-.14,18.74-.3,21.45-.3,1.11,0,1.56.14,1.71.2.18.36.25,1.15.31,1.74.03.23.05.45.07.67.05.97.11,3.18.17,5.81.12,5.52.23,12.92.13,14.66v.15c0,1.85-.2,3.57-.42,4.48-.18.02-.38.05-.58.1-2.1.44-11.3.76-17.4.97-3.75.13-6.73.23-8.05.34-6.24.3-12.68.6-19.14.6h-.07c-4.42.13-9.44.18-14.14-.64-.59-.1-1.18-.22-1.76-.35-1.31-.32-2.94-.81-4.01-1.64l-.04-.03c-.69-.52-1.19-1.25-1.5-2.19-1.09-3.41-1.09-7.38-1.09-11.21v-.05c-.19-10.14-.08-20.52.03-30.56.06-6.03.13-12.26.13-18.37,0-1.24-.07-5.46-.15-9.93-.07-4.25-.15-8.65-.15-9.84,0-4.27.1-9.19,1.27-13.59.71-2.53,2.08-4.63,3.51-5.34l.07-.04c2.93-1.58,6.51-1.67,10.31-1.77.53-.01,1.05-.03,1.57-.04,3.91,0,7.83.14,11.62.27,1.92.07,3.84.13,5.77.18,7.49.15,15.07,0,22.44-.15,9.1,0,10.94.64,11.19.75l.11.06c.79.38,1.83,2.69,2.01,7.55.04,1.01.04,2.13,0,3.36v.1c0,4.4-1.06,11.78-2.1,13.03l-.05.06c-.74.91-3.39,1.1-4.37,1.17-4.56.29-31.81.45-36.64.45h-2.37l-.25,2.35c-.52,4.87-.78,9.14-.78,13.06v2.45l2.44.18Z"/>
        <path class="cls-6" d="M892.29,514.62c2.06-.14,5.88-.42,8.06-3.06,3.02-3.55,3.33-15.24,3.36-16.36.04-1.18.05-2.29.03-3.34-.18-6.75-1.85-10.95-4.97-12.48-1.29-.68-3.98-1.35-13.66-1.35h-.09c-7.29.15-14.83.3-22.2.15-1.9-.05-3.8-.11-5.7-.18-3.85-.13-7.83-.27-11.85-.27h-.09c-.52.02-1.05.04-1.57.05-4.04.11-8.61.22-12.63,2.38-2.77,1.4-5.08,4.62-6.2,8.66-1.34,5.04-1.45,10.37-1.45,14.98,0,1.24.07,5.46.15,9.93.07,4.25.15,8.65.15,9.84,0,6.08-.07,12.3-.13,18.31-.02,2.07-.04,4.15-.07,6.24-.07,8.09-.11,16.33.04,24.44v.72c0,3.86.08,8.14,1.35,12.1.66,1.99,1.78,3.59,3.33,4.76,1.85,1.44,4.17,2.14,5.98,2.59h.05c1.17.28,2.36.49,3.55.66,3.1.43,6.23.56,9.22.56,1.52,0,3.01-.04,4.43-.07,6.59,0,13.1-.31,19.4-.61h.11c1.15-.11,4.25-.21,7.83-.33,8.98-.31,16.03-.58,18.39-1.1.08-.01.16-.01.25-.02.65-.05,1.85-.14,2.85-1.13,1.31-1.31,1.98-4.17,1.99-8.49.11-2.09,0-9.41-.12-14.92-.07-2.84-.14-5.2-.18-6.12l-.02-.19c-.03-.2-.04-.41-.07-.62-.12-1.24-.29-2.94-1.32-4.38-1.06-1.48-2.71-2.02-4.08-2.21-.77-.11-1.44-.11-1.87-.11-2.81,0-18.96.15-21.76.31-.67.04-2.05.17-3.78.32-3.02.27-8.51.76-11.68.9-.09-1.66-.13-3.32-.18-4.94,0-.37-.02-.74-.03-1.11,3.62-.03,9.78.01,13.52.04,1.71,0,3.05.02,3.68.02.34,0,.72,0,1.13.01,3.94.06,9.89.15,11.86-3.72.99-1.9,1.31-6.35,1.39-10.09.06-2.91-.02-5.38-.04-5.91,0-1.39-.01-3.11-.96-4.76l-.18-.27c-.31-.41-.66-.78-1.05-1.11-.55-.47-1.19-.84-1.9-1.13l-.19-.07-.2-.04c-2.53-.58-9.06-.3-18.75.19-3,.15-6.06.31-8.22.36.07-2.34.22-4.84.47-7.53,8.32-.03,30.36-.18,34.61-.46ZM882.78,527.15c.19.1.32.2.41.29.19.48.19,1.24.19,2.05v.14c.09,1.56.1,3.73.03,5.89-.1,3.33-.37,6.62-.8,7.51-.51.64-2.9.93-7.1.86-.44,0-.84-.01-1.21-.01-.62,0-1.95,0-3.65-.02-7.28-.05-14.54-.09-16.43.02l-2.59.15.11,2.59c.05,1.23.09,2.47.12,3.72.07,2.49.14,5.05.35,7.63l.17,2.16,2.15.25c1.61.19,5.74-.09,10.91-.54,1.28-.11,2.63-.23,4.03-.36,1.63-.15,3.03-.28,3.61-.31,2.64-.14,18.74-.3,21.45-.3,1.11,0,1.56.14,1.71.2.18.36.25,1.15.31,1.74.03.23.05.45.07.67.05.97.11,3.18.17,5.81.12,5.52.23,12.92.13,14.66v.15c0,1.85-.2,3.57-.42,4.48-.18.02-.38.05-.58.1-2.1.44-11.3.76-17.4.97-3.75.13-6.73.23-8.05.34-6.24.3-12.68.6-19.14.6h-.07c-4.42.13-9.44.18-14.14-.64-.59-.1-1.18-.22-1.76-.35-1.31-.32-2.94-.81-4.01-1.64l-.04-.03c-.69-.52-1.19-1.25-1.5-2.19-1.09-3.41-1.09-7.38-1.09-11.21v-.05c-.19-10.14-.08-20.52.03-30.56.06-6.03.13-12.26.13-18.37,0-1.24-.07-5.46-.15-9.93-.07-4.25-.15-8.65-.15-9.84,0-4.27.1-9.19,1.27-13.59.71-2.53,2.08-4.63,3.51-5.34l.07-.04c2.93-1.58,6.51-1.67,10.31-1.77.53-.01,1.05-.03,1.57-.04,3.91,0,7.83.14,11.62.27,1.92.07,3.84.13,5.77.18,7.49.15,15.07,0,22.44-.15,9.1,0,10.94.64,11.19.75l.11.06c.79.38,1.83,2.69,2.01,7.55.04,1.01.04,2.13,0,3.36v.1c0,4.4-1.06,11.78-2.1,13.03l-.05.06c-.74.91-3.39,1.1-4.37,1.17-4.56.29-31.81.45-36.64.45h-2.37l-.25,2.35c-.52,4.87-.78,9.14-.78,13.06v2.45l2.44.18c1.74.13,5.45-.05,11.35-.35.07,0,.13,0,.2,0,5.9-.3,14.56-.74,16.89-.35Z"/>
      </g>
    </g>
  </g>
  <g>
    <path class="cls-4" d="M697.59,1031.84c-97.82-2.41-191.76-33.18-271.83-89.06l-.64-.45h0c-5.1-3.56-10.29-7.35-15.44-11.26-78.74-59.72-137.41-140.42-169.68-233.36-2.16-6.23-4.23-12.6-6.15-18.92-14.1-46.6-21.24-95.15-21.24-144.29s7.15-97.68,21.24-144.29c1.92-6.32,3.98-12.69,6.15-18.92,31.99-92.14,89.93-172.24,167.65-231.81l77.62,106.84c-55,42.96-96.34,100.2-119.62,165.67-2.23,6.26-4.33,12.71-6.22,19.15-9.83,33.42-14.82,68.19-14.82,103.36s4.99,69.94,14.82,103.36c1.9,6.44,3.99,12.88,6.22,19.15,23.55,66.24,65.58,124.04,121.54,167.16,5.4,4.16,10.88,8.15,16.29,11.85,57.37,39.4,124.44,61.42,194.12,63.76v132.06Z"/>
    <path class="cls-6" d="M407.12,143.03l74.7,102.81c-54.43,43.08-95.36,100.14-118.54,165.31-2.25,6.32-4.36,12.81-6.27,19.29-9.9,33.65-14.92,68.66-14.92,104.06s5.02,70.42,14.92,104.06c1.91,6.48,4.02,12.97,6.27,19.28,23.71,66.69,66.03,124.89,122.37,168.3,5.43,4.19,10.96,8.2,16.4,11.93,57.1,39.22,123.75,61.34,193.04,64.11v127.08c-96.4-2.87-188.93-33.44-267.9-88.55l-1.12-.78c-4.92-3.45-9.93-7.1-14.9-10.88-38.59-29.27-72.63-63.95-101.19-103.07-28.88-39.57-51.64-83.01-67.64-129.11-2.15-6.19-4.21-12.53-6.12-18.83-14.02-46.37-21.14-94.67-21.14-143.56s7.11-97.19,21.14-143.56c1.91-6.3,3.97-12.64,6.12-18.83,16.01-46.1,38.76-89.54,67.64-129.11,27.55-37.75,60.21-71.36,97.14-99.97M408.15,135.94c-77.85,59.05-137.85,140.4-170.53,234.53-2.18,6.28-4.24,12.62-6.18,19.02-13.88,45.89-21.35,94.58-21.35,145.01s7.47,99.12,21.35,145.01c1.94,6.4,4,12.74,6.18,19.02,32.68,94.13,92.68,175.48,170.53,234.53,5.31,4.03,10.7,7.96,16.17,11.77h0c78.45,54.75,173.33,87.56,275.76,89.57v-137.04c-72.34-1.95-139.4-25.07-195.21-63.4-5.51-3.77-10.9-7.7-16.18-11.77-54.75-42.19-97.11-99.65-120.71-166.02-2.23-6.26-4.29-12.6-6.18-19.02-9.58-32.55-14.72-67-14.72-102.65s5.14-70.1,14.72-102.65c1.89-6.42,3.95-12.76,6.18-19.02,23.6-66.37,65.96-123.83,120.71-166.02l-80.55-110.87h0Z"/>
  </g>
  <g>
    <path class="cls-2" d="M427.85,124.77c79.61-54.96,172.77-85.22,269.75-87.61v132.06c-68.87,2.31-135.19,23.85-192.11,62.39l-77.63-106.84Z"/>
    <path class="cls-6" d="M695.09,39.73v127.08c-67.67,2.71-132.81,23.87-189.01,61.38l-74.71-102.81c78.04-53.29,169.01-82.83,263.71-85.65M700.09,34.6c-102.43,2.01-197.32,34.82-275.77,89.57l80.56,110.87c55.81-38.33,122.87-61.45,195.21-63.4V34.6h0Z"/>
  </g>
  <g>
    <path class="cls-1" d="M722.59,899.79c69.68-2.34,136.75-24.36,194.12-63.77,5.41-3.7,10.89-7.69,16.29-11.85,55.96-43.12,97.99-100.92,121.54-167.16,2.24-6.28,4.33-12.73,6.22-19.15,9.83-33.42,14.82-68.19,14.82-103.36s-4.99-69.94-14.82-103.36c-1.89-6.43-3.99-12.87-6.22-19.15-23.55-66.24-65.58-124.04-121.54-167.16-5.4-4.16-10.88-8.15-16.29-11.85-57.37-39.4-124.44-61.42-194.12-63.76V37.16c97.82,2.41,191.76,33.18,271.83,89.06l.64.45h0c5.12,3.58,10.31,7.37,15.44,11.26,78.74,59.72,137.41,140.42,169.68,233.36,2.16,6.21,4.22,12.58,6.15,18.92,14.09,46.6,21.24,95.15,21.24,144.28s-7.15,97.68-21.24,144.29c-1.92,6.34-3.99,12.71-6.15,18.92-32.27,92.94-90.94,173.63-169.68,233.36-5.37,4.08-10.78,8.01-16.09,11.71-80.07,55.88-174.02,86.65-271.84,89.07v-132.06Z"/>
    <path class="cls-6" d="M725.09,39.73c96.4,2.87,188.93,33.44,267.9,88.54l1.13.78c4.93,3.45,9.93,7.11,14.89,10.87,38.59,29.27,72.63,63.95,101.19,103.07,28.88,39.57,51.64,83.01,67.64,129.11,2.15,6.19,4.21,12.53,6.12,18.83,14.02,46.37,21.14,94.67,21.14,143.56s-7.11,97.19-21.14,143.56c-1.91,6.31-3.97,12.64-6.12,18.83-16.01,46.1-38.76,89.54-67.64,129.11-28.55,39.12-62.6,73.8-101.19,103.07-5.34,4.05-10.72,7.97-16.01,11.65-78.97,55.11-171.5,85.67-267.91,88.54v-127.08c69.29-2.78,135.94-24.89,193.03-64.11,5.46-3.73,10.98-7.75,16.41-11.94,56.34-43.42,98.66-101.61,122.37-168.3,2.25-6.32,4.36-12.81,6.27-19.29,9.9-33.65,14.92-68.66,14.92-104.06s-5.02-70.42-14.92-104.06c-1.91-6.48-4.01-12.97-6.27-19.28-23.71-66.69-66.03-124.89-122.37-168.31-5.43-4.19-10.95-8.2-16.4-11.93-57.1-39.22-123.75-61.34-193.04-64.11V39.73M720.09,34.6v137.04c72.34,1.95,139.4,25.07,195.21,63.4,5.51,3.77,10.9,7.7,16.18,11.77,54.75,42.19,97.11,99.65,120.71,166.02,2.23,6.26,4.29,12.6,6.18,19.02,9.58,32.55,14.72,67,14.72,102.65s-5.14,70.1-14.72,102.65c-1.89,6.42-3.95,12.76-6.18,19.02-23.6,66.37-65.96,123.83-120.71,166.02-5.28,4.07-10.67,8-16.18,11.77-55.81,38.33-122.87,61.45-195.21,63.4v137.04c102.43-2.01,197.32-34.82,275.77-89.57,5.47-3.81,10.86-7.74,16.17-11.77,77.85-59.05,137.85-140.4,170.53-234.53,2.18-6.28,4.24-12.62,6.18-19.02,13.88-45.89,21.35-94.58,21.35-145.01s-7.47-99.12-21.35-145.01c-1.94-6.4-4-12.74-6.18-19.02-32.68-94.13-92.68-175.48-170.53-234.53-5.31-4.03-10.7-7.96-16.17-11.77h-.01c-78.45-54.75-173.33-87.56-275.76-89.57h0Z"/>
  </g>
  <g>
    <circle class="cls-5" cx="552.59" cy="65" r="62.5"/>
    <path class="cls-6" d="M552.59,130c-35.84,0-65-29.16-65-65S516.75,0,552.59,0s65,29.16,65,65-29.16,65-65,65ZM552.59,5c-33.08,0-60,26.92-60,60s26.92,60,60,60,60-26.92,60-60-26.92-60-60-60Z"/>
  </g>
  <path class="cls-6" d="M563.65,61.47c2.48,1.01,4.34,2.37,5.57,4.08,1.23,1.71,1.85,3.62,1.85,5.74,0,4.8-1.67,8.28-5.02,10.44s-7.82,3.24-13.42,3.24c-4.7,0-8.84-.79-12.41-2.38-3.57-1.58-6.15-4.25-7.75-7.99,1.76-.26,3.69-.67,5.78-1.25,2.09-.58,3.99-1.17,5.69-1.78.67,1.38,1.62,2.38,2.83,3,1.21.62,2.85.94,4.9.94,2.18,0,3.98-.35,5.4-1.06,1.42-.7,2.14-1.68,2.14-2.93s-.62-2.35-1.87-3.22-3.15-1.3-5.71-1.3c-1.66,0-3.18.3-4.56.89-1.38.59-2.37,1.43-2.98,2.52h-11.09c.77-3.29,1.45-6.85,2.04-10.66.59-3.81.95-7.18,1.08-10.13h33.7v9.31c-3.55-.22-6.9-.36-10.06-.41-3.15-.05-7.56-.07-13.22-.07l-.48,2.69c2.43-.8,5.23-1.2,8.4-1.2,3.65,0,6.71.5,9.19,1.51Z"/>
  <g>
    <circle class="cls-5" cx="209.59" cy="548" r="62.5"/>
    <path class="cls-6" d="M209.59,613c-35.84,0-65-29.16-65-65s29.16-65,65-65,65,29.16,65,65-29.16,65-65,65ZM209.59,488c-33.08,0-60,26.92-60,60s26.92,60,60,60,60-26.92,60-60-26.92-60-60-60Z"/>
  </g>
  <g>
    <path class="cls-6" d="M208.72,552.36v9.02h-6.53v6.1h-11.47c.13-1.34.22-3.38.29-6.1h-22.8v-9.7c7.46-5.73,14.11-12.08,19.97-19.06h14.02v19.73h6.53ZM191.25,542.14c-2.21,2.27-4.11,4.17-5.71,5.69-1.6,1.52-3.41,3.03-5.42,4.54h10.99l.14-10.22Z"/>
    <path class="cls-6" d="M241.92,544.47c2.48,1.01,4.33,2.37,5.57,4.08s1.85,3.62,1.85,5.74c0,4.8-1.67,8.28-5.02,10.44s-7.82,3.24-13.42,3.24c-4.7,0-8.84-.79-12.41-2.38-3.57-1.58-6.15-4.25-7.75-7.99,1.76-.26,3.69-.67,5.79-1.25,2.09-.58,3.99-1.17,5.69-1.78.67,1.38,1.62,2.38,2.83,3,1.22.62,2.85.94,4.9.94,2.18,0,3.97-.35,5.4-1.06,1.42-.7,2.14-1.68,2.14-2.93s-.62-2.35-1.87-3.22-3.15-1.3-5.71-1.3c-1.66,0-3.18.3-4.56.89-1.38.59-2.37,1.43-2.98,2.52h-11.09c.77-3.29,1.45-6.85,2.04-10.66.59-3.81.95-7.18,1.08-10.13h33.7v9.31c-3.55-.22-6.91-.36-10.06-.41-3.15-.05-7.56-.07-13.22-.07l-.48,2.69c2.43-.8,5.23-1.2,8.4-1.2,3.65,0,6.71.5,9.19,1.51Z"/>
  </g>
  <g>
    <circle class="cls-5" cx="1119.59" cy="255" r="62.5"/>
    <path class="cls-6" d="M1119.59,320c-35.84,0-65-29.16-65-65s29.16-65,65-65,65,29.16,65,65-29.16,65-65,65ZM1119.59,195c-33.08,0-60,26.92-60,60s26.92,60,60,60,60-26.92,60-60-26.92-60-60-60Z"/>
  </g>
  <g>
    <path class="cls-6" d="M1112.56,250.47c2.48,1.01,4.34,2.37,5.57,4.08,1.23,1.71,1.85,3.62,1.85,5.74,0,4.8-1.67,8.28-5.02,10.44s-7.82,3.24-13.42,3.24c-4.7,0-8.84-.79-12.41-2.38-3.57-1.58-6.15-4.25-7.75-7.99,1.76-.26,3.69-.67,5.78-1.25,2.09-.58,3.99-1.17,5.69-1.78.67,1.38,1.62,2.38,2.83,3,1.21.62,2.85.94,4.9.94,2.18,0,3.98-.35,5.4-1.06,1.42-.7,2.14-1.68,2.14-2.93s-.62-2.35-1.87-3.22-3.15-1.3-5.71-1.3c-1.66,0-3.18.3-4.56.89-1.38.59-2.37,1.43-2.98,2.52h-11.09c.77-3.29,1.45-6.85,2.04-10.66.59-3.81.95-7.18,1.08-10.13h33.7v9.31c-3.55-.22-6.9-.36-10.06-.41-3.15-.05-7.56-.07-13.22-.07l-.48,2.69c2.43-.8,5.23-1.2,8.4-1.2,3.65,0,6.71.5,9.19,1.51Z"/>
    <path class="cls-6" d="M1126.88,269.21c-3.26-3.17-4.9-7.57-4.9-13.2s1.64-9.98,4.92-13.13c3.28-3.15,8.34-4.73,15.19-4.73s11.9,1.58,15.17,4.73c3.26,3.15,4.9,7.53,4.9,13.13s-1.63,10.03-4.9,13.2c-3.26,3.17-8.32,4.75-15.17,4.75s-11.95-1.58-15.22-4.75ZM1148.58,262.85c1.34-1.81,2.02-4.09,2.02-6.84s-.67-4.98-2.02-6.79-3.49-2.71-6.43-2.71-5.24.9-6.6,2.71c-1.36,1.81-2.04,4.07-2.04,6.79s.68,4.99,2.04,6.82c1.36,1.82,3.56,2.74,6.6,2.74s5.09-.9,6.43-2.71Z"/>
  </g>
  <g>
    <path class="cls-6" d="M1261.34,226.31c8.81,0,14.95,1.56,18.4,4.68,3.46,3.12,5.18,7.52,5.18,13.19,0,3.9-.69,7.21-2.06,9.93-1.37,2.72-3.79,4.85-7.24,6.38-3.46,1.53-8.22,2.29-14.29,2.29h-13.82v11.69h-16.34c.35-8.59.53-16.63.53-24.12s-.18-15.52-.53-24.12h16.34v.07h13.82ZM1256.69,249.97c3.68,0,6.43-.14,8.27-.43,1.84-.29,3.12-.81,3.85-1.56s1.1-1.86,1.1-3.32-.34-2.56-1.03-3.29c-.69-.73-1.95-1.23-3.79-1.5s-4.64-.4-8.4-.4h-9.17v10.5h9.17Z"/>
    <path class="cls-6" d="M1303.13,248.04c1.86-6.69,6.49-10.03,13.89-10.03,1.28,0,2.52.09,3.72.27l-2.13,14.88c-3.19-1.2-5.8-1.79-7.84-1.79-2.52,0-4.38.75-5.58,2.26-1.2,1.51-1.79,3.52-1.79,6.05v-.07l-.07,4.38c0,3.15.09,6.64.27,10.5h-15.88c.35-6.38.53-12.4.53-18.07s-.18-11.74-.53-18.21c2.92.13,5.16.2,6.71.2,1.64,0,3.88-.07,6.71-.2l1.99,9.83Z"/>
    <path class="cls-6" d="M1356.68,257.87h-21.66c.35,1.95,1.23,3.53,2.62,4.75,1.4,1.22,3.38,1.83,5.95,1.83,1.86,0,3.61-.37,5.25-1.1s2.95-1.76,3.92-3.09c2.97,1.46,6.91,3.04,11.83,4.72-1.37,3.1-3.87,5.57-7.48,7.41-3.61,1.84-8.32,2.76-14.12,2.76-7.53,0-13.1-1.74-16.71-5.21s-5.41-8.05-5.41-13.72,1.79-10.03,5.38-13.49,9.17-5.18,16.74-5.18c4.52,0,8.44.75,11.76,2.26,3.32,1.51,5.87,3.6,7.64,6.28s2.66,5.75,2.66,9.2c0,1.15-.04,2.02-.13,2.59h-8.24ZM1338.48,248.84c-1.42.84-2.42,1.99-2.99,3.46h15.68c-.53-1.42-1.4-2.56-2.59-3.42-1.2-.86-2.75-1.3-4.65-1.3-2.21,0-4.03.42-5.45,1.26Z"/>
    <path class="cls-6" d="M1377.31,273.59c-3.83-1.04-7.43-2.62-10.8-4.75l6.98-9.5c2.04,1.46,4.5,2.6,7.38,3.42,2.88.82,5.36,1.23,7.44,1.23s3.53-.28,4.62-.83c1.09-.55,1.63-1.27,1.63-2.16,0-.71-.27-1.26-.8-1.66-.53-.4-1.26-.6-2.19-.6-.58,0-1.23.02-1.96.07-.73.04-1.32.09-1.76.13-2.3.27-4.67.4-7.11.4-3.94,0-7.14-.74-9.6-2.23-2.46-1.48-3.69-3.91-3.69-7.28,0-3.9,1.84-6.92,5.52-9.07,3.68-2.15,9.08-3.22,16.21-3.22,3.5,0,7.03.5,10.6,1.5,3.56,1,6.72,2.49,9.47,4.48l-7.64,7.71c-2.52-1.33-4.88-2.27-7.08-2.82-2.19-.55-4.4-.83-6.61-.83-1.55,0-2.88.31-3.99.93-1.11.62-1.66,1.33-1.66,2.13,0,.62.23,1.11.7,1.46.46.35,1.07.53,1.83.53s1.79-.07,3.12-.2c3.23-.22,5.65-.33,7.24-.33,4.61,0,8.17.78,10.7,2.33,2.52,1.55,3.79,3.92,3.79,7.11,0,4.78-1.86,8.25-5.58,10.4s-8.86,3.22-15.41,3.22c-3.72,0-7.5-.52-11.33-1.56Z"/>
    <path class="cls-6" d="M1454.35,263.45c0,1.51.18,2.57.53,3.19.35.62,1.06,1.06,2.13,1.33l-.27,6.25c-1.42.22-2.65.38-3.69.46-1.04.09-2.42.13-4.15.13-3.81,0-6.33-.85-7.57-2.56s-1.86-3.89-1.86-6.54v-1.66c-1.29,3.63-3.16,6.33-5.62,8.11-2.46,1.77-5.59,2.66-9.4,2.66-4.43,0-7.76-.89-10-2.66-2.24-1.77-3.36-4.41-3.36-7.91,0-2.88.95-5.14,2.86-6.78,1.9-1.64,4.85-2.77,8.84-3.39-3.37-2.39-6.73-4.47-10.1-6.25,2.66-3.37,5.69-5.92,9.1-7.67,3.41-1.75,7.55-2.62,12.42-2.62,6.82,0,11.88,1.47,15.18,4.42,3.3,2.95,4.95,7.47,4.95,13.59v7.91ZM1429.63,250.37c-1.73.75-3.28,1.88-4.65,3.39,2.66-.31,5.98-.46,9.97-.46,1.64,0,2.79-.2,3.46-.6.66-.4,1-.91,1-1.53,0-.53-.33-.98-1-1.36-.67-.38-1.59-.57-2.79-.57-2.26,0-4.25.38-5.98,1.13ZM1435.35,262.56c1.99-.95,3.37-2.2,4.12-3.75v-1.73c-1.06.53-2.24.94-3.52,1.23-1.29.29-2.84.57-4.65.83l-2.39.4c-2.48.49-3.72,1.33-3.72,2.52,0,1.29,1.15,1.93,3.46,1.93,2.48,0,4.72-.48,6.71-1.43Z"/>
    <path class="cls-6" d="M1474.02,260.13c0,6.6.04,11.38.13,14.35h-15.68l.07-7.51c.09-8.24.13-14.59.13-19.07s-.04-10.28-.13-18.07l-.07-7.18h15.68c-.09,6.29-.13,11.43-.13,15.41,0,4.43.02,7.71.07,9.83-.04,2.66-.07,6.73-.07,12.22Z"/>
    <path class="cls-6" d="M1512.09,257.87h-21.66c.35,1.95,1.23,3.53,2.62,4.75,1.39,1.22,3.38,1.83,5.95,1.83,1.86,0,3.61-.37,5.25-1.1,1.64-.73,2.95-1.76,3.92-3.09,2.97,1.46,6.91,3.04,11.83,4.72-1.37,3.1-3.87,5.57-7.47,7.41-3.61,1.84-8.32,2.76-14.12,2.76-7.53,0-13.1-1.74-16.71-5.21-3.61-3.48-5.42-8.05-5.42-13.72s1.79-10.03,5.38-13.49,9.17-5.18,16.74-5.18c4.52,0,8.44.75,11.76,2.26,3.32,1.51,5.87,3.6,7.64,6.28,1.77,2.68,2.66,5.75,2.66,9.2,0,1.15-.04,2.02-.13,2.59h-8.24ZM1493.88,248.84c-1.42.84-2.41,1.99-2.99,3.46h15.68c-.53-1.42-1.4-2.56-2.59-3.42-1.2-.86-2.75-1.3-4.65-1.3-2.22,0-4.03.42-5.45,1.26Z"/>
  </g>
  <g>
    <path class="cls-6" d="M294.86,50.2c-6.96-.22-13.71-.35-20.27-.4v34.68h-16.61v-34.68c-6.6.04-13.33.18-20.2.4v-13.95h57.07v13.95Z"/>
    <path class="cls-6" d="M322.83,67.87h-21.66c.36,1.95,1.23,3.53,2.62,4.75,1.4,1.22,3.38,1.83,5.95,1.83,1.86,0,3.61-.37,5.25-1.1s2.95-1.76,3.92-3.09c2.97,1.46,6.91,3.04,11.83,4.72-1.37,3.1-3.87,5.57-7.48,7.41-3.61,1.84-8.32,2.76-14.12,2.76-7.53,0-13.1-1.74-16.71-5.21-3.61-3.48-5.42-8.05-5.42-13.72s1.79-10.03,5.38-13.49,9.17-5.18,16.74-5.18c4.52,0,8.44.75,11.76,2.26,3.32,1.51,5.87,3.6,7.64,6.28,1.77,2.68,2.66,5.75,2.66,9.2,0,1.15-.04,2.02-.13,2.59h-8.24ZM304.62,58.84c-1.42.84-2.41,1.99-2.99,3.46h15.68c-.53-1.42-1.4-2.56-2.59-3.42-1.2-.86-2.75-1.3-4.65-1.3-2.22,0-4.03.42-5.45,1.26Z"/>
    <path class="cls-6" d="M375.91,73.45c0,1.51.18,2.57.53,3.19.35.62,1.06,1.06,2.13,1.33l-.27,6.25c-1.42.22-2.65.38-3.69.46-1.04.09-2.43.13-4.15.13-3.81,0-6.33-.85-7.57-2.56-1.24-1.71-1.86-3.89-1.86-6.54v-1.66c-1.29,3.63-3.16,6.33-5.61,8.11-2.46,1.77-5.59,2.66-9.4,2.66-4.43,0-7.76-.89-10-2.66-2.24-1.77-3.36-4.41-3.36-7.91,0-2.88.95-5.14,2.86-6.78s4.85-2.77,8.84-3.39c-3.37-2.39-6.73-4.47-10.1-6.25,2.66-3.37,5.69-5.92,9.1-7.67,3.41-1.75,7.55-2.62,12.42-2.62,6.82,0,11.88,1.47,15.18,4.42,3.3,2.95,4.95,7.47,4.95,13.59v7.91ZM351.2,60.37c-1.73.75-3.28,1.88-4.65,3.39,2.66-.31,5.98-.46,9.97-.46,1.64,0,2.79-.2,3.46-.6s1-.91,1-1.53c0-.53-.33-.98-1-1.36-.66-.38-1.59-.57-2.79-.57-2.26,0-4.25.38-5.98,1.13ZM356.91,72.56c1.99-.95,3.37-2.2,4.12-3.75v-1.73c-1.06.53-2.24.94-3.52,1.23-1.29.29-2.83.57-4.65.83l-2.39.4c-2.48.49-3.72,1.33-3.72,2.52,0,1.29,1.15,1.93,3.46,1.93,2.48,0,4.72-.48,6.71-1.43Z"/>
    <path class="cls-6" d="M431.53,84.48c.35-5.8.53-11.8.53-18.01,0-1.99-.5-3.55-1.5-4.68-1-1.13-2.31-1.69-3.95-1.69-1.51,0-2.8.66-3.89,1.99-1.09,1.33-1.63,3.26-1.63,5.78v-.07c0,7.84.11,13.4.33,16.68h-14.95c.27-6.51.4-12.51.4-18.01,0-1.95-.48-3.5-1.43-4.65-.95-1.15-2.16-1.73-3.62-1.73-1.55,0-2.85.65-3.89,1.96-1.04,1.31-1.65,3.09-1.83,5.35-.09,3.37-.13,5.76-.13,7.18,0,3.01.09,6.31.27,9.9h-15.88c.35-6.38.53-12.4.53-18.07s-.18-11.74-.53-18.21c2.92.13,5.16.2,6.71.2,1.64,0,3.88-.07,6.71-.2l1.99,9.83c1.02-3.59,2.63-6.23,4.85-7.94,2.21-1.7,4.76-2.56,7.64-2.56,3.46,0,6.28.95,8.47,2.86s3.55,4.38,4.09,7.44c1.02-3.14,2.72-5.65,5.12-7.51,2.39-1.86,5.12-2.79,8.17-2.79,3.99,0,7.11,1.34,9.37,4.02,2.26,2.68,3.39,6.35,3.39,11v11.03c0,5.01.04,8.64.13,10.9h-15.48Z"/>
  </g>
  <g>
    <path class="cls-6" d="M16.21,554.06c12.85-.09,23.48-.31,31.89-.67-.58,2.26-.93,4.43-1.06,6.51s-.2,4.61-.2,7.57H0c.35-8.59.53-16.63.53-24.12s-.18-15.52-.53-24.12h16.21v34.82Z"/>
    <path class="cls-6" d="M81.06,519.31c8.81,0,14.95,1.56,18.4,4.68,3.46,3.12,5.18,7.52,5.18,13.19,0,3.9-.69,7.21-2.06,9.93-1.37,2.72-3.79,4.85-7.24,6.38-3.46,1.53-8.22,2.29-14.29,2.29h-13.82v11.69h-16.34c.35-8.59.53-16.63.53-24.12s-.18-15.52-.53-24.12h16.34v.07h13.82ZM76.41,542.97c3.68,0,6.43-.14,8.27-.43,1.84-.29,3.12-.81,3.85-1.56s1.1-1.86,1.1-3.32-.34-2.56-1.03-3.29c-.69-.73-1.95-1.23-3.79-1.5s-4.64-.4-8.4-.4h-9.17v10.5h9.17Z"/>
  </g>
</svg>