<?xml version="1.0" encoding="UTF-8"?>
<svg id="Layer_1" data-name="Layer 1" xmlns="http://www.w3.org/2000/svg" viewBox="0 0 822.16 204.91">
  <defs>
    <style>
      .cls-1 {
        fill: #fdc238;
      }

      .cls-1, .cls-2 {
        stroke-width: 0px;
      }

      .cls-2 {
        fill: #191919;
      }
    </style>
  </defs>
  <g>
    <path class="cls-2" d="M147.28,195.63l.5-64.47-79.22-.62-.5,64.47-63.87-.5.23-4.68c.15-3,.29-5.99.42-8.95,1.23-26.86,1.94-52.56,2.13-76.39l.03-5.09c.12-25.17-.31-52.36-1.26-80.8l-.14-4.18,4.56.05,59.31.46-.5,64.47,79.21.62.51-64.47,14.49.11,45.22.36,4.16.04-.21,4.15c-1.21,24.32-1.97,50.96-2.26,79.19l-.05,6.65c-.22,26.69.01,52.39.68,76.41l.02.76c.09,2.92.18,5.83.27,8.71l.14,4.17-63.87-.5Z"/>
    <path class="cls-2" d="M9.73,18.47h.38s10.12.08,10.12.08l45.2.35-.42,54.99-.07,9.48,10.49.08,76.72.6.07-9.48.43-54.99,10.49.08,44.84.36h.37c-1.23,24.75-1.98,51.21-2.27,79.35-.02,2.21-.04,4.44-.05,6.67-.22,27.04.01,52.57.68,76.55.1,3.19.19,6.36.3,9.5l-55.7-.43.07-9.49.43-54.98-87.22-.68-.43,54.98-.07,9.49-55.7-.43c.15-3.18.31-6.35.44-9.49,1.24-27.1,1.95-52.6,2.13-76.53,0-1.48.02-2.97.03-4.47,0-.21,0-.43,0-.64.12-25.25-.3-52.22-1.26-80.95M1.46,10.39l.28,8.35c.95,28.39,1.38,55.53,1.26,80.65v.29s0,.35,0,.35c0,.77,0,1.53-.01,2.3,0,.73-.01,1.45-.01,2.17-.18,23.76-.9,49.41-2.12,76.2-.13,2.99-.27,5.98-.42,8.99l-.02.48-.4,8.32,8.33.06,55.7.43,8,.06.06-8,.07-9.49.37-46.98,71.22.56-.37,46.98-.07,9.49-.06,8,8,.06,55.7.43,8.34.06-.28-8.33c-.1-2.98-.19-6-.28-9.03v-.44c-.68-23.95-.91-49.61-.69-76.24,0-1.18.02-2.35.03-3.51,0-1.06.02-2.11.03-3.17.29-28.15,1.05-54.74,2.26-79.01l.41-8.3-8.31-.09h-.37s-44.86-.36-44.86-.36l-10.5-.08-8-.06-.06,8-.43,54.99v1.48s-68.73-.54-68.73-.54l-2.49-.02v-1.48s.43-54.99.43-54.99l.06-8-8-.06-45.2-.35-10.12-.08h-.36s-8.35-.08-8.35-.08h0Z"/>
  </g>
  <g>
    <path class="cls-2" d="M214.87,196.18l.2-4.16c1.5-30.55,2.36-59.44,2.56-85.86.21-26.4-.21-55.3-1.22-85.89l-.14-4.17,192.32,1.5-.4,50.9-128.22-1-.12,14.83c7.06.16,16.82.29,29.66.39,5.24.04,10.53.06,15.85.06,20.04,0,40.89-.29,61.99-.88l4.14-.11-.38,49.05-4.14-.18c-26.71-1.15-52.89-1.83-77.82-2.03-7.97-.06-15.05-.09-21.06-.09-3.15,0-6.03,0-8.6.03l-.13,16.72c5.43.01,10.73.02,15.88.02h0c49.56,0,86.74-.54,110.51-1.61l5-.22-.88,4.93c-1.11,6.2-1.83,12.75-2.12,19.47-.29,6.64-.47,15.08-.55,25.8l-.03,4-192.32-1.5Z"/>
    <path class="cls-2" d="M220.41,20.14l184.15,1.44-.33,42.9-128.22-1-.18,22.76c7.58.22,18.8.38,33.66.49,5.26.04,10.56.06,15.9.06,20.15,0,40.85-.29,62.09-.88l-.32,40.76c-26.86-1.16-52.84-1.84-77.96-2.03-8.12-.06-15.15-.09-21.09-.09-4.94,0-9.12.02-12.57.06l-.19,24.64v.03c6.85.02,13.5.03,19.92.03,49.85,0,86.75-.54,110.69-1.61-1.16,6.47-1.88,13.13-2.18,20.01-.3,6.87-.47,15.52-.55,25.94l-184.15-1.44c1.5-30.64,2.36-59.32,2.57-86.02.21-26.7-.21-55.38-1.23-86.05M212.14,12.08l.28,8.33c1.02,30.53,1.43,59.37,1.22,85.72-.21,26.37-1.07,55.2-2.56,85.69l-.41,8.33,8.34.06,184.15,1.44,8,.06.06-8c.08-10.68.26-19.07.55-25.66.28-6.54.98-12.91,2.06-18.94l1.77-9.85-10,.45c-23.71,1.06-60.83,1.6-110.33,1.6-3.87,0-7.83,0-11.86,0l.07-8.74c1.47,0,3.01,0,4.63,0,5.99,0,13.07.03,21.03.09,24.9.19,51.04.88,77.68,2.02l8.28.36.06-8.29.32-40.76.06-8.29-8.28.23c-21.06.58-41.88.87-61.87.87-5.29,0-10.62-.02-15.83-.06-10.58-.08-19.06-.18-25.66-.31l.05-6.88,120.22.94,8,.06.06-8,.33-42.9.06-8-8-.06-184.15-1.44-8.34-.06h0Z"/>
  </g>
  <g>
    <path class="cls-2" d="M495.67,200.73c-16.62-.13-31.58-4.02-44.44-11.55-12.94-7.54-23.19-18.45-30.45-32.4-7.2-13.83-10.78-30.12-10.64-48.41.01-1.54.05-3.14.12-4.88,1.15-27,10.23-48.81,27-64.85,17.43-16.68,44.37-25.14,80.07-25.14.61,0,1.21,0,1.83,0,1.73.01,3.32.05,4.86.11,18.81.62,35.83,4.18,50.56,10.59,13.41,5.85,25.27,14.41,35.27,25.45,1.96,2.17,3.9,4.48,5.76,6.88l2.97,3.84-4.34,2.18c-7.52,3.78-22.36,11.39-41.79,21.44l-8.56,4.71-2.13-2.16c-5.69-5.78-12.44-10.19-20.04-13.11-7.72-2.96-16.01-4.5-24.63-4.56h-.65c-13.62,0-23.84,3.52-30.4,10.45-5.9,6.25-9.19,13.57-10.06,22.38-.14,1.42-.21,2.87-.22,4.31-.09,11.62,3.36,20.71,10.53,27.79,7.11,7.01,18.47,10.63,33.75,10.75h.44c1.47,0,2.81-.04,4.11-.13,5.07-.29,10.12-1.18,15.04-2.63,2.39-.71,4.64-1.64,6.75-2.78l-2.22-.02-.21-4.42-1.74-3.05.93-.53h.29c1.04-.44,2.06-.93,3.04-1.47l-38.94-.3,1.04-32.91,2.98.09.19-4.05h.19s105.18.82,105.18.82l-.83,106.11-49.27-.38-3.41-30.79c-5.26,9.08-12.38,16.28-21.26,21.49-12.56,7.37-27.93,11.11-45.67,11.11h-1.02Z"/>
    <path class="cls-2" d="M517.34,17.49c.6,0,1.19,0,1.8,0,1.59.01,3.16.04,4.73.11,18.45.61,34.82,4.04,49.13,10.26,12.93,5.64,24.23,13.79,33.9,24.47,1.91,2.11,3.77,4.33,5.56,6.65-7.13,3.58-21.1,10.73-41.88,21.49l-5.95,3.28c-6.12-6.21-13.27-10.89-21.46-14.03-8.18-3.14-16.86-4.76-26.03-4.83-.22,0-.45,0-.67,0-14.82,0-25.94,3.91-33.31,11.71-6.46,6.84-10.18,15.08-11.13,24.74-.15,1.52-.23,3.08-.24,4.67-.1,12.65,3.8,22.86,11.73,30.67,7.91,7.8,20.09,11.77,36.52,11.9.16,0,.32,0,.48,0,1.47,0,2.93-.04,4.37-.14,5.4-.31,10.71-1.25,15.91-2.78,6.73-1.99,12.41-5.51,17.03-10.53l-13.61-.11s.02-.01.03-.01c5.27-2.09,9.82-5.22,13.65-9.37l-35.72-.28-10.49-.08.91-28.82-.71-.09h.03s10.49.08,10.49.08l90.68.71-.69,88.63-.07,9.48-41.71-.32-4.65-41.99c-4.86,14.96-13.4,26.04-25.63,33.21-11.99,7.04-26.54,10.56-43.65,10.56-.33,0-.66,0-.99,0-15.95-.13-30.12-3.78-42.45-11-12.35-7.2-21.99-17.47-28.92-30.8-6.94-13.32-10.33-28.83-10.19-46.54.01-1.6.05-3.19.12-4.75,1.1-26.03,9.69-46.75,25.77-62.12,16.74-16.02,42.52-24.03,77.31-24.03M517.34,9.49c-36.77,0-64.64,8.83-82.84,26.25-17.54,16.78-27.04,39.51-28.23,67.56-.07,1.79-.11,3.43-.12,5.03-.15,18.94,3.58,35.86,11.09,50.29,7.61,14.64,18.37,26.08,31.99,34.02,13.46,7.88,29.08,11.95,46.42,12.09.35,0,.7,0,1.05,0,18.46,0,34.51-3.92,47.7-11.66,6.33-3.71,11.82-8.36,16.43-13.91l1.84,16.67.78,7.07,7.11.05,41.71.32,8,.06.06-8,.07-9.48.69-88.63.06-8-8-.06-41.19-.32,2.38-1.31c19.69-10.19,34.11-17.59,41.7-21.39l8.69-4.36-5.95-7.69c-1.92-2.48-3.93-4.88-5.96-7.13-10.38-11.46-22.71-20.36-36.63-26.43-15.2-6.61-32.7-10.28-52.03-10.92-1.57-.06-3.19-.1-4.97-.11-.62,0-1.24,0-1.86,0h0ZM520.51,140.58h-.43c-14.19-.12-24.61-3.35-30.96-9.6-6.37-6.27-9.42-14.42-9.34-24.91,0-1.33.08-2.66.2-3.98.77-7.88,3.71-14.43,8.98-20.01,5.77-6.11,15.02-9.2,27.49-9.2h.61c8.14.06,15.96,1.51,23.23,4.3,6.79,2.6,12.84,6.49,18,11.55l-35.82-.28-10.49-.08h-.19s-.19,0-.19,0l-.34,8.04-6.65-.21-.91,28.82-.26,8.19,8.19.06,10.49.08,21.3.17.56,1.02.03,1.26c-1.71.88-3.53,1.61-5.48,2.19-4.63,1.37-9.37,2.2-14.1,2.47h-.04s-.04,0-.04,0c-1.21.08-2.46.12-3.83.12h0Z"/>
  </g>
  <g>
    <path class="cls-2" d="M621.38,199.38l.2-4.16c1.5-30.55,2.36-59.44,2.56-85.86.21-26.41-.21-55.3-1.22-85.89l-.14-4.17,192.32,1.5-.4,50.9-128.22-1-.12,14.83c7.06.16,16.82.29,29.66.39,5.25.04,10.54.06,15.87.06,20.01,0,40.86-.29,61.97-.88l4.14-.11-.38,49.05-4.14-.18c-26.68-1.15-52.86-1.83-77.82-2.03-7.99-.06-15.08-.09-21.06-.09-3.15,0-6.03,0-8.6.03l-.13,16.72c5.43.01,10.73.02,15.88.02h0c49.55,0,86.74-.54,110.51-1.61l5-.22-.88,4.93c-1.11,6.2-1.83,12.75-2.12,19.47-.29,6.63-.47,15.07-.55,25.8l-.03,4-192.32-1.5Z"/>
    <path class="cls-2" d="M626.92,23.34l184.15,1.44-.33,42.9-128.22-1-.18,22.76c7.58.22,18.8.38,33.66.49,5.26.04,10.56.06,15.89.06,20.15,0,40.85-.29,62.09-.88l-.32,40.76c-26.86-1.16-52.84-1.84-77.96-2.03-8.11-.06-15.14-.09-21.08-.09-4.94,0-9.13.02-12.58.06l-.19,24.64v.03c6.85.02,13.5.03,19.92.03,49.85,0,86.75-.54,110.69-1.61-1.16,6.47-1.88,13.14-2.18,20.01-.3,6.87-.47,15.52-.55,25.94l-184.15-1.44c1.5-30.64,2.36-59.32,2.57-86.02.21-26.7-.21-55.38-1.23-86.05M618.64,15.27l.28,8.33c1.02,30.53,1.43,59.37,1.22,85.72-.21,26.36-1.07,55.19-2.56,85.69l-.41,8.33,8.34.06,184.15,1.44,8,.06.06-8c.08-10.68.26-19.07.55-25.66.28-6.54.98-12.91,2.06-18.94l1.77-9.85-10,.45c-23.71,1.06-60.83,1.6-110.33,1.6-3.87,0-7.83,0-11.86,0l.07-8.74c1.47,0,3.02,0,4.64,0,5.99,0,13.07.03,21.02.09,24.9.19,51.04.88,77.68,2.02l8.28.36.06-8.29.32-40.76.06-8.29-8.28.23c-21.06.58-41.88.87-61.87.87-5.29,0-10.62-.02-15.83-.06-10.57-.08-19.06-.18-25.66-.31l.05-6.88,120.22.94,8,.06.06-8,.33-42.9.06-8-8-.06-184.15-1.44-8.34-.06h0Z"/>
  </g>
  <g>
    <path class="cls-1" d="M206.67,186.6l-59.32-.46.51-64.47-79.22-.62-.51,64.47-59.71-.46-4.14-.06.2-4.14c1.41-28.89,2.25-56.09,2.51-80.84v-.62c.02-1.48.04-2.95.04-4.39.18-23.6-.13-49.31-.92-76.42-.09-3.13-.19-6.3-.3-9.48l-.14-4.17,63.86.51-.5,64.47,79.21.62.5-64.47,63.87.5-.21,4.17c-.15,3.07-.3,6.17-.44,9.3v.16c-1.04,23.54-1.67,49.24-1.88,76.39,0,.94-.02,1.86-.02,2.79-.2,29.27.14,57.22,1,83.09l.14,4.18-4.55-.05Z"/>
    <path class="cls-2" d="M9.82,8.98l55.69.44-.07,9.48-.42,54.99,10.49.08,76.72.6.43-54.99.07-9.48,55.7.43c-.16,3.13-.3,6.29-.44,9.48h0c-1.05,23.98-1.67,49.49-1.88,76.54,0,.94-.02,1.88-.02,2.82-.2,29.6.14,57.34,1,83.22h-.37s-44.84-.35-44.84-.35l-10.49-.08.43-54.98h0s.07-9.49.07-9.49l-87.22-.68-.07,9.49-.43,54.98-44.83-.35-10.5-.08h-.36c1.4-28.73,2.25-55.73,2.52-81,0-.21,0-.43,0-.64.02-1.46.03-2.93.04-4.39.18-23.93-.13-49.44-.92-76.56-.09-3.14-.19-6.31-.3-9.5M1.54.91l.28,8.33c.11,3.18.2,6.34.3,9.47.79,27.06,1.1,52.72.92,76.26,0,1.45-.02,2.91-.04,4.35v.03s0,.03,0,.03v.3s0,.34,0,.34c-.26,24.67-1.1,51.81-2.51,80.65l-.4,8.29,8.3.1h.36s10.54.08,10.54.08l44.82.35,8,.06.06-8,.43-54.98v-1.49s71.23.56,71.23.56v1.48s-.01.21-.01.21h0s-.43,54.78-.43,54.78l-.06,8,8,.06,10.49.08,44.84.35h.34s8.36.1,8.36.1l-.28-8.36c-.86-25.82-1.19-53.71-1-82.9v-.03s0-.03,0-.03c0-.91,0-1.83.02-2.74.21-27.12.84-52.77,1.87-76.26v-.32s.01,0,.01,0c.14-3.07.28-6.1.43-9.11l.42-8.33-8.34-.06-55.7-.43-8-.06-.06,8-.07,9.48-.37,46.99-68.72-.54-2.49-.02.36-46.99.07-9.48.06-8-8-.06L9.88.98l-8.34-.07h0Z"/>
  </g>
  <g>
    <path class="cls-1" d="M214.95,186.7l.2-4.16c1.5-30.61,2.36-59.5,2.56-85.85.21-26.21-.2-55.1-1.22-85.89l-.14-4.17,192.32,1.51-.4,50.89-128.22-.99-.11,14.83c1.99.04,4.17.09,6.54.13,6.75.1,14.53.19,23.12.26,5.32.04,10.68.06,16.08.06,19.89,0,40.68-.3,61.77-.88l4.14-.12-.39,49.05-4.14-.18c-26.7-1.15-52.88-1.83-77.82-2.02-8.15-.06-15.35-.09-21.39-.09-3.02,0-5.79,0-8.27.02l-.12,16.71c2.18,0,4.33,0,6.46.01,3.05,0,6.06,0,9.02,0,49.89,0,87.21-.54,110.91-1.6l5-.22-.88,4.93c-.55,3.09-1.02,6.37-1.38,9.73-.34,3.15-.59,6.43-.73,9.74-.29,6.7-.47,15.37-.54,25.79l-.03,4-192.32-1.5Z"/>
    <path class="cls-2" d="M220.49,10.65l184.15,1.44-.07,9.48-.27,33.41-128.22-.99-.17,22.76c2.95.08,6.44.15,10.49.23,6.36.1,14.08.19,23.16.26,5.34.04,10.72.06,16.14.06,20.08,0,40.69-.3,61.84-.88l-.08,9.83-.24,30.93c-26.85-1.16-52.84-1.84-77.96-2.03-8.29-.06-15.44-.09-21.46-.09-4.78,0-8.84.02-12.2.06l-.18,24.65v.02c3.54,0,7.05.02,10.49.02,3.06,0,6.08,0,9.05,0,50.04,0,87.06-.53,111.06-1.61-.59,3.29-1.06,6.62-1.42,10.01-.36,3.29-.61,6.61-.75,10-.3,6.87-.47,15.51-.55,25.94l-173.29-1.35-10.86-.08c1.5-30.64,2.36-59.32,2.56-86.02.21-26.7-.21-55.38-1.22-86.06M212.21,2.59l.28,8.33c1.02,30.74,1.43,59.58,1.22,85.73-.2,26.31-1.06,55.14-2.55,85.69l-.41,8.33,8.34.06,10.86.08,173.29,1.35,8.01.06.06-8.01c.07-10.37.25-19,.54-25.65.14-3.23.38-6.42.71-9.48.35-3.28.81-6.46,1.34-9.47l1.77-9.85-10,.45c-23.65,1.06-60.9,1.6-110.71,1.6-2.96,0-5.98,0-9.04,0-.81,0-1.62,0-2.44,0l.06-8.74c1.36,0,2.78,0,4.26,0,6.04,0,13.24.03,21.4.09,24.9.19,51.04.87,77.67,2.02l8.28.36.07-8.29.24-30.93.08-9.83.07-8.29-8.29.23c-21.04.58-41.78.88-61.62.88-5.38,0-10.79-.02-16.08-.06-8.55-.07-16.33-.15-23.1-.26-.89-.02-1.74-.03-2.55-.05l.05-6.88,120.22.93,8,.06.06-8,.27-33.41.07-9.48.06-8-8-.06-184.15-1.44-8.33-.07h0Z"/>
  </g>
  <g>
    <path class="cls-1" d="M495.74,191.24c-16.62-.13-31.57-4.02-44.44-11.55-2.62-1.52-5.18-3.22-7.6-5.05-9.37-7.03-17.06-16.23-22.84-27.34-6.56-12.58-10.12-27.23-10.59-43.53-.04-1.75-.06-3.34-.04-4.88.23-29.28,9.35-52.74,27.12-69.74,17.43-16.68,44.38-25.14,80.09-25.14.61,0,1.21,0,1.82,0,20.8.16,39.44,3.76,55.41,10.7,12.66,5.52,23.94,13.46,33.54,23.58,2.62,2.76,5.14,5.71,7.49,8.77l2.97,3.85-4.35,2.17c-.83.41-5.63,2.83-5.63,2.83-7.92,4.03-20.09,10.29-36.15,18.6l-8.56,4.71-2.13-2.16c-5.69-5.78-12.43-10.19-20.04-13.11-7.71-2.96-15.99-4.49-24.63-4.56h-.64c-13.62,0-23.85,3.52-30.41,10.45-6.83,7.24-10.2,15.97-10.28,26.71,0,1.61.04,3.07.15,4.45.75,9.56,4.14,17.18,10.38,23.32,1.65,1.63,3.55,3.1,5.66,4.36,6.92,4.16,16.37,6.31,28.09,6.4h.54c6.46,0,12.88-.92,19.06-2.75,1.02-.3,1.93-.61,2.75-.93l.68-.39h.29c1.04-.44,2.06-.93,3.04-1.47l-38.85-.3.37-46.39,109.18.85-.83,106.11-36.34-.29-12.93-.11-3.41-30.78c-5.26,9.08-12.38,16.28-21.26,21.49-12.55,7.36-27.92,11.1-45.67,11.1h-1.03Z"/>
    <path class="cls-2" d="M517.42,8c.6,0,1.19,0,1.79,0,20.39.16,38.32,3.62,53.84,10.37,12.2,5.32,22.94,12.87,32.23,22.67,2.52,2.65,4.93,5.47,7.23,8.46-1.56.78-3.43,1.73-5.63,2.83-7.9,4.02-19.99,10.24-36.24,18.64l-5.95,3.28c-6.12-6.21-13.27-10.89-21.45-14.03-8.19-3.14-16.87-4.75-26.03-4.83-.22,0-.45,0-.67,0-14.83,0-25.95,3.91-33.32,11.71-7.49,7.93-11.28,17.72-11.37,29.42,0,1.64.04,3.24.17,4.81.82,10.44,4.66,19.06,11.56,25.85,1.89,1.87,4.02,3.51,6.41,4.94,7.57,4.55,17.61,6.87,30.12,6.96.19,0,.38,0,.57,0,6.91,0,13.63-.98,20.19-2.92,1.15-.34,2.27-.72,3.35-1.15,0,0,.02-.01.03-.01,5.27-2.09,9.82-5.22,13.65-9.37l-35.72-.28-10.49-.08.23-28.9h0s.07-9.49.07-9.49l101.18.79-.07,9.48-.69,88.63-32.34-.25-9.37-.08-1.81-16.36-2.83-25.63c-4.86,14.97-13.4,26.05-25.63,33.22-11.99,7.03-26.54,10.55-43.65,10.55-.33,0-.66,0-.99,0-15.95-.13-30.12-3.78-42.45-11-2.52-1.46-4.92-3.06-7.21-4.79-8.96-6.71-16.18-15.38-21.7-25.99-6.32-12.12-9.69-26.06-10.14-41.8-.04-1.56-.05-3.13-.04-4.73.22-28.28,8.84-50.58,25.89-66.88,16.74-16.02,42.52-24.03,77.32-24.03M517.42,0c-36.77,0-64.65,8.83-82.85,26.25-18.58,17.77-28.12,42.2-28.35,72.6-.01,1.6,0,3.23.04,4.98.49,16.96,4.21,32.19,11.05,45.31,6.06,11.65,14.13,21.3,24,28.7,2.53,1.91,5.23,3.7,7.99,5.31,13.46,7.88,29.08,11.95,46.41,12.08.35,0,.7,0,1.06,0,18.47,0,34.52-3.92,47.69-11.65,6.33-3.71,11.82-8.36,16.43-13.91l.03.3,1.81,16.36.78,7.06,7.1.06,9.37.08,32.34.25,8,.06.06-8,.69-88.63.07-9.48.06-8-8-.06-41.21-.32,2.4-1.32c15.95-8.25,28.09-14.49,36.11-18.57,1-.5,1.97-.99,2.86-1.44.99-.5,1.9-.96,2.72-1.37l8.7-4.34-5.94-7.7c-2.44-3.16-5.05-6.22-7.76-9.08-9.97-10.52-21.69-18.76-34.84-24.5C559.79,3.88,540.62.17,519.28,0c-.62,0-1.24,0-1.86,0h0ZM503.65,129.15c-3.63-.95-6.82-2.25-9.54-3.88-1.86-1.12-3.47-2.35-4.9-3.77-5.53-5.44-8.54-12.24-9.21-20.78-.1-1.29-.15-2.64-.14-4.14.07-9.66,3.08-17.51,9.19-23.98,5.77-6.11,15.02-9.2,27.5-9.2h.61c8.15.07,15.97,1.52,23.23,4.3,6.79,2.61,12.84,6.49,18,11.56l-46.32-.36-8-.06-.06,8-.07,9.48v.24s0,0,0,0l-.23,28.66-.03,3.94h0Z"/>
  </g>
  <g>
    <path class="cls-1" d="M621.45,189.89l.2-4.16c1.5-30.6,2.36-59.49,2.56-85.85.21-26.2-.2-55.1-1.22-85.89l-.14-4.17,192.32,1.5-.4,50.9-128.22-.99-.11,14.83c1.99.04,4.17.09,6.53.13,6.7.1,14.48.19,23.12.26,5.32.04,10.68.06,16.08.06,19.9,0,40.68-.3,61.77-.88l4.14-.12-.39,49.05-4.14-.18c-26.7-1.15-52.88-1.83-77.82-2.02-8.16-.06-15.38-.09-21.44-.09-3,0-5.75,0-8.21.02l-.13,16.71c2.18,0,4.33,0,6.46.01,3.05,0,6.06,0,9.02,0,49.89,0,87.21-.54,110.91-1.6l5-.22-.88,4.93c-.56,3.1-1.02,6.37-1.38,9.73-.34,3.15-.59,6.43-.73,9.75-.29,6.71-.47,15.39-.54,25.79l-.03,4-192.32-1.5Z"/>
    <path class="cls-2" d="M626.99,13.85l184.15,1.43-.07,9.48-.27,33.42-128.22-.99-.17,22.76c2.95.08,6.44.15,10.49.23,6.36.1,14.08.19,23.16.26,5.34.04,10.72.06,16.14.06,20.08,0,40.7-.3,61.85-.88l-.08,9.83-.24,30.93c-26.85-1.16-52.84-1.84-77.96-2.03-8.29-.06-15.45-.09-21.47-.09-4.77,0-8.83.02-12.18.06l-.19,24.65v.02c3.54,0,7.05.02,10.49.02,3.05,0,6.06,0,9.01,0,50.06,0,87.09-.53,111.1-1.61-.59,3.29-1.06,6.62-1.42,10.01-.36,3.29-.61,6.61-.75,10-.3,6.87-.48,15.51-.55,25.94l-173.29-1.35-10.86-.08c1.5-30.64,2.36-59.32,2.56-86.02.22-26.7-.21-55.38-1.22-86.06M618.72,5.78l.28,8.33c1.02,30.74,1.43,59.58,1.22,85.73-.2,26.31-1.06,55.14-2.55,85.69l-.41,8.33,8.34.06,10.86.08,173.29,1.35,8.01.06.06-8.01c.07-10.37.25-19,.54-25.65.14-3.23.38-6.42.71-9.48.35-3.28.81-6.46,1.34-9.47l1.77-9.85-10,.45c-23.66,1.06-60.91,1.6-110.74,1.6-2.95,0-5.96,0-9.01,0-.81,0-1.62,0-2.44,0l.07-8.74c1.35,0,2.77,0,4.24,0,6.05,0,13.25.03,21.41.09,24.9.19,51.03.87,77.67,2.02l8.28.36.07-8.29.24-30.93.08-9.83.07-8.29-8.29.23c-21.05.58-41.79.88-61.63.88-5.37,0-10.78-.02-16.07-.06-8.59-.07-16.36-.15-23.1-.26-.89-.02-1.74-.03-2.55-.05l.05-6.88,120.22.93,8,.06.06-8,.27-33.42.07-9.48.06-8-8-.06-184.15-1.43-8.33-.06h0Z"/>
  </g>
</svg>