<svg xmlns:xlink="http://www.w3.org/1999/xlink" width="1050" height="267" viewBox="0 0 1050 267" fill="none" xmlns="http://www.w3.org/2000/svg" class="logo" data-v-0acb4a4e=""><path d="M355.854 57.876C370.726 57.876 382.205 61.2683 390.716 68.5072C394.722 71.8775 397.899 76.1248 400 80.9203C402.101 85.7158 403.07 90.9306 402.831 96.1606C403.061 103.885 400.822 111.482 396.44 117.847C391.916 123.673 385.774 128.035 378.782 130.387C387.649 131.321 395.793 135.703 401.459 142.587C407.125 149.471 409.859 158.306 409.071 167.187C409.071 182.513 403.77 193.568 393.351 200.807C384.406 206.865 371.856 209.894 355.702 209.894H286.342V57.876H355.854ZM309.664 122.33H349.645C360.276 122.33 367.818 120.391 372.603 116.787C377.389 113.183 379.63 107.004 379.63 98.9169C379.63 90.8299 377.298 85.7414 372.603 82.3188C367.909 78.8962 360.276 77.0183 350.069 77.0183H309.664V122.33ZM309.664 190.6H352.613C360.545 190.942 368.439 189.33 375.602 185.905C378.936 183.987 381.675 181.184 383.514 177.805C385.353 174.426 386.221 170.605 386.021 166.763C386.021 157.828 383.235 151.255 377.934 147.197C372.634 143.138 364.335 141.139 353.249 141.139H309.664V190.6Z" fill="#1A1B1F" data-v-0acb4a4e=""></path> <path d="M456.321 99.765V209.712H433.847V99.765H456.321ZM456.321 80.4106H433.847V57.876H456.381L456.321 80.4106Z" fill="#1A1B1F" data-v-0acb4a4e=""></path> <path d="M895.323 209.712V99.7646H917.827V123.723C921.916 111.365 934.243 99.7646 954.173 99.7646H961.715V122.269H950.569C929.761 122.269 917.676 130.477 917.676 142.835V209.712H895.323Z" fill="#1A1B1F" data-v-0acb4a4e=""></path> <path d="M860.4 108.912C852.747 100.835 840.834 96.7964 824.659 96.7964C811.03 96.7964 799.974 99.1286 791.887 104.217C787.2 107.063 783.192 110.899 780.142 115.456C777.092 120.012 775.074 125.18 774.229 130.598L796.582 132.537C797.068 129.698 798.179 127.002 799.834 124.645C801.49 122.288 803.648 120.328 806.153 118.907C811.384 116.136 817.262 114.818 823.175 115.091C839.773 115.091 848.062 122.744 848.042 138.049V139.533H813.846C798.036 139.533 785.648 144.955 776.895 156.01C772.299 161.644 769.804 168.7 769.837 175.971C769.837 194.628 786.072 209.742 806.183 209.742C808.152 209.742 813.816 209.53 816.936 209.106C818.059 208.951 819.171 208.729 820.268 208.44C824.882 207.667 829.38 206.314 833.655 204.411C839.116 201.595 843.957 197.712 847.891 192.993V209.712H870.456V139.533C870.395 126.146 866.972 115.818 860.4 108.912ZM847.83 164.279C847.285 171.912 843.893 181.483 837.623 186.753C830.838 192.508 822.721 192.478 813.15 192.478C808.194 192.702 803.314 191.204 799.338 188.237C797.669 187.067 796.313 185.505 795.389 183.689C794.465 181.872 794.001 179.856 794.038 177.818C794.038 165.097 803.124 158.04 821.055 156.798H847.83V164.279Z" fill="#1A1B1F" data-v-0acb4a4e=""></path> <path d="M717.559 57.876L659.648 184.967L601.766 57.876H575.718V209.743H598.283V99.765L648.38 209.743H670.915L721.133 99.5227V209.743H743.698V57.876H717.559Z" fill="#1A1B1F" data-v-0acb4a4e=""></path> <path d="M1024.05 190.57V122.269H1049.07V99.7647H1024.05V69.1431H1001.54V99.7647H981.19V122.269H1001.54V185.875C1001.54 200.444 1009.78 209.651 1025.29 209.651H1049.07V190.57H1024.05Z" fill="#1A1B1F" data-v-0acb4a4e=""></path> <path d="M524.531 190.57V122.269H549.549V99.7647H524.531V69.1431H502.057V99.7647H481.672V122.269H502.057V185.875C502.057 200.444 510.265 209.651 525.803 209.651H549.549V190.57H524.531Z" fill="#1A1B1F" data-v-0acb4a4e=""></path> <path d="M144.047 191.872H62.2373V199.02H144.047V191.872Z" fill="#1A1B1F" data-v-0acb4a4e=""></path> <path d="M82.7124 236.335H21.3479V243.484H82.7124V236.335Z" fill="#1A1B1F" data-v-0acb4a4e=""></path> <path d="M41.732 191.903H0.903076V199.051H41.732V191.903Z" fill="#1A1B1F" data-v-0acb4a4e=""></path> <path d="M144.047 171.215H82.6821V178.363H144.047V171.215Z" fill="#1A1B1F" data-v-0acb4a4e=""></path> <path d="M62.1768 171.215H21.3782V178.363H62.1768V171.215Z" fill="#1A1B1F" data-v-0acb4a4e=""></path> <path d="M144.046 78.8052H41.7622V85.9533H144.046V78.8052Z" fill="#1A1B1F" data-v-0acb4a4e=""></path> <path d="M62.1768 55.0293H21.3479V62.1774H62.1768V55.0293Z" fill="#1A1B1F" data-v-0acb4a4e=""></path> <path d="M198.293 123.753V123.572C205.417 111.129 209.151 97.0353 209.122 82.6979C209.093 68.3604 205.302 54.2817 198.128 41.8681C190.954 29.4546 180.648 19.141 168.24 11.9578C155.832 4.77458 141.756 0.973239 127.418 0.933594H41.7623V11.1711H127.661C138.664 11.2147 149.509 13.7924 159.354 18.7043C169.2 23.6162 177.782 30.7303 184.435 39.4946C191.087 48.259 195.631 58.438 197.714 69.2421C199.797 80.0462 199.363 91.185 196.446 101.794C198.583 92.6172 198.622 83.0763 196.56 73.8821C194.498 64.6879 190.388 56.0774 184.537 48.6918C178.685 41.3062 171.243 35.336 162.764 31.2257C154.285 27.1155 144.988 24.9711 135.566 24.9524H62.2374V35.1899H135.657C143.884 35.1927 151.995 37.1361 159.33 40.8623C166.665 44.5885 173.018 49.9923 177.872 56.6349C182.726 63.2775 185.945 70.9715 187.267 79.0918C188.589 87.2122 187.978 95.5299 185.481 103.369C187.086 97.3209 187.285 90.9853 186.062 84.8483C184.838 78.7113 182.226 72.9359 178.425 67.965C174.624 62.9941 169.734 58.9598 164.132 56.1714C158.53 53.383 152.364 51.9146 146.106 51.8788H82.5004V62.2072H145.803C151.18 62.2172 156.459 63.6355 161.117 66.3209C165.775 69.0063 169.647 72.865 172.35 77.5128C175.052 82.1606 176.489 87.4352 176.519 92.8114C176.548 98.1876 175.169 103.478 172.518 108.155C163.369 104.753 153.687 103.009 143.925 103.006H62.1465V113.243H143.925C160.607 113.246 176.765 119.068 189.614 129.706C202.464 140.343 211.2 155.131 214.316 171.518C211.207 157.983 203.603 145.901 192.745 137.243C181.886 128.585 168.414 123.862 154.526 123.844H41.7321V133.991H154.678C166.943 134.032 178.785 138.482 188.043 146.527C197.3 154.573 203.357 165.679 205.108 177.818C203.381 168.414 198.416 159.912 191.074 153.787C183.732 147.662 174.477 144.302 164.915 144.289H41.7926V154.527H164.885C173.023 154.527 180.827 157.759 186.581 163.513C192.335 169.267 195.567 177.071 195.567 185.209C195.567 193.346 192.335 201.15 186.581 206.904C180.827 212.658 173.023 215.891 164.885 215.891H21.3479V226.129H164.915C174.477 226.116 183.732 222.756 191.074 216.631C198.416 210.506 203.381 202.003 205.108 192.599C203.333 204.748 197.246 215.853 187.959 223.883C178.671 231.914 166.804 236.334 154.526 236.336H103.036V246.573H154.526C167.864 246.555 180.833 242.199 191.477 234.161C202.12 226.124 209.861 214.842 213.528 202.019C209.696 217.553 200.777 231.359 188.191 241.239C175.606 251.118 160.077 256.504 144.077 256.538H41.8835V266.776H143.925C160.566 266.856 176.835 261.858 190.561 252.448C204.286 243.039 214.814 229.666 220.739 214.116C226.664 198.566 227.705 181.578 223.721 165.421C219.737 149.264 210.919 134.707 198.445 123.693L198.293 123.753Z" fill="#1A1B1F" data-v-0acb4a4e=""></path></svg>