<?xml version="1.0" encoding="UTF-8"?>
<svg id="Layer_1" data-name="Layer 1" xmlns="http://www.w3.org/2000/svg" xmlns:xlink="http://www.w3.org/1999/xlink" viewBox="0 0 100.01 21">
  <defs>
    <style>
      .cls-1 {
        fill: #151617;
      }

      .cls-1, .cls-2, .cls-3, .cls-4, .cls-5 {
        stroke-width: 0px;
      }

      .cls-2 {
        fill: #3156aa;
      }

      .cls-6 {
        clip-path: url(#clippath);
      }

      .cls-3 {
        fill: none;
      }

      .cls-4 {
        fill: url(#linear-gradient);
      }

      .cls-5 {
        fill: #1972e2;
      }
    </style>
    <clipPath id="clippath">
      <rect class="cls-3" width="168" height="21"/>
    </clipPath>
    <linearGradient id="linear-gradient" x1="8.98" y1="11.35" x2="26.44" y2="4.9" gradientTransform="translate(0 22) scale(1 -1)" gradientUnits="userSpaceOnUse">
      <stop offset="0" stop-color="#264ca2" stop-opacity="0"/>
      <stop offset="1" stop-color="#234588"/>
    </linearGradient>
  </defs>
  <g class="cls-6">
    <g>
      <path class="cls-2" d="M32.67,14.38L25.49,1.92c-1.57-2.6-5.41-2.62-6.93.11l-7.54,12.95c-1.41,2.37.33,5.36,3.15,5.36h15.1c2.84,0,4.97-3.07,3.4-5.96Z"/>
      <path class="cls-5" d="M22.31,15.35l-.44-.77c-.41-.72-1.33-2.26-1.33-2.26L14.47,1.76c-1.57-2.35-5.3-2.54-6.88.41L.52,14.41c-1.46,2.57.28,5.91,3.45,5.94h25.24c-3.89.03-5.14-1.99-6.9-5Z"/>
      <path class="cls-4" d="M22.31,15.35l-.44-.77c-.41-.72-1.33-2.26-1.33-2.26l-3.92-6.9-5.63,9.61c-1.41,2.37.33,5.36,3.15,5.36h15.08c-3.92-.03-5.14-2.02-6.9-5.03Z"/>
      <path class="cls-1" d="M57.04,19.24V4.85h11.96v.91c0,.72-.58,1.3-1.3,1.3h-7.68v3.87h7.68v2.21h-7.68v3.87h7.68c.72,0,1.3.58,1.3,1.3v.91l-11.96.03Z"/>
      <path class="cls-1" d="M86.17,4.85h-2.82c-.52,0-.99.22-1.33.64l-3.4,4.28-3.4-4.25c-.33-.41-.8-.64-1.33-.64h-2.82l5.72,7.18-5.72,7.18h2.82c.52,0,.99-.22,1.33-.64l3.4-4.25,3.42,4.28c.33.39.8.64,1.33.64h2.82l-5.72-7.18,5.69-7.23Z"/>
      <path class="cls-1" d="M47.68,17.72l3.92-6.85v8.34h2.98V4.82h-1.85c-.58,0-1.13.3-1.41.83l-4.69,8.56-4.69-8.56c-.28-.52-.83-.83-1.41-.83h-1.85v14.39h2.98v-8.34l3.92,6.85h2.1Z"/>
      <path class="cls-1" d="M93.96,19.4c-4.14.06-7.51-3.2-7.54-7.35,0-2.26.69-4.14,1.99-5.44,1.3-1.27,3.18-1.96,5.41-1.96,2.62,0,4.69.91,6.19,2.68l-.94.8c-.58.5-1.44.52-2.07.06-.83-.64-1.88-.94-3.07-.94-2.93,0-4.67,1.77-4.67,4.75s1.79,4.86,4.67,4.86c1.22,0,2.24-.33,3.07-.94.61-.47,1.46-.44,2.07.06l.94.8c-1.49,1.74-3.48,2.62-6.05,2.62Z"/>
    </g>
  </g>
</svg>