<?xml version="1.0" encoding="UTF-8"?>
<svg xmlns="http://www.w3.org/2000/svg" version="1.1" viewBox="0 0 1449.8 301.5">
  <defs>
    <style>
      .cls-1 {
        fill: #191919;
      }

      .cls-1, .cls-2, .cls-3 {
        stroke: #191919;
        stroke-miterlimit: 10;
        stroke-width: 2px;
      }

      .cls-2 {
        fill: #e4e4e4;
      }

      .cls-3 {
        fill: #ff5d00;
      }
    </style>
  </defs>
  <!-- Generator: Adobe Illustrator 28.6.0, SVG Export Plug-In . SVG Version: 1.2.0 Build 709)  -->
  <g>
    <g id="a">
      <g id="b">
        <g>
          <g>
            <path class="cls-1" d="M333.5,10.5v61.7c0,21.8-5.6,38.4-16.9,49.9-11.2,11.5-29,17.2-53.4,17.2s-26.9-2-38.7-6.1-22.4-9.4-31.6-15.9c2.2-7.2,4-14.2,5.4-20.8,1.4-6.6,2.4-13.9,3.1-21.9,12,9.7,23.1,16.4,33.2,20.1,10.1,3.7,19.8,5.6,29,5.6s16.4-2.2,20.5-6.5c4.1-4.3,6.2-11.7,6.3-22.2v-13.3c0-18.9-.5-34.9-1.6-47.9h44.6s0,0,0,0Z"/>
            <path class="cls-1" d="M360.8,122c-12.6-11.6-18.9-27.9-18.9-48.9s6.3-36.9,18.8-48.6c12.5-11.6,32.2-17.5,59-17.5s46.6,5.8,59.2,17.5c12.5,11.7,18.8,27.9,18.8,48.6s-6.2,37.4-18.7,49-32.2,17.3-59.3,17.3-46.3-5.8-58.9-17.4h0ZM447.7,96.3c5.7-5,8.6-12.7,8.6-23.2s-2.9-17.9-8.6-22.9c-5.7-5-15-7.5-28-7.5s-22.1,2.5-27.8,7.5-8.6,12.6-8.6,22.9,2.9,18.1,8.6,23.1c5.7,5,15,7.5,27.8,7.5s22.3-2.5,28-7.4h0Z"/>
            <path class="cls-1" d="M605.2,45.5c-13.9-.7-24.1-1.1-30.8-1.2v59.8c6.8-.1,17-.5,30.8-1.2v34.8h-101.6v-34.8c13.4.7,23.6,1.1,30.6,1.2v-59.8c-7,.1-17.2.5-30.6,1.2V10.7h101.6v34.8h0Z"/>
            <path class="cls-1" d="M763.5,10.9c-.8,19.7-1.2,40.8-1.2,63.3s.4,43.8,1.2,63.5h-62.6l-42.3-95.5,3.2,95.5h-44.9c.9-22.6,1.4-43.8,1.4-63.5s-.5-40.7-1.4-63.3h64.3l42.5,98.1-3-98.1h42.8,0Z"/>
            <path class="cls-1" d="M953.9,47.4c-18.3-.6-36.1-.9-53.3-1v91.3h-43.7V46.3c-17.4.1-35.1.5-53.2,1V10.7h150.2v36.7h0Z"/>
            <path class="cls-1" d="M1106.9,10.7c-.8,19.7-1.2,40.9-1.2,63.5s.4,43.8,1.2,63.5h-41.1v-47.6h-64.3v47.6h-41.1c.9-22.6,1.4-43.8,1.4-63.5s-.5-40.9-1.4-63.5h41.1v47.6h64.3V10.7h41.1Z"/>
            <path class="cls-1" d="M1160.9,105.6c44.3-.2,76.4-.9,96.3-1.9-.8,4.8-1.3,9.7-1.5,14.8s-.3,11.5-.3,19.1h-135.8c.9-22.6,1.4-43.8,1.4-63.5s-.5-40.9-1.4-63.5h135.8v31.6h-94.6v16.8c5.6.1,13.9.2,24.8.2,18.5,0,37.7-.4,57.5-1v30.1c-19.8-.7-39-1-57.5-1s-19.2,0-24.8.2v18.2h0Z"/>
            <path class="cls-1" d="M130.5,275.8c-8,7.2-20.2,11.7-36.5,13.5v11.2h-41.4v-11.5c-19.5-2.5-36.5-7.6-51-15.4,3.8-6,7-11.5,9.5-16.6,2.5-5.1,4.9-11.1,7.3-17.8,7.8,4.8,17,8.5,27.5,11.2s20.3,4,29.4,4,15.7-.8,19.5-2.5c3.8-1.7,5.7-3.5,5.7-5.5,0-7.1-10.4-10.7-31.1-10.7s-39.2-2.5-49.5-7.4c-10.3-5-15.4-13-15.4-24s4.3-23.1,13-30.5c8.7-7.4,20.4-12.1,35.2-14.2v-9.3h41.4v10c17.1,2.7,32.6,7.8,46.5,15.4-2,4.7-3.8,9.3-5.4,14s-3.1,9.2-4.5,13.6l-1.9,5.8c-5.7-4.8-14.3-8.8-25.8-12-11.5-3.2-21.6-4.8-30.3-4.8s-17.8.7-21.4,2.2-5.5,3.6-5.5,6.4,2.5,5,7.6,6.7,12.4,2.5,21.9,2.5c23.5,0,40.7,2.8,51.4,8.5,10.7,5.7,16.1,14.3,16.1,26s-4,24.2-12.1,31.5h0Z"/>
            <path class="cls-1" d="M298.7,161.7c-.8,19.7-1.2,40.9-1.2,63.5s.4,43.8,1.2,63.5h-41.1v-47.6h-64.3v47.6h-41.1c.9-22.6,1.4-43.8,1.4-63.5s-.5-40.9-1.4-63.5h41.1v47.6h64.3v-47.6h41.1Z"/>
            <path class="cls-1" d="M352.7,256.6c44.3-.2,76.4-.9,96.3-1.9-.8,4.8-1.3,9.7-1.5,14.8s-.3,11.5-.3,19.1h-135.9c.9-22.6,1.4-43.8,1.4-63.5s-.5-40.9-1.4-63.5h135.9v31.6h-94.6v16.8c5.6.1,13.9.2,24.8.2,18.5,0,37.7-.4,57.5-1v30.1c-19.8-.7-39-1-57.5-1s-19.2,0-24.8.2v18.2h0Z"/>
            <path class="cls-1" d="M526.9,216.2h74.7v72.4h-30.8l-3.7-31c-3.5,11.1-9.7,19.3-18.7,24.6-9,5.4-19.9,8-32.9,8s-22.2-2.6-31.4-7.9c-9.1-5.2-16.3-12.8-21.5-22.5-5.2-9.8-7.8-21.2-7.8-34.3,0-20.9,6.2-37.4,18.7-49.5,12.5-12.1,31.9-18.2,58.2-18.2s28.3,2.5,39.8,7.3c11.5,4.9,21.2,12.5,29.3,22.7-5.2,2.7-15.5,8-30.8,16.1l-4.4,2.5c-4.5-4.5-9.8-8-15.9-10.2-6.1-2.3-12.5-3.4-19.2-3.4-11.2,0-19.5,3-25,8.8-5.5,5.9-8.2,13.1-8.2,21.8s2.9,16.8,8.8,22.5c5.9,5.7,14.9,8.6,27,8.6s10.3-.8,15.3-2.3c5-1.5,9.1-4.1,12.5-7.9h-34.1v-28.3h0Z"/>
            <path class="cls-1" d="M654.9,256.6c44.3-.2,76.4-.9,96.3-1.9-.8,4.8-1.3,9.7-1.5,14.8s-.3,11.5-.3,19.1h-135.8c.9-22.6,1.4-43.8,1.4-63.5s-.5-40.9-1.4-63.5h135.8v31.6h-94.6v16.8c5.6.1,13.9.2,24.8.2,18.5,0,37.7-.4,57.5-1v30.1c-19.8-.7-39-1-57.5-1s-19.2,0-24.8.2v18.2h0Z"/>
            <path class="cls-1" d="M832.4,246.1h-75.2v-34.1h75.2v34.1Z"/>
            <path class="cls-1" d="M980.7,194.4h-95.1v18.4c5.9.1,14.9.2,26.8.2,20.5,0,41.4-.4,62.6-1v34.3c-21.2-.8-43.6-1.2-67.1-1.2s-17.2,0-22.2.2v43.5h-41.3c.9-22.6,1.4-43.8,1.4-63.5s-.5-40.9-1.4-63.5h136.4v32.7h0Z"/>
            <path class="cls-1" d="M1092.3,161.5h43.4v69.6c-.2,17.1-6.1,31.3-17.6,42.5s-30.8,16.8-58,16.8-46.3-5.3-56.5-16c-10.1-10.7-15.1-24.7-14.9-42v-70.8h43.4v68c0,5.1.4,9.3,1.1,12.5.8,3.2,3.2,6.2,7.3,9,4.1,2.8,10.8,4.2,20,4.2s17.4-1.4,22-4.3,7.4-6,8.3-9.5c.9-3.5,1.3-8,1.3-13.5v-66.4h0Z"/>
            <path class="cls-1" d="M1294,161.9c-.8,19.7-1.2,40.8-1.2,63.3s.4,43.8,1.2,63.5h-62.6l-42.3-95.5,3.2,95.5h-44.9c.9-22.6,1.4-43.8,1.4-63.5s-.5-40.7-1.4-63.3h64.3l42.5,98.1-3-98.1h42.8,0,0Z"/>
            <path class="cls-1" d="M1414.5,167.7c12.7,5.3,21.6,12.6,26.7,22,5.1,9.4,7.6,20.9,7.6,34.5s-2.9,24.2-8.7,33.9c-5.8,9.7-14.6,17.2-26.2,22.5-11.7,5.3-26,8-43,8h-31.7c-10.7,0-21.6,0-32.5-.2.9-23,1.4-44.4,1.4-64.2s-.5-41-1.4-62.8c13.9-1.2,32.5-1.8,55.9-1.8s39.2,2.6,51.9,8h0ZM1375.7,253.8c10.8,0,18.1-2.6,21.7-7.9,3.6-5.2,5.4-12.5,5.4-21.7s-1.9-16-5.7-21.5c-3.8-5.5-10.9-8.2-21.4-8.2s-19.8.4-25.3,1v58.2h25.3Z"/>
          </g>
          <g>
            <path class="cls-3" d="M333.5,3.5v61.7c0,21.8-5.6,38.4-16.9,49.9-11.2,11.5-29,17.2-53.4,17.2s-26.9-2-38.7-6.1-22.4-9.4-31.6-15.9c2.2-7.2,4-14.2,5.4-20.8,1.4-6.6,2.4-13.9,3.1-21.9,12,9.7,23.1,16.4,33.2,20.1,10.1,3.7,19.8,5.6,29,5.6s16.4-2.2,20.5-6.5c4.1-4.3,6.2-11.7,6.3-22.2v-13.3c0-18.9-.5-34.9-1.6-47.9h44.6s0,0,0,0Z"/>
            <path class="cls-3" d="M360.8,115c-12.6-11.6-18.9-27.9-18.9-48.9s6.3-36.9,18.8-48.6c12.5-11.6,32.2-17.5,59-17.5s46.6,5.8,59.2,17.5c12.5,11.7,18.8,27.9,18.8,48.6s-6.2,37.4-18.7,49-32.2,17.3-59.3,17.3-46.3-5.8-58.9-17.4h0ZM447.7,89.3c5.7-5,8.6-12.7,8.6-23.2s-2.9-17.9-8.6-22.9c-5.7-5-15-7.5-28-7.5s-22.1,2.5-27.8,7.5-8.6,12.6-8.6,22.9,2.9,18.1,8.6,23.1c5.7,5,15,7.5,27.8,7.5s22.3-2.5,28-7.4h0Z"/>
            <path class="cls-3" d="M605.2,38.5c-13.9-.7-24.1-1.1-30.8-1.2v59.8c6.8-.1,17-.5,30.8-1.2v34.8h-101.6v-34.8c13.4.7,23.6,1.1,30.6,1.2v-59.8c-7,.1-17.2.5-30.6,1.2V3.7h101.6v34.8h0Z"/>
            <path class="cls-3" d="M763.5,3.9c-.8,19.7-1.2,40.8-1.2,63.3s.4,43.8,1.2,63.5h-62.6l-42.3-95.5,3.2,95.5h-44.9c.9-22.6,1.4-43.8,1.4-63.5s-.5-40.7-1.4-63.3h64.3l42.5,98.1-3-98.1h42.8,0Z"/>
            <path class="cls-3" d="M953.9,40.4c-18.3-.6-36.1-.9-53.3-1.1v91.3h-43.7V39.3c-17.4.1-35.1.5-53.2,1.1V3.7h150.2v36.7h0Z"/>
            <path class="cls-3" d="M1106.9,3.7c-.8,19.7-1.2,40.9-1.2,63.5s.4,43.8,1.2,63.5h-41.1v-47.6h-64.3v47.6h-41.1c.9-22.6,1.4-43.8,1.4-63.5s-.5-40.9-1.4-63.5h41.1v47.6h64.3V3.7h41.1Z"/>
            <path class="cls-3" d="M1160.9,98.6c44.3-.2,76.4-.9,96.3-1.9-.8,4.8-1.3,9.7-1.5,14.8s-.3,11.5-.3,19.1h-135.8c.9-22.6,1.4-43.8,1.4-63.5s-.5-40.9-1.4-63.5h135.8v31.6h-94.6v16.8c5.6.1,13.9.2,24.8.2,18.5,0,37.7-.4,57.5-1v30.1c-19.8-.7-39-1-57.5-1s-19.2,0-24.8.2v18.2h0Z"/>
            <path class="cls-2" d="M130.5,268.8c-8,7.2-20.2,11.7-36.5,13.5v11.2h-41.4v-11.5c-19.5-2.5-36.5-7.6-51-15.4,3.8-6,7-11.5,9.5-16.6,2.5-5.1,4.9-11.1,7.3-17.8,7.8,4.8,17,8.5,27.5,11.2s20.3,4,29.4,4,15.7-.8,19.5-2.5c3.8-1.7,5.7-3.5,5.7-5.5,0-7.1-10.4-10.7-31.1-10.7s-39.2-2.5-49.5-7.4c-10.3-5-15.4-13-15.4-24s4.3-23.1,13-30.5c8.7-7.4,20.4-12.1,35.2-14.2v-9.3h41.4v10c17.1,2.7,32.6,7.8,46.5,15.4-2,4.7-3.8,9.3-5.4,14s-3.1,9.2-4.5,13.6l-1.9,5.8c-5.7-4.8-14.3-8.8-25.8-12-11.5-3.2-21.6-4.8-30.3-4.8s-17.8.7-21.4,2.2-5.5,3.6-5.5,6.4,2.5,5,7.6,6.7,12.4,2.5,21.9,2.5c23.5,0,40.7,2.8,51.4,8.5,10.7,5.7,16.1,14.3,16.1,26s-4,24.2-12.1,31.5h0Z"/>
            <path class="cls-2" d="M298.7,154.7c-.8,19.7-1.2,40.9-1.2,63.5s.4,43.8,1.2,63.5h-41.1v-47.6h-64.3v47.6h-41.1c.9-22.6,1.4-43.8,1.4-63.5s-.5-40.9-1.4-63.5h41.1v47.6h64.3v-47.6h41.1Z"/>
            <path class="cls-2" d="M352.7,249.6c44.3-.2,76.4-.9,96.3-1.9-.8,4.8-1.3,9.7-1.5,14.8s-.3,11.5-.3,19.1h-135.9c.9-22.6,1.4-43.8,1.4-63.5s-.5-40.9-1.4-63.5h135.9v31.6h-94.6v16.8c5.6.1,13.9.2,24.8.2,18.5,0,37.7-.4,57.5-1v30.1c-19.8-.7-39-1-57.5-1s-19.2,0-24.8.2v18.2h0Z"/>
            <path class="cls-2" d="M526.9,209.2h74.7v72.4h-30.8l-3.7-31c-3.5,11.1-9.7,19.3-18.7,24.6-9,5.4-19.9,8-32.9,8s-22.2-2.6-31.4-7.9c-9.1-5.2-16.3-12.8-21.5-22.5-5.2-9.8-7.8-21.2-7.8-34.3,0-20.9,6.2-37.4,18.7-49.5,12.5-12.1,31.9-18.2,58.2-18.2s28.3,2.5,39.8,7.3c11.5,4.9,21.2,12.5,29.3,22.7-5.2,2.7-15.5,8-30.8,16.1l-4.4,2.5c-4.5-4.5-9.8-8-15.9-10.2-6.1-2.3-12.5-3.4-19.2-3.4-11.2,0-19.5,3-25,8.8-5.5,5.9-8.2,13.1-8.2,21.8s2.9,16.8,8.8,22.5c5.9,5.7,14.9,8.6,27,8.6s10.3-.8,15.3-2.3c5-1.5,9.1-4.1,12.5-7.9h-34.1v-28.3h0Z"/>
            <path class="cls-2" d="M654.9,249.6c44.3-.2,76.4-.9,96.3-1.9-.8,4.8-1.3,9.7-1.5,14.8s-.3,11.5-.3,19.1h-135.8c.9-22.6,1.4-43.8,1.4-63.5s-.5-40.9-1.4-63.5h135.8v31.6h-94.6v16.8c5.6.1,13.9.2,24.8.2,18.5,0,37.7-.4,57.5-1v30.1c-19.8-.7-39-1-57.5-1s-19.2,0-24.8.2v18.2h0Z"/>
            <path class="cls-2" d="M832.4,239.1h-75.2v-34.1h75.2v34.1Z"/>
            <path class="cls-2" d="M980.7,187.4h-95.1v18.4c5.9.1,14.9.2,26.8.2,20.5,0,41.4-.4,62.6-1v34.3c-21.2-.8-43.6-1.2-67.1-1.2s-17.2,0-22.2.2v43.5h-41.3c.9-22.6,1.4-43.8,1.4-63.5s-.5-40.9-1.4-63.5h136.4v32.7h0Z"/>
            <path class="cls-2" d="M1092.3,154.5h43.4v69.6c-.2,17.1-6.1,31.3-17.6,42.5s-30.8,16.8-58,16.8-46.3-5.3-56.5-16c-10.1-10.7-15.1-24.7-14.9-42v-70.8h43.4v68c0,5.1.4,9.3,1.1,12.5.8,3.2,3.2,6.2,7.3,9,4.1,2.8,10.8,4.2,20,4.2s17.4-1.4,22-4.3c4.7-2.9,7.4-6,8.3-9.5.9-3.5,1.3-8,1.3-13.5v-66.4h0Z"/>
            <path class="cls-2" d="M1294,154.9c-.8,19.7-1.2,40.8-1.2,63.3s.4,43.8,1.2,63.5h-62.6l-42.3-95.5,3.2,95.5h-44.9c.9-22.6,1.4-43.8,1.4-63.5s-.5-40.7-1.4-63.3h64.3l42.5,98.1-3-98.1h42.8,0,0Z"/>
            <path class="cls-2" d="M1414.5,160.7c12.7,5.3,21.6,12.6,26.7,22,5.1,9.4,7.6,20.9,7.6,34.5s-2.9,24.2-8.7,33.9c-5.8,9.7-14.6,17.2-26.2,22.5-11.7,5.3-26,8-43,8h-31.7c-10.7,0-21.6,0-32.5-.2.9-23,1.4-44.4,1.4-64.2s-.5-41-1.4-62.8c13.9-1.2,32.5-1.8,55.9-1.8s39.2,2.6,51.9,8h0ZM1375.7,246.8c10.8,0,18.1-2.6,21.7-7.9,3.6-5.2,5.4-12.5,5.4-21.7s-1.9-16-5.7-21.5c-3.8-5.5-10.9-8.2-21.4-8.2s-19.8.4-25.3,1v58.2h25.3Z"/>
          </g>
        </g>
      </g>
    </g>
  </g>
</svg>