<?xml version="1.0" encoding="UTF-8"?>
<svg xmlns="http://www.w3.org/2000/svg" version="1.1" viewBox="0 0 2918.8 2301.6">
  <defs>
    <style>
      .cls-1 {
        fill: #00a2e3;
      }

      .cls-2, .cls-3, .cls-4 {
        isolation: isolate;
      }

      .cls-2, .cls-5 {
        fill: #fff;
      }

      .cls-2, .cls-4 {
        mix-blend-mode: overlay;
        opacity: .5;
      }

      .cls-6, .cls-7 {
        stroke-linecap: round;
      }

      .cls-6, .cls-7, .cls-8, .cls-9, .cls-10, .cls-11, .cls-12 {
        stroke: #000;
      }

      .cls-6, .cls-7, .cls-8, .cls-9, .cls-11 {
        stroke-width: 10px;
      }

      .cls-6, .cls-7, .cls-9, .cls-10, .cls-11, .cls-12 {
        stroke-miterlimit: 10;
      }

      .cls-6, .cls-13, .cls-8, .cls-9 {
        fill: #c89369;
      }

      .cls-14, .cls-15 {
        mix-blend-mode: hard-light;
        opacity: .3;
      }

      .cls-7, .cls-16, .cls-11, .cls-12 {
        fill: #8d6132;
      }

      .cls-17 {
        fill: #eb001c;
      }

      .cls-18, .cls-15 {
        fill: #1f180b;
      }

      .cls-8 {
        stroke-linejoin: round;
      }

      .cls-10 {
        fill: none;
      }

      .cls-10, .cls-12 {
        stroke-width: 9px;
      }
    </style>
  </defs>
  <!-- Generator: Adobe Illustrator 28.6.0, SVG Export Plug-In . SVG Version: 1.2.0 Build 709)  -->
  <g class="cls-3">
    <g id="Layer_1">
      <g>
        <rect class="cls-17" x="799" y="411" width="156.1" height="724.1"/>
        <path d="M794,406v734.1h166.1V406h-166.1ZM950.1,1130.1h-146.1V416h146.1v714.1h0Z"/>
      </g>
      <rect x="872" y="1135.1" width="10" height="107.3"/>
      <g>
        <rect class="cls-17" x="994.8" y="821.5" width="156.1" height="411.2"/>
        <path d="M989.8,816.4v421.2h166.1v-421.2h-166.1ZM1145.9,1227.6h-146.1v-401.2h146.1v401.2Z"/>
      </g>
      <rect x="1067.9" y="714.1" width="10" height="107.3"/>
      <rect x="1067.9" y="1232.6" width="10" height="48"/>
      <g>
        <rect class="cls-17" x="1181.9" y="1163.9" width="156.1" height="411.2"/>
        <path d="M1176.9,1158.8v421.2h166.1v-421.2h-166.1,0ZM1333,1570.1h-146.1v-401.2h146.1v401.2Z"/>
      </g>
      <rect x="1255" y="1575.1" width="10" height="107.3"/>
      <rect class="cls-2" x="804" y="416" width="17" height="714"/>
      <rect class="cls-2" x="1000" y="826" width="17" height="402"/>
      <rect class="cls-2" x="1186" y="1168" width="17" height="402"/>
      <rect class="cls-4" x="933" y="416" width="17" height="714"/>
      <rect class="cls-4" x="1129" y="826" width="17" height="402"/>
      <rect class="cls-4" x="1315" y="1168" width="17" height="402"/>
      <g>
        <rect class="cls-17" x="5" y="5" width="156.1" height="724.1"/>
        <path d="M0,0v734.1h166.1V0H0ZM156.1,724.1H10V10h146.1v714.1Z"/>
      </g>
      <rect x="78" y="729.1" width="10" height="107.3"/>
      <g>
        <rect class="cls-17" x="200.9" y="415.4" width="156.1" height="411.2"/>
        <path d="M195.8,410.4v421.2h166.1v-421.2h-166.1,0ZM351.9,821.6h-146.1v-401.2h146.1v401.2Z"/>
      </g>
      <rect x="273.9" y="308.1" width="10" height="107.3"/>
      <rect x="273.9" y="826.6" width="10" height="48"/>
      <g>
        <rect class="cls-17" x="387.9" y="757.9" width="156.1" height="411.2"/>
        <path d="M382.9,752.8v421.2h166.1v-421.2h-166.1ZM539,1164.1h-146.1v-401.2h146.1v401.2Z"/>
      </g>
      <rect x="461" y="1169.1" width="10" height="107.3"/>
      <g>
        <rect class="cls-17" x="581.9" y="919.2" width="156.1" height="411.2"/>
        <path d="M576.9,914.2v421.2h166.1v-421.2h-166.1ZM733,1325.3h-146.1v-401.2h146.1v401.2Z"/>
      </g>
      <rect x="655" y="711" width="10" height="208.2"/>
      <rect class="cls-2" x="10" y="10" width="17" height="714"/>
      <rect class="cls-2" x="206" y="420" width="17" height="402"/>
      <rect class="cls-2" x="392" y="762" width="17" height="402"/>
      <rect class="cls-2" x="587" y="924" width="17" height="402"/>
      <rect class="cls-4" x="139" y="10" width="17" height="714"/>
      <rect class="cls-4" x="335" y="420" width="17" height="402"/>
      <rect class="cls-4" x="521" y="762" width="17" height="402"/>
      <rect class="cls-4" x="716" y="924" width="17" height="402"/>
      <g>
        <path class="cls-16" d="M1635.1,809.9c-8.1,49.1,13.8-32.3-1.4,15.1l-18.4,45.4,160.9,40.7s187.4-141.1,185.9-149.9-52.5-221.7-52.5-221.7c1.9-48.9,33-106.7,75.1-145,0,0-284.6,23.2-349.6,415.4Z"/>
        <path d="M1630.3,808.5c-.9,5.2-2.2,10.8-2.1,16.1.1,4.8,4.7,9,9,5.1,3.6-3.2,4.8-10.6,5.9-15.1s1.7-5.4.3-7.7c-3.4-5.8-8.5-.9-10.1,3.1-3.2,8.3-5.9,16.8-9.3,25.1-4.6,11.3-9.1,22.5-13.7,33.8s1.1,5.5,3.5,6.2c19.5,4.9,39,9.8,58.4,14.8,29.5,7.4,58.9,14.9,88.4,22.3l11.2,2.8c2.3.6,4.5,1.4,6.8.2,4.1-2.1,7.8-5.9,11.4-8.6,22-16.6,43.8-33.4,65.6-50.3s51.2-39.7,76.2-60.3c8.7-7.1,17.3-14.3,25.5-22s10.1-8.4,9.3-14.4-2.7-11.9-4-17.7c-2.9-12.6-5.9-25.1-8.8-37.6-7.7-32.5-15.4-64.9-23.1-97.4-5.2-22-10.5-44-15.8-66-.7-2.8-.4-3.9-.2-7,1-12,3.7-23.9,7.4-35.4,8.3-25.7,21.9-50,38.6-71.2,8.3-10.5,17.4-20.3,27.2-29.4,3.1-2.8.8-8.9-3.5-8.5-10.1.8-20.3,3-30.1,5.4-25.1,6.1-49.4,15.2-72.6,26.5-33.6,16.4-64.8,37.8-92.5,63-36,32.7-65.9,71.9-89.5,114.4-31.4,56.6-51.9,118.7-64.6,182-1.8,9.2-3.5,18.4-5.1,27.7s8.6,9,9.6,2.7c10.9-65.2,29.2-129.7,59-189,22.3-44.3,51-85.4,86.4-120.1s57.8-49.2,91.4-66.8c23.5-12.4,48.1-22.2,73.8-29,7.8-2.1,15.7-3.9,23.7-5.3s2.8-.5,4.2-.7,1.1-.2,1.6-.2,2.2-.3,1.1-.2,1.2-.1,1.8-.2,1,0,1.4-.2.3,0,.5,0l-3.5-8.5c-29.9,27.4-53.6,62.4-67,100.7-3.1,8.8-5.6,17.9-7.2,27.1s-3.2,15.2-2.1,22.1,1.5,6.4,2.3,9.5c10.3,43,20.5,86,30.7,129,5,21,10,42,14.9,63s2.6,11.3,3.9,16.9.3,1.4.4,2c.3,1.2-.2,1.2,0,0s1-1.9,0-1.1-.5.7,0,0c-.3.4-.6.8-1,1.1-10.4,11.2-22.7,20.7-34.5,30.4-18.8,15.4-38,30.5-57.2,45.4-18.8,14.7-37.7,29.2-56.7,43.7-10.8,8.2-22.2,16-32.6,24.8s-1.1.8-1.6,1.2l3.9-.5c-47-11.9-93.9-23.7-140.9-35.6s-13.4-3.4-20.1-5.1l3.5,6.2c4.7-11.7,9.4-23.3,14.2-35,1.7-4.2,3.5-8.3,4.9-12.6s2.1-6.5,3.2-9.7.7-1.5.9-2.3-.1.3-.1.3c0,0,0-.2.1-.3.7-1.1-.3-.4-2.8,2.1l-3.9-.5h0c-.8-1-1.5-2-2.3-3-.4-1,.3-3-.3-.9s-.6,2.2-.9,3.3c-.7,2.6-1.5,5.2-2.4,7.7s-.4,1-.6,1.6c.6-1.4-.2,0-.1.2.2,1.3-.3-1.1.2-.2,5.9,4,8.6,4.6,7.9,2,0-.2,0,0,0,.4-.2.5,0,.5,0,0,1.1-4.3,1-9.4,1.7-13.8,1-6.3-8.6-9-9.6-2.7Z"/>
      </g>
      <path class="cls-12" d="M2755.2,2272s-.9-702.7-381.5-782.7c-380.6-80-664.5,52.6-664.5,52.6,0,0-195.9,122.9-195.9,453.3s-101,494.4-101,494.4l1343-69.6v-147.9Z"/>
      <path class="cls-10" d="M1672.1,1728.3s-16.5,88.2-12.6,168.7,14.9,118.2,6,201.6c-8.9,83.5-20.8,166.1-6.6,234.4"/>
      <polygon class="cls-13" points="2177.2 1606.9 2186.2 1643.2 2171.5 1714.2 2163.9 1794.8 2162.8 1892.6 2172.5 1985.3 2188.7 2081.6 2201.4 2145.7 2212.2 2219 2227.2 2363.9 2083.7 2383.8 1804.9 2316.5 1814.9 2247.6 1825.7 2130.8 1826.5 2072.5 1822.7 2017.7 1813.9 1970.3 1807.9 1932.9 1802.4 1860.5 1804.6 1791.7 1812.8 1732.6 1842.3 1612.4 2177.2 1606.9"/>
      <path class="cls-10" d="M2490.5,1932.9s-3.9,268.6,47.5,440.2"/>
      <path class="cls-15" d="M2281.5,1541.3l90.8-10.3c-3.8-2.8-7.7-5.6-11.6-8.3l86.5-8.4,67,43.1,41.1,39.2,39.9,50.6,43.6,74.6,39.2,92.8,27.9,91,16.5,70.9,12.8,71.1,13.2,105.4,6.8,85.4v72.3l-96,14.9s21.7-352.5-135.2-611.1c-33-54.5-100.1-77.9-159.8-55.6-138.8,52-395.4,108.7-643.2-25.8-337.6-183.2,560.5-91.8,560.5-91.8Z"/>
      <path class="cls-10" d="M2190.9,1628.4s-63,168.2,0,463.3,0,401.9,0,401.9"/>
      <path class="cls-10" d="M1837.4,1647.3s-64,139.6-19.4,343.3c44.6,203.6-97,706.9-97,706.9"/>
      <g>
        <path class="cls-16" d="M2349.3,704.6l31.7-28.1c20.1-41.1,48.4,47,65.8,4.7,27-65.8,64.6-99.9,149.2-142.2,71.5-35.8,130.5-54.6,210.2-61.7-123.4-64.6-605.6-125-773.4,201.8"/>
        <path d="M2352.9,708.1c8.9-7.9,17.8-15.8,26.8-23.7s3.2-2.6,4.6-4.1,2.6-4.5,4.2-6.6,2.9-2.9,4-3.3,2.1-.4,4.2.4c13.4,5,32.5,41.2,49.4,21.6,5.5-6.4,7.8-15.4,11.3-22.9s8.7-17.4,13.9-25.6c10-15.9,22.1-30.2,36.1-42.7,16-14.3,33.9-26.3,52.4-37,23.3-13.6,47.7-25.7,72.3-36.7,55.5-24.7,113.6-39.6,174.1-45.1s7.3-6.8,2.5-9.3c-34-17.7-72.4-27.5-109.8-35.1-53.3-10.8-107.8-16.1-162.1-16.6-61.6-.5-123.4,5.2-183.4,19.1-61.7,14.2-121.8,37.3-175.1,71.6-55.9,36-103.3,84.3-137.2,141.7-4.4,7.5-8.6,15.1-12.6,22.9s5.7,10.8,8.6,5c30.5-59.2,74.4-110.4,128.7-149.1,50.9-36.3,109.1-61.3,169.4-77.3,59.1-15.7,120.3-22.9,181.4-23.8,54.5-.8,109.3,3.3,163,13,38.8,6.9,79.1,16.4,114.6,32.6,3.2,1.5,6.4,3,9.5,4.6.8-3.1,1.7-6.2,2.5-9.3-54.3,4.9-107.2,16.8-157.7,37.4-25.4,10.3-50.3,22.2-74.5,35.1s-40.8,23-59.3,37.4c-31.3,24.3-54.5,55.3-70.1,91.6-2,4.6-4.8,12.8-8.5,14s-1.7.4-3.7-.5-3.4-2-4.6-2.9c-8.7-6.8-15.3-16.7-25.3-21.8s-11.1-3.3-16.3-.2-6.8,8.9-10.4,12c-10,8.9-20,17.7-30,26.6s2.3,11.3,7.1,7.1h0Z"/>
      </g>
      <g>
        <path class="cls-16" d="M2593.3,1186.2c74-351.3,150.4-489.9,319.5-564.3-40.2-8.2-129.2-27.8-230.2-27.8-185.9,0-278.1,14.4-428.1,124.3-74,54.3-133.6,125.5-192.4,196l-120,193.8,247.1,181s418.2-111.6,421.6-127.5c3.4-15.9-17.5,24.6-17.5,24.6Z"/>
        <path d="M2598.1,1187.6c12.9-60.9,26.9-121.6,44-181.5,13.5-47.4,28.9-94.5,48.5-139.9,15.8-36.7,34.3-72.4,57.3-105.1s43-53.8,69.5-75.7c26.1-21.6,55.4-39.2,86-53.6,4-1.9,8-3.7,12-5.5s2.8-8.3-1.2-9.1c-40.4-8.2-80.8-16-121.8-21-56-6.9-112.1-7.8-168.5-6.4-44.2,1.1-88.6,3.9-132.2,11.9-39.4,7.3-77.7,19.3-114.1,36.1-43.1,19.8-83.2,45.5-121.5,73.3s-86.6,72.7-124.6,114.7c-19.1,21.1-37.6,42.8-55.9,64.7-7.1,8.5-14.8,16.6-20.7,26-11.5,18.6-23.1,37.2-34.6,55.8-27,43.7-54.1,87.3-81.1,131s-1,1.7-1.6,2.5c-1.5,2.5-.3,5.3,1.8,6.8,13.3,9.7,26.5,19.4,39.8,29.2,29,21.2,58,42.5,86.9,63.7,28.3,20.8,56.7,41.5,85,62.3,9,6.6,17.9,13.1,26.9,19.7,3.3,2.4,7.8,7.4,12.4,6.7s7.4-2,11-2.9c9-2.4,18.1-4.9,27.1-7.3,29.8-8.1,59.5-16.2,89.2-24.4,37.1-10.3,74.2-20.7,111.2-31.4,34.8-10,69.5-20.2,104.1-31.1,23-7.2,46.3-14.3,68.5-23.8,4.3-1.8,10.9-4.1,13.4-8.4s.2-14.7-7-11-8.7,11.3-11.4,16.1-5.1,9.2-7.5,13.9,5.7,10.8,8.6,5,6.5-12.3,10-18.3,2.2-3.7,3.4-5.5,2.1-2.1,2.3-3l-.3.2c-2.1,1.7-4.4.6-6.9-3.5-.1.2.2.5,0,.7.7-.6-.6.7-.2,1-.2-.2.9-1.6.7-1.3-.3.6-1.2,1,0,0-.5.3-.9.7-1.4,1-1.3.8-2.7,1.5-4,2.1-4.5,2.2-6.6,3-11.6,4.9-30.7,11.9-62.4,21.2-93.9,30.7-43.3,13.1-86.7,25.5-130.2,37.7-39.3,11.1-78.6,21.9-118,32.6-13.2,3.6-26.4,7.2-39.7,10.8-6.2,1.7-13.3,2.6-19.2,5.2s-.6.2-.8.2l3.9.5c-28-20.5-55.9-41-83.9-61.5-44.2-32.4-88.5-64.8-132.7-97.2-10.2-7.4-20.3-14.9-30.5-22.3l1.8,6.8c23.3-37.7,46.6-75.3,70-113,13.7-22.2,27.4-44.3,41.2-66.5,2.8-4.6,5.5-9.4,8.6-13.9,4.9-7,11.1-13.4,16.6-19.9,8.8-10.5,17.6-20.9,26.5-31.3,36.6-42.6,75-84.1,118.1-120.2,38.5-32.2,81-60.9,125.2-84.6,35.9-19.3,73.9-34.3,113.5-44,40.4-9.9,81.9-14.3,123.4-16.4,53.6-2.7,107.7-3.4,161.2.9,47.1,3.8,93.7,11.2,139.9,20.6s14,2.9,21,4.3c-.4-3-.8-6.1-1.2-9.1-31.8,14-62.1,31.2-89.7,52.4-27.5,21.2-51.7,46.2-72.7,74-23.6,31.3-42.8,65.7-59,101.3-20.2,44.1-36.2,90.1-50.2,136.5-17.6,58.7-31.9,118.3-45,178.1-1.8,8.3-3.6,16.6-5.3,24.9s8.3,9,9.6,2.7Z"/>
      </g>
      <g class="cls-14">
        <path class="cls-18" d="M2593.3,1186.2c74-351.3,150.4-489.9,319.5-564.3-40.2-8.2-129.2-27.8-230.2-27.8-185.9,0-278.1,14.4-428.1,124.3-74,54.3-133.6,125.5-192.4,196l-120,193.8,247.1,181s418.2-111.6,421.6-127.5c3.4-15.9-17.5,24.6-17.5,24.6Z"/>
      </g>
      <g class="cls-14">
        <path class="cls-18" d="M2349.3,704.6l31.7-28.1c20.1-41.1,27.6-4,45-46.3,12.9-31.3,48.9-4.4,70.5-25.6,23.8-23.4,55.2-43.3,99.5-65.5,71.5-35.8,130.5-54.6,210.2-61.7-123.4-64.6-605.6-125-773.4,201.8"/>
      </g>
      <g>
        <path class="cls-16" d="M1912.4,1140.4c44.2,28.2,96.5,40.2,147.7,51.8,43.7,9.9,87.8,19.8,132.6,22.1,61.8,3.1,123.3-8.4,183.8-21.6,38.5-8.4,76.8-17.5,115-27.3,37.6-9.7,75.2-20.1,111-35.2,53.2-22.4,101.6-54.7,149.5-86.8,35.3-23.6,71.3-47.8,97.9-81-52.3,205.6-186,389.3-365.7,502.3,0,0-331.9-14.3-346.4-24.8-14.5-10.5-268.3-170.4-266.3-173.7,2-3.4,40.8-125.8,40.8-125.8"/>
        <path d="M1909.8,1144.7c53.6,33.9,118.3,45.9,179.4,59.1,33.8,7.3,67.9,13.6,102.4,15.4s69.2-1,103.4-6,68.8-12.5,102.9-20.2c34.2-7.7,68.3-15.9,102.2-24.8s65.8-17.9,97.4-30.7c30.4-12.3,59.3-27.7,87.3-44.7s54.4-34.8,81.1-52.8c25.3-17.1,50.5-34.9,72-56.8s10.6-11.3,15.4-17.3l-8.4-4.9c-19.4,75.8-49.7,148.6-89.4,216-39.5,66.9-88.2,128.4-144.3,182.1-28.1,26.9-58,51.8-89.7,74.4-8,5.7-16.1,11.3-24.3,16.7s-7.8,5.1-11.7,7.6-4.5,2.8-1.4,1.8c0,0-.2,0-.2,0-2.2.5-5.3-.2-7.5-.3-35.5-1.6-71-3.3-106.5-5.2-49.3-2.6-98.7-5.4-148-9.1s-37.9-2.9-56.8-5.1c-6.2-.7-10.7-1.2-17-2.4s-3.8-.7-5.7-1.2-1.2-.4-1.8-.6c.6.2.7.5-.2-.2-7.9-5.9-16.6-10.9-24.9-16.3-17-10.9-34-21.8-51-32.7-42-26.8-84-53.7-125.8-80.8-15.7-10.2-31.5-20.4-47-31-4.5-3-8.9-6-13.3-9.3-.6-.4-2.3-1.8-1.1-.8-.4-.3-.9-.9-1.4-1.1-1.2-.5.2-1,0,.2s1.9,2.3,0,4.6c.4-.5.5-1.1.7-1.7,2.4-5.4,3.9-11.4,5.8-17,3.5-10.5,6.9-21.1,10.3-31.6,7-21.6,13.9-43.3,20.8-65s2.4-7.7,3.7-11.5c2-6.1-7.7-8.8-9.6-2.7-11.7,36.9-23.4,73.8-35.5,110.5s-2.3,6.9-3.4,10.3-.7,2-1.1,3.1-.5,1.7-.2.7c-1.4,5.1,1.2,7,4.8,9.7,10.5,7.9,21.6,15,32.6,22.2,40.3,26.6,81,52.5,121.6,78.5,33.7,21.5,67.5,42.8,100.9,64.7,6.1,4,10.6,7.1,17.9,8.4,14.6,2.7,29.5,3.9,44.3,5.3,47.9,4.3,95.9,7.1,143.9,9.7,42.7,2.4,85.4,4.5,128.1,6.5s15.5,1.7,22.9,1,4.4-1.8,6.5-3.2c4.4-2.8,8.7-5.6,13-8.5,8.2-5.4,16.3-11,24.3-16.8,16.1-11.6,31.8-23.7,47-36.4,60.6-50.4,114-109.4,158.5-174.4,44.6-65.2,80.3-136.7,105.1-211.7,6-18.2,11.4-36.5,16.1-55.1,1.1-4.5-5-9-8.4-4.9-19.1,23.6-42.8,42.8-67.6,60.2s-52.1,35.5-78.6,52.4c-27.2,17.3-55,33.7-84.2,47.3s-62.2,24.5-94.4,33.4c-65.8,18.3-132.8,34.4-200.1,46.6-33.8,6.1-68,10.6-102.4,11-34.4.4-68.5-3.9-102.2-10.5-32-6.2-63.9-13.4-95.5-21.4-29.7-7.5-59.4-16.5-86.7-30.6-6.7-3.5-13.3-7.2-19.6-11.3s-10.5,5.2-5,8.6h0Z"/>
      </g>
      <g class="cls-14">
        <path class="cls-18" d="M1912.4,1140.4c44.2,28.2,96.5,40.2,147.7,51.8,43.7,9.9,87.8,19.8,132.6,22.1,61.8,3.1,123.3-8.4,183.8-21.6,38.5-8.4,76.8-17.5,115-27.3,37.6-9.7,75.2-20.1,111-35.2,53.2-22.4,101.6-54.7,149.5-86.8,35.3-23.6,71.3-47.8,97.9-81-52.3,205.6-186,389.3-365.7,502.3,0,0-331.9-14.3-346.4-24.8-14.5-10.5-268.3-170.4-266.3-173.7,2-3.4,40.8-125.8,40.8-125.8"/>
      </g>
      <g>
        <path class="cls-16" d="M2348.9,812.9c-.6-3.4,64.4-53.2,64.4-53.2,37.1-32.5,15.5.2,63.6-10.8,48.1-10.9,112.8-27,161.9-22.3,0,0-124.4,127.8-95.2,427,6,61.4,21.3,124.7,6.2,185.9-8.7,35.4-23.3,74.8-43.7,108.8-13.4,22.3-29.4,42.4-47.9,57.5-20,16.3-88.6,63.8-112.1,74.4-162.7,73.1-646.7,197.3-747-80.8l-11.5-170.2c-3.7,3.9-6.3,6.4-6.8,6.4-2.2,0-45.8-21.3-45.8-21.3-2.2-7.2-5.8-13.9-8.8-20.8-5.9-13.8-9.3-28.6-10.1-43.5-1.3-27.9,8.9-63,18-91,.8-2.6,1.7-5.2,2.5-7.7l-13.8,4.1c-.9-.3,28.9-13.8,28-14.1-4.9-1.8,3,4.3,0,0-3.3-4.8-22.1-15-16.3-15.3,79.5-3.9,62.1,16.7-18.5-40.5l1.8-41.4c-.6-18.4,6.2-42,20.9-53.1,5.9-4.5,13.3-6.5,20.5-8.3,3.4-.8,6.7-1.6,10.1-2.3l-18.3.4c-1.1-9,2.2-17.9,7.9-25.1l1.4.4c.1-.8.2-1.7.4-2.5,8.9-60.9,28.7-128.6,70.8-173.1,3.3-3.5,6.8-6.9,10.4-10.2"/>
        <path d="M2353.9,812.9c0,.8-.1,2.2-.4,1.8.2.4-.8.7.1-.1s1.7-1.7,2.5-2.5c2.4-2.3,4.9-4.4,7.4-6.6,7.1-6,14.4-11.9,21.7-17.7,10.1-8,20.7-16,30.5-23.9s9.4-8.2,14.6-11.6,4.6-2.7,6.2-2.6c-.9,0,1.7.6.9.3,1,.5,1.9,1,2.9,1.6,2.6,1.4,5.2,2.6,8.1,3.3,11,2.9,22.8.3,33.7-2.2,15.5-3.5,31-7.1,46.6-10.4,35.9-7.5,73.2-14.2,110-10.8l-3.5-8.5c-16.3,16.8-28.8,38.5-39.6,59.1-30.1,57.3-47,120.9-55.4,184.9-6.2,47.5-7.4,95.5-4.9,143.2,1.5,28.6,4.6,57,8.3,85.4,3.8,28.8,7.7,57.8,7.6,87s-5.6,56.9-14.5,84.5c-8.4,26.1-19.1,51.5-33,75.2-13.2,22.7-29.5,44-50,60.5-12.4,10-25.5,19-38.5,28.1-26.1,18.1-52.6,36.8-81.9,49.3-22.3,9.6-45.2,17.9-68.2,25.6-59.6,19.9-120.7,35.4-182.6,46.1-67.2,11.7-136,17.9-204.3,13.5-61.4-4-124.5-16.9-177.6-49.3-24.6-15-46.7-34.3-64-57.4-9.3-12.3-17.2-25.6-23.8-39.6s-8.4-15.9-9-24.5c-3.4-50.6-6.9-101.3-10.3-151.9-.3-4.6-.6-9.3-.9-13.9s-5.4-6.8-8.5-3.5-3.9,3.1-4.6,4.6c-1.3,3,1.6-1.2,2.2.4,0-.1-.5-.1-.6-.2-.7-.8-3-1.3-4.1-1.7-5.3-2.4-10.6-4.9-15.8-7.4-7.9-3.7-15.8-7.5-23.6-11.4l2.3,3c-4.5-13.7-11.8-26.1-15.3-40.2s-4.1-27-2.9-40.7c2.5-27.2,11.2-53.7,19.8-79.5,1.2-3.6-2.6-7.2-6.2-6.2l-13.8,4.1,6.2,3.5h0c-.4,1.6-.9,3.2-1.3,4.8-1.3,1.4-.1.1.7-.2,1.2-.6,2.4-1.2,3.6-1.8,3.2-1.6,6.5-3.1,9.7-4.7s10.7-3.8,14.1-7.3,1.9-3.2,1.3-4.9c-1-2.9-4.8-4.9-7.8-3.8s-3.7,2.5-3.7,4.8c0,4.1,4.7,7.6,8.6,6.6s3.4-2.6,3.7-4.8c.6-5.1-7-9.6-10.4-12.1s-4.5-3.6-6.9-5-.7-.8-1.2-1l-.2-.2c-1.8-2-2.9.2-3.3,6.6,1.3.8,6.1-.3,7.7-.3,12.5-.4,25-.2,37.5.6s5.1.7,7.3,0c3.9-1.1,5.3-5.8,2.4-8.8s-3.8-2.3-5.7-3.1c-4.1-1.9-8.3-3.9-12.4-5.9-18.4-9.3-35.9-20.4-52.8-32.3l2.5,4.3c.6-13.7,1.5-27.3,1.8-41,.3-12.5,2-24.6,7.9-35.9s7.6-11.8,13.6-15.3,17.6-6.1,26.3-8,4.3-9.9-1.3-9.8-12.2.2-18.3.4l5,5c-.7-8.5,2.1-15.8,7.2-22.5l-5.6,2.3,1.4.4c2.4.6,5.8-.8,6.2-3.5,9.5-66.2,29.5-136.9,80.3-183.6,4.7-4.4-2.3-11.4-7.1-7.1-52,47.8-73.1,120.1-82.9,188l6.2-3.5-1.4-.4c-2.3-.6-4.3.5-5.6,2.3-6,8-9.5,17.5-8.6,27.6s2.1,5.1,5,5c6.1-.1,12.2-.2,18.3-.4l-1.3-9.8c-16,3.5-31.1,7.1-41.3,20.8s-12.7,26.1-13.7,40.2c-1.1,15.7-2,32-1.9,47.7s5.5,7.6,9.5,10.4c7.2,4.9,14.6,9.7,22.1,14.2,9.7,5.9,19.7,11.4,30,16.3s5.4,2.5,8,3.7,1.4.9,2,1,.4.3.5.3c-1.5,0,.7-9.5,2.1-8.8-1.2-.6-4.3-.2-5.6-.3-3.6-.2-7.3-.4-10.9-.6-6.5-.2-13-.3-19.5-.2s-8.7.2-13,.4-5.1.2-6.8,2.4c-3.5,4.7,1.7,8.8,5,11.3s4.9,3.5,7.4,5.4,1.9,1.4,2.8,2.2,1.5,2.3,1.7.6l3.7-4.8c2.5-.6,4,.4,4,3l-3.7,4.8c-2.2-.2-2.5-.1-1,.3l-3.5-3.5h0c.4-1.6.9-3.2,1.3-4.8,1.3-1.4,0-.1-.7.2-1.2.6-2.4,1.2-3.6,1.8-3.2,1.6-6.5,3.1-9.7,4.7s-10.7,3.8-14,7.3-1.9,3.2-1.3,4.9h0c.9,2.5,3.4,4.4,6.2,3.5,4.6-1.4,9.2-2.8,13.8-4.1l-6.2-6.2c-13,39.4-27,81.9-17.4,123.6,2.5,10.8,6.7,20.9,11.3,30.9,2.4,5.3,3.2,12.3,8.6,15.1,9.5,4.9,19.2,9.3,28.9,13.8,4.7,2.2,9.4,4.6,14.2,6.4s9.7-2.8,13.7-7l-8.5-3.5c3.2,47,6.4,94,9.6,141.1l1.8,26.1c.7,9.9,6.3,19.8,10.5,28.6,13,27.2,31.2,51.8,53.6,72,45.7,41.3,105.5,62.7,165.5,72.5,67.3,11,136.4,9,204,.8,65.9-8,131.2-21.9,195-40.5s53.6-16.6,79.9-26.4c22.5-8.4,45-17.1,65.7-29.5,31-18.6,61.3-39.2,89.8-61.4,40.8-31.8,66.4-80,83.6-127.8,9.4-26.1,16.9-53.1,19.1-80.8,2.3-29.7-.6-59.6-4.3-89-3.7-29.2-7.7-58.3-9.8-87.6s-2.6-52.3-2.1-78.4c1.5-76.8,13.9-154.3,43.2-225.6,8.7-21.1,19-41.6,31.1-61s8.1-12.5,12.5-18.4,4.6-6.1,8-10.1,2-2.4,3.1-3.5c3.2-3.3.7-8.2-3.5-8.5-33.6-3.1-67.7,2.3-100.6,8.7-16.6,3.2-33,7-49.5,10.7s-25.4,7.5-37.5,4.3c-4.8-1.3-9-5.2-14.1-5.5-8-.5-15.2,6.1-20.9,10.8-11.5,9.4-23.2,18.5-34.9,27.7s-17.1,13.6-25.5,20.7c-3.6,3.1-11.9,8.3-12,13.9s9.9,6.4,10,0h0Z"/>
      </g>
      <g>
        <path class="cls-16" d="M2543.8,1153.3"/>
        <path d="M2543.8,1158.3c6.4,0,6.4-10,0-10s-6.4,10,0,10h0Z"/>
      </g>
      <path class="cls-1" d="M1539.6,1173.5c34.9,9.3,70.3,8.1,106,7.1,19.7-.6,39.4-1.1,59.1-1.7,14.2-.4,28.6-1.4,42.4-5,15.7-4.1,30-11.8,39.6-25.1s.5-8.3-2.7-10.3-7.9-.6-10.3,2.7c-14.9,20.5-46.1,22-69,22.6-35.6,1.1-71.4,3.3-107,2.5-18.4-.4-36.4-2.6-54.2-7.3-9.3-2.5-13.3,12-4,14.5h0Z"/>
      <polygon class="cls-16" points="2334.9 849.3 2276.4 697.1 2171.8 665 1863 726.5 1659.7 756.1 1668.7 795 1690.1 858.3 1980.4 984.6 2082.7 984.6 2163.7 898.3 2334.9 849.3"/>
      <g>
        <path class="cls-13" d="M2226.7,697.5c-8.5-104.7-26.2-157.1,44.6-226.9,71.2-53.3,139.2-96.6,223.5-123.9-222.2-24.7-467.8,80.1-619.4,247l-60.7,144.7"/>
        <path d="M2231.7,697.5c-2.5-30.8-6.8-61.6-8-92.5-1-24.5.6-49,9.6-72,4.7-12,11.5-23.2,19.2-33.6s9.7-12,14.9-17.6,13.3-12,20.7-17.4c30.1-22,61-43.1,93.4-61.6s74.8-38.3,114.7-51.3,4.2-9.2-1.3-9.8c-67.8-7.4-136.6-2.9-203.3,10.9-68.4,14.1-134.7,37.9-196.9,69.5-62,31.5-120.1,70.9-171.9,117.4-12.9,11.6-25.4,23.7-37.4,36.2s-12.6,11.5-15.8,19.2c-5.7,13.6-11.4,27.1-17.1,40.7-13.9,33.2-27.8,66.3-41.7,99.5l-.8,2c-2.5,5.9,7.2,8.5,9.6,2.7,12-28.5,23.9-57.1,35.9-85.6s13.8-32.9,20.7-49.3,2.2-6.9,4.1-9.7,0,.4,0,.4c-1.1,1.2,1.1-.8,1.4-1.1.7-.7,1.4-1.5,2.1-2.2,2.9-3.2,5.9-6.3,8.9-9.4,6-6.2,12.1-12.4,18.3-18.4,49.3-47.6,105.3-88.2,165.3-121.2s125.8-59,193.1-75.4c65.6-15.9,133.5-22.9,200.8-18.3s16.5,1.3,24.8,2.2l-1.3-9.8c-73.4,23.9-139.7,62.7-202,107.7-7.7,5.6-15.9,11-23.2,17.1s-11.5,11.6-16.6,17.7c-9.1,10.9-17.3,22.6-23.5,35.4-11,22.8-14.9,47.6-14.8,72.7s5.5,70.1,8.3,105c.5,6.4,10.5,6.4,10,0h0Z"/>
      </g>
      <g>
        <path class="cls-16" d="M1520.1,1154.4c.9.2,1.8.7,2.7,1,3.7,1.3,7.5,2.5,11.3,3.5,31.7,8.6,65.6,7.8,98.6,6.8,24.3-.7,48.6-1.4,72.9-2.1,26.5-.8,59.2-4.5,74.5-26.3l34.7-43.8c-22.4,0-41.4-1.9-51.7-2.4q-74.8-3.3-147.9-2.4c-31.4.3-75.4-4.7-99.2-3.2,0,0-33.7,59.6,4.1,68.9Z"/>
        <path d="M1518.8,1159.2c27.9,9.4,56.4,12.2,85.8,12,31.1-.1,62.2-1.6,93.2-2.5,22.9-.7,47.3-1.3,68-12.5s19.7-17.7,28.1-28.3c8.2-10.3,16.4-20.7,24.6-31,2.6-3.2,1.1-8.5-3.5-8.5-16.8,0-33.5-1.4-50.3-2.3s-32.4-1.5-48.6-2.1c-23.6-.9-47.2-.9-70.8-.7-17.3.2-34.5.6-51.8-.1s-34.4-2-51.6-2.7-14.3-.5-21.4-.3-7.2,0-9.3,3.7c-3.5,5.9-6.1,12.6-8.4,19-7.4,20.4-10.5,49.4,16,56.3s8.9-8,2.7-9.6c-26.7-7-9.9-45.8-1.1-61.5l-4.3,2.5c20.1-1.2,40.4.8,60.5,1.9s44.8,1.2,67.2,1c32.1-.3,64.2.3,96.3,1.7s49.9,3.3,74.8,3.4l-3.5-8.5c-6.8,8.6-13.6,17.2-20.4,25.8s-13.7,19.7-22.4,26.8c-16.6,13.6-40.9,15.3-61.5,16-30.4,1-60.8,2-91.2,2.6-16.3.3-32.6.2-48.8-1.4-15.7-1.6-30.7-5.2-45.6-10.2-6.1-2-8.7,7.6-2.7,9.6Z"/>
      </g>
      <path d="M2304.8,1050.7c-27.6-18.3-55.3-36.7-84.9-51.7-30.3-15.4-61.9-25.8-95.3-32-66.7-12.3-136.2-19.6-202.6-2.3-31.6,8.2-61.5,22.8-83.8,47l6.1-.8c-72.6-38.9-160.8-51.9-242-41.3-11.8,1.5-23.5,3.5-35,6s-21.9,4.4-30.9,10.9-.2,12.4,5,8.6c7.9-5.6,17.5-7.5,26.8-9.5s19.8-4,29.7-5.4c20.6-3,41.5-4.3,62.3-4,40.9.4,81.6,6.9,120.5,19.3s39.8,14.1,58.4,24.1,4.5.9,6.1-.8c19.3-21,44.6-34.3,71.8-42.3,30.2-8.9,62-12.6,93.4-12.2,34.6.4,69.1,5.1,103.2,10.9,32.4,5.5,63.6,14.2,93.3,28.5s62.8,35.7,92.8,55.6,10.4-5.1,5-8.6h0Z"/>
      <path d="M2243.5,962.2c-55.7-18.9-114.2-29.4-173.1-31.2s-59.7.5-89.3,4.1-55.8,8.9-81.5,20.8c-25.5,11.8-48.3,30.4-61.8,55.3s5.6,10.7,8.6,5c25.9-47.7,81.6-64.3,131.9-70.8,56.2-7.3,113.5-6.2,169.4,3,31.6,5.2,62.7,13.1,93,23.3,6.1,2.1,8.7-7.6,2.7-9.6h0Z"/>
      <path d="M1877.6,970.1c-45.1-22.4-94.1-34.8-144-40.2-23.1-2.5-46.4-3.6-69.6-3.4s-44.4.2-65.9,3.8c-25.1,4.2-54.7,21-52,50.6s10.6,6.4,10,0c-2.3-25.9,25.1-38,46.4-41.2s41.8-3.1,62.4-3.2c44.7-.2,89.6,3.9,133,14.9s51,15.6,74.8,27.4,10.8-5.8,5-8.6h0Z"/>
      <path d="M1738.8,1181.3c-68.8,17.8-140.8,22.1-211.2,12.4-6.3-.9-9,8.8-2.7,9.6,72.2,10,145.9,5.8,216.5-12.4,6.2-1.6,3.6-11.3-2.7-9.6h0Z"/>
      <path class="cls-1" d="M1626.9,1179.2c1.5,7.4-2,12.1-3.6,19.1s-.3,5.5,1.1,7.8,3.2,3.9,1.3,7.1-3.6,4.1-3.5,7.5,1.4,5.1,3.7,6.5,5.3,1.6,5.4,1.9c.7,1.4-3.4,5.6-4,6.7-4,7.1-4.6,16.7-5.4,24.6s-1.9,17.1.4,24.8c1.9,6.1,11.5,3.5,9.6-2.7-2.2-7.3-.7-16.6.1-24,.5-4.6,1.2-9.3,2.4-13.7s3.5-6.2,5.3-9.8c2.5-5,1.8-11.5-3.5-14.5s-2.5-1.2-3.4-1.3c-1.5-.7-1.6-.4-.1,1l.9-1.1c2.1-1.4,3-5.7,3.1-8s-.6-5.9-2.2-8.4-1.4-1.3-1.1-3.5,1.3-3.2,1.8-4.6c2.3-6.2,2.6-11.9,1.3-18.3s-10.9-3.6-9.6,2.7h0Z"/>
      <g>
        <path class="cls-16" d="M2032.8,1514.3c-195.4,0-154.5,21.2-330.9,25.7-16.8.4-34.9.8-54.7,1.2-29.8.5-59.4-5.1-88.6-10.8-32-6.3-63.1-16.1-94.2-25.9-55.8-17.6-112.7-35.6-160.6-69.3l13.1-80.1c55.3,3,111-2.8,164.5-17.1,76.4-20.5,147.6-58.4,210.1-106.8,17.9-13.9,35.2-28.7,49.5-46.2,22.8-27.9,34.5-35.1,74-91.5"/>
        <path d="M2032.8,1509.3c-45.4,0-91.1.7-136.2,6s-52.8,8.3-79.2,11.8c-43.7,5.8-87.8,7.4-131.8,8.4s-32.1,1.1-48.1.7c-16.4-.4-32.7-2.5-48.9-5.3-32.4-5.5-64.1-13.1-95.5-22.7-57.4-17.4-116.7-34.4-168.5-65.4-6.3-3.8-12.4-7.7-18.4-11.9l2.3,5.6c4.4-26.7,8.7-53.4,13.1-80.1l-4.8,3.7c88.5,4.7,176.7-13.3,256.9-50.8,38-17.7,74-39.5,107.7-64.4,17-12.5,33.7-25.7,48.7-40.6,10.3-10.3,19.2-21.9,28.9-32.7,21.6-24.2,41.7-49.1,60.3-75.7,3.7-5.3-5-10.3-8.6-5-16.7,23.8-34.4,46.7-53.9,68.3s-15.2,17.5-22.8,26.3c-13.6,15.8-29.6,29.4-46.1,42.1-65.3,50.5-140.3,89.4-220.8,108.9-49.1,11.9-99.8,16.3-150.2,13.6-2-.1-4.5,1.6-4.8,3.7-4.4,26.7-8.7,53.4-13.1,80.1s.3,4.3,2.3,5.6c49.2,34.3,107,52.6,163.6,70.4,62.6,19.7,126.9,37.4,193.1,36.1,48.8-.9,97.7-1.8,146.3-7.3s54.3-8.4,81.5-12c40.6-5.5,81.7-6.8,122.6-7.2,8.2,0,16.3-.1,24.5-.1s6.4-10,0-10h0Z"/>
      </g>
      <path class="cls-7" d="M1951.8,668.9s-55.3-141.6-113.5-149.3c-58.2-7.8-105.7,194.9-105.7,194.9"/>
      <path class="cls-9" d="M1917.9,668s-34.8-78.3-71.4-103.5c-5.8-4-13.5-3.5-18.8,1.2-12.8,11.6-36.4,43.7-58.2,131.4"/>
      <path class="cls-6" d="M2251.5,692.2c-67.9,10.7-98.6,19.3-159,42.7-40.2,15.5-64.6,31.8-99.3,57.5-42,31.1-81.7,68.3-101.9,116.5-2.8-18.7-13.9-35.1-26.2-49.4-54.2-62.9-139.7-97.2-222.3-89.3,0,0-.3,0-.8,0,0,0,114-109.1,308-105.3,0,0,190.5-1,321.2,32"/>
      <path d="M1886.8,902.8c-3.8,12.6-7.7,25.1-11.5,37.7l9.8,1.3c0-.7-.1-1.4-.2-2.1-.6-6.4-10.6-6.4-10,0,0,.7.1,1.4.2,2.1.5,5.5,8.1,7,9.8,1.3,3.8-12.6,7.7-25.1,11.5-37.7,1.9-6.2-7.8-8.8-9.6-2.7h0Z"/>
      <path class="cls-11" d="M2251.9,691.7c79.6-81.9,146.1-108.9,172.7-117,7.9-2.4,16.4,1.2,20.2,8.6,46,91.1-26.1,408.1-26.1,408.1"/>
      <path class="cls-8" d="M2281.5,718.4c69.8-79.5,113.6-94.9,130.8-99.1,4.5-1.1,9.3,1.8,9.9,6.4,15.4,117-20.9,253.2-20.9,253.2l-8.8-72.2h-24.6l-7.2-54.2-19.1,17.9-23-31.9-37.1-20Z"/>
      <path class="cls-9" d="M2390.1,1219.7s107.6,98.9-46.5,195.9c-154.2,97-178.4-52.4-161.9-112.5,16.5-60.1,124.1-159,208.5-83.4Z"/>
      <path class="cls-15" d="M2486.1,1933.4s-32.7,95.1,3.9,484.8,26.7-137.3,26.7-137.3c0,0-34.9-207.3-30.5-347.6Z"/>
      <path class="cls-15" d="M1668.7,1727.8s-35.9,76.6-35.5,276.2c0,0-1.3,148.5-49.8,293-27.2,81,61.8,160.4,61.8,160.4l7.2-160.5v-58.5l5.2-66,7.3-67.8,4-61.1-6.6-87.6-2.7-58.8.5-80.3,8.7-89Z"/>
      <path class="cls-15" d="M2543.8,1153.3s-19.9,269.1-204.1,377.7c-138.7,81.7-280.2,124.1-543.9,128l69.6,10.7,149.4-2.9,126.2-21.1,161.3-47.4,92.3-47,78.1-58.6,52.6-81.1,24.6-71.9,6-75.8-12-110.5Z"/>
      <circle cx="1285.2" cy="1382.1" r="62.1"/>
      <path class="cls-1" d="M1849.2,1163.9c10.3,9.5,24,12.2,37.3,15.4,14.3,3.5,28.8,5.9,43.4,7.5,29.3,3.3,58.9,3.2,88.3,1,29.7-2.2,59.2-6.5,88.4-11.7s57.7-10.2,86.1-17.2,31.8-8.5,47.3-14,25.8-10,34.9-20.4-4.2-17.9-10.6-10.6-16.9,12.4-26.5,15.9-26.7,8.8-40.3,12.4c-27,7.1-54.5,12.2-81.9,17.1-55.8,10-112.4,18.1-169.3,14-15.8-1.1-31.5-3.2-46.9-6.5-7.8-1.6-15.5-3.6-23.1-5.8-6.3-1.8-11.6-3.3-16.5-7.8-7.1-6.5-17.7,4-10.6,10.6h0Z"/>
      <path d="M1845.9,1149.9c.7,25.5,16.9,48.2,40.6,57.4,13.4,5.2,28.2,6.8,42.4,8.6,15.5,1.9,31.1,2.9,46.7,3.2,61.4,1,122.6-9.9,181.7-25.8,34.2-9.2,68-20.1,101.5-31.6,6-2.1,3.4-11.7-2.7-9.6-109.6,37.8-227.8,71.2-344.5,51.4-14.6-2.5-29.1-6.3-39.9-17-9.7-9.6-15.5-22.7-15.9-36.4s-10.2-6.4-10,0h0Z"/>
      <g>
        <path class="cls-16" d="M2276.4,1111.5c-17.9-14.7-53-16.1-76.1-18.1-52-4.4-59.4-.8-131.5-3.5-33.2-1.3-83.8-.6-117-1.4-33.8-.8-105,1.8-105.8,34.1-.3,11.5-3.2,19.9,5.2,27.7,4,3.7,9.2,5.6,14.3,7.3,77.2,25.2,161.1,17.3,241,3,49-8.8,99-15.7,145.6-33.2,5.6-2.1,18.5-9.6,23.9-16.1"/>
        <path d="M2279.9,1108c-22.4-17.8-55.2-17.5-82.4-19.8-21.9-1.8-43.8-2.2-65.8-2.1-30.2,0-60.3-1.4-90.5-1.8-31.6-.4-63.2-.5-94.8-.8s-48.2.7-71,7.3-20,6.9-27,14.4-7.8,18.3-8.1,29c-.2,7,1.4,13.5,6.3,18.8,6,6.4,14.8,8.8,22.9,11.3,18,5.5,36.4,9.2,55,11.6,38.8,5,78.1,3.8,116.9-.5,38.7-4.3,77.1-11.5,115.3-18.4,19.3-3.5,38.6-7.3,57.6-12.3s34.1-8.5,48.8-17c5.9-3.4,11.9-7.5,16.5-12.7s-2.8-11.9-7.1-7.1c-9.7,11-24,16-37.5,20.3-17.5,5.6-35.3,10-53.3,13.8-36.2,7.5-72.8,13.9-109.4,19.3-36.5,5.5-73.4,8.8-110.3,7.5s-36.9-2.4-55.1-5.8c-8.7-1.6-17.4-3.6-25.9-5.9s-17.9-4-24.7-9-6.2-11-5.7-18c.3-4.6,0-9.6,2.1-13.8,3.7-7.4,12.5-11.4,19.9-14,21.2-7.5,44.7-8.6,66.9-8.7s56.6.5,84.9.7c30.5.2,61,1.7,91.6,1.9s40.5-.3,60.7.8,24.8,1.7,37.2,2.7,28.3,2.7,41.8,6.9,12.2,4.6,17.2,8.6,12.1-3.1,7.1-7.1h0Z"/>
      </g>
      <path class="cls-1" d="M2121.1,1163.4c-11.1,8.3-10.4,24.1-5.5,35.7s8.6,13.8,11.1,21.4-1.1,6.4-3.8,9.8-3.8,6.4-4.5,10.1c-3.1,16.4,7.3,30.7,6.9,46.9s-7.8,33.6-5.2,51.3c2.6,17.9,13.1,36,8.6,54.4-1.6,6.2,8.1,8.9,9.6,2.7,3.8-15.1-1-29.7-5.1-44.1s-4.2-16-3.9-24.4,2.6-16.9,4.2-25.3,2.4-15.9,1.2-23.9c-1.2-7.9-4.4-15.3-6.1-23.1s-1.1-14.6,4.2-20.7,5.5-12.1,2.4-19.1c-3.5-7.9-9.1-14.8-11.7-23.1s-2.9-15.8,2.6-19.9.1-12.5-5-8.6h0Z"/>
      <path class="cls-1" d="M2048.8,1186.2c6.2,4,9.7,11.7,8.2,19s-8,13.5-7.2,22,2.7,7.6,2.9,11.6c.3,4.4-1.9,8.7-2.7,12.9-1.2,7,.4,13.6,6.3,17.9s10.2-4.9,5-8.6-1.7-6.7-1.1-9.4c1-4.2,2.5-8.3,2.4-12.7,0-4.3-2.5-7.9-3-12-.5-4.2,2.2-7.9,4-11.5,6.7-13.5,3.1-29.4-9.9-37.7s-10.5,5.2-5,8.6h0Z"/>
      <circle class="cls-5" cx="1256.1" cy="1369.6" r="11.8"/>
      <circle class="cls-5" cx="1276" cy="1351.5" r="6.3"/>
    </g>
  </g>
</svg>