<svg xmlns="http://www.w3.org/2000/svg" width="436.388" height="40.342" viewBox="0 0 436.388 40.342">
  <path id="Path_25" data-name="Path 25" d="M-204.957,0l-13.487-39.287H-208l5.46,17.177q1.293,4.248,2.491,8.95t2.422,9.886h-2.038q1.183-5.217,2.318-9.9t2.381-8.934l5.249-17.177h10.336L-192.509,0Zm36.87-39.287V0h-9.3V-39.287ZM-145.147.527a19.134,19.134,0,0,1-9.5-2.349,16.777,16.777,0,0,1-6.637-6.851,22.735,22.735,0,0,1-2.435-10.945,22.67,22.67,0,0,1,2.465-11,16.891,16.891,0,0,1,6.677-6.854,19.072,19.072,0,0,1,9.429-2.342,21.124,21.124,0,0,1,6.491.96,16.24,16.24,0,0,1,5.28,2.805,14.653,14.653,0,0,1,3.73,4.521,16.991,16.991,0,0,1,1.848,6.11h-9.418a7.743,7.743,0,0,0-.856-2.6,6.707,6.707,0,0,0-1.627-1.963,7.009,7.009,0,0,0-2.308-1.241,9.353,9.353,0,0,0-2.9-.427,8.635,8.635,0,0,0-4.968,1.422,8.975,8.975,0,0,0-3.216,4.108,16.873,16.873,0,0,0-1.12,6.5,16.826,16.826,0,0,0,1.143,6.6,8.707,8.707,0,0,0,3.219,4.025,8.8,8.8,0,0,0,4.9,1.349,9.192,9.192,0,0,0,2.89-.43,7.352,7.352,0,0,0,2.318-1.241,6.78,6.78,0,0,0,1.667-1.963,7.823,7.823,0,0,0,.9-2.594h9.418a15.114,15.114,0,0,1-1.511,5.178,16.22,16.22,0,0,1-3.45,4.642,16.52,16.52,0,0,1-5.31,3.332A19.057,19.057,0,0,1-145.147.527Zm20.294-32.219v-7.6H-91.8v7.6h-11.873V0h-9.3V-31.691ZM-72.135.513a19.869,19.869,0,0,1-8.689-1.789,13.723,13.723,0,0,1-5.8-5.044,13.914,13.914,0,0,1-2.069-7.629V-39.287h9.3v24.561a7.241,7.241,0,0,0,.922,3.68A6.641,6.641,0,0,0-75.919-8.53a7.6,7.6,0,0,0,3.784.915,7.677,7.677,0,0,0,3.811-.915,6.6,6.6,0,0,0,2.554-2.515,7.261,7.261,0,0,0,.919-3.68V-39.287h9.3v25.338A13.864,13.864,0,0,1-57.632-6.32a13.785,13.785,0,0,1-5.81,5.044A19.894,19.894,0,0,1-72.135.513Zm36.657.013A22.628,22.628,0,0,1-44.031-.956,12.181,12.181,0,0,1-49.7-5.434a13.585,13.585,0,0,1-2.1-7.535h8.929a6.064,6.064,0,0,0,1.052,3.181,5.61,5.61,0,0,0,2.518,1.935A9.8,9.8,0,0,0-35.6-7.2a9.379,9.379,0,0,0,3.333-.529,4.826,4.826,0,0,0,2.139-1.48,3.445,3.445,0,0,0,.748-2.192,2.856,2.856,0,0,0-.687-1.933,5.691,5.691,0,0,0-2.093-1.4,20.367,20.367,0,0,0-3.575-1.084l-4.145-.964a17.49,17.49,0,0,1-7.994-3.8,9.083,9.083,0,0,1-2.907-7.079,10.6,10.6,0,0,1,1.973-6.375,12.967,12.967,0,0,1,5.423-4.254,19.42,19.42,0,0,1,7.907-1.521,18.771,18.771,0,0,1,7.907,1.541,12.224,12.224,0,0,1,5.2,4.3,11.507,11.507,0,0,1,1.893,6.4h-8.952a4.477,4.477,0,0,0-1.73-3.341A7.011,7.011,0,0,0-35.514-32.1a8.629,8.629,0,0,0-3.11.49,4.115,4.115,0,0,0-1.894,1.356,3.251,3.251,0,0,0-.634,1.97,3,3,0,0,0,.718,2.027,5.437,5.437,0,0,0,2.03,1.39,18.022,18.022,0,0,0,3.057.954l3.388.78a24.351,24.351,0,0,1,5.077,1.661A14.386,14.386,0,0,1-23.1-18.985a9.682,9.682,0,0,1,2.35,3.342,10.849,10.849,0,0,1,.8,4.257,10.935,10.935,0,0,1-1.855,6.392A11.646,11.646,0,0,1-27.132-.9,21.983,21.983,0,0,1-35.479.525Zm49.371,0a19.134,19.134,0,0,1-9.5-2.349A16.777,16.777,0,0,1-2.244-8.672,22.735,22.735,0,0,1-4.679-19.617a22.67,22.67,0,0,1,2.465-11,16.891,16.891,0,0,1,6.677-6.854,19.072,19.072,0,0,1,9.429-2.342,21.124,21.124,0,0,1,6.491.96,16.24,16.24,0,0,1,5.28,2.805,14.653,14.653,0,0,1,3.73,4.521,16.991,16.991,0,0,1,1.848,6.11H21.823a7.743,7.743,0,0,0-.856-2.6,6.707,6.707,0,0,0-1.627-1.963,7.009,7.009,0,0,0-2.308-1.241,9.353,9.353,0,0,0-2.9-.427,8.635,8.635,0,0,0-4.968,1.422,8.975,8.975,0,0,0-3.216,4.108,16.873,16.873,0,0,0-1.12,6.5,16.826,16.826,0,0,0,1.143,6.6A8.707,8.707,0,0,0,9.191-8.989a8.8,8.8,0,0,0,4.9,1.349,9.192,9.192,0,0,0,2.89-.43A7.352,7.352,0,0,0,19.3-9.312a6.78,6.78,0,0,0,1.667-1.963,7.823,7.823,0,0,0,.9-2.594h9.418a15.114,15.114,0,0,1-1.511,5.178,16.22,16.22,0,0,1-3.45,4.642,16.52,16.52,0,0,1-5.31,3.332A19.057,19.057,0,0,1,13.892.527ZM32.1,0,45.2-39.287H57.659L71.166,0H60.722L55.256-17.177q-1.306-4.286-2.531-9.119T50.269-36.339h2.071q-1.183,5.223-2.295,10.069t-2.358,9.094L42.438,0ZM41-8.364v-7.1H62.271v7.1ZM73.743,0V-39.287H89.835a15.977,15.977,0,0,1,7.634,1.714,12.124,12.124,0,0,1,4.944,4.776,14.115,14.115,0,0,1,1.738,7.09,13.726,13.726,0,0,1-1.768,7.066,12.07,12.07,0,0,1-5.041,4.7,16.868,16.868,0,0,1-7.782,1.677h-9.98v-7.349h8.279a7.9,7.9,0,0,0,3.667-.767,5.176,5.176,0,0,0,2.224-2.135,6.548,6.548,0,0,0,.747-3.187,6.541,6.541,0,0,0-.747-3.211A5.005,5.005,0,0,0,91.525-31a8.238,8.238,0,0,0-3.677-.734H83.041V0Zm43.819-39.287V0h-9.3V-39.287Zm3.936,7.6v-7.6h33.056v7.6H142.681V0h-9.3V-31.691ZM150.576,0l13.1-39.287h12.454L189.639,0H179.2l-5.466-17.177q-1.306-4.286-2.531-9.119t-2.455-10.043h2.071q-1.183,5.223-2.295,10.069t-2.358,9.094L160.912,0Zm8.9-8.364v-7.1h21.273v7.1ZM192.216,0V-39.287h9.3V-7.6h16.43V0Z" transform="translate(218.444 39.814)"/>
</svg>
